M48
; DRILL file {KiCad (5.1.0)-1} date 19/04/2019 10:40:10
; FORMAT={-:-/ absolute / metric / decimal}
; #@! TF.CreationDate,2019-04-19T10:40:10+10:00
; #@! TF.GenerationSoftware,Kicad,Pcbnew,(5.1.0)-1
FMAT,2
METRIC
T1C0.300
T2C0.400
T3C0.700
T4C0.762
T5C0.800
T6C0.900
T7C1.000
T8C1.100
T9C2.600
T10C0.600
%
G90
G05
T1
X147.45Y-134.0
X147.5Y-82.45
X147.7Y-116.25
X147.75Y-118.2
X147.75Y-64.7
X147.8Y-66.65
T2
X168.0Y-138.75
X168.05Y-87.2
T3
X137.65Y-81.0
X112.65Y-81.6
X112.6Y-133.15
X137.6Y-132.55
T4
X139.55Y-88.1
X139.55Y-93.1
X142.05Y-90.6
X144.55Y-90.6
X139.5Y-139.65
X139.5Y-144.65
X142.0Y-142.15
X144.5Y-142.15
T5
X155.65Y-55.8
X155.65Y-58.34
X155.65Y-60.88
X155.65Y-63.42
X155.65Y-65.96
X155.65Y-68.5
X155.65Y-71.04
X155.65Y-73.58
X155.65Y-76.12
X155.65Y-78.66
X155.65Y-81.2
X155.65Y-83.74
X155.65Y-86.28
X155.65Y-88.82
X155.65Y-91.36
X170.89Y-55.8
X170.89Y-58.34
X170.89Y-60.88
X170.89Y-63.42
X170.89Y-65.96
X170.89Y-68.5
X170.89Y-71.04
X170.89Y-73.58
X170.89Y-76.12
X170.89Y-78.66
X170.89Y-81.2
X170.89Y-83.74
X170.89Y-86.28
X170.89Y-88.82
X170.89Y-91.36
X155.6Y-107.35
X155.6Y-109.89
X155.6Y-112.43
X155.6Y-114.97
X155.6Y-117.51
X155.6Y-120.05
X155.6Y-122.59
X155.6Y-125.13
X155.6Y-127.67
X155.6Y-130.21
X155.6Y-132.75
X155.6Y-135.29
X155.6Y-137.83
X155.6Y-140.37
X155.6Y-142.91
X170.84Y-107.35
X170.84Y-109.89
X170.84Y-112.43
X170.84Y-114.97
X170.84Y-117.51
X170.84Y-120.05
X170.84Y-122.59
X170.84Y-125.13
X170.84Y-127.67
X170.84Y-130.21
X170.84Y-132.75
X170.84Y-135.29
X170.84Y-137.83
X170.84Y-140.37
X170.84Y-142.91
T6
X190.81Y-129.85
X193.35Y-129.85
X177.81Y-142.85
X180.35Y-142.85
X190.86Y-84.8
X193.4Y-84.8
X190.81Y-142.85
X193.35Y-142.85
X184.36Y-91.3
X186.9Y-91.3
X177.86Y-78.3
X180.4Y-78.3
X184.35Y-136.35
X186.89Y-136.35
X177.9Y-84.8
X180.44Y-84.8
X184.35Y-129.85
X186.89Y-129.85
X184.4Y-78.3
X186.94Y-78.3
X190.86Y-91.3
X193.4Y-91.3
X177.81Y-129.85
X180.35Y-129.85
X184.4Y-84.8
X186.94Y-84.8
X190.81Y-136.35
X193.35Y-136.35
X141.4Y-70.05
X141.4Y-71.32
X141.4Y-72.59
X141.4Y-73.86
X184.31Y-142.85
X186.85Y-142.85
X177.86Y-91.3
X180.4Y-91.3
X141.35Y-121.6
X141.35Y-122.87
X141.35Y-124.14
X141.35Y-125.41
X190.86Y-78.3
X193.4Y-78.3
X177.85Y-136.35
X180.39Y-136.35
T7
X109.64Y-67.79
X112.18Y-67.79
X114.72Y-67.79
X117.26Y-67.79
X119.8Y-67.79
X122.34Y-67.79
X124.88Y-67.79
X127.42Y-67.79
X129.96Y-67.79
X132.5Y-67.79
X109.59Y-121.88
X112.13Y-121.88
X114.67Y-121.88
X117.21Y-121.88
X119.75Y-121.88
X122.29Y-121.88
X124.83Y-121.88
X127.37Y-121.88
X129.91Y-121.88
X132.45Y-121.88
X109.64Y-65.25
X112.18Y-65.25
X114.72Y-65.25
X117.26Y-65.25
X119.8Y-65.25
X122.34Y-65.25
X124.88Y-65.25
X127.42Y-65.25
X129.96Y-65.25
X132.5Y-65.25
X121.56Y-105.85
X124.1Y-105.85
X126.64Y-105.85
X129.18Y-105.85
X131.72Y-105.85
X134.26Y-105.85
X136.8Y-105.85
X134.99Y-116.8
X134.99Y-119.34
X134.99Y-121.88
X134.99Y-124.42
X117.15Y-84.6
X117.15Y-89.6
X131.65Y-84.6
X131.65Y-87.1
X131.65Y-89.6
X104.56Y-65.285
X104.56Y-67.825
X104.56Y-70.365
X104.56Y-72.905
X109.59Y-119.34
X112.13Y-119.34
X114.67Y-119.34
X117.21Y-119.34
X119.75Y-119.34
X122.29Y-119.34
X124.83Y-119.34
X127.37Y-119.34
X129.91Y-119.34
X132.45Y-119.34
X176.89Y-53.8
X179.43Y-53.8
X181.97Y-53.8
X184.51Y-53.8
X187.05Y-53.8
X104.51Y-116.835
X104.51Y-119.375
X104.51Y-121.915
X104.51Y-124.455
X103.65Y-54.3
X106.19Y-54.3
X108.73Y-54.3
X111.27Y-54.3
X113.81Y-54.3
X116.35Y-54.3
X117.1Y-136.15
X117.1Y-141.15
X131.6Y-136.15
X131.6Y-138.65
X131.6Y-141.15
X135.04Y-65.25
X135.04Y-67.79
X135.04Y-70.33
X135.04Y-72.87
X109.64Y-70.33
X112.18Y-70.33
X114.72Y-70.33
X117.26Y-70.33
X119.8Y-70.33
X122.34Y-70.33
X124.88Y-70.33
X127.42Y-70.33
X129.96Y-70.33
X132.5Y-70.33
X107.05Y-116.835
X107.05Y-119.375
X107.05Y-121.915
X107.05Y-124.455
X103.6Y-105.85
X106.14Y-105.85
X108.68Y-105.85
X111.22Y-105.85
X113.76Y-105.85
X116.3Y-105.85
X109.64Y-72.87
X112.18Y-72.87
X114.72Y-72.87
X117.26Y-72.87
X119.8Y-72.87
X122.34Y-72.87
X124.88Y-72.87
X127.42Y-72.87
X129.96Y-72.87
X132.5Y-72.87
X109.59Y-124.42
X112.13Y-124.42
X114.67Y-124.42
X117.21Y-124.42
X119.75Y-124.42
X122.29Y-124.42
X124.83Y-124.42
X127.37Y-124.42
X129.91Y-124.42
X132.45Y-124.42
X176.84Y-105.35
X179.38Y-105.35
X181.92Y-105.35
X184.46Y-105.35
X187.0Y-105.35
X121.61Y-54.3
X124.15Y-54.3
X126.69Y-54.3
X129.23Y-54.3
X131.77Y-54.3
X134.31Y-54.3
X136.85Y-54.3
X109.59Y-116.8
X112.13Y-116.8
X114.67Y-116.8
X117.21Y-116.8
X119.75Y-116.8
X122.29Y-116.8
X124.83Y-116.8
X127.37Y-116.8
X129.91Y-116.8
X132.45Y-116.8
X192.58Y-104.08
X192.58Y-106.62
X195.12Y-104.08
X195.12Y-106.62
X107.1Y-65.285
X107.1Y-67.825
X107.1Y-70.365
X107.1Y-72.905
X192.63Y-52.53
X192.63Y-55.07
X195.17Y-52.53
X195.17Y-55.07
T8
X102.6Y-140.35
X102.6Y-144.85
X109.1Y-140.35
X109.1Y-144.85
X102.7Y-128.55
X102.7Y-133.05
X109.2Y-128.55
X109.2Y-133.05
X102.75Y-77.0
X102.75Y-81.5
X109.25Y-77.0
X109.25Y-81.5
X102.65Y-88.8
X102.65Y-93.3
X109.15Y-88.8
X109.15Y-93.3
T9
X124.15Y-81.5
X124.15Y-92.7
X124.1Y-133.05
X124.1Y-144.25
T10
X171.76Y-97.65
X173.253Y-97.65
X174.747Y-97.65
X176.24Y-97.65
X138.51Y-101.5
X140.003Y-101.5
X141.497Y-101.5
X142.99Y-101.5
X138.51Y-97.65
X140.003Y-97.65
X141.497Y-97.65
X142.99Y-97.65
X171.76Y-101.5
X173.253Y-101.5
X174.747Y-101.5
X176.24Y-101.5
T0
M30
