G04 #@! TF.GenerationSoftware,KiCad,Pcbnew,(5.1.0)-1*
G04 #@! TF.CreationDate,2019-04-19T10:40:07+10:00*
G04 #@! TF.ProjectId,output.uc101panel,6f757470-7574-42e7-9563-31303170616e,rev?*
G04 #@! TF.SameCoordinates,Original*
G04 #@! TF.FileFunction,Copper,L1,Top*
G04 #@! TF.FilePolarity,Positive*
%FSLAX46Y46*%
G04 Gerber Fmt 4.6, Leading zero omitted, Abs format (unit mm)*
G04 Created by KiCad (PCBNEW (5.1.0)-1) date 2019-04-19 10:40:07*
%MOMM*%
%LPD*%
G04 APERTURE LIST*
%ADD10C,0.200000*%
%ADD11R,1.600000X1.600000*%
%ADD12O,1.600000X1.600000*%
%ADD13O,1.700000X1.700000*%
%ADD14R,1.700000X1.700000*%
%ADD15C,1.000000*%
%ADD16C,1.500000*%
%ADD17C,0.100000*%
%ADD18C,1.150000*%
%ADD19C,1.524000*%
%ADD20C,2.000000*%
%ADD21C,3.200000*%
%ADD22R,2.000000X2.000000*%
%ADD23C,1.700000*%
%ADD24O,1.800000X1.070000*%
%ADD25R,1.800000X1.070000*%
%ADD26R,1.800000X1.800000*%
%ADD27C,1.800000*%
%ADD28C,0.600000*%
%ADD29C,0.800000*%
%ADD30C,0.300000*%
%ADD31C,0.400000*%
%ADD32C,0.250000*%
%ADD33C,0.500000*%
%ADD34C,0.700000*%
%ADD35C,0.600000*%
G04 APERTURE END LIST*
D10*
X179507142Y-116928571D02*
X179507142Y-118000000D01*
X179435714Y-118214285D01*
X179292857Y-118357142D01*
X179078571Y-118428571D01*
X178935714Y-118428571D01*
X180435714Y-118428571D02*
X180292857Y-118357142D01*
X180221428Y-118285714D01*
X180150000Y-118142857D01*
X180150000Y-117714285D01*
X180221428Y-117571428D01*
X180292857Y-117500000D01*
X180435714Y-117428571D01*
X180650000Y-117428571D01*
X180792857Y-117500000D01*
X180864285Y-117571428D01*
X180935714Y-117714285D01*
X180935714Y-118142857D01*
X180864285Y-118285714D01*
X180792857Y-118357142D01*
X180650000Y-118428571D01*
X180435714Y-118428571D01*
X181507142Y-118357142D02*
X181650000Y-118428571D01*
X181935714Y-118428571D01*
X182078571Y-118357142D01*
X182150000Y-118214285D01*
X182150000Y-118142857D01*
X182078571Y-118000000D01*
X181935714Y-117928571D01*
X181721428Y-117928571D01*
X181578571Y-117857142D01*
X181507142Y-117714285D01*
X181507142Y-117642857D01*
X181578571Y-117500000D01*
X181721428Y-117428571D01*
X181935714Y-117428571D01*
X182078571Y-117500000D01*
X182792857Y-118428571D02*
X182792857Y-116928571D01*
X183435714Y-118428571D02*
X183435714Y-117642857D01*
X183364285Y-117500000D01*
X183221428Y-117428571D01*
X183007142Y-117428571D01*
X182864285Y-117500000D01*
X182792857Y-117571428D01*
X185721428Y-116928571D02*
X185721428Y-118000000D01*
X185650000Y-118214285D01*
X185507142Y-118357142D01*
X185292857Y-118428571D01*
X185150000Y-118428571D01*
X186650000Y-118428571D02*
X186507142Y-118357142D01*
X186435714Y-118285714D01*
X186364285Y-118142857D01*
X186364285Y-117714285D01*
X186435714Y-117571428D01*
X186507142Y-117500000D01*
X186650000Y-117428571D01*
X186864285Y-117428571D01*
X187007142Y-117500000D01*
X187078571Y-117571428D01*
X187150000Y-117714285D01*
X187150000Y-118142857D01*
X187078571Y-118285714D01*
X187007142Y-118357142D01*
X186864285Y-118428571D01*
X186650000Y-118428571D01*
X187792857Y-118428571D02*
X187792857Y-116928571D01*
X188435714Y-118428571D02*
X188435714Y-117642857D01*
X188364285Y-117500000D01*
X188221428Y-117428571D01*
X188007142Y-117428571D01*
X187864285Y-117500000D01*
X187792857Y-117571428D01*
X189150000Y-117428571D02*
X189150000Y-118428571D01*
X189150000Y-117571428D02*
X189221428Y-117500000D01*
X189364285Y-117428571D01*
X189578571Y-117428571D01*
X189721428Y-117500000D01*
X189792857Y-117642857D01*
X189792857Y-118428571D01*
X190435714Y-118357142D02*
X190578571Y-118428571D01*
X190864285Y-118428571D01*
X191007142Y-118357142D01*
X191078571Y-118214285D01*
X191078571Y-118142857D01*
X191007142Y-118000000D01*
X190864285Y-117928571D01*
X190650000Y-117928571D01*
X190507142Y-117857142D01*
X190435714Y-117714285D01*
X190435714Y-117642857D01*
X190507142Y-117500000D01*
X190650000Y-117428571D01*
X190864285Y-117428571D01*
X191007142Y-117500000D01*
X191935714Y-118428571D02*
X191792857Y-118357142D01*
X191721428Y-118285714D01*
X191650000Y-118142857D01*
X191650000Y-117714285D01*
X191721428Y-117571428D01*
X191792857Y-117500000D01*
X191935714Y-117428571D01*
X192150000Y-117428571D01*
X192292857Y-117500000D01*
X192364285Y-117571428D01*
X192435714Y-117714285D01*
X192435714Y-118142857D01*
X192364285Y-118285714D01*
X192292857Y-118357142D01*
X192150000Y-118428571D01*
X191935714Y-118428571D01*
X193078571Y-117428571D02*
X193078571Y-118428571D01*
X193078571Y-117571428D02*
X193150000Y-117500000D01*
X193292857Y-117428571D01*
X193507142Y-117428571D01*
X193650000Y-117500000D01*
X193721428Y-117642857D01*
X193721428Y-118428571D01*
X179557142Y-65378571D02*
X179557142Y-66450000D01*
X179485714Y-66664285D01*
X179342857Y-66807142D01*
X179128571Y-66878571D01*
X178985714Y-66878571D01*
X180485714Y-66878571D02*
X180342857Y-66807142D01*
X180271428Y-66735714D01*
X180200000Y-66592857D01*
X180200000Y-66164285D01*
X180271428Y-66021428D01*
X180342857Y-65950000D01*
X180485714Y-65878571D01*
X180700000Y-65878571D01*
X180842857Y-65950000D01*
X180914285Y-66021428D01*
X180985714Y-66164285D01*
X180985714Y-66592857D01*
X180914285Y-66735714D01*
X180842857Y-66807142D01*
X180700000Y-66878571D01*
X180485714Y-66878571D01*
X181557142Y-66807142D02*
X181700000Y-66878571D01*
X181985714Y-66878571D01*
X182128571Y-66807142D01*
X182200000Y-66664285D01*
X182200000Y-66592857D01*
X182128571Y-66450000D01*
X181985714Y-66378571D01*
X181771428Y-66378571D01*
X181628571Y-66307142D01*
X181557142Y-66164285D01*
X181557142Y-66092857D01*
X181628571Y-65950000D01*
X181771428Y-65878571D01*
X181985714Y-65878571D01*
X182128571Y-65950000D01*
X182842857Y-66878571D02*
X182842857Y-65378571D01*
X183485714Y-66878571D02*
X183485714Y-66092857D01*
X183414285Y-65950000D01*
X183271428Y-65878571D01*
X183057142Y-65878571D01*
X182914285Y-65950000D01*
X182842857Y-66021428D01*
X185771428Y-65378571D02*
X185771428Y-66450000D01*
X185700000Y-66664285D01*
X185557142Y-66807142D01*
X185342857Y-66878571D01*
X185200000Y-66878571D01*
X186700000Y-66878571D02*
X186557142Y-66807142D01*
X186485714Y-66735714D01*
X186414285Y-66592857D01*
X186414285Y-66164285D01*
X186485714Y-66021428D01*
X186557142Y-65950000D01*
X186700000Y-65878571D01*
X186914285Y-65878571D01*
X187057142Y-65950000D01*
X187128571Y-66021428D01*
X187200000Y-66164285D01*
X187200000Y-66592857D01*
X187128571Y-66735714D01*
X187057142Y-66807142D01*
X186914285Y-66878571D01*
X186700000Y-66878571D01*
X187842857Y-66878571D02*
X187842857Y-65378571D01*
X188485714Y-66878571D02*
X188485714Y-66092857D01*
X188414285Y-65950000D01*
X188271428Y-65878571D01*
X188057142Y-65878571D01*
X187914285Y-65950000D01*
X187842857Y-66021428D01*
X189200000Y-65878571D02*
X189200000Y-66878571D01*
X189200000Y-66021428D02*
X189271428Y-65950000D01*
X189414285Y-65878571D01*
X189628571Y-65878571D01*
X189771428Y-65950000D01*
X189842857Y-66092857D01*
X189842857Y-66878571D01*
X190485714Y-66807142D02*
X190628571Y-66878571D01*
X190914285Y-66878571D01*
X191057142Y-66807142D01*
X191128571Y-66664285D01*
X191128571Y-66592857D01*
X191057142Y-66450000D01*
X190914285Y-66378571D01*
X190700000Y-66378571D01*
X190557142Y-66307142D01*
X190485714Y-66164285D01*
X190485714Y-66092857D01*
X190557142Y-65950000D01*
X190700000Y-65878571D01*
X190914285Y-65878571D01*
X191057142Y-65950000D01*
X191985714Y-66878571D02*
X191842857Y-66807142D01*
X191771428Y-66735714D01*
X191700000Y-66592857D01*
X191700000Y-66164285D01*
X191771428Y-66021428D01*
X191842857Y-65950000D01*
X191985714Y-65878571D01*
X192200000Y-65878571D01*
X192342857Y-65950000D01*
X192414285Y-66021428D01*
X192485714Y-66164285D01*
X192485714Y-66592857D01*
X192414285Y-66735714D01*
X192342857Y-66807142D01*
X192200000Y-66878571D01*
X191985714Y-66878571D01*
X193128571Y-65878571D02*
X193128571Y-66878571D01*
X193128571Y-66021428D02*
X193200000Y-65950000D01*
X193342857Y-65878571D01*
X193557142Y-65878571D01*
X193700000Y-65950000D01*
X193771428Y-66092857D01*
X193771428Y-66878571D01*
D11*
X155600000Y-107350000D03*
D12*
X170840000Y-140370000D03*
X155600000Y-109890000D03*
X170840000Y-137830000D03*
X155600000Y-112430000D03*
X170840000Y-135290000D03*
X155600000Y-114970000D03*
X170840000Y-132750000D03*
X155600000Y-117510000D03*
X170840000Y-130210000D03*
X155600000Y-120050000D03*
X170840000Y-127670000D03*
X155600000Y-122590000D03*
X170840000Y-125130000D03*
X155600000Y-125130000D03*
X170840000Y-122590000D03*
X155600000Y-127670000D03*
X170840000Y-120050000D03*
X155600000Y-130210000D03*
X170840000Y-117510000D03*
X155600000Y-132750000D03*
X170840000Y-114970000D03*
X155600000Y-135290000D03*
X170840000Y-112430000D03*
X155600000Y-137830000D03*
X170840000Y-109890000D03*
X155600000Y-140370000D03*
X170840000Y-107350000D03*
X155600000Y-142910000D03*
X170840000Y-142910000D03*
D13*
X176840000Y-105350000D03*
X179380000Y-105350000D03*
X181920000Y-105350000D03*
X184460000Y-105350000D03*
D14*
X187000000Y-105350000D03*
D15*
X117100000Y-146850000D03*
D13*
X121560000Y-105850000D03*
X124100000Y-105850000D03*
X126640000Y-105850000D03*
X129180000Y-105850000D03*
X131720000Y-105850000D03*
X134260000Y-105850000D03*
D14*
X136800000Y-105850000D03*
D13*
X107050000Y-116835000D03*
X107050000Y-124455000D03*
X107050000Y-121915000D03*
X107050000Y-119375000D03*
X104510000Y-116835000D03*
X104510000Y-124455000D03*
X104510000Y-121915000D03*
X104510000Y-119375000D03*
X134990000Y-116800000D03*
X134990000Y-124420000D03*
X134990000Y-121880000D03*
X134990000Y-119340000D03*
X109590000Y-116800000D03*
X132450000Y-116800000D03*
X129910000Y-116800000D03*
X127370000Y-116800000D03*
X124830000Y-116800000D03*
X122290000Y-116800000D03*
X119750000Y-116800000D03*
X117210000Y-116800000D03*
X114670000Y-116800000D03*
X112130000Y-116800000D03*
X109590000Y-124420000D03*
X132450000Y-124420000D03*
X129910000Y-124420000D03*
X127370000Y-124420000D03*
X124830000Y-124420000D03*
X122290000Y-124420000D03*
X119750000Y-124420000D03*
X117210000Y-124420000D03*
X114670000Y-124420000D03*
X112130000Y-124420000D03*
X109590000Y-121880000D03*
X132450000Y-121880000D03*
X129910000Y-121880000D03*
X127370000Y-121880000D03*
X124830000Y-121880000D03*
X122290000Y-121880000D03*
X119750000Y-121880000D03*
X117210000Y-121880000D03*
X114670000Y-121880000D03*
X112130000Y-121880000D03*
X109590000Y-119340000D03*
X132450000Y-119340000D03*
X129910000Y-119340000D03*
X127370000Y-119340000D03*
X124830000Y-119340000D03*
X122290000Y-119340000D03*
X119750000Y-119340000D03*
X117210000Y-119340000D03*
X114670000Y-119340000D03*
X112130000Y-119340000D03*
D16*
X112600000Y-133150000D03*
X137600000Y-132550000D03*
D15*
X150600000Y-143700000D03*
X153000000Y-122750000D03*
X146500000Y-127250000D03*
X152800000Y-119500000D03*
X183050000Y-124150000D03*
X185300000Y-124200000D03*
X195650000Y-124550000D03*
X195550000Y-120900000D03*
X112600000Y-129950000D03*
X134800000Y-136950000D03*
X112600000Y-137750000D03*
X134800000Y-134750000D03*
D17*
G36*
X150974505Y-128351204D02*
G01*
X150998773Y-128354804D01*
X151022572Y-128360765D01*
X151045671Y-128369030D01*
X151067850Y-128379520D01*
X151088893Y-128392132D01*
X151108599Y-128406747D01*
X151126777Y-128423223D01*
X151143253Y-128441401D01*
X151157868Y-128461107D01*
X151170480Y-128482150D01*
X151180970Y-128504329D01*
X151189235Y-128527428D01*
X151195196Y-128551227D01*
X151198796Y-128575495D01*
X151200000Y-128599999D01*
X151200000Y-129500001D01*
X151198796Y-129524505D01*
X151195196Y-129548773D01*
X151189235Y-129572572D01*
X151180970Y-129595671D01*
X151170480Y-129617850D01*
X151157868Y-129638893D01*
X151143253Y-129658599D01*
X151126777Y-129676777D01*
X151108599Y-129693253D01*
X151088893Y-129707868D01*
X151067850Y-129720480D01*
X151045671Y-129730970D01*
X151022572Y-129739235D01*
X150998773Y-129745196D01*
X150974505Y-129748796D01*
X150950001Y-129750000D01*
X150299999Y-129750000D01*
X150275495Y-129748796D01*
X150251227Y-129745196D01*
X150227428Y-129739235D01*
X150204329Y-129730970D01*
X150182150Y-129720480D01*
X150161107Y-129707868D01*
X150141401Y-129693253D01*
X150123223Y-129676777D01*
X150106747Y-129658599D01*
X150092132Y-129638893D01*
X150079520Y-129617850D01*
X150069030Y-129595671D01*
X150060765Y-129572572D01*
X150054804Y-129548773D01*
X150051204Y-129524505D01*
X150050000Y-129500001D01*
X150050000Y-128599999D01*
X150051204Y-128575495D01*
X150054804Y-128551227D01*
X150060765Y-128527428D01*
X150069030Y-128504329D01*
X150079520Y-128482150D01*
X150092132Y-128461107D01*
X150106747Y-128441401D01*
X150123223Y-128423223D01*
X150141401Y-128406747D01*
X150161107Y-128392132D01*
X150182150Y-128379520D01*
X150204329Y-128369030D01*
X150227428Y-128360765D01*
X150251227Y-128354804D01*
X150275495Y-128351204D01*
X150299999Y-128350000D01*
X150950001Y-128350000D01*
X150974505Y-128351204D01*
X150974505Y-128351204D01*
G37*
D18*
X150625000Y-129050000D03*
D17*
G36*
X148924505Y-128351204D02*
G01*
X148948773Y-128354804D01*
X148972572Y-128360765D01*
X148995671Y-128369030D01*
X149017850Y-128379520D01*
X149038893Y-128392132D01*
X149058599Y-128406747D01*
X149076777Y-128423223D01*
X149093253Y-128441401D01*
X149107868Y-128461107D01*
X149120480Y-128482150D01*
X149130970Y-128504329D01*
X149139235Y-128527428D01*
X149145196Y-128551227D01*
X149148796Y-128575495D01*
X149150000Y-128599999D01*
X149150000Y-129500001D01*
X149148796Y-129524505D01*
X149145196Y-129548773D01*
X149139235Y-129572572D01*
X149130970Y-129595671D01*
X149120480Y-129617850D01*
X149107868Y-129638893D01*
X149093253Y-129658599D01*
X149076777Y-129676777D01*
X149058599Y-129693253D01*
X149038893Y-129707868D01*
X149017850Y-129720480D01*
X148995671Y-129730970D01*
X148972572Y-129739235D01*
X148948773Y-129745196D01*
X148924505Y-129748796D01*
X148900001Y-129750000D01*
X148249999Y-129750000D01*
X148225495Y-129748796D01*
X148201227Y-129745196D01*
X148177428Y-129739235D01*
X148154329Y-129730970D01*
X148132150Y-129720480D01*
X148111107Y-129707868D01*
X148091401Y-129693253D01*
X148073223Y-129676777D01*
X148056747Y-129658599D01*
X148042132Y-129638893D01*
X148029520Y-129617850D01*
X148019030Y-129595671D01*
X148010765Y-129572572D01*
X148004804Y-129548773D01*
X148001204Y-129524505D01*
X148000000Y-129500001D01*
X148000000Y-128599999D01*
X148001204Y-128575495D01*
X148004804Y-128551227D01*
X148010765Y-128527428D01*
X148019030Y-128504329D01*
X148029520Y-128482150D01*
X148042132Y-128461107D01*
X148056747Y-128441401D01*
X148073223Y-128423223D01*
X148091401Y-128406747D01*
X148111107Y-128392132D01*
X148132150Y-128379520D01*
X148154329Y-128369030D01*
X148177428Y-128360765D01*
X148201227Y-128354804D01*
X148225495Y-128351204D01*
X148249999Y-128350000D01*
X148900001Y-128350000D01*
X148924505Y-128351204D01*
X148924505Y-128351204D01*
G37*
D18*
X148575000Y-129050000D03*
D17*
G36*
X150974505Y-130851204D02*
G01*
X150998773Y-130854804D01*
X151022572Y-130860765D01*
X151045671Y-130869030D01*
X151067850Y-130879520D01*
X151088893Y-130892132D01*
X151108599Y-130906747D01*
X151126777Y-130923223D01*
X151143253Y-130941401D01*
X151157868Y-130961107D01*
X151170480Y-130982150D01*
X151180970Y-131004329D01*
X151189235Y-131027428D01*
X151195196Y-131051227D01*
X151198796Y-131075495D01*
X151200000Y-131099999D01*
X151200000Y-132000001D01*
X151198796Y-132024505D01*
X151195196Y-132048773D01*
X151189235Y-132072572D01*
X151180970Y-132095671D01*
X151170480Y-132117850D01*
X151157868Y-132138893D01*
X151143253Y-132158599D01*
X151126777Y-132176777D01*
X151108599Y-132193253D01*
X151088893Y-132207868D01*
X151067850Y-132220480D01*
X151045671Y-132230970D01*
X151022572Y-132239235D01*
X150998773Y-132245196D01*
X150974505Y-132248796D01*
X150950001Y-132250000D01*
X150299999Y-132250000D01*
X150275495Y-132248796D01*
X150251227Y-132245196D01*
X150227428Y-132239235D01*
X150204329Y-132230970D01*
X150182150Y-132220480D01*
X150161107Y-132207868D01*
X150141401Y-132193253D01*
X150123223Y-132176777D01*
X150106747Y-132158599D01*
X150092132Y-132138893D01*
X150079520Y-132117850D01*
X150069030Y-132095671D01*
X150060765Y-132072572D01*
X150054804Y-132048773D01*
X150051204Y-132024505D01*
X150050000Y-132000001D01*
X150050000Y-131099999D01*
X150051204Y-131075495D01*
X150054804Y-131051227D01*
X150060765Y-131027428D01*
X150069030Y-131004329D01*
X150079520Y-130982150D01*
X150092132Y-130961107D01*
X150106747Y-130941401D01*
X150123223Y-130923223D01*
X150141401Y-130906747D01*
X150161107Y-130892132D01*
X150182150Y-130879520D01*
X150204329Y-130869030D01*
X150227428Y-130860765D01*
X150251227Y-130854804D01*
X150275495Y-130851204D01*
X150299999Y-130850000D01*
X150950001Y-130850000D01*
X150974505Y-130851204D01*
X150974505Y-130851204D01*
G37*
D18*
X150625000Y-131550000D03*
D17*
G36*
X148924505Y-130851204D02*
G01*
X148948773Y-130854804D01*
X148972572Y-130860765D01*
X148995671Y-130869030D01*
X149017850Y-130879520D01*
X149038893Y-130892132D01*
X149058599Y-130906747D01*
X149076777Y-130923223D01*
X149093253Y-130941401D01*
X149107868Y-130961107D01*
X149120480Y-130982150D01*
X149130970Y-131004329D01*
X149139235Y-131027428D01*
X149145196Y-131051227D01*
X149148796Y-131075495D01*
X149150000Y-131099999D01*
X149150000Y-132000001D01*
X149148796Y-132024505D01*
X149145196Y-132048773D01*
X149139235Y-132072572D01*
X149130970Y-132095671D01*
X149120480Y-132117850D01*
X149107868Y-132138893D01*
X149093253Y-132158599D01*
X149076777Y-132176777D01*
X149058599Y-132193253D01*
X149038893Y-132207868D01*
X149017850Y-132220480D01*
X148995671Y-132230970D01*
X148972572Y-132239235D01*
X148948773Y-132245196D01*
X148924505Y-132248796D01*
X148900001Y-132250000D01*
X148249999Y-132250000D01*
X148225495Y-132248796D01*
X148201227Y-132245196D01*
X148177428Y-132239235D01*
X148154329Y-132230970D01*
X148132150Y-132220480D01*
X148111107Y-132207868D01*
X148091401Y-132193253D01*
X148073223Y-132176777D01*
X148056747Y-132158599D01*
X148042132Y-132138893D01*
X148029520Y-132117850D01*
X148019030Y-132095671D01*
X148010765Y-132072572D01*
X148004804Y-132048773D01*
X148001204Y-132024505D01*
X148000000Y-132000001D01*
X148000000Y-131099999D01*
X148001204Y-131075495D01*
X148004804Y-131051227D01*
X148010765Y-131027428D01*
X148019030Y-131004329D01*
X148029520Y-130982150D01*
X148042132Y-130961107D01*
X148056747Y-130941401D01*
X148073223Y-130923223D01*
X148091401Y-130906747D01*
X148111107Y-130892132D01*
X148132150Y-130879520D01*
X148154329Y-130869030D01*
X148177428Y-130860765D01*
X148201227Y-130854804D01*
X148225495Y-130851204D01*
X148249999Y-130850000D01*
X148900001Y-130850000D01*
X148924505Y-130851204D01*
X148924505Y-130851204D01*
G37*
D18*
X148575000Y-131550000D03*
D17*
G36*
X174274505Y-120101204D02*
G01*
X174298773Y-120104804D01*
X174322572Y-120110765D01*
X174345671Y-120119030D01*
X174367850Y-120129520D01*
X174388893Y-120142132D01*
X174408599Y-120156747D01*
X174426777Y-120173223D01*
X174443253Y-120191401D01*
X174457868Y-120211107D01*
X174470480Y-120232150D01*
X174480970Y-120254329D01*
X174489235Y-120277428D01*
X174495196Y-120301227D01*
X174498796Y-120325495D01*
X174500000Y-120349999D01*
X174500000Y-121000001D01*
X174498796Y-121024505D01*
X174495196Y-121048773D01*
X174489235Y-121072572D01*
X174480970Y-121095671D01*
X174470480Y-121117850D01*
X174457868Y-121138893D01*
X174443253Y-121158599D01*
X174426777Y-121176777D01*
X174408599Y-121193253D01*
X174388893Y-121207868D01*
X174367850Y-121220480D01*
X174345671Y-121230970D01*
X174322572Y-121239235D01*
X174298773Y-121245196D01*
X174274505Y-121248796D01*
X174250001Y-121250000D01*
X173349999Y-121250000D01*
X173325495Y-121248796D01*
X173301227Y-121245196D01*
X173277428Y-121239235D01*
X173254329Y-121230970D01*
X173232150Y-121220480D01*
X173211107Y-121207868D01*
X173191401Y-121193253D01*
X173173223Y-121176777D01*
X173156747Y-121158599D01*
X173142132Y-121138893D01*
X173129520Y-121117850D01*
X173119030Y-121095671D01*
X173110765Y-121072572D01*
X173104804Y-121048773D01*
X173101204Y-121024505D01*
X173100000Y-121000001D01*
X173100000Y-120349999D01*
X173101204Y-120325495D01*
X173104804Y-120301227D01*
X173110765Y-120277428D01*
X173119030Y-120254329D01*
X173129520Y-120232150D01*
X173142132Y-120211107D01*
X173156747Y-120191401D01*
X173173223Y-120173223D01*
X173191401Y-120156747D01*
X173211107Y-120142132D01*
X173232150Y-120129520D01*
X173254329Y-120119030D01*
X173277428Y-120110765D01*
X173301227Y-120104804D01*
X173325495Y-120101204D01*
X173349999Y-120100000D01*
X174250001Y-120100000D01*
X174274505Y-120101204D01*
X174274505Y-120101204D01*
G37*
D18*
X173800000Y-120675000D03*
D17*
G36*
X174274505Y-122151204D02*
G01*
X174298773Y-122154804D01*
X174322572Y-122160765D01*
X174345671Y-122169030D01*
X174367850Y-122179520D01*
X174388893Y-122192132D01*
X174408599Y-122206747D01*
X174426777Y-122223223D01*
X174443253Y-122241401D01*
X174457868Y-122261107D01*
X174470480Y-122282150D01*
X174480970Y-122304329D01*
X174489235Y-122327428D01*
X174495196Y-122351227D01*
X174498796Y-122375495D01*
X174500000Y-122399999D01*
X174500000Y-123050001D01*
X174498796Y-123074505D01*
X174495196Y-123098773D01*
X174489235Y-123122572D01*
X174480970Y-123145671D01*
X174470480Y-123167850D01*
X174457868Y-123188893D01*
X174443253Y-123208599D01*
X174426777Y-123226777D01*
X174408599Y-123243253D01*
X174388893Y-123257868D01*
X174367850Y-123270480D01*
X174345671Y-123280970D01*
X174322572Y-123289235D01*
X174298773Y-123295196D01*
X174274505Y-123298796D01*
X174250001Y-123300000D01*
X173349999Y-123300000D01*
X173325495Y-123298796D01*
X173301227Y-123295196D01*
X173277428Y-123289235D01*
X173254329Y-123280970D01*
X173232150Y-123270480D01*
X173211107Y-123257868D01*
X173191401Y-123243253D01*
X173173223Y-123226777D01*
X173156747Y-123208599D01*
X173142132Y-123188893D01*
X173129520Y-123167850D01*
X173119030Y-123145671D01*
X173110765Y-123122572D01*
X173104804Y-123098773D01*
X173101204Y-123074505D01*
X173100000Y-123050001D01*
X173100000Y-122399999D01*
X173101204Y-122375495D01*
X173104804Y-122351227D01*
X173110765Y-122327428D01*
X173119030Y-122304329D01*
X173129520Y-122282150D01*
X173142132Y-122261107D01*
X173156747Y-122241401D01*
X173173223Y-122223223D01*
X173191401Y-122206747D01*
X173211107Y-122192132D01*
X173232150Y-122179520D01*
X173254329Y-122169030D01*
X173277428Y-122160765D01*
X173301227Y-122154804D01*
X173325495Y-122151204D01*
X173349999Y-122150000D01*
X174250001Y-122150000D01*
X174274505Y-122151204D01*
X174274505Y-122151204D01*
G37*
D18*
X173800000Y-122725000D03*
D17*
G36*
X176774505Y-120101204D02*
G01*
X176798773Y-120104804D01*
X176822572Y-120110765D01*
X176845671Y-120119030D01*
X176867850Y-120129520D01*
X176888893Y-120142132D01*
X176908599Y-120156747D01*
X176926777Y-120173223D01*
X176943253Y-120191401D01*
X176957868Y-120211107D01*
X176970480Y-120232150D01*
X176980970Y-120254329D01*
X176989235Y-120277428D01*
X176995196Y-120301227D01*
X176998796Y-120325495D01*
X177000000Y-120349999D01*
X177000000Y-121000001D01*
X176998796Y-121024505D01*
X176995196Y-121048773D01*
X176989235Y-121072572D01*
X176980970Y-121095671D01*
X176970480Y-121117850D01*
X176957868Y-121138893D01*
X176943253Y-121158599D01*
X176926777Y-121176777D01*
X176908599Y-121193253D01*
X176888893Y-121207868D01*
X176867850Y-121220480D01*
X176845671Y-121230970D01*
X176822572Y-121239235D01*
X176798773Y-121245196D01*
X176774505Y-121248796D01*
X176750001Y-121250000D01*
X175849999Y-121250000D01*
X175825495Y-121248796D01*
X175801227Y-121245196D01*
X175777428Y-121239235D01*
X175754329Y-121230970D01*
X175732150Y-121220480D01*
X175711107Y-121207868D01*
X175691401Y-121193253D01*
X175673223Y-121176777D01*
X175656747Y-121158599D01*
X175642132Y-121138893D01*
X175629520Y-121117850D01*
X175619030Y-121095671D01*
X175610765Y-121072572D01*
X175604804Y-121048773D01*
X175601204Y-121024505D01*
X175600000Y-121000001D01*
X175600000Y-120349999D01*
X175601204Y-120325495D01*
X175604804Y-120301227D01*
X175610765Y-120277428D01*
X175619030Y-120254329D01*
X175629520Y-120232150D01*
X175642132Y-120211107D01*
X175656747Y-120191401D01*
X175673223Y-120173223D01*
X175691401Y-120156747D01*
X175711107Y-120142132D01*
X175732150Y-120129520D01*
X175754329Y-120119030D01*
X175777428Y-120110765D01*
X175801227Y-120104804D01*
X175825495Y-120101204D01*
X175849999Y-120100000D01*
X176750001Y-120100000D01*
X176774505Y-120101204D01*
X176774505Y-120101204D01*
G37*
D18*
X176300000Y-120675000D03*
D17*
G36*
X176774505Y-122151204D02*
G01*
X176798773Y-122154804D01*
X176822572Y-122160765D01*
X176845671Y-122169030D01*
X176867850Y-122179520D01*
X176888893Y-122192132D01*
X176908599Y-122206747D01*
X176926777Y-122223223D01*
X176943253Y-122241401D01*
X176957868Y-122261107D01*
X176970480Y-122282150D01*
X176980970Y-122304329D01*
X176989235Y-122327428D01*
X176995196Y-122351227D01*
X176998796Y-122375495D01*
X177000000Y-122399999D01*
X177000000Y-123050001D01*
X176998796Y-123074505D01*
X176995196Y-123098773D01*
X176989235Y-123122572D01*
X176980970Y-123145671D01*
X176970480Y-123167850D01*
X176957868Y-123188893D01*
X176943253Y-123208599D01*
X176926777Y-123226777D01*
X176908599Y-123243253D01*
X176888893Y-123257868D01*
X176867850Y-123270480D01*
X176845671Y-123280970D01*
X176822572Y-123289235D01*
X176798773Y-123295196D01*
X176774505Y-123298796D01*
X176750001Y-123300000D01*
X175849999Y-123300000D01*
X175825495Y-123298796D01*
X175801227Y-123295196D01*
X175777428Y-123289235D01*
X175754329Y-123280970D01*
X175732150Y-123270480D01*
X175711107Y-123257868D01*
X175691401Y-123243253D01*
X175673223Y-123226777D01*
X175656747Y-123208599D01*
X175642132Y-123188893D01*
X175629520Y-123167850D01*
X175619030Y-123145671D01*
X175610765Y-123122572D01*
X175604804Y-123098773D01*
X175601204Y-123074505D01*
X175600000Y-123050001D01*
X175600000Y-122399999D01*
X175601204Y-122375495D01*
X175604804Y-122351227D01*
X175610765Y-122327428D01*
X175619030Y-122304329D01*
X175629520Y-122282150D01*
X175642132Y-122261107D01*
X175656747Y-122241401D01*
X175673223Y-122223223D01*
X175691401Y-122206747D01*
X175711107Y-122192132D01*
X175732150Y-122179520D01*
X175754329Y-122169030D01*
X175777428Y-122160765D01*
X175801227Y-122154804D01*
X175825495Y-122151204D01*
X175849999Y-122150000D01*
X176750001Y-122150000D01*
X176774505Y-122151204D01*
X176774505Y-122151204D01*
G37*
D18*
X176300000Y-122725000D03*
D19*
X139500000Y-139650000D03*
X139500000Y-144650000D03*
X142000000Y-142150000D03*
X144500000Y-142150000D03*
D20*
X117100000Y-136150000D03*
X117100000Y-141150000D03*
D21*
X124100000Y-133050000D03*
X124100000Y-144250000D03*
D20*
X131600000Y-136150000D03*
X131600000Y-138650000D03*
D22*
X131600000Y-141150000D03*
D23*
X195120000Y-104080000D03*
X192580000Y-104080000D03*
X195120000Y-106620000D03*
X192580000Y-106620000D03*
D24*
X141350000Y-125410000D03*
X141350000Y-124140000D03*
X141350000Y-122870000D03*
D25*
X141350000Y-121600000D03*
D26*
X190810000Y-129850000D03*
D27*
X193350000Y-129850000D03*
D26*
X180350000Y-129850000D03*
D27*
X177810000Y-129850000D03*
X190810000Y-136350000D03*
D26*
X193350000Y-136350000D03*
D27*
X184310000Y-142850000D03*
D26*
X186850000Y-142850000D03*
X193350000Y-142850000D03*
D27*
X190810000Y-142850000D03*
X186890000Y-136350000D03*
D26*
X184350000Y-136350000D03*
X177850000Y-136350000D03*
D27*
X180390000Y-136350000D03*
D26*
X180350000Y-142850000D03*
D27*
X177810000Y-142850000D03*
X186890000Y-129850000D03*
D26*
X184350000Y-129850000D03*
D13*
X116300000Y-105850000D03*
X113760000Y-105850000D03*
X111220000Y-105850000D03*
X108680000Y-105850000D03*
X106140000Y-105850000D03*
D14*
X103600000Y-105850000D03*
D17*
G36*
X149124505Y-117501204D02*
G01*
X149148773Y-117504804D01*
X149172572Y-117510765D01*
X149195671Y-117519030D01*
X149217850Y-117529520D01*
X149238893Y-117542132D01*
X149258599Y-117556747D01*
X149276777Y-117573223D01*
X149293253Y-117591401D01*
X149307868Y-117611107D01*
X149320480Y-117632150D01*
X149330970Y-117654329D01*
X149339235Y-117677428D01*
X149345196Y-117701227D01*
X149348796Y-117725495D01*
X149350000Y-117749999D01*
X149350000Y-118650001D01*
X149348796Y-118674505D01*
X149345196Y-118698773D01*
X149339235Y-118722572D01*
X149330970Y-118745671D01*
X149320480Y-118767850D01*
X149307868Y-118788893D01*
X149293253Y-118808599D01*
X149276777Y-118826777D01*
X149258599Y-118843253D01*
X149238893Y-118857868D01*
X149217850Y-118870480D01*
X149195671Y-118880970D01*
X149172572Y-118889235D01*
X149148773Y-118895196D01*
X149124505Y-118898796D01*
X149100001Y-118900000D01*
X148449999Y-118900000D01*
X148425495Y-118898796D01*
X148401227Y-118895196D01*
X148377428Y-118889235D01*
X148354329Y-118880970D01*
X148332150Y-118870480D01*
X148311107Y-118857868D01*
X148291401Y-118843253D01*
X148273223Y-118826777D01*
X148256747Y-118808599D01*
X148242132Y-118788893D01*
X148229520Y-118767850D01*
X148219030Y-118745671D01*
X148210765Y-118722572D01*
X148204804Y-118698773D01*
X148201204Y-118674505D01*
X148200000Y-118650001D01*
X148200000Y-117749999D01*
X148201204Y-117725495D01*
X148204804Y-117701227D01*
X148210765Y-117677428D01*
X148219030Y-117654329D01*
X148229520Y-117632150D01*
X148242132Y-117611107D01*
X148256747Y-117591401D01*
X148273223Y-117573223D01*
X148291401Y-117556747D01*
X148311107Y-117542132D01*
X148332150Y-117529520D01*
X148354329Y-117519030D01*
X148377428Y-117510765D01*
X148401227Y-117504804D01*
X148425495Y-117501204D01*
X148449999Y-117500000D01*
X149100001Y-117500000D01*
X149124505Y-117501204D01*
X149124505Y-117501204D01*
G37*
D18*
X148775000Y-118200000D03*
D17*
G36*
X151174505Y-117501204D02*
G01*
X151198773Y-117504804D01*
X151222572Y-117510765D01*
X151245671Y-117519030D01*
X151267850Y-117529520D01*
X151288893Y-117542132D01*
X151308599Y-117556747D01*
X151326777Y-117573223D01*
X151343253Y-117591401D01*
X151357868Y-117611107D01*
X151370480Y-117632150D01*
X151380970Y-117654329D01*
X151389235Y-117677428D01*
X151395196Y-117701227D01*
X151398796Y-117725495D01*
X151400000Y-117749999D01*
X151400000Y-118650001D01*
X151398796Y-118674505D01*
X151395196Y-118698773D01*
X151389235Y-118722572D01*
X151380970Y-118745671D01*
X151370480Y-118767850D01*
X151357868Y-118788893D01*
X151343253Y-118808599D01*
X151326777Y-118826777D01*
X151308599Y-118843253D01*
X151288893Y-118857868D01*
X151267850Y-118870480D01*
X151245671Y-118880970D01*
X151222572Y-118889235D01*
X151198773Y-118895196D01*
X151174505Y-118898796D01*
X151150001Y-118900000D01*
X150499999Y-118900000D01*
X150475495Y-118898796D01*
X150451227Y-118895196D01*
X150427428Y-118889235D01*
X150404329Y-118880970D01*
X150382150Y-118870480D01*
X150361107Y-118857868D01*
X150341401Y-118843253D01*
X150323223Y-118826777D01*
X150306747Y-118808599D01*
X150292132Y-118788893D01*
X150279520Y-118767850D01*
X150269030Y-118745671D01*
X150260765Y-118722572D01*
X150254804Y-118698773D01*
X150251204Y-118674505D01*
X150250000Y-118650001D01*
X150250000Y-117749999D01*
X150251204Y-117725495D01*
X150254804Y-117701227D01*
X150260765Y-117677428D01*
X150269030Y-117654329D01*
X150279520Y-117632150D01*
X150292132Y-117611107D01*
X150306747Y-117591401D01*
X150323223Y-117573223D01*
X150341401Y-117556747D01*
X150361107Y-117542132D01*
X150382150Y-117529520D01*
X150404329Y-117519030D01*
X150427428Y-117510765D01*
X150451227Y-117504804D01*
X150475495Y-117501204D01*
X150499999Y-117500000D01*
X151150001Y-117500000D01*
X151174505Y-117501204D01*
X151174505Y-117501204D01*
G37*
D18*
X150825000Y-118200000D03*
D17*
G36*
X150974505Y-133301204D02*
G01*
X150998773Y-133304804D01*
X151022572Y-133310765D01*
X151045671Y-133319030D01*
X151067850Y-133329520D01*
X151088893Y-133342132D01*
X151108599Y-133356747D01*
X151126777Y-133373223D01*
X151143253Y-133391401D01*
X151157868Y-133411107D01*
X151170480Y-133432150D01*
X151180970Y-133454329D01*
X151189235Y-133477428D01*
X151195196Y-133501227D01*
X151198796Y-133525495D01*
X151200000Y-133549999D01*
X151200000Y-134450001D01*
X151198796Y-134474505D01*
X151195196Y-134498773D01*
X151189235Y-134522572D01*
X151180970Y-134545671D01*
X151170480Y-134567850D01*
X151157868Y-134588893D01*
X151143253Y-134608599D01*
X151126777Y-134626777D01*
X151108599Y-134643253D01*
X151088893Y-134657868D01*
X151067850Y-134670480D01*
X151045671Y-134680970D01*
X151022572Y-134689235D01*
X150998773Y-134695196D01*
X150974505Y-134698796D01*
X150950001Y-134700000D01*
X150299999Y-134700000D01*
X150275495Y-134698796D01*
X150251227Y-134695196D01*
X150227428Y-134689235D01*
X150204329Y-134680970D01*
X150182150Y-134670480D01*
X150161107Y-134657868D01*
X150141401Y-134643253D01*
X150123223Y-134626777D01*
X150106747Y-134608599D01*
X150092132Y-134588893D01*
X150079520Y-134567850D01*
X150069030Y-134545671D01*
X150060765Y-134522572D01*
X150054804Y-134498773D01*
X150051204Y-134474505D01*
X150050000Y-134450001D01*
X150050000Y-133549999D01*
X150051204Y-133525495D01*
X150054804Y-133501227D01*
X150060765Y-133477428D01*
X150069030Y-133454329D01*
X150079520Y-133432150D01*
X150092132Y-133411107D01*
X150106747Y-133391401D01*
X150123223Y-133373223D01*
X150141401Y-133356747D01*
X150161107Y-133342132D01*
X150182150Y-133329520D01*
X150204329Y-133319030D01*
X150227428Y-133310765D01*
X150251227Y-133304804D01*
X150275495Y-133301204D01*
X150299999Y-133300000D01*
X150950001Y-133300000D01*
X150974505Y-133301204D01*
X150974505Y-133301204D01*
G37*
D18*
X150625000Y-134000000D03*
D17*
G36*
X148924505Y-133301204D02*
G01*
X148948773Y-133304804D01*
X148972572Y-133310765D01*
X148995671Y-133319030D01*
X149017850Y-133329520D01*
X149038893Y-133342132D01*
X149058599Y-133356747D01*
X149076777Y-133373223D01*
X149093253Y-133391401D01*
X149107868Y-133411107D01*
X149120480Y-133432150D01*
X149130970Y-133454329D01*
X149139235Y-133477428D01*
X149145196Y-133501227D01*
X149148796Y-133525495D01*
X149150000Y-133549999D01*
X149150000Y-134450001D01*
X149148796Y-134474505D01*
X149145196Y-134498773D01*
X149139235Y-134522572D01*
X149130970Y-134545671D01*
X149120480Y-134567850D01*
X149107868Y-134588893D01*
X149093253Y-134608599D01*
X149076777Y-134626777D01*
X149058599Y-134643253D01*
X149038893Y-134657868D01*
X149017850Y-134670480D01*
X148995671Y-134680970D01*
X148972572Y-134689235D01*
X148948773Y-134695196D01*
X148924505Y-134698796D01*
X148900001Y-134700000D01*
X148249999Y-134700000D01*
X148225495Y-134698796D01*
X148201227Y-134695196D01*
X148177428Y-134689235D01*
X148154329Y-134680970D01*
X148132150Y-134670480D01*
X148111107Y-134657868D01*
X148091401Y-134643253D01*
X148073223Y-134626777D01*
X148056747Y-134608599D01*
X148042132Y-134588893D01*
X148029520Y-134567850D01*
X148019030Y-134545671D01*
X148010765Y-134522572D01*
X148004804Y-134498773D01*
X148001204Y-134474505D01*
X148000000Y-134450001D01*
X148000000Y-133549999D01*
X148001204Y-133525495D01*
X148004804Y-133501227D01*
X148010765Y-133477428D01*
X148019030Y-133454329D01*
X148029520Y-133432150D01*
X148042132Y-133411107D01*
X148056747Y-133391401D01*
X148073223Y-133373223D01*
X148091401Y-133356747D01*
X148111107Y-133342132D01*
X148132150Y-133329520D01*
X148154329Y-133319030D01*
X148177428Y-133310765D01*
X148201227Y-133304804D01*
X148225495Y-133301204D01*
X148249999Y-133300000D01*
X148900001Y-133300000D01*
X148924505Y-133301204D01*
X148924505Y-133301204D01*
G37*
D18*
X148575000Y-134000000D03*
D17*
G36*
X149124505Y-115551204D02*
G01*
X149148773Y-115554804D01*
X149172572Y-115560765D01*
X149195671Y-115569030D01*
X149217850Y-115579520D01*
X149238893Y-115592132D01*
X149258599Y-115606747D01*
X149276777Y-115623223D01*
X149293253Y-115641401D01*
X149307868Y-115661107D01*
X149320480Y-115682150D01*
X149330970Y-115704329D01*
X149339235Y-115727428D01*
X149345196Y-115751227D01*
X149348796Y-115775495D01*
X149350000Y-115799999D01*
X149350000Y-116700001D01*
X149348796Y-116724505D01*
X149345196Y-116748773D01*
X149339235Y-116772572D01*
X149330970Y-116795671D01*
X149320480Y-116817850D01*
X149307868Y-116838893D01*
X149293253Y-116858599D01*
X149276777Y-116876777D01*
X149258599Y-116893253D01*
X149238893Y-116907868D01*
X149217850Y-116920480D01*
X149195671Y-116930970D01*
X149172572Y-116939235D01*
X149148773Y-116945196D01*
X149124505Y-116948796D01*
X149100001Y-116950000D01*
X148449999Y-116950000D01*
X148425495Y-116948796D01*
X148401227Y-116945196D01*
X148377428Y-116939235D01*
X148354329Y-116930970D01*
X148332150Y-116920480D01*
X148311107Y-116907868D01*
X148291401Y-116893253D01*
X148273223Y-116876777D01*
X148256747Y-116858599D01*
X148242132Y-116838893D01*
X148229520Y-116817850D01*
X148219030Y-116795671D01*
X148210765Y-116772572D01*
X148204804Y-116748773D01*
X148201204Y-116724505D01*
X148200000Y-116700001D01*
X148200000Y-115799999D01*
X148201204Y-115775495D01*
X148204804Y-115751227D01*
X148210765Y-115727428D01*
X148219030Y-115704329D01*
X148229520Y-115682150D01*
X148242132Y-115661107D01*
X148256747Y-115641401D01*
X148273223Y-115623223D01*
X148291401Y-115606747D01*
X148311107Y-115592132D01*
X148332150Y-115579520D01*
X148354329Y-115569030D01*
X148377428Y-115560765D01*
X148401227Y-115554804D01*
X148425495Y-115551204D01*
X148449999Y-115550000D01*
X149100001Y-115550000D01*
X149124505Y-115551204D01*
X149124505Y-115551204D01*
G37*
D18*
X148775000Y-116250000D03*
D17*
G36*
X151174505Y-115551204D02*
G01*
X151198773Y-115554804D01*
X151222572Y-115560765D01*
X151245671Y-115569030D01*
X151267850Y-115579520D01*
X151288893Y-115592132D01*
X151308599Y-115606747D01*
X151326777Y-115623223D01*
X151343253Y-115641401D01*
X151357868Y-115661107D01*
X151370480Y-115682150D01*
X151380970Y-115704329D01*
X151389235Y-115727428D01*
X151395196Y-115751227D01*
X151398796Y-115775495D01*
X151400000Y-115799999D01*
X151400000Y-116700001D01*
X151398796Y-116724505D01*
X151395196Y-116748773D01*
X151389235Y-116772572D01*
X151380970Y-116795671D01*
X151370480Y-116817850D01*
X151357868Y-116838893D01*
X151343253Y-116858599D01*
X151326777Y-116876777D01*
X151308599Y-116893253D01*
X151288893Y-116907868D01*
X151267850Y-116920480D01*
X151245671Y-116930970D01*
X151222572Y-116939235D01*
X151198773Y-116945196D01*
X151174505Y-116948796D01*
X151150001Y-116950000D01*
X150499999Y-116950000D01*
X150475495Y-116948796D01*
X150451227Y-116945196D01*
X150427428Y-116939235D01*
X150404329Y-116930970D01*
X150382150Y-116920480D01*
X150361107Y-116907868D01*
X150341401Y-116893253D01*
X150323223Y-116876777D01*
X150306747Y-116858599D01*
X150292132Y-116838893D01*
X150279520Y-116817850D01*
X150269030Y-116795671D01*
X150260765Y-116772572D01*
X150254804Y-116748773D01*
X150251204Y-116724505D01*
X150250000Y-116700001D01*
X150250000Y-115799999D01*
X150251204Y-115775495D01*
X150254804Y-115751227D01*
X150260765Y-115727428D01*
X150269030Y-115704329D01*
X150279520Y-115682150D01*
X150292132Y-115661107D01*
X150306747Y-115641401D01*
X150323223Y-115623223D01*
X150341401Y-115606747D01*
X150361107Y-115592132D01*
X150382150Y-115579520D01*
X150404329Y-115569030D01*
X150427428Y-115560765D01*
X150451227Y-115554804D01*
X150475495Y-115551204D01*
X150499999Y-115550000D01*
X151150001Y-115550000D01*
X151174505Y-115551204D01*
X151174505Y-115551204D01*
G37*
D18*
X150825000Y-116250000D03*
D17*
G36*
X193824505Y-121501204D02*
G01*
X193848773Y-121504804D01*
X193872572Y-121510765D01*
X193895671Y-121519030D01*
X193917850Y-121529520D01*
X193938893Y-121542132D01*
X193958599Y-121556747D01*
X193976777Y-121573223D01*
X193993253Y-121591401D01*
X194007868Y-121611107D01*
X194020480Y-121632150D01*
X194030970Y-121654329D01*
X194039235Y-121677428D01*
X194045196Y-121701227D01*
X194048796Y-121725495D01*
X194050000Y-121749999D01*
X194050000Y-122400001D01*
X194048796Y-122424505D01*
X194045196Y-122448773D01*
X194039235Y-122472572D01*
X194030970Y-122495671D01*
X194020480Y-122517850D01*
X194007868Y-122538893D01*
X193993253Y-122558599D01*
X193976777Y-122576777D01*
X193958599Y-122593253D01*
X193938893Y-122607868D01*
X193917850Y-122620480D01*
X193895671Y-122630970D01*
X193872572Y-122639235D01*
X193848773Y-122645196D01*
X193824505Y-122648796D01*
X193800001Y-122650000D01*
X192899999Y-122650000D01*
X192875495Y-122648796D01*
X192851227Y-122645196D01*
X192827428Y-122639235D01*
X192804329Y-122630970D01*
X192782150Y-122620480D01*
X192761107Y-122607868D01*
X192741401Y-122593253D01*
X192723223Y-122576777D01*
X192706747Y-122558599D01*
X192692132Y-122538893D01*
X192679520Y-122517850D01*
X192669030Y-122495671D01*
X192660765Y-122472572D01*
X192654804Y-122448773D01*
X192651204Y-122424505D01*
X192650000Y-122400001D01*
X192650000Y-121749999D01*
X192651204Y-121725495D01*
X192654804Y-121701227D01*
X192660765Y-121677428D01*
X192669030Y-121654329D01*
X192679520Y-121632150D01*
X192692132Y-121611107D01*
X192706747Y-121591401D01*
X192723223Y-121573223D01*
X192741401Y-121556747D01*
X192761107Y-121542132D01*
X192782150Y-121529520D01*
X192804329Y-121519030D01*
X192827428Y-121510765D01*
X192851227Y-121504804D01*
X192875495Y-121501204D01*
X192899999Y-121500000D01*
X193800001Y-121500000D01*
X193824505Y-121501204D01*
X193824505Y-121501204D01*
G37*
D18*
X193350000Y-122075000D03*
D17*
G36*
X193824505Y-123551204D02*
G01*
X193848773Y-123554804D01*
X193872572Y-123560765D01*
X193895671Y-123569030D01*
X193917850Y-123579520D01*
X193938893Y-123592132D01*
X193958599Y-123606747D01*
X193976777Y-123623223D01*
X193993253Y-123641401D01*
X194007868Y-123661107D01*
X194020480Y-123682150D01*
X194030970Y-123704329D01*
X194039235Y-123727428D01*
X194045196Y-123751227D01*
X194048796Y-123775495D01*
X194050000Y-123799999D01*
X194050000Y-124450001D01*
X194048796Y-124474505D01*
X194045196Y-124498773D01*
X194039235Y-124522572D01*
X194030970Y-124545671D01*
X194020480Y-124567850D01*
X194007868Y-124588893D01*
X193993253Y-124608599D01*
X193976777Y-124626777D01*
X193958599Y-124643253D01*
X193938893Y-124657868D01*
X193917850Y-124670480D01*
X193895671Y-124680970D01*
X193872572Y-124689235D01*
X193848773Y-124695196D01*
X193824505Y-124698796D01*
X193800001Y-124700000D01*
X192899999Y-124700000D01*
X192875495Y-124698796D01*
X192851227Y-124695196D01*
X192827428Y-124689235D01*
X192804329Y-124680970D01*
X192782150Y-124670480D01*
X192761107Y-124657868D01*
X192741401Y-124643253D01*
X192723223Y-124626777D01*
X192706747Y-124608599D01*
X192692132Y-124588893D01*
X192679520Y-124567850D01*
X192669030Y-124545671D01*
X192660765Y-124522572D01*
X192654804Y-124498773D01*
X192651204Y-124474505D01*
X192650000Y-124450001D01*
X192650000Y-123799999D01*
X192651204Y-123775495D01*
X192654804Y-123751227D01*
X192660765Y-123727428D01*
X192669030Y-123704329D01*
X192679520Y-123682150D01*
X192692132Y-123661107D01*
X192706747Y-123641401D01*
X192723223Y-123623223D01*
X192741401Y-123606747D01*
X192761107Y-123592132D01*
X192782150Y-123579520D01*
X192804329Y-123569030D01*
X192827428Y-123560765D01*
X192851227Y-123554804D01*
X192875495Y-123551204D01*
X192899999Y-123550000D01*
X193800001Y-123550000D01*
X193824505Y-123551204D01*
X193824505Y-123551204D01*
G37*
D18*
X193350000Y-124125000D03*
D17*
G36*
X191824505Y-123551204D02*
G01*
X191848773Y-123554804D01*
X191872572Y-123560765D01*
X191895671Y-123569030D01*
X191917850Y-123579520D01*
X191938893Y-123592132D01*
X191958599Y-123606747D01*
X191976777Y-123623223D01*
X191993253Y-123641401D01*
X192007868Y-123661107D01*
X192020480Y-123682150D01*
X192030970Y-123704329D01*
X192039235Y-123727428D01*
X192045196Y-123751227D01*
X192048796Y-123775495D01*
X192050000Y-123799999D01*
X192050000Y-124450001D01*
X192048796Y-124474505D01*
X192045196Y-124498773D01*
X192039235Y-124522572D01*
X192030970Y-124545671D01*
X192020480Y-124567850D01*
X192007868Y-124588893D01*
X191993253Y-124608599D01*
X191976777Y-124626777D01*
X191958599Y-124643253D01*
X191938893Y-124657868D01*
X191917850Y-124670480D01*
X191895671Y-124680970D01*
X191872572Y-124689235D01*
X191848773Y-124695196D01*
X191824505Y-124698796D01*
X191800001Y-124700000D01*
X190899999Y-124700000D01*
X190875495Y-124698796D01*
X190851227Y-124695196D01*
X190827428Y-124689235D01*
X190804329Y-124680970D01*
X190782150Y-124670480D01*
X190761107Y-124657868D01*
X190741401Y-124643253D01*
X190723223Y-124626777D01*
X190706747Y-124608599D01*
X190692132Y-124588893D01*
X190679520Y-124567850D01*
X190669030Y-124545671D01*
X190660765Y-124522572D01*
X190654804Y-124498773D01*
X190651204Y-124474505D01*
X190650000Y-124450001D01*
X190650000Y-123799999D01*
X190651204Y-123775495D01*
X190654804Y-123751227D01*
X190660765Y-123727428D01*
X190669030Y-123704329D01*
X190679520Y-123682150D01*
X190692132Y-123661107D01*
X190706747Y-123641401D01*
X190723223Y-123623223D01*
X190741401Y-123606747D01*
X190761107Y-123592132D01*
X190782150Y-123579520D01*
X190804329Y-123569030D01*
X190827428Y-123560765D01*
X190851227Y-123554804D01*
X190875495Y-123551204D01*
X190899999Y-123550000D01*
X191800001Y-123550000D01*
X191824505Y-123551204D01*
X191824505Y-123551204D01*
G37*
D18*
X191350000Y-124125000D03*
D17*
G36*
X191824505Y-121501204D02*
G01*
X191848773Y-121504804D01*
X191872572Y-121510765D01*
X191895671Y-121519030D01*
X191917850Y-121529520D01*
X191938893Y-121542132D01*
X191958599Y-121556747D01*
X191976777Y-121573223D01*
X191993253Y-121591401D01*
X192007868Y-121611107D01*
X192020480Y-121632150D01*
X192030970Y-121654329D01*
X192039235Y-121677428D01*
X192045196Y-121701227D01*
X192048796Y-121725495D01*
X192050000Y-121749999D01*
X192050000Y-122400001D01*
X192048796Y-122424505D01*
X192045196Y-122448773D01*
X192039235Y-122472572D01*
X192030970Y-122495671D01*
X192020480Y-122517850D01*
X192007868Y-122538893D01*
X191993253Y-122558599D01*
X191976777Y-122576777D01*
X191958599Y-122593253D01*
X191938893Y-122607868D01*
X191917850Y-122620480D01*
X191895671Y-122630970D01*
X191872572Y-122639235D01*
X191848773Y-122645196D01*
X191824505Y-122648796D01*
X191800001Y-122650000D01*
X190899999Y-122650000D01*
X190875495Y-122648796D01*
X190851227Y-122645196D01*
X190827428Y-122639235D01*
X190804329Y-122630970D01*
X190782150Y-122620480D01*
X190761107Y-122607868D01*
X190741401Y-122593253D01*
X190723223Y-122576777D01*
X190706747Y-122558599D01*
X190692132Y-122538893D01*
X190679520Y-122517850D01*
X190669030Y-122495671D01*
X190660765Y-122472572D01*
X190654804Y-122448773D01*
X190651204Y-122424505D01*
X190650000Y-122400001D01*
X190650000Y-121749999D01*
X190651204Y-121725495D01*
X190654804Y-121701227D01*
X190660765Y-121677428D01*
X190669030Y-121654329D01*
X190679520Y-121632150D01*
X190692132Y-121611107D01*
X190706747Y-121591401D01*
X190723223Y-121573223D01*
X190741401Y-121556747D01*
X190761107Y-121542132D01*
X190782150Y-121529520D01*
X190804329Y-121519030D01*
X190827428Y-121510765D01*
X190851227Y-121504804D01*
X190875495Y-121501204D01*
X190899999Y-121500000D01*
X191800001Y-121500000D01*
X191824505Y-121501204D01*
X191824505Y-121501204D01*
G37*
D18*
X191350000Y-122075000D03*
D17*
G36*
X187824505Y-121501204D02*
G01*
X187848773Y-121504804D01*
X187872572Y-121510765D01*
X187895671Y-121519030D01*
X187917850Y-121529520D01*
X187938893Y-121542132D01*
X187958599Y-121556747D01*
X187976777Y-121573223D01*
X187993253Y-121591401D01*
X188007868Y-121611107D01*
X188020480Y-121632150D01*
X188030970Y-121654329D01*
X188039235Y-121677428D01*
X188045196Y-121701227D01*
X188048796Y-121725495D01*
X188050000Y-121749999D01*
X188050000Y-122400001D01*
X188048796Y-122424505D01*
X188045196Y-122448773D01*
X188039235Y-122472572D01*
X188030970Y-122495671D01*
X188020480Y-122517850D01*
X188007868Y-122538893D01*
X187993253Y-122558599D01*
X187976777Y-122576777D01*
X187958599Y-122593253D01*
X187938893Y-122607868D01*
X187917850Y-122620480D01*
X187895671Y-122630970D01*
X187872572Y-122639235D01*
X187848773Y-122645196D01*
X187824505Y-122648796D01*
X187800001Y-122650000D01*
X186899999Y-122650000D01*
X186875495Y-122648796D01*
X186851227Y-122645196D01*
X186827428Y-122639235D01*
X186804329Y-122630970D01*
X186782150Y-122620480D01*
X186761107Y-122607868D01*
X186741401Y-122593253D01*
X186723223Y-122576777D01*
X186706747Y-122558599D01*
X186692132Y-122538893D01*
X186679520Y-122517850D01*
X186669030Y-122495671D01*
X186660765Y-122472572D01*
X186654804Y-122448773D01*
X186651204Y-122424505D01*
X186650000Y-122400001D01*
X186650000Y-121749999D01*
X186651204Y-121725495D01*
X186654804Y-121701227D01*
X186660765Y-121677428D01*
X186669030Y-121654329D01*
X186679520Y-121632150D01*
X186692132Y-121611107D01*
X186706747Y-121591401D01*
X186723223Y-121573223D01*
X186741401Y-121556747D01*
X186761107Y-121542132D01*
X186782150Y-121529520D01*
X186804329Y-121519030D01*
X186827428Y-121510765D01*
X186851227Y-121504804D01*
X186875495Y-121501204D01*
X186899999Y-121500000D01*
X187800001Y-121500000D01*
X187824505Y-121501204D01*
X187824505Y-121501204D01*
G37*
D18*
X187350000Y-122075000D03*
D17*
G36*
X187824505Y-123551204D02*
G01*
X187848773Y-123554804D01*
X187872572Y-123560765D01*
X187895671Y-123569030D01*
X187917850Y-123579520D01*
X187938893Y-123592132D01*
X187958599Y-123606747D01*
X187976777Y-123623223D01*
X187993253Y-123641401D01*
X188007868Y-123661107D01*
X188020480Y-123682150D01*
X188030970Y-123704329D01*
X188039235Y-123727428D01*
X188045196Y-123751227D01*
X188048796Y-123775495D01*
X188050000Y-123799999D01*
X188050000Y-124450001D01*
X188048796Y-124474505D01*
X188045196Y-124498773D01*
X188039235Y-124522572D01*
X188030970Y-124545671D01*
X188020480Y-124567850D01*
X188007868Y-124588893D01*
X187993253Y-124608599D01*
X187976777Y-124626777D01*
X187958599Y-124643253D01*
X187938893Y-124657868D01*
X187917850Y-124670480D01*
X187895671Y-124680970D01*
X187872572Y-124689235D01*
X187848773Y-124695196D01*
X187824505Y-124698796D01*
X187800001Y-124700000D01*
X186899999Y-124700000D01*
X186875495Y-124698796D01*
X186851227Y-124695196D01*
X186827428Y-124689235D01*
X186804329Y-124680970D01*
X186782150Y-124670480D01*
X186761107Y-124657868D01*
X186741401Y-124643253D01*
X186723223Y-124626777D01*
X186706747Y-124608599D01*
X186692132Y-124588893D01*
X186679520Y-124567850D01*
X186669030Y-124545671D01*
X186660765Y-124522572D01*
X186654804Y-124498773D01*
X186651204Y-124474505D01*
X186650000Y-124450001D01*
X186650000Y-123799999D01*
X186651204Y-123775495D01*
X186654804Y-123751227D01*
X186660765Y-123727428D01*
X186669030Y-123704329D01*
X186679520Y-123682150D01*
X186692132Y-123661107D01*
X186706747Y-123641401D01*
X186723223Y-123623223D01*
X186741401Y-123606747D01*
X186761107Y-123592132D01*
X186782150Y-123579520D01*
X186804329Y-123569030D01*
X186827428Y-123560765D01*
X186851227Y-123554804D01*
X186875495Y-123551204D01*
X186899999Y-123550000D01*
X187800001Y-123550000D01*
X187824505Y-123551204D01*
X187824505Y-123551204D01*
G37*
D18*
X187350000Y-124125000D03*
D17*
G36*
X189824505Y-123551204D02*
G01*
X189848773Y-123554804D01*
X189872572Y-123560765D01*
X189895671Y-123569030D01*
X189917850Y-123579520D01*
X189938893Y-123592132D01*
X189958599Y-123606747D01*
X189976777Y-123623223D01*
X189993253Y-123641401D01*
X190007868Y-123661107D01*
X190020480Y-123682150D01*
X190030970Y-123704329D01*
X190039235Y-123727428D01*
X190045196Y-123751227D01*
X190048796Y-123775495D01*
X190050000Y-123799999D01*
X190050000Y-124450001D01*
X190048796Y-124474505D01*
X190045196Y-124498773D01*
X190039235Y-124522572D01*
X190030970Y-124545671D01*
X190020480Y-124567850D01*
X190007868Y-124588893D01*
X189993253Y-124608599D01*
X189976777Y-124626777D01*
X189958599Y-124643253D01*
X189938893Y-124657868D01*
X189917850Y-124670480D01*
X189895671Y-124680970D01*
X189872572Y-124689235D01*
X189848773Y-124695196D01*
X189824505Y-124698796D01*
X189800001Y-124700000D01*
X188899999Y-124700000D01*
X188875495Y-124698796D01*
X188851227Y-124695196D01*
X188827428Y-124689235D01*
X188804329Y-124680970D01*
X188782150Y-124670480D01*
X188761107Y-124657868D01*
X188741401Y-124643253D01*
X188723223Y-124626777D01*
X188706747Y-124608599D01*
X188692132Y-124588893D01*
X188679520Y-124567850D01*
X188669030Y-124545671D01*
X188660765Y-124522572D01*
X188654804Y-124498773D01*
X188651204Y-124474505D01*
X188650000Y-124450001D01*
X188650000Y-123799999D01*
X188651204Y-123775495D01*
X188654804Y-123751227D01*
X188660765Y-123727428D01*
X188669030Y-123704329D01*
X188679520Y-123682150D01*
X188692132Y-123661107D01*
X188706747Y-123641401D01*
X188723223Y-123623223D01*
X188741401Y-123606747D01*
X188761107Y-123592132D01*
X188782150Y-123579520D01*
X188804329Y-123569030D01*
X188827428Y-123560765D01*
X188851227Y-123554804D01*
X188875495Y-123551204D01*
X188899999Y-123550000D01*
X189800001Y-123550000D01*
X189824505Y-123551204D01*
X189824505Y-123551204D01*
G37*
D18*
X189350000Y-124125000D03*
D17*
G36*
X189824505Y-121501204D02*
G01*
X189848773Y-121504804D01*
X189872572Y-121510765D01*
X189895671Y-121519030D01*
X189917850Y-121529520D01*
X189938893Y-121542132D01*
X189958599Y-121556747D01*
X189976777Y-121573223D01*
X189993253Y-121591401D01*
X190007868Y-121611107D01*
X190020480Y-121632150D01*
X190030970Y-121654329D01*
X190039235Y-121677428D01*
X190045196Y-121701227D01*
X190048796Y-121725495D01*
X190050000Y-121749999D01*
X190050000Y-122400001D01*
X190048796Y-122424505D01*
X190045196Y-122448773D01*
X190039235Y-122472572D01*
X190030970Y-122495671D01*
X190020480Y-122517850D01*
X190007868Y-122538893D01*
X189993253Y-122558599D01*
X189976777Y-122576777D01*
X189958599Y-122593253D01*
X189938893Y-122607868D01*
X189917850Y-122620480D01*
X189895671Y-122630970D01*
X189872572Y-122639235D01*
X189848773Y-122645196D01*
X189824505Y-122648796D01*
X189800001Y-122650000D01*
X188899999Y-122650000D01*
X188875495Y-122648796D01*
X188851227Y-122645196D01*
X188827428Y-122639235D01*
X188804329Y-122630970D01*
X188782150Y-122620480D01*
X188761107Y-122607868D01*
X188741401Y-122593253D01*
X188723223Y-122576777D01*
X188706747Y-122558599D01*
X188692132Y-122538893D01*
X188679520Y-122517850D01*
X188669030Y-122495671D01*
X188660765Y-122472572D01*
X188654804Y-122448773D01*
X188651204Y-122424505D01*
X188650000Y-122400001D01*
X188650000Y-121749999D01*
X188651204Y-121725495D01*
X188654804Y-121701227D01*
X188660765Y-121677428D01*
X188669030Y-121654329D01*
X188679520Y-121632150D01*
X188692132Y-121611107D01*
X188706747Y-121591401D01*
X188723223Y-121573223D01*
X188741401Y-121556747D01*
X188761107Y-121542132D01*
X188782150Y-121529520D01*
X188804329Y-121519030D01*
X188827428Y-121510765D01*
X188851227Y-121504804D01*
X188875495Y-121501204D01*
X188899999Y-121500000D01*
X189800001Y-121500000D01*
X189824505Y-121501204D01*
X189824505Y-121501204D01*
G37*
D18*
X189350000Y-122075000D03*
D17*
G36*
X150974505Y-120901204D02*
G01*
X150998773Y-120904804D01*
X151022572Y-120910765D01*
X151045671Y-120919030D01*
X151067850Y-120929520D01*
X151088893Y-120942132D01*
X151108599Y-120956747D01*
X151126777Y-120973223D01*
X151143253Y-120991401D01*
X151157868Y-121011107D01*
X151170480Y-121032150D01*
X151180970Y-121054329D01*
X151189235Y-121077428D01*
X151195196Y-121101227D01*
X151198796Y-121125495D01*
X151200000Y-121149999D01*
X151200000Y-122050001D01*
X151198796Y-122074505D01*
X151195196Y-122098773D01*
X151189235Y-122122572D01*
X151180970Y-122145671D01*
X151170480Y-122167850D01*
X151157868Y-122188893D01*
X151143253Y-122208599D01*
X151126777Y-122226777D01*
X151108599Y-122243253D01*
X151088893Y-122257868D01*
X151067850Y-122270480D01*
X151045671Y-122280970D01*
X151022572Y-122289235D01*
X150998773Y-122295196D01*
X150974505Y-122298796D01*
X150950001Y-122300000D01*
X150299999Y-122300000D01*
X150275495Y-122298796D01*
X150251227Y-122295196D01*
X150227428Y-122289235D01*
X150204329Y-122280970D01*
X150182150Y-122270480D01*
X150161107Y-122257868D01*
X150141401Y-122243253D01*
X150123223Y-122226777D01*
X150106747Y-122208599D01*
X150092132Y-122188893D01*
X150079520Y-122167850D01*
X150069030Y-122145671D01*
X150060765Y-122122572D01*
X150054804Y-122098773D01*
X150051204Y-122074505D01*
X150050000Y-122050001D01*
X150050000Y-121149999D01*
X150051204Y-121125495D01*
X150054804Y-121101227D01*
X150060765Y-121077428D01*
X150069030Y-121054329D01*
X150079520Y-121032150D01*
X150092132Y-121011107D01*
X150106747Y-120991401D01*
X150123223Y-120973223D01*
X150141401Y-120956747D01*
X150161107Y-120942132D01*
X150182150Y-120929520D01*
X150204329Y-120919030D01*
X150227428Y-120910765D01*
X150251227Y-120904804D01*
X150275495Y-120901204D01*
X150299999Y-120900000D01*
X150950001Y-120900000D01*
X150974505Y-120901204D01*
X150974505Y-120901204D01*
G37*
D18*
X150625000Y-121600000D03*
D17*
G36*
X148924505Y-120901204D02*
G01*
X148948773Y-120904804D01*
X148972572Y-120910765D01*
X148995671Y-120919030D01*
X149017850Y-120929520D01*
X149038893Y-120942132D01*
X149058599Y-120956747D01*
X149076777Y-120973223D01*
X149093253Y-120991401D01*
X149107868Y-121011107D01*
X149120480Y-121032150D01*
X149130970Y-121054329D01*
X149139235Y-121077428D01*
X149145196Y-121101227D01*
X149148796Y-121125495D01*
X149150000Y-121149999D01*
X149150000Y-122050001D01*
X149148796Y-122074505D01*
X149145196Y-122098773D01*
X149139235Y-122122572D01*
X149130970Y-122145671D01*
X149120480Y-122167850D01*
X149107868Y-122188893D01*
X149093253Y-122208599D01*
X149076777Y-122226777D01*
X149058599Y-122243253D01*
X149038893Y-122257868D01*
X149017850Y-122270480D01*
X148995671Y-122280970D01*
X148972572Y-122289235D01*
X148948773Y-122295196D01*
X148924505Y-122298796D01*
X148900001Y-122300000D01*
X148249999Y-122300000D01*
X148225495Y-122298796D01*
X148201227Y-122295196D01*
X148177428Y-122289235D01*
X148154329Y-122280970D01*
X148132150Y-122270480D01*
X148111107Y-122257868D01*
X148091401Y-122243253D01*
X148073223Y-122226777D01*
X148056747Y-122208599D01*
X148042132Y-122188893D01*
X148029520Y-122167850D01*
X148019030Y-122145671D01*
X148010765Y-122122572D01*
X148004804Y-122098773D01*
X148001204Y-122074505D01*
X148000000Y-122050001D01*
X148000000Y-121149999D01*
X148001204Y-121125495D01*
X148004804Y-121101227D01*
X148010765Y-121077428D01*
X148019030Y-121054329D01*
X148029520Y-121032150D01*
X148042132Y-121011107D01*
X148056747Y-120991401D01*
X148073223Y-120973223D01*
X148091401Y-120956747D01*
X148111107Y-120942132D01*
X148132150Y-120929520D01*
X148154329Y-120919030D01*
X148177428Y-120910765D01*
X148201227Y-120904804D01*
X148225495Y-120901204D01*
X148249999Y-120900000D01*
X148900001Y-120900000D01*
X148924505Y-120901204D01*
X148924505Y-120901204D01*
G37*
D18*
X148575000Y-121600000D03*
D17*
G36*
X148924505Y-122901204D02*
G01*
X148948773Y-122904804D01*
X148972572Y-122910765D01*
X148995671Y-122919030D01*
X149017850Y-122929520D01*
X149038893Y-122942132D01*
X149058599Y-122956747D01*
X149076777Y-122973223D01*
X149093253Y-122991401D01*
X149107868Y-123011107D01*
X149120480Y-123032150D01*
X149130970Y-123054329D01*
X149139235Y-123077428D01*
X149145196Y-123101227D01*
X149148796Y-123125495D01*
X149150000Y-123149999D01*
X149150000Y-124050001D01*
X149148796Y-124074505D01*
X149145196Y-124098773D01*
X149139235Y-124122572D01*
X149130970Y-124145671D01*
X149120480Y-124167850D01*
X149107868Y-124188893D01*
X149093253Y-124208599D01*
X149076777Y-124226777D01*
X149058599Y-124243253D01*
X149038893Y-124257868D01*
X149017850Y-124270480D01*
X148995671Y-124280970D01*
X148972572Y-124289235D01*
X148948773Y-124295196D01*
X148924505Y-124298796D01*
X148900001Y-124300000D01*
X148249999Y-124300000D01*
X148225495Y-124298796D01*
X148201227Y-124295196D01*
X148177428Y-124289235D01*
X148154329Y-124280970D01*
X148132150Y-124270480D01*
X148111107Y-124257868D01*
X148091401Y-124243253D01*
X148073223Y-124226777D01*
X148056747Y-124208599D01*
X148042132Y-124188893D01*
X148029520Y-124167850D01*
X148019030Y-124145671D01*
X148010765Y-124122572D01*
X148004804Y-124098773D01*
X148001204Y-124074505D01*
X148000000Y-124050001D01*
X148000000Y-123149999D01*
X148001204Y-123125495D01*
X148004804Y-123101227D01*
X148010765Y-123077428D01*
X148019030Y-123054329D01*
X148029520Y-123032150D01*
X148042132Y-123011107D01*
X148056747Y-122991401D01*
X148073223Y-122973223D01*
X148091401Y-122956747D01*
X148111107Y-122942132D01*
X148132150Y-122929520D01*
X148154329Y-122919030D01*
X148177428Y-122910765D01*
X148201227Y-122904804D01*
X148225495Y-122901204D01*
X148249999Y-122900000D01*
X148900001Y-122900000D01*
X148924505Y-122901204D01*
X148924505Y-122901204D01*
G37*
D18*
X148575000Y-123600000D03*
D17*
G36*
X150974505Y-122901204D02*
G01*
X150998773Y-122904804D01*
X151022572Y-122910765D01*
X151045671Y-122919030D01*
X151067850Y-122929520D01*
X151088893Y-122942132D01*
X151108599Y-122956747D01*
X151126777Y-122973223D01*
X151143253Y-122991401D01*
X151157868Y-123011107D01*
X151170480Y-123032150D01*
X151180970Y-123054329D01*
X151189235Y-123077428D01*
X151195196Y-123101227D01*
X151198796Y-123125495D01*
X151200000Y-123149999D01*
X151200000Y-124050001D01*
X151198796Y-124074505D01*
X151195196Y-124098773D01*
X151189235Y-124122572D01*
X151180970Y-124145671D01*
X151170480Y-124167850D01*
X151157868Y-124188893D01*
X151143253Y-124208599D01*
X151126777Y-124226777D01*
X151108599Y-124243253D01*
X151088893Y-124257868D01*
X151067850Y-124270480D01*
X151045671Y-124280970D01*
X151022572Y-124289235D01*
X150998773Y-124295196D01*
X150974505Y-124298796D01*
X150950001Y-124300000D01*
X150299999Y-124300000D01*
X150275495Y-124298796D01*
X150251227Y-124295196D01*
X150227428Y-124289235D01*
X150204329Y-124280970D01*
X150182150Y-124270480D01*
X150161107Y-124257868D01*
X150141401Y-124243253D01*
X150123223Y-124226777D01*
X150106747Y-124208599D01*
X150092132Y-124188893D01*
X150079520Y-124167850D01*
X150069030Y-124145671D01*
X150060765Y-124122572D01*
X150054804Y-124098773D01*
X150051204Y-124074505D01*
X150050000Y-124050001D01*
X150050000Y-123149999D01*
X150051204Y-123125495D01*
X150054804Y-123101227D01*
X150060765Y-123077428D01*
X150069030Y-123054329D01*
X150079520Y-123032150D01*
X150092132Y-123011107D01*
X150106747Y-122991401D01*
X150123223Y-122973223D01*
X150141401Y-122956747D01*
X150161107Y-122942132D01*
X150182150Y-122929520D01*
X150204329Y-122919030D01*
X150227428Y-122910765D01*
X150251227Y-122904804D01*
X150275495Y-122901204D01*
X150299999Y-122900000D01*
X150950001Y-122900000D01*
X150974505Y-122901204D01*
X150974505Y-122901204D01*
G37*
D18*
X150625000Y-123600000D03*
D17*
G36*
X150949505Y-124901204D02*
G01*
X150973773Y-124904804D01*
X150997572Y-124910765D01*
X151020671Y-124919030D01*
X151042850Y-124929520D01*
X151063893Y-124942132D01*
X151083599Y-124956747D01*
X151101777Y-124973223D01*
X151118253Y-124991401D01*
X151132868Y-125011107D01*
X151145480Y-125032150D01*
X151155970Y-125054329D01*
X151164235Y-125077428D01*
X151170196Y-125101227D01*
X151173796Y-125125495D01*
X151175000Y-125149999D01*
X151175000Y-126050001D01*
X151173796Y-126074505D01*
X151170196Y-126098773D01*
X151164235Y-126122572D01*
X151155970Y-126145671D01*
X151145480Y-126167850D01*
X151132868Y-126188893D01*
X151118253Y-126208599D01*
X151101777Y-126226777D01*
X151083599Y-126243253D01*
X151063893Y-126257868D01*
X151042850Y-126270480D01*
X151020671Y-126280970D01*
X150997572Y-126289235D01*
X150973773Y-126295196D01*
X150949505Y-126298796D01*
X150925001Y-126300000D01*
X150274999Y-126300000D01*
X150250495Y-126298796D01*
X150226227Y-126295196D01*
X150202428Y-126289235D01*
X150179329Y-126280970D01*
X150157150Y-126270480D01*
X150136107Y-126257868D01*
X150116401Y-126243253D01*
X150098223Y-126226777D01*
X150081747Y-126208599D01*
X150067132Y-126188893D01*
X150054520Y-126167850D01*
X150044030Y-126145671D01*
X150035765Y-126122572D01*
X150029804Y-126098773D01*
X150026204Y-126074505D01*
X150025000Y-126050001D01*
X150025000Y-125149999D01*
X150026204Y-125125495D01*
X150029804Y-125101227D01*
X150035765Y-125077428D01*
X150044030Y-125054329D01*
X150054520Y-125032150D01*
X150067132Y-125011107D01*
X150081747Y-124991401D01*
X150098223Y-124973223D01*
X150116401Y-124956747D01*
X150136107Y-124942132D01*
X150157150Y-124929520D01*
X150179329Y-124919030D01*
X150202428Y-124910765D01*
X150226227Y-124904804D01*
X150250495Y-124901204D01*
X150274999Y-124900000D01*
X150925001Y-124900000D01*
X150949505Y-124901204D01*
X150949505Y-124901204D01*
G37*
D18*
X150600000Y-125600000D03*
D17*
G36*
X148899505Y-124901204D02*
G01*
X148923773Y-124904804D01*
X148947572Y-124910765D01*
X148970671Y-124919030D01*
X148992850Y-124929520D01*
X149013893Y-124942132D01*
X149033599Y-124956747D01*
X149051777Y-124973223D01*
X149068253Y-124991401D01*
X149082868Y-125011107D01*
X149095480Y-125032150D01*
X149105970Y-125054329D01*
X149114235Y-125077428D01*
X149120196Y-125101227D01*
X149123796Y-125125495D01*
X149125000Y-125149999D01*
X149125000Y-126050001D01*
X149123796Y-126074505D01*
X149120196Y-126098773D01*
X149114235Y-126122572D01*
X149105970Y-126145671D01*
X149095480Y-126167850D01*
X149082868Y-126188893D01*
X149068253Y-126208599D01*
X149051777Y-126226777D01*
X149033599Y-126243253D01*
X149013893Y-126257868D01*
X148992850Y-126270480D01*
X148970671Y-126280970D01*
X148947572Y-126289235D01*
X148923773Y-126295196D01*
X148899505Y-126298796D01*
X148875001Y-126300000D01*
X148224999Y-126300000D01*
X148200495Y-126298796D01*
X148176227Y-126295196D01*
X148152428Y-126289235D01*
X148129329Y-126280970D01*
X148107150Y-126270480D01*
X148086107Y-126257868D01*
X148066401Y-126243253D01*
X148048223Y-126226777D01*
X148031747Y-126208599D01*
X148017132Y-126188893D01*
X148004520Y-126167850D01*
X147994030Y-126145671D01*
X147985765Y-126122572D01*
X147979804Y-126098773D01*
X147976204Y-126074505D01*
X147975000Y-126050001D01*
X147975000Y-125149999D01*
X147976204Y-125125495D01*
X147979804Y-125101227D01*
X147985765Y-125077428D01*
X147994030Y-125054329D01*
X148004520Y-125032150D01*
X148017132Y-125011107D01*
X148031747Y-124991401D01*
X148048223Y-124973223D01*
X148066401Y-124956747D01*
X148086107Y-124942132D01*
X148107150Y-124929520D01*
X148129329Y-124919030D01*
X148152428Y-124910765D01*
X148176227Y-124904804D01*
X148200495Y-124901204D01*
X148224999Y-124900000D01*
X148875001Y-124900000D01*
X148899505Y-124901204D01*
X148899505Y-124901204D01*
G37*
D18*
X148550000Y-125600000D03*
D20*
X102600000Y-144850000D03*
X102600000Y-140350000D03*
X109100000Y-144850000D03*
X109100000Y-140350000D03*
X109200000Y-128550000D03*
X109200000Y-133050000D03*
X102700000Y-128550000D03*
X102700000Y-133050000D03*
D11*
X155650000Y-55800000D03*
D12*
X170890000Y-88820000D03*
X155650000Y-58340000D03*
X170890000Y-86280000D03*
X155650000Y-60880000D03*
X170890000Y-83740000D03*
X155650000Y-63420000D03*
X170890000Y-81200000D03*
X155650000Y-65960000D03*
X170890000Y-78660000D03*
X155650000Y-68500000D03*
X170890000Y-76120000D03*
X155650000Y-71040000D03*
X170890000Y-73580000D03*
X155650000Y-73580000D03*
X170890000Y-71040000D03*
X155650000Y-76120000D03*
X170890000Y-68500000D03*
X155650000Y-78660000D03*
X170890000Y-65960000D03*
X155650000Y-81200000D03*
X170890000Y-63420000D03*
X155650000Y-83740000D03*
X170890000Y-60880000D03*
X155650000Y-86280000D03*
X170890000Y-58340000D03*
X155650000Y-88820000D03*
X170890000Y-55800000D03*
X155650000Y-91360000D03*
X170890000Y-91360000D03*
D13*
X176890000Y-53800000D03*
X179430000Y-53800000D03*
X181970000Y-53800000D03*
X184510000Y-53800000D03*
D14*
X187050000Y-53800000D03*
D15*
X117150000Y-95300000D03*
D13*
X121610000Y-54300000D03*
X124150000Y-54300000D03*
X126690000Y-54300000D03*
X129230000Y-54300000D03*
X131770000Y-54300000D03*
X134310000Y-54300000D03*
D14*
X136850000Y-54300000D03*
D13*
X107100000Y-65285000D03*
X107100000Y-72905000D03*
X107100000Y-70365000D03*
X107100000Y-67825000D03*
X104560000Y-65285000D03*
X104560000Y-72905000D03*
X104560000Y-70365000D03*
X104560000Y-67825000D03*
X135040000Y-65250000D03*
X135040000Y-72870000D03*
X135040000Y-70330000D03*
X135040000Y-67790000D03*
X109640000Y-65250000D03*
X132500000Y-65250000D03*
X129960000Y-65250000D03*
X127420000Y-65250000D03*
X124880000Y-65250000D03*
X122340000Y-65250000D03*
X119800000Y-65250000D03*
X117260000Y-65250000D03*
X114720000Y-65250000D03*
X112180000Y-65250000D03*
X109640000Y-72870000D03*
X132500000Y-72870000D03*
X129960000Y-72870000D03*
X127420000Y-72870000D03*
X124880000Y-72870000D03*
X122340000Y-72870000D03*
X119800000Y-72870000D03*
X117260000Y-72870000D03*
X114720000Y-72870000D03*
X112180000Y-72870000D03*
X109640000Y-70330000D03*
X132500000Y-70330000D03*
X129960000Y-70330000D03*
X127420000Y-70330000D03*
X124880000Y-70330000D03*
X122340000Y-70330000D03*
X119800000Y-70330000D03*
X117260000Y-70330000D03*
X114720000Y-70330000D03*
X112180000Y-70330000D03*
X109640000Y-67790000D03*
X132500000Y-67790000D03*
X129960000Y-67790000D03*
X127420000Y-67790000D03*
X124880000Y-67790000D03*
X122340000Y-67790000D03*
X119800000Y-67790000D03*
X117260000Y-67790000D03*
X114720000Y-67790000D03*
X112180000Y-67790000D03*
D16*
X112650000Y-81600000D03*
X137650000Y-81000000D03*
D15*
X150650000Y-92150000D03*
X153050000Y-71200000D03*
X146550000Y-75700000D03*
X152850000Y-67950000D03*
X183100000Y-72600000D03*
X185350000Y-72650000D03*
X195700000Y-73000000D03*
X195600000Y-69350000D03*
X112650000Y-78400000D03*
X134850000Y-85400000D03*
X112650000Y-86200000D03*
X134850000Y-83200000D03*
D17*
G36*
X151024505Y-76801204D02*
G01*
X151048773Y-76804804D01*
X151072572Y-76810765D01*
X151095671Y-76819030D01*
X151117850Y-76829520D01*
X151138893Y-76842132D01*
X151158599Y-76856747D01*
X151176777Y-76873223D01*
X151193253Y-76891401D01*
X151207868Y-76911107D01*
X151220480Y-76932150D01*
X151230970Y-76954329D01*
X151239235Y-76977428D01*
X151245196Y-77001227D01*
X151248796Y-77025495D01*
X151250000Y-77049999D01*
X151250000Y-77950001D01*
X151248796Y-77974505D01*
X151245196Y-77998773D01*
X151239235Y-78022572D01*
X151230970Y-78045671D01*
X151220480Y-78067850D01*
X151207868Y-78088893D01*
X151193253Y-78108599D01*
X151176777Y-78126777D01*
X151158599Y-78143253D01*
X151138893Y-78157868D01*
X151117850Y-78170480D01*
X151095671Y-78180970D01*
X151072572Y-78189235D01*
X151048773Y-78195196D01*
X151024505Y-78198796D01*
X151000001Y-78200000D01*
X150349999Y-78200000D01*
X150325495Y-78198796D01*
X150301227Y-78195196D01*
X150277428Y-78189235D01*
X150254329Y-78180970D01*
X150232150Y-78170480D01*
X150211107Y-78157868D01*
X150191401Y-78143253D01*
X150173223Y-78126777D01*
X150156747Y-78108599D01*
X150142132Y-78088893D01*
X150129520Y-78067850D01*
X150119030Y-78045671D01*
X150110765Y-78022572D01*
X150104804Y-77998773D01*
X150101204Y-77974505D01*
X150100000Y-77950001D01*
X150100000Y-77049999D01*
X150101204Y-77025495D01*
X150104804Y-77001227D01*
X150110765Y-76977428D01*
X150119030Y-76954329D01*
X150129520Y-76932150D01*
X150142132Y-76911107D01*
X150156747Y-76891401D01*
X150173223Y-76873223D01*
X150191401Y-76856747D01*
X150211107Y-76842132D01*
X150232150Y-76829520D01*
X150254329Y-76819030D01*
X150277428Y-76810765D01*
X150301227Y-76804804D01*
X150325495Y-76801204D01*
X150349999Y-76800000D01*
X151000001Y-76800000D01*
X151024505Y-76801204D01*
X151024505Y-76801204D01*
G37*
D18*
X150675000Y-77500000D03*
D17*
G36*
X148974505Y-76801204D02*
G01*
X148998773Y-76804804D01*
X149022572Y-76810765D01*
X149045671Y-76819030D01*
X149067850Y-76829520D01*
X149088893Y-76842132D01*
X149108599Y-76856747D01*
X149126777Y-76873223D01*
X149143253Y-76891401D01*
X149157868Y-76911107D01*
X149170480Y-76932150D01*
X149180970Y-76954329D01*
X149189235Y-76977428D01*
X149195196Y-77001227D01*
X149198796Y-77025495D01*
X149200000Y-77049999D01*
X149200000Y-77950001D01*
X149198796Y-77974505D01*
X149195196Y-77998773D01*
X149189235Y-78022572D01*
X149180970Y-78045671D01*
X149170480Y-78067850D01*
X149157868Y-78088893D01*
X149143253Y-78108599D01*
X149126777Y-78126777D01*
X149108599Y-78143253D01*
X149088893Y-78157868D01*
X149067850Y-78170480D01*
X149045671Y-78180970D01*
X149022572Y-78189235D01*
X148998773Y-78195196D01*
X148974505Y-78198796D01*
X148950001Y-78200000D01*
X148299999Y-78200000D01*
X148275495Y-78198796D01*
X148251227Y-78195196D01*
X148227428Y-78189235D01*
X148204329Y-78180970D01*
X148182150Y-78170480D01*
X148161107Y-78157868D01*
X148141401Y-78143253D01*
X148123223Y-78126777D01*
X148106747Y-78108599D01*
X148092132Y-78088893D01*
X148079520Y-78067850D01*
X148069030Y-78045671D01*
X148060765Y-78022572D01*
X148054804Y-77998773D01*
X148051204Y-77974505D01*
X148050000Y-77950001D01*
X148050000Y-77049999D01*
X148051204Y-77025495D01*
X148054804Y-77001227D01*
X148060765Y-76977428D01*
X148069030Y-76954329D01*
X148079520Y-76932150D01*
X148092132Y-76911107D01*
X148106747Y-76891401D01*
X148123223Y-76873223D01*
X148141401Y-76856747D01*
X148161107Y-76842132D01*
X148182150Y-76829520D01*
X148204329Y-76819030D01*
X148227428Y-76810765D01*
X148251227Y-76804804D01*
X148275495Y-76801204D01*
X148299999Y-76800000D01*
X148950001Y-76800000D01*
X148974505Y-76801204D01*
X148974505Y-76801204D01*
G37*
D18*
X148625000Y-77500000D03*
D17*
G36*
X151024505Y-79301204D02*
G01*
X151048773Y-79304804D01*
X151072572Y-79310765D01*
X151095671Y-79319030D01*
X151117850Y-79329520D01*
X151138893Y-79342132D01*
X151158599Y-79356747D01*
X151176777Y-79373223D01*
X151193253Y-79391401D01*
X151207868Y-79411107D01*
X151220480Y-79432150D01*
X151230970Y-79454329D01*
X151239235Y-79477428D01*
X151245196Y-79501227D01*
X151248796Y-79525495D01*
X151250000Y-79549999D01*
X151250000Y-80450001D01*
X151248796Y-80474505D01*
X151245196Y-80498773D01*
X151239235Y-80522572D01*
X151230970Y-80545671D01*
X151220480Y-80567850D01*
X151207868Y-80588893D01*
X151193253Y-80608599D01*
X151176777Y-80626777D01*
X151158599Y-80643253D01*
X151138893Y-80657868D01*
X151117850Y-80670480D01*
X151095671Y-80680970D01*
X151072572Y-80689235D01*
X151048773Y-80695196D01*
X151024505Y-80698796D01*
X151000001Y-80700000D01*
X150349999Y-80700000D01*
X150325495Y-80698796D01*
X150301227Y-80695196D01*
X150277428Y-80689235D01*
X150254329Y-80680970D01*
X150232150Y-80670480D01*
X150211107Y-80657868D01*
X150191401Y-80643253D01*
X150173223Y-80626777D01*
X150156747Y-80608599D01*
X150142132Y-80588893D01*
X150129520Y-80567850D01*
X150119030Y-80545671D01*
X150110765Y-80522572D01*
X150104804Y-80498773D01*
X150101204Y-80474505D01*
X150100000Y-80450001D01*
X150100000Y-79549999D01*
X150101204Y-79525495D01*
X150104804Y-79501227D01*
X150110765Y-79477428D01*
X150119030Y-79454329D01*
X150129520Y-79432150D01*
X150142132Y-79411107D01*
X150156747Y-79391401D01*
X150173223Y-79373223D01*
X150191401Y-79356747D01*
X150211107Y-79342132D01*
X150232150Y-79329520D01*
X150254329Y-79319030D01*
X150277428Y-79310765D01*
X150301227Y-79304804D01*
X150325495Y-79301204D01*
X150349999Y-79300000D01*
X151000001Y-79300000D01*
X151024505Y-79301204D01*
X151024505Y-79301204D01*
G37*
D18*
X150675000Y-80000000D03*
D17*
G36*
X148974505Y-79301204D02*
G01*
X148998773Y-79304804D01*
X149022572Y-79310765D01*
X149045671Y-79319030D01*
X149067850Y-79329520D01*
X149088893Y-79342132D01*
X149108599Y-79356747D01*
X149126777Y-79373223D01*
X149143253Y-79391401D01*
X149157868Y-79411107D01*
X149170480Y-79432150D01*
X149180970Y-79454329D01*
X149189235Y-79477428D01*
X149195196Y-79501227D01*
X149198796Y-79525495D01*
X149200000Y-79549999D01*
X149200000Y-80450001D01*
X149198796Y-80474505D01*
X149195196Y-80498773D01*
X149189235Y-80522572D01*
X149180970Y-80545671D01*
X149170480Y-80567850D01*
X149157868Y-80588893D01*
X149143253Y-80608599D01*
X149126777Y-80626777D01*
X149108599Y-80643253D01*
X149088893Y-80657868D01*
X149067850Y-80670480D01*
X149045671Y-80680970D01*
X149022572Y-80689235D01*
X148998773Y-80695196D01*
X148974505Y-80698796D01*
X148950001Y-80700000D01*
X148299999Y-80700000D01*
X148275495Y-80698796D01*
X148251227Y-80695196D01*
X148227428Y-80689235D01*
X148204329Y-80680970D01*
X148182150Y-80670480D01*
X148161107Y-80657868D01*
X148141401Y-80643253D01*
X148123223Y-80626777D01*
X148106747Y-80608599D01*
X148092132Y-80588893D01*
X148079520Y-80567850D01*
X148069030Y-80545671D01*
X148060765Y-80522572D01*
X148054804Y-80498773D01*
X148051204Y-80474505D01*
X148050000Y-80450001D01*
X148050000Y-79549999D01*
X148051204Y-79525495D01*
X148054804Y-79501227D01*
X148060765Y-79477428D01*
X148069030Y-79454329D01*
X148079520Y-79432150D01*
X148092132Y-79411107D01*
X148106747Y-79391401D01*
X148123223Y-79373223D01*
X148141401Y-79356747D01*
X148161107Y-79342132D01*
X148182150Y-79329520D01*
X148204329Y-79319030D01*
X148227428Y-79310765D01*
X148251227Y-79304804D01*
X148275495Y-79301204D01*
X148299999Y-79300000D01*
X148950001Y-79300000D01*
X148974505Y-79301204D01*
X148974505Y-79301204D01*
G37*
D18*
X148625000Y-80000000D03*
D17*
G36*
X174324505Y-68551204D02*
G01*
X174348773Y-68554804D01*
X174372572Y-68560765D01*
X174395671Y-68569030D01*
X174417850Y-68579520D01*
X174438893Y-68592132D01*
X174458599Y-68606747D01*
X174476777Y-68623223D01*
X174493253Y-68641401D01*
X174507868Y-68661107D01*
X174520480Y-68682150D01*
X174530970Y-68704329D01*
X174539235Y-68727428D01*
X174545196Y-68751227D01*
X174548796Y-68775495D01*
X174550000Y-68799999D01*
X174550000Y-69450001D01*
X174548796Y-69474505D01*
X174545196Y-69498773D01*
X174539235Y-69522572D01*
X174530970Y-69545671D01*
X174520480Y-69567850D01*
X174507868Y-69588893D01*
X174493253Y-69608599D01*
X174476777Y-69626777D01*
X174458599Y-69643253D01*
X174438893Y-69657868D01*
X174417850Y-69670480D01*
X174395671Y-69680970D01*
X174372572Y-69689235D01*
X174348773Y-69695196D01*
X174324505Y-69698796D01*
X174300001Y-69700000D01*
X173399999Y-69700000D01*
X173375495Y-69698796D01*
X173351227Y-69695196D01*
X173327428Y-69689235D01*
X173304329Y-69680970D01*
X173282150Y-69670480D01*
X173261107Y-69657868D01*
X173241401Y-69643253D01*
X173223223Y-69626777D01*
X173206747Y-69608599D01*
X173192132Y-69588893D01*
X173179520Y-69567850D01*
X173169030Y-69545671D01*
X173160765Y-69522572D01*
X173154804Y-69498773D01*
X173151204Y-69474505D01*
X173150000Y-69450001D01*
X173150000Y-68799999D01*
X173151204Y-68775495D01*
X173154804Y-68751227D01*
X173160765Y-68727428D01*
X173169030Y-68704329D01*
X173179520Y-68682150D01*
X173192132Y-68661107D01*
X173206747Y-68641401D01*
X173223223Y-68623223D01*
X173241401Y-68606747D01*
X173261107Y-68592132D01*
X173282150Y-68579520D01*
X173304329Y-68569030D01*
X173327428Y-68560765D01*
X173351227Y-68554804D01*
X173375495Y-68551204D01*
X173399999Y-68550000D01*
X174300001Y-68550000D01*
X174324505Y-68551204D01*
X174324505Y-68551204D01*
G37*
D18*
X173850000Y-69125000D03*
D17*
G36*
X174324505Y-70601204D02*
G01*
X174348773Y-70604804D01*
X174372572Y-70610765D01*
X174395671Y-70619030D01*
X174417850Y-70629520D01*
X174438893Y-70642132D01*
X174458599Y-70656747D01*
X174476777Y-70673223D01*
X174493253Y-70691401D01*
X174507868Y-70711107D01*
X174520480Y-70732150D01*
X174530970Y-70754329D01*
X174539235Y-70777428D01*
X174545196Y-70801227D01*
X174548796Y-70825495D01*
X174550000Y-70849999D01*
X174550000Y-71500001D01*
X174548796Y-71524505D01*
X174545196Y-71548773D01*
X174539235Y-71572572D01*
X174530970Y-71595671D01*
X174520480Y-71617850D01*
X174507868Y-71638893D01*
X174493253Y-71658599D01*
X174476777Y-71676777D01*
X174458599Y-71693253D01*
X174438893Y-71707868D01*
X174417850Y-71720480D01*
X174395671Y-71730970D01*
X174372572Y-71739235D01*
X174348773Y-71745196D01*
X174324505Y-71748796D01*
X174300001Y-71750000D01*
X173399999Y-71750000D01*
X173375495Y-71748796D01*
X173351227Y-71745196D01*
X173327428Y-71739235D01*
X173304329Y-71730970D01*
X173282150Y-71720480D01*
X173261107Y-71707868D01*
X173241401Y-71693253D01*
X173223223Y-71676777D01*
X173206747Y-71658599D01*
X173192132Y-71638893D01*
X173179520Y-71617850D01*
X173169030Y-71595671D01*
X173160765Y-71572572D01*
X173154804Y-71548773D01*
X173151204Y-71524505D01*
X173150000Y-71500001D01*
X173150000Y-70849999D01*
X173151204Y-70825495D01*
X173154804Y-70801227D01*
X173160765Y-70777428D01*
X173169030Y-70754329D01*
X173179520Y-70732150D01*
X173192132Y-70711107D01*
X173206747Y-70691401D01*
X173223223Y-70673223D01*
X173241401Y-70656747D01*
X173261107Y-70642132D01*
X173282150Y-70629520D01*
X173304329Y-70619030D01*
X173327428Y-70610765D01*
X173351227Y-70604804D01*
X173375495Y-70601204D01*
X173399999Y-70600000D01*
X174300001Y-70600000D01*
X174324505Y-70601204D01*
X174324505Y-70601204D01*
G37*
D18*
X173850000Y-71175000D03*
D17*
G36*
X176824505Y-68551204D02*
G01*
X176848773Y-68554804D01*
X176872572Y-68560765D01*
X176895671Y-68569030D01*
X176917850Y-68579520D01*
X176938893Y-68592132D01*
X176958599Y-68606747D01*
X176976777Y-68623223D01*
X176993253Y-68641401D01*
X177007868Y-68661107D01*
X177020480Y-68682150D01*
X177030970Y-68704329D01*
X177039235Y-68727428D01*
X177045196Y-68751227D01*
X177048796Y-68775495D01*
X177050000Y-68799999D01*
X177050000Y-69450001D01*
X177048796Y-69474505D01*
X177045196Y-69498773D01*
X177039235Y-69522572D01*
X177030970Y-69545671D01*
X177020480Y-69567850D01*
X177007868Y-69588893D01*
X176993253Y-69608599D01*
X176976777Y-69626777D01*
X176958599Y-69643253D01*
X176938893Y-69657868D01*
X176917850Y-69670480D01*
X176895671Y-69680970D01*
X176872572Y-69689235D01*
X176848773Y-69695196D01*
X176824505Y-69698796D01*
X176800001Y-69700000D01*
X175899999Y-69700000D01*
X175875495Y-69698796D01*
X175851227Y-69695196D01*
X175827428Y-69689235D01*
X175804329Y-69680970D01*
X175782150Y-69670480D01*
X175761107Y-69657868D01*
X175741401Y-69643253D01*
X175723223Y-69626777D01*
X175706747Y-69608599D01*
X175692132Y-69588893D01*
X175679520Y-69567850D01*
X175669030Y-69545671D01*
X175660765Y-69522572D01*
X175654804Y-69498773D01*
X175651204Y-69474505D01*
X175650000Y-69450001D01*
X175650000Y-68799999D01*
X175651204Y-68775495D01*
X175654804Y-68751227D01*
X175660765Y-68727428D01*
X175669030Y-68704329D01*
X175679520Y-68682150D01*
X175692132Y-68661107D01*
X175706747Y-68641401D01*
X175723223Y-68623223D01*
X175741401Y-68606747D01*
X175761107Y-68592132D01*
X175782150Y-68579520D01*
X175804329Y-68569030D01*
X175827428Y-68560765D01*
X175851227Y-68554804D01*
X175875495Y-68551204D01*
X175899999Y-68550000D01*
X176800001Y-68550000D01*
X176824505Y-68551204D01*
X176824505Y-68551204D01*
G37*
D18*
X176350000Y-69125000D03*
D17*
G36*
X176824505Y-70601204D02*
G01*
X176848773Y-70604804D01*
X176872572Y-70610765D01*
X176895671Y-70619030D01*
X176917850Y-70629520D01*
X176938893Y-70642132D01*
X176958599Y-70656747D01*
X176976777Y-70673223D01*
X176993253Y-70691401D01*
X177007868Y-70711107D01*
X177020480Y-70732150D01*
X177030970Y-70754329D01*
X177039235Y-70777428D01*
X177045196Y-70801227D01*
X177048796Y-70825495D01*
X177050000Y-70849999D01*
X177050000Y-71500001D01*
X177048796Y-71524505D01*
X177045196Y-71548773D01*
X177039235Y-71572572D01*
X177030970Y-71595671D01*
X177020480Y-71617850D01*
X177007868Y-71638893D01*
X176993253Y-71658599D01*
X176976777Y-71676777D01*
X176958599Y-71693253D01*
X176938893Y-71707868D01*
X176917850Y-71720480D01*
X176895671Y-71730970D01*
X176872572Y-71739235D01*
X176848773Y-71745196D01*
X176824505Y-71748796D01*
X176800001Y-71750000D01*
X175899999Y-71750000D01*
X175875495Y-71748796D01*
X175851227Y-71745196D01*
X175827428Y-71739235D01*
X175804329Y-71730970D01*
X175782150Y-71720480D01*
X175761107Y-71707868D01*
X175741401Y-71693253D01*
X175723223Y-71676777D01*
X175706747Y-71658599D01*
X175692132Y-71638893D01*
X175679520Y-71617850D01*
X175669030Y-71595671D01*
X175660765Y-71572572D01*
X175654804Y-71548773D01*
X175651204Y-71524505D01*
X175650000Y-71500001D01*
X175650000Y-70849999D01*
X175651204Y-70825495D01*
X175654804Y-70801227D01*
X175660765Y-70777428D01*
X175669030Y-70754329D01*
X175679520Y-70732150D01*
X175692132Y-70711107D01*
X175706747Y-70691401D01*
X175723223Y-70673223D01*
X175741401Y-70656747D01*
X175761107Y-70642132D01*
X175782150Y-70629520D01*
X175804329Y-70619030D01*
X175827428Y-70610765D01*
X175851227Y-70604804D01*
X175875495Y-70601204D01*
X175899999Y-70600000D01*
X176800001Y-70600000D01*
X176824505Y-70601204D01*
X176824505Y-70601204D01*
G37*
D18*
X176350000Y-71175000D03*
D19*
X139550000Y-88100000D03*
X139550000Y-93100000D03*
X142050000Y-90600000D03*
X144550000Y-90600000D03*
D20*
X117150000Y-84600000D03*
X117150000Y-89600000D03*
D21*
X124150000Y-81500000D03*
X124150000Y-92700000D03*
D20*
X131650000Y-84600000D03*
X131650000Y-87100000D03*
D22*
X131650000Y-89600000D03*
D23*
X195170000Y-52530000D03*
X192630000Y-52530000D03*
X195170000Y-55070000D03*
X192630000Y-55070000D03*
D24*
X141400000Y-73860000D03*
X141400000Y-72590000D03*
X141400000Y-71320000D03*
D25*
X141400000Y-70050000D03*
D26*
X190860000Y-78300000D03*
D27*
X193400000Y-78300000D03*
D26*
X180400000Y-78300000D03*
D27*
X177860000Y-78300000D03*
X190860000Y-84800000D03*
D26*
X193400000Y-84800000D03*
D27*
X184360000Y-91300000D03*
D26*
X186900000Y-91300000D03*
X193400000Y-91300000D03*
D27*
X190860000Y-91300000D03*
X186940000Y-84800000D03*
D26*
X184400000Y-84800000D03*
X177900000Y-84800000D03*
D27*
X180440000Y-84800000D03*
D26*
X180400000Y-91300000D03*
D27*
X177860000Y-91300000D03*
X186940000Y-78300000D03*
D26*
X184400000Y-78300000D03*
D13*
X116350000Y-54300000D03*
X113810000Y-54300000D03*
X111270000Y-54300000D03*
X108730000Y-54300000D03*
X106190000Y-54300000D03*
D14*
X103650000Y-54300000D03*
D17*
G36*
X149174505Y-65951204D02*
G01*
X149198773Y-65954804D01*
X149222572Y-65960765D01*
X149245671Y-65969030D01*
X149267850Y-65979520D01*
X149288893Y-65992132D01*
X149308599Y-66006747D01*
X149326777Y-66023223D01*
X149343253Y-66041401D01*
X149357868Y-66061107D01*
X149370480Y-66082150D01*
X149380970Y-66104329D01*
X149389235Y-66127428D01*
X149395196Y-66151227D01*
X149398796Y-66175495D01*
X149400000Y-66199999D01*
X149400000Y-67100001D01*
X149398796Y-67124505D01*
X149395196Y-67148773D01*
X149389235Y-67172572D01*
X149380970Y-67195671D01*
X149370480Y-67217850D01*
X149357868Y-67238893D01*
X149343253Y-67258599D01*
X149326777Y-67276777D01*
X149308599Y-67293253D01*
X149288893Y-67307868D01*
X149267850Y-67320480D01*
X149245671Y-67330970D01*
X149222572Y-67339235D01*
X149198773Y-67345196D01*
X149174505Y-67348796D01*
X149150001Y-67350000D01*
X148499999Y-67350000D01*
X148475495Y-67348796D01*
X148451227Y-67345196D01*
X148427428Y-67339235D01*
X148404329Y-67330970D01*
X148382150Y-67320480D01*
X148361107Y-67307868D01*
X148341401Y-67293253D01*
X148323223Y-67276777D01*
X148306747Y-67258599D01*
X148292132Y-67238893D01*
X148279520Y-67217850D01*
X148269030Y-67195671D01*
X148260765Y-67172572D01*
X148254804Y-67148773D01*
X148251204Y-67124505D01*
X148250000Y-67100001D01*
X148250000Y-66199999D01*
X148251204Y-66175495D01*
X148254804Y-66151227D01*
X148260765Y-66127428D01*
X148269030Y-66104329D01*
X148279520Y-66082150D01*
X148292132Y-66061107D01*
X148306747Y-66041401D01*
X148323223Y-66023223D01*
X148341401Y-66006747D01*
X148361107Y-65992132D01*
X148382150Y-65979520D01*
X148404329Y-65969030D01*
X148427428Y-65960765D01*
X148451227Y-65954804D01*
X148475495Y-65951204D01*
X148499999Y-65950000D01*
X149150001Y-65950000D01*
X149174505Y-65951204D01*
X149174505Y-65951204D01*
G37*
D18*
X148825000Y-66650000D03*
D17*
G36*
X151224505Y-65951204D02*
G01*
X151248773Y-65954804D01*
X151272572Y-65960765D01*
X151295671Y-65969030D01*
X151317850Y-65979520D01*
X151338893Y-65992132D01*
X151358599Y-66006747D01*
X151376777Y-66023223D01*
X151393253Y-66041401D01*
X151407868Y-66061107D01*
X151420480Y-66082150D01*
X151430970Y-66104329D01*
X151439235Y-66127428D01*
X151445196Y-66151227D01*
X151448796Y-66175495D01*
X151450000Y-66199999D01*
X151450000Y-67100001D01*
X151448796Y-67124505D01*
X151445196Y-67148773D01*
X151439235Y-67172572D01*
X151430970Y-67195671D01*
X151420480Y-67217850D01*
X151407868Y-67238893D01*
X151393253Y-67258599D01*
X151376777Y-67276777D01*
X151358599Y-67293253D01*
X151338893Y-67307868D01*
X151317850Y-67320480D01*
X151295671Y-67330970D01*
X151272572Y-67339235D01*
X151248773Y-67345196D01*
X151224505Y-67348796D01*
X151200001Y-67350000D01*
X150549999Y-67350000D01*
X150525495Y-67348796D01*
X150501227Y-67345196D01*
X150477428Y-67339235D01*
X150454329Y-67330970D01*
X150432150Y-67320480D01*
X150411107Y-67307868D01*
X150391401Y-67293253D01*
X150373223Y-67276777D01*
X150356747Y-67258599D01*
X150342132Y-67238893D01*
X150329520Y-67217850D01*
X150319030Y-67195671D01*
X150310765Y-67172572D01*
X150304804Y-67148773D01*
X150301204Y-67124505D01*
X150300000Y-67100001D01*
X150300000Y-66199999D01*
X150301204Y-66175495D01*
X150304804Y-66151227D01*
X150310765Y-66127428D01*
X150319030Y-66104329D01*
X150329520Y-66082150D01*
X150342132Y-66061107D01*
X150356747Y-66041401D01*
X150373223Y-66023223D01*
X150391401Y-66006747D01*
X150411107Y-65992132D01*
X150432150Y-65979520D01*
X150454329Y-65969030D01*
X150477428Y-65960765D01*
X150501227Y-65954804D01*
X150525495Y-65951204D01*
X150549999Y-65950000D01*
X151200001Y-65950000D01*
X151224505Y-65951204D01*
X151224505Y-65951204D01*
G37*
D18*
X150875000Y-66650000D03*
D17*
G36*
X151024505Y-81751204D02*
G01*
X151048773Y-81754804D01*
X151072572Y-81760765D01*
X151095671Y-81769030D01*
X151117850Y-81779520D01*
X151138893Y-81792132D01*
X151158599Y-81806747D01*
X151176777Y-81823223D01*
X151193253Y-81841401D01*
X151207868Y-81861107D01*
X151220480Y-81882150D01*
X151230970Y-81904329D01*
X151239235Y-81927428D01*
X151245196Y-81951227D01*
X151248796Y-81975495D01*
X151250000Y-81999999D01*
X151250000Y-82900001D01*
X151248796Y-82924505D01*
X151245196Y-82948773D01*
X151239235Y-82972572D01*
X151230970Y-82995671D01*
X151220480Y-83017850D01*
X151207868Y-83038893D01*
X151193253Y-83058599D01*
X151176777Y-83076777D01*
X151158599Y-83093253D01*
X151138893Y-83107868D01*
X151117850Y-83120480D01*
X151095671Y-83130970D01*
X151072572Y-83139235D01*
X151048773Y-83145196D01*
X151024505Y-83148796D01*
X151000001Y-83150000D01*
X150349999Y-83150000D01*
X150325495Y-83148796D01*
X150301227Y-83145196D01*
X150277428Y-83139235D01*
X150254329Y-83130970D01*
X150232150Y-83120480D01*
X150211107Y-83107868D01*
X150191401Y-83093253D01*
X150173223Y-83076777D01*
X150156747Y-83058599D01*
X150142132Y-83038893D01*
X150129520Y-83017850D01*
X150119030Y-82995671D01*
X150110765Y-82972572D01*
X150104804Y-82948773D01*
X150101204Y-82924505D01*
X150100000Y-82900001D01*
X150100000Y-81999999D01*
X150101204Y-81975495D01*
X150104804Y-81951227D01*
X150110765Y-81927428D01*
X150119030Y-81904329D01*
X150129520Y-81882150D01*
X150142132Y-81861107D01*
X150156747Y-81841401D01*
X150173223Y-81823223D01*
X150191401Y-81806747D01*
X150211107Y-81792132D01*
X150232150Y-81779520D01*
X150254329Y-81769030D01*
X150277428Y-81760765D01*
X150301227Y-81754804D01*
X150325495Y-81751204D01*
X150349999Y-81750000D01*
X151000001Y-81750000D01*
X151024505Y-81751204D01*
X151024505Y-81751204D01*
G37*
D18*
X150675000Y-82450000D03*
D17*
G36*
X148974505Y-81751204D02*
G01*
X148998773Y-81754804D01*
X149022572Y-81760765D01*
X149045671Y-81769030D01*
X149067850Y-81779520D01*
X149088893Y-81792132D01*
X149108599Y-81806747D01*
X149126777Y-81823223D01*
X149143253Y-81841401D01*
X149157868Y-81861107D01*
X149170480Y-81882150D01*
X149180970Y-81904329D01*
X149189235Y-81927428D01*
X149195196Y-81951227D01*
X149198796Y-81975495D01*
X149200000Y-81999999D01*
X149200000Y-82900001D01*
X149198796Y-82924505D01*
X149195196Y-82948773D01*
X149189235Y-82972572D01*
X149180970Y-82995671D01*
X149170480Y-83017850D01*
X149157868Y-83038893D01*
X149143253Y-83058599D01*
X149126777Y-83076777D01*
X149108599Y-83093253D01*
X149088893Y-83107868D01*
X149067850Y-83120480D01*
X149045671Y-83130970D01*
X149022572Y-83139235D01*
X148998773Y-83145196D01*
X148974505Y-83148796D01*
X148950001Y-83150000D01*
X148299999Y-83150000D01*
X148275495Y-83148796D01*
X148251227Y-83145196D01*
X148227428Y-83139235D01*
X148204329Y-83130970D01*
X148182150Y-83120480D01*
X148161107Y-83107868D01*
X148141401Y-83093253D01*
X148123223Y-83076777D01*
X148106747Y-83058599D01*
X148092132Y-83038893D01*
X148079520Y-83017850D01*
X148069030Y-82995671D01*
X148060765Y-82972572D01*
X148054804Y-82948773D01*
X148051204Y-82924505D01*
X148050000Y-82900001D01*
X148050000Y-81999999D01*
X148051204Y-81975495D01*
X148054804Y-81951227D01*
X148060765Y-81927428D01*
X148069030Y-81904329D01*
X148079520Y-81882150D01*
X148092132Y-81861107D01*
X148106747Y-81841401D01*
X148123223Y-81823223D01*
X148141401Y-81806747D01*
X148161107Y-81792132D01*
X148182150Y-81779520D01*
X148204329Y-81769030D01*
X148227428Y-81760765D01*
X148251227Y-81754804D01*
X148275495Y-81751204D01*
X148299999Y-81750000D01*
X148950001Y-81750000D01*
X148974505Y-81751204D01*
X148974505Y-81751204D01*
G37*
D18*
X148625000Y-82450000D03*
D17*
G36*
X149174505Y-64001204D02*
G01*
X149198773Y-64004804D01*
X149222572Y-64010765D01*
X149245671Y-64019030D01*
X149267850Y-64029520D01*
X149288893Y-64042132D01*
X149308599Y-64056747D01*
X149326777Y-64073223D01*
X149343253Y-64091401D01*
X149357868Y-64111107D01*
X149370480Y-64132150D01*
X149380970Y-64154329D01*
X149389235Y-64177428D01*
X149395196Y-64201227D01*
X149398796Y-64225495D01*
X149400000Y-64249999D01*
X149400000Y-65150001D01*
X149398796Y-65174505D01*
X149395196Y-65198773D01*
X149389235Y-65222572D01*
X149380970Y-65245671D01*
X149370480Y-65267850D01*
X149357868Y-65288893D01*
X149343253Y-65308599D01*
X149326777Y-65326777D01*
X149308599Y-65343253D01*
X149288893Y-65357868D01*
X149267850Y-65370480D01*
X149245671Y-65380970D01*
X149222572Y-65389235D01*
X149198773Y-65395196D01*
X149174505Y-65398796D01*
X149150001Y-65400000D01*
X148499999Y-65400000D01*
X148475495Y-65398796D01*
X148451227Y-65395196D01*
X148427428Y-65389235D01*
X148404329Y-65380970D01*
X148382150Y-65370480D01*
X148361107Y-65357868D01*
X148341401Y-65343253D01*
X148323223Y-65326777D01*
X148306747Y-65308599D01*
X148292132Y-65288893D01*
X148279520Y-65267850D01*
X148269030Y-65245671D01*
X148260765Y-65222572D01*
X148254804Y-65198773D01*
X148251204Y-65174505D01*
X148250000Y-65150001D01*
X148250000Y-64249999D01*
X148251204Y-64225495D01*
X148254804Y-64201227D01*
X148260765Y-64177428D01*
X148269030Y-64154329D01*
X148279520Y-64132150D01*
X148292132Y-64111107D01*
X148306747Y-64091401D01*
X148323223Y-64073223D01*
X148341401Y-64056747D01*
X148361107Y-64042132D01*
X148382150Y-64029520D01*
X148404329Y-64019030D01*
X148427428Y-64010765D01*
X148451227Y-64004804D01*
X148475495Y-64001204D01*
X148499999Y-64000000D01*
X149150001Y-64000000D01*
X149174505Y-64001204D01*
X149174505Y-64001204D01*
G37*
D18*
X148825000Y-64700000D03*
D17*
G36*
X151224505Y-64001204D02*
G01*
X151248773Y-64004804D01*
X151272572Y-64010765D01*
X151295671Y-64019030D01*
X151317850Y-64029520D01*
X151338893Y-64042132D01*
X151358599Y-64056747D01*
X151376777Y-64073223D01*
X151393253Y-64091401D01*
X151407868Y-64111107D01*
X151420480Y-64132150D01*
X151430970Y-64154329D01*
X151439235Y-64177428D01*
X151445196Y-64201227D01*
X151448796Y-64225495D01*
X151450000Y-64249999D01*
X151450000Y-65150001D01*
X151448796Y-65174505D01*
X151445196Y-65198773D01*
X151439235Y-65222572D01*
X151430970Y-65245671D01*
X151420480Y-65267850D01*
X151407868Y-65288893D01*
X151393253Y-65308599D01*
X151376777Y-65326777D01*
X151358599Y-65343253D01*
X151338893Y-65357868D01*
X151317850Y-65370480D01*
X151295671Y-65380970D01*
X151272572Y-65389235D01*
X151248773Y-65395196D01*
X151224505Y-65398796D01*
X151200001Y-65400000D01*
X150549999Y-65400000D01*
X150525495Y-65398796D01*
X150501227Y-65395196D01*
X150477428Y-65389235D01*
X150454329Y-65380970D01*
X150432150Y-65370480D01*
X150411107Y-65357868D01*
X150391401Y-65343253D01*
X150373223Y-65326777D01*
X150356747Y-65308599D01*
X150342132Y-65288893D01*
X150329520Y-65267850D01*
X150319030Y-65245671D01*
X150310765Y-65222572D01*
X150304804Y-65198773D01*
X150301204Y-65174505D01*
X150300000Y-65150001D01*
X150300000Y-64249999D01*
X150301204Y-64225495D01*
X150304804Y-64201227D01*
X150310765Y-64177428D01*
X150319030Y-64154329D01*
X150329520Y-64132150D01*
X150342132Y-64111107D01*
X150356747Y-64091401D01*
X150373223Y-64073223D01*
X150391401Y-64056747D01*
X150411107Y-64042132D01*
X150432150Y-64029520D01*
X150454329Y-64019030D01*
X150477428Y-64010765D01*
X150501227Y-64004804D01*
X150525495Y-64001204D01*
X150549999Y-64000000D01*
X151200001Y-64000000D01*
X151224505Y-64001204D01*
X151224505Y-64001204D01*
G37*
D18*
X150875000Y-64700000D03*
D17*
G36*
X193874505Y-69951204D02*
G01*
X193898773Y-69954804D01*
X193922572Y-69960765D01*
X193945671Y-69969030D01*
X193967850Y-69979520D01*
X193988893Y-69992132D01*
X194008599Y-70006747D01*
X194026777Y-70023223D01*
X194043253Y-70041401D01*
X194057868Y-70061107D01*
X194070480Y-70082150D01*
X194080970Y-70104329D01*
X194089235Y-70127428D01*
X194095196Y-70151227D01*
X194098796Y-70175495D01*
X194100000Y-70199999D01*
X194100000Y-70850001D01*
X194098796Y-70874505D01*
X194095196Y-70898773D01*
X194089235Y-70922572D01*
X194080970Y-70945671D01*
X194070480Y-70967850D01*
X194057868Y-70988893D01*
X194043253Y-71008599D01*
X194026777Y-71026777D01*
X194008599Y-71043253D01*
X193988893Y-71057868D01*
X193967850Y-71070480D01*
X193945671Y-71080970D01*
X193922572Y-71089235D01*
X193898773Y-71095196D01*
X193874505Y-71098796D01*
X193850001Y-71100000D01*
X192949999Y-71100000D01*
X192925495Y-71098796D01*
X192901227Y-71095196D01*
X192877428Y-71089235D01*
X192854329Y-71080970D01*
X192832150Y-71070480D01*
X192811107Y-71057868D01*
X192791401Y-71043253D01*
X192773223Y-71026777D01*
X192756747Y-71008599D01*
X192742132Y-70988893D01*
X192729520Y-70967850D01*
X192719030Y-70945671D01*
X192710765Y-70922572D01*
X192704804Y-70898773D01*
X192701204Y-70874505D01*
X192700000Y-70850001D01*
X192700000Y-70199999D01*
X192701204Y-70175495D01*
X192704804Y-70151227D01*
X192710765Y-70127428D01*
X192719030Y-70104329D01*
X192729520Y-70082150D01*
X192742132Y-70061107D01*
X192756747Y-70041401D01*
X192773223Y-70023223D01*
X192791401Y-70006747D01*
X192811107Y-69992132D01*
X192832150Y-69979520D01*
X192854329Y-69969030D01*
X192877428Y-69960765D01*
X192901227Y-69954804D01*
X192925495Y-69951204D01*
X192949999Y-69950000D01*
X193850001Y-69950000D01*
X193874505Y-69951204D01*
X193874505Y-69951204D01*
G37*
D18*
X193400000Y-70525000D03*
D17*
G36*
X193874505Y-72001204D02*
G01*
X193898773Y-72004804D01*
X193922572Y-72010765D01*
X193945671Y-72019030D01*
X193967850Y-72029520D01*
X193988893Y-72042132D01*
X194008599Y-72056747D01*
X194026777Y-72073223D01*
X194043253Y-72091401D01*
X194057868Y-72111107D01*
X194070480Y-72132150D01*
X194080970Y-72154329D01*
X194089235Y-72177428D01*
X194095196Y-72201227D01*
X194098796Y-72225495D01*
X194100000Y-72249999D01*
X194100000Y-72900001D01*
X194098796Y-72924505D01*
X194095196Y-72948773D01*
X194089235Y-72972572D01*
X194080970Y-72995671D01*
X194070480Y-73017850D01*
X194057868Y-73038893D01*
X194043253Y-73058599D01*
X194026777Y-73076777D01*
X194008599Y-73093253D01*
X193988893Y-73107868D01*
X193967850Y-73120480D01*
X193945671Y-73130970D01*
X193922572Y-73139235D01*
X193898773Y-73145196D01*
X193874505Y-73148796D01*
X193850001Y-73150000D01*
X192949999Y-73150000D01*
X192925495Y-73148796D01*
X192901227Y-73145196D01*
X192877428Y-73139235D01*
X192854329Y-73130970D01*
X192832150Y-73120480D01*
X192811107Y-73107868D01*
X192791401Y-73093253D01*
X192773223Y-73076777D01*
X192756747Y-73058599D01*
X192742132Y-73038893D01*
X192729520Y-73017850D01*
X192719030Y-72995671D01*
X192710765Y-72972572D01*
X192704804Y-72948773D01*
X192701204Y-72924505D01*
X192700000Y-72900001D01*
X192700000Y-72249999D01*
X192701204Y-72225495D01*
X192704804Y-72201227D01*
X192710765Y-72177428D01*
X192719030Y-72154329D01*
X192729520Y-72132150D01*
X192742132Y-72111107D01*
X192756747Y-72091401D01*
X192773223Y-72073223D01*
X192791401Y-72056747D01*
X192811107Y-72042132D01*
X192832150Y-72029520D01*
X192854329Y-72019030D01*
X192877428Y-72010765D01*
X192901227Y-72004804D01*
X192925495Y-72001204D01*
X192949999Y-72000000D01*
X193850001Y-72000000D01*
X193874505Y-72001204D01*
X193874505Y-72001204D01*
G37*
D18*
X193400000Y-72575000D03*
D17*
G36*
X191874505Y-72001204D02*
G01*
X191898773Y-72004804D01*
X191922572Y-72010765D01*
X191945671Y-72019030D01*
X191967850Y-72029520D01*
X191988893Y-72042132D01*
X192008599Y-72056747D01*
X192026777Y-72073223D01*
X192043253Y-72091401D01*
X192057868Y-72111107D01*
X192070480Y-72132150D01*
X192080970Y-72154329D01*
X192089235Y-72177428D01*
X192095196Y-72201227D01*
X192098796Y-72225495D01*
X192100000Y-72249999D01*
X192100000Y-72900001D01*
X192098796Y-72924505D01*
X192095196Y-72948773D01*
X192089235Y-72972572D01*
X192080970Y-72995671D01*
X192070480Y-73017850D01*
X192057868Y-73038893D01*
X192043253Y-73058599D01*
X192026777Y-73076777D01*
X192008599Y-73093253D01*
X191988893Y-73107868D01*
X191967850Y-73120480D01*
X191945671Y-73130970D01*
X191922572Y-73139235D01*
X191898773Y-73145196D01*
X191874505Y-73148796D01*
X191850001Y-73150000D01*
X190949999Y-73150000D01*
X190925495Y-73148796D01*
X190901227Y-73145196D01*
X190877428Y-73139235D01*
X190854329Y-73130970D01*
X190832150Y-73120480D01*
X190811107Y-73107868D01*
X190791401Y-73093253D01*
X190773223Y-73076777D01*
X190756747Y-73058599D01*
X190742132Y-73038893D01*
X190729520Y-73017850D01*
X190719030Y-72995671D01*
X190710765Y-72972572D01*
X190704804Y-72948773D01*
X190701204Y-72924505D01*
X190700000Y-72900001D01*
X190700000Y-72249999D01*
X190701204Y-72225495D01*
X190704804Y-72201227D01*
X190710765Y-72177428D01*
X190719030Y-72154329D01*
X190729520Y-72132150D01*
X190742132Y-72111107D01*
X190756747Y-72091401D01*
X190773223Y-72073223D01*
X190791401Y-72056747D01*
X190811107Y-72042132D01*
X190832150Y-72029520D01*
X190854329Y-72019030D01*
X190877428Y-72010765D01*
X190901227Y-72004804D01*
X190925495Y-72001204D01*
X190949999Y-72000000D01*
X191850001Y-72000000D01*
X191874505Y-72001204D01*
X191874505Y-72001204D01*
G37*
D18*
X191400000Y-72575000D03*
D17*
G36*
X191874505Y-69951204D02*
G01*
X191898773Y-69954804D01*
X191922572Y-69960765D01*
X191945671Y-69969030D01*
X191967850Y-69979520D01*
X191988893Y-69992132D01*
X192008599Y-70006747D01*
X192026777Y-70023223D01*
X192043253Y-70041401D01*
X192057868Y-70061107D01*
X192070480Y-70082150D01*
X192080970Y-70104329D01*
X192089235Y-70127428D01*
X192095196Y-70151227D01*
X192098796Y-70175495D01*
X192100000Y-70199999D01*
X192100000Y-70850001D01*
X192098796Y-70874505D01*
X192095196Y-70898773D01*
X192089235Y-70922572D01*
X192080970Y-70945671D01*
X192070480Y-70967850D01*
X192057868Y-70988893D01*
X192043253Y-71008599D01*
X192026777Y-71026777D01*
X192008599Y-71043253D01*
X191988893Y-71057868D01*
X191967850Y-71070480D01*
X191945671Y-71080970D01*
X191922572Y-71089235D01*
X191898773Y-71095196D01*
X191874505Y-71098796D01*
X191850001Y-71100000D01*
X190949999Y-71100000D01*
X190925495Y-71098796D01*
X190901227Y-71095196D01*
X190877428Y-71089235D01*
X190854329Y-71080970D01*
X190832150Y-71070480D01*
X190811107Y-71057868D01*
X190791401Y-71043253D01*
X190773223Y-71026777D01*
X190756747Y-71008599D01*
X190742132Y-70988893D01*
X190729520Y-70967850D01*
X190719030Y-70945671D01*
X190710765Y-70922572D01*
X190704804Y-70898773D01*
X190701204Y-70874505D01*
X190700000Y-70850001D01*
X190700000Y-70199999D01*
X190701204Y-70175495D01*
X190704804Y-70151227D01*
X190710765Y-70127428D01*
X190719030Y-70104329D01*
X190729520Y-70082150D01*
X190742132Y-70061107D01*
X190756747Y-70041401D01*
X190773223Y-70023223D01*
X190791401Y-70006747D01*
X190811107Y-69992132D01*
X190832150Y-69979520D01*
X190854329Y-69969030D01*
X190877428Y-69960765D01*
X190901227Y-69954804D01*
X190925495Y-69951204D01*
X190949999Y-69950000D01*
X191850001Y-69950000D01*
X191874505Y-69951204D01*
X191874505Y-69951204D01*
G37*
D18*
X191400000Y-70525000D03*
D17*
G36*
X187874505Y-69951204D02*
G01*
X187898773Y-69954804D01*
X187922572Y-69960765D01*
X187945671Y-69969030D01*
X187967850Y-69979520D01*
X187988893Y-69992132D01*
X188008599Y-70006747D01*
X188026777Y-70023223D01*
X188043253Y-70041401D01*
X188057868Y-70061107D01*
X188070480Y-70082150D01*
X188080970Y-70104329D01*
X188089235Y-70127428D01*
X188095196Y-70151227D01*
X188098796Y-70175495D01*
X188100000Y-70199999D01*
X188100000Y-70850001D01*
X188098796Y-70874505D01*
X188095196Y-70898773D01*
X188089235Y-70922572D01*
X188080970Y-70945671D01*
X188070480Y-70967850D01*
X188057868Y-70988893D01*
X188043253Y-71008599D01*
X188026777Y-71026777D01*
X188008599Y-71043253D01*
X187988893Y-71057868D01*
X187967850Y-71070480D01*
X187945671Y-71080970D01*
X187922572Y-71089235D01*
X187898773Y-71095196D01*
X187874505Y-71098796D01*
X187850001Y-71100000D01*
X186949999Y-71100000D01*
X186925495Y-71098796D01*
X186901227Y-71095196D01*
X186877428Y-71089235D01*
X186854329Y-71080970D01*
X186832150Y-71070480D01*
X186811107Y-71057868D01*
X186791401Y-71043253D01*
X186773223Y-71026777D01*
X186756747Y-71008599D01*
X186742132Y-70988893D01*
X186729520Y-70967850D01*
X186719030Y-70945671D01*
X186710765Y-70922572D01*
X186704804Y-70898773D01*
X186701204Y-70874505D01*
X186700000Y-70850001D01*
X186700000Y-70199999D01*
X186701204Y-70175495D01*
X186704804Y-70151227D01*
X186710765Y-70127428D01*
X186719030Y-70104329D01*
X186729520Y-70082150D01*
X186742132Y-70061107D01*
X186756747Y-70041401D01*
X186773223Y-70023223D01*
X186791401Y-70006747D01*
X186811107Y-69992132D01*
X186832150Y-69979520D01*
X186854329Y-69969030D01*
X186877428Y-69960765D01*
X186901227Y-69954804D01*
X186925495Y-69951204D01*
X186949999Y-69950000D01*
X187850001Y-69950000D01*
X187874505Y-69951204D01*
X187874505Y-69951204D01*
G37*
D18*
X187400000Y-70525000D03*
D17*
G36*
X187874505Y-72001204D02*
G01*
X187898773Y-72004804D01*
X187922572Y-72010765D01*
X187945671Y-72019030D01*
X187967850Y-72029520D01*
X187988893Y-72042132D01*
X188008599Y-72056747D01*
X188026777Y-72073223D01*
X188043253Y-72091401D01*
X188057868Y-72111107D01*
X188070480Y-72132150D01*
X188080970Y-72154329D01*
X188089235Y-72177428D01*
X188095196Y-72201227D01*
X188098796Y-72225495D01*
X188100000Y-72249999D01*
X188100000Y-72900001D01*
X188098796Y-72924505D01*
X188095196Y-72948773D01*
X188089235Y-72972572D01*
X188080970Y-72995671D01*
X188070480Y-73017850D01*
X188057868Y-73038893D01*
X188043253Y-73058599D01*
X188026777Y-73076777D01*
X188008599Y-73093253D01*
X187988893Y-73107868D01*
X187967850Y-73120480D01*
X187945671Y-73130970D01*
X187922572Y-73139235D01*
X187898773Y-73145196D01*
X187874505Y-73148796D01*
X187850001Y-73150000D01*
X186949999Y-73150000D01*
X186925495Y-73148796D01*
X186901227Y-73145196D01*
X186877428Y-73139235D01*
X186854329Y-73130970D01*
X186832150Y-73120480D01*
X186811107Y-73107868D01*
X186791401Y-73093253D01*
X186773223Y-73076777D01*
X186756747Y-73058599D01*
X186742132Y-73038893D01*
X186729520Y-73017850D01*
X186719030Y-72995671D01*
X186710765Y-72972572D01*
X186704804Y-72948773D01*
X186701204Y-72924505D01*
X186700000Y-72900001D01*
X186700000Y-72249999D01*
X186701204Y-72225495D01*
X186704804Y-72201227D01*
X186710765Y-72177428D01*
X186719030Y-72154329D01*
X186729520Y-72132150D01*
X186742132Y-72111107D01*
X186756747Y-72091401D01*
X186773223Y-72073223D01*
X186791401Y-72056747D01*
X186811107Y-72042132D01*
X186832150Y-72029520D01*
X186854329Y-72019030D01*
X186877428Y-72010765D01*
X186901227Y-72004804D01*
X186925495Y-72001204D01*
X186949999Y-72000000D01*
X187850001Y-72000000D01*
X187874505Y-72001204D01*
X187874505Y-72001204D01*
G37*
D18*
X187400000Y-72575000D03*
D17*
G36*
X189874505Y-72001204D02*
G01*
X189898773Y-72004804D01*
X189922572Y-72010765D01*
X189945671Y-72019030D01*
X189967850Y-72029520D01*
X189988893Y-72042132D01*
X190008599Y-72056747D01*
X190026777Y-72073223D01*
X190043253Y-72091401D01*
X190057868Y-72111107D01*
X190070480Y-72132150D01*
X190080970Y-72154329D01*
X190089235Y-72177428D01*
X190095196Y-72201227D01*
X190098796Y-72225495D01*
X190100000Y-72249999D01*
X190100000Y-72900001D01*
X190098796Y-72924505D01*
X190095196Y-72948773D01*
X190089235Y-72972572D01*
X190080970Y-72995671D01*
X190070480Y-73017850D01*
X190057868Y-73038893D01*
X190043253Y-73058599D01*
X190026777Y-73076777D01*
X190008599Y-73093253D01*
X189988893Y-73107868D01*
X189967850Y-73120480D01*
X189945671Y-73130970D01*
X189922572Y-73139235D01*
X189898773Y-73145196D01*
X189874505Y-73148796D01*
X189850001Y-73150000D01*
X188949999Y-73150000D01*
X188925495Y-73148796D01*
X188901227Y-73145196D01*
X188877428Y-73139235D01*
X188854329Y-73130970D01*
X188832150Y-73120480D01*
X188811107Y-73107868D01*
X188791401Y-73093253D01*
X188773223Y-73076777D01*
X188756747Y-73058599D01*
X188742132Y-73038893D01*
X188729520Y-73017850D01*
X188719030Y-72995671D01*
X188710765Y-72972572D01*
X188704804Y-72948773D01*
X188701204Y-72924505D01*
X188700000Y-72900001D01*
X188700000Y-72249999D01*
X188701204Y-72225495D01*
X188704804Y-72201227D01*
X188710765Y-72177428D01*
X188719030Y-72154329D01*
X188729520Y-72132150D01*
X188742132Y-72111107D01*
X188756747Y-72091401D01*
X188773223Y-72073223D01*
X188791401Y-72056747D01*
X188811107Y-72042132D01*
X188832150Y-72029520D01*
X188854329Y-72019030D01*
X188877428Y-72010765D01*
X188901227Y-72004804D01*
X188925495Y-72001204D01*
X188949999Y-72000000D01*
X189850001Y-72000000D01*
X189874505Y-72001204D01*
X189874505Y-72001204D01*
G37*
D18*
X189400000Y-72575000D03*
D17*
G36*
X189874505Y-69951204D02*
G01*
X189898773Y-69954804D01*
X189922572Y-69960765D01*
X189945671Y-69969030D01*
X189967850Y-69979520D01*
X189988893Y-69992132D01*
X190008599Y-70006747D01*
X190026777Y-70023223D01*
X190043253Y-70041401D01*
X190057868Y-70061107D01*
X190070480Y-70082150D01*
X190080970Y-70104329D01*
X190089235Y-70127428D01*
X190095196Y-70151227D01*
X190098796Y-70175495D01*
X190100000Y-70199999D01*
X190100000Y-70850001D01*
X190098796Y-70874505D01*
X190095196Y-70898773D01*
X190089235Y-70922572D01*
X190080970Y-70945671D01*
X190070480Y-70967850D01*
X190057868Y-70988893D01*
X190043253Y-71008599D01*
X190026777Y-71026777D01*
X190008599Y-71043253D01*
X189988893Y-71057868D01*
X189967850Y-71070480D01*
X189945671Y-71080970D01*
X189922572Y-71089235D01*
X189898773Y-71095196D01*
X189874505Y-71098796D01*
X189850001Y-71100000D01*
X188949999Y-71100000D01*
X188925495Y-71098796D01*
X188901227Y-71095196D01*
X188877428Y-71089235D01*
X188854329Y-71080970D01*
X188832150Y-71070480D01*
X188811107Y-71057868D01*
X188791401Y-71043253D01*
X188773223Y-71026777D01*
X188756747Y-71008599D01*
X188742132Y-70988893D01*
X188729520Y-70967850D01*
X188719030Y-70945671D01*
X188710765Y-70922572D01*
X188704804Y-70898773D01*
X188701204Y-70874505D01*
X188700000Y-70850001D01*
X188700000Y-70199999D01*
X188701204Y-70175495D01*
X188704804Y-70151227D01*
X188710765Y-70127428D01*
X188719030Y-70104329D01*
X188729520Y-70082150D01*
X188742132Y-70061107D01*
X188756747Y-70041401D01*
X188773223Y-70023223D01*
X188791401Y-70006747D01*
X188811107Y-69992132D01*
X188832150Y-69979520D01*
X188854329Y-69969030D01*
X188877428Y-69960765D01*
X188901227Y-69954804D01*
X188925495Y-69951204D01*
X188949999Y-69950000D01*
X189850001Y-69950000D01*
X189874505Y-69951204D01*
X189874505Y-69951204D01*
G37*
D18*
X189400000Y-70525000D03*
D17*
G36*
X151024505Y-69351204D02*
G01*
X151048773Y-69354804D01*
X151072572Y-69360765D01*
X151095671Y-69369030D01*
X151117850Y-69379520D01*
X151138893Y-69392132D01*
X151158599Y-69406747D01*
X151176777Y-69423223D01*
X151193253Y-69441401D01*
X151207868Y-69461107D01*
X151220480Y-69482150D01*
X151230970Y-69504329D01*
X151239235Y-69527428D01*
X151245196Y-69551227D01*
X151248796Y-69575495D01*
X151250000Y-69599999D01*
X151250000Y-70500001D01*
X151248796Y-70524505D01*
X151245196Y-70548773D01*
X151239235Y-70572572D01*
X151230970Y-70595671D01*
X151220480Y-70617850D01*
X151207868Y-70638893D01*
X151193253Y-70658599D01*
X151176777Y-70676777D01*
X151158599Y-70693253D01*
X151138893Y-70707868D01*
X151117850Y-70720480D01*
X151095671Y-70730970D01*
X151072572Y-70739235D01*
X151048773Y-70745196D01*
X151024505Y-70748796D01*
X151000001Y-70750000D01*
X150349999Y-70750000D01*
X150325495Y-70748796D01*
X150301227Y-70745196D01*
X150277428Y-70739235D01*
X150254329Y-70730970D01*
X150232150Y-70720480D01*
X150211107Y-70707868D01*
X150191401Y-70693253D01*
X150173223Y-70676777D01*
X150156747Y-70658599D01*
X150142132Y-70638893D01*
X150129520Y-70617850D01*
X150119030Y-70595671D01*
X150110765Y-70572572D01*
X150104804Y-70548773D01*
X150101204Y-70524505D01*
X150100000Y-70500001D01*
X150100000Y-69599999D01*
X150101204Y-69575495D01*
X150104804Y-69551227D01*
X150110765Y-69527428D01*
X150119030Y-69504329D01*
X150129520Y-69482150D01*
X150142132Y-69461107D01*
X150156747Y-69441401D01*
X150173223Y-69423223D01*
X150191401Y-69406747D01*
X150211107Y-69392132D01*
X150232150Y-69379520D01*
X150254329Y-69369030D01*
X150277428Y-69360765D01*
X150301227Y-69354804D01*
X150325495Y-69351204D01*
X150349999Y-69350000D01*
X151000001Y-69350000D01*
X151024505Y-69351204D01*
X151024505Y-69351204D01*
G37*
D18*
X150675000Y-70050000D03*
D17*
G36*
X148974505Y-69351204D02*
G01*
X148998773Y-69354804D01*
X149022572Y-69360765D01*
X149045671Y-69369030D01*
X149067850Y-69379520D01*
X149088893Y-69392132D01*
X149108599Y-69406747D01*
X149126777Y-69423223D01*
X149143253Y-69441401D01*
X149157868Y-69461107D01*
X149170480Y-69482150D01*
X149180970Y-69504329D01*
X149189235Y-69527428D01*
X149195196Y-69551227D01*
X149198796Y-69575495D01*
X149200000Y-69599999D01*
X149200000Y-70500001D01*
X149198796Y-70524505D01*
X149195196Y-70548773D01*
X149189235Y-70572572D01*
X149180970Y-70595671D01*
X149170480Y-70617850D01*
X149157868Y-70638893D01*
X149143253Y-70658599D01*
X149126777Y-70676777D01*
X149108599Y-70693253D01*
X149088893Y-70707868D01*
X149067850Y-70720480D01*
X149045671Y-70730970D01*
X149022572Y-70739235D01*
X148998773Y-70745196D01*
X148974505Y-70748796D01*
X148950001Y-70750000D01*
X148299999Y-70750000D01*
X148275495Y-70748796D01*
X148251227Y-70745196D01*
X148227428Y-70739235D01*
X148204329Y-70730970D01*
X148182150Y-70720480D01*
X148161107Y-70707868D01*
X148141401Y-70693253D01*
X148123223Y-70676777D01*
X148106747Y-70658599D01*
X148092132Y-70638893D01*
X148079520Y-70617850D01*
X148069030Y-70595671D01*
X148060765Y-70572572D01*
X148054804Y-70548773D01*
X148051204Y-70524505D01*
X148050000Y-70500001D01*
X148050000Y-69599999D01*
X148051204Y-69575495D01*
X148054804Y-69551227D01*
X148060765Y-69527428D01*
X148069030Y-69504329D01*
X148079520Y-69482150D01*
X148092132Y-69461107D01*
X148106747Y-69441401D01*
X148123223Y-69423223D01*
X148141401Y-69406747D01*
X148161107Y-69392132D01*
X148182150Y-69379520D01*
X148204329Y-69369030D01*
X148227428Y-69360765D01*
X148251227Y-69354804D01*
X148275495Y-69351204D01*
X148299999Y-69350000D01*
X148950001Y-69350000D01*
X148974505Y-69351204D01*
X148974505Y-69351204D01*
G37*
D18*
X148625000Y-70050000D03*
D17*
G36*
X148974505Y-71351204D02*
G01*
X148998773Y-71354804D01*
X149022572Y-71360765D01*
X149045671Y-71369030D01*
X149067850Y-71379520D01*
X149088893Y-71392132D01*
X149108599Y-71406747D01*
X149126777Y-71423223D01*
X149143253Y-71441401D01*
X149157868Y-71461107D01*
X149170480Y-71482150D01*
X149180970Y-71504329D01*
X149189235Y-71527428D01*
X149195196Y-71551227D01*
X149198796Y-71575495D01*
X149200000Y-71599999D01*
X149200000Y-72500001D01*
X149198796Y-72524505D01*
X149195196Y-72548773D01*
X149189235Y-72572572D01*
X149180970Y-72595671D01*
X149170480Y-72617850D01*
X149157868Y-72638893D01*
X149143253Y-72658599D01*
X149126777Y-72676777D01*
X149108599Y-72693253D01*
X149088893Y-72707868D01*
X149067850Y-72720480D01*
X149045671Y-72730970D01*
X149022572Y-72739235D01*
X148998773Y-72745196D01*
X148974505Y-72748796D01*
X148950001Y-72750000D01*
X148299999Y-72750000D01*
X148275495Y-72748796D01*
X148251227Y-72745196D01*
X148227428Y-72739235D01*
X148204329Y-72730970D01*
X148182150Y-72720480D01*
X148161107Y-72707868D01*
X148141401Y-72693253D01*
X148123223Y-72676777D01*
X148106747Y-72658599D01*
X148092132Y-72638893D01*
X148079520Y-72617850D01*
X148069030Y-72595671D01*
X148060765Y-72572572D01*
X148054804Y-72548773D01*
X148051204Y-72524505D01*
X148050000Y-72500001D01*
X148050000Y-71599999D01*
X148051204Y-71575495D01*
X148054804Y-71551227D01*
X148060765Y-71527428D01*
X148069030Y-71504329D01*
X148079520Y-71482150D01*
X148092132Y-71461107D01*
X148106747Y-71441401D01*
X148123223Y-71423223D01*
X148141401Y-71406747D01*
X148161107Y-71392132D01*
X148182150Y-71379520D01*
X148204329Y-71369030D01*
X148227428Y-71360765D01*
X148251227Y-71354804D01*
X148275495Y-71351204D01*
X148299999Y-71350000D01*
X148950001Y-71350000D01*
X148974505Y-71351204D01*
X148974505Y-71351204D01*
G37*
D18*
X148625000Y-72050000D03*
D17*
G36*
X151024505Y-71351204D02*
G01*
X151048773Y-71354804D01*
X151072572Y-71360765D01*
X151095671Y-71369030D01*
X151117850Y-71379520D01*
X151138893Y-71392132D01*
X151158599Y-71406747D01*
X151176777Y-71423223D01*
X151193253Y-71441401D01*
X151207868Y-71461107D01*
X151220480Y-71482150D01*
X151230970Y-71504329D01*
X151239235Y-71527428D01*
X151245196Y-71551227D01*
X151248796Y-71575495D01*
X151250000Y-71599999D01*
X151250000Y-72500001D01*
X151248796Y-72524505D01*
X151245196Y-72548773D01*
X151239235Y-72572572D01*
X151230970Y-72595671D01*
X151220480Y-72617850D01*
X151207868Y-72638893D01*
X151193253Y-72658599D01*
X151176777Y-72676777D01*
X151158599Y-72693253D01*
X151138893Y-72707868D01*
X151117850Y-72720480D01*
X151095671Y-72730970D01*
X151072572Y-72739235D01*
X151048773Y-72745196D01*
X151024505Y-72748796D01*
X151000001Y-72750000D01*
X150349999Y-72750000D01*
X150325495Y-72748796D01*
X150301227Y-72745196D01*
X150277428Y-72739235D01*
X150254329Y-72730970D01*
X150232150Y-72720480D01*
X150211107Y-72707868D01*
X150191401Y-72693253D01*
X150173223Y-72676777D01*
X150156747Y-72658599D01*
X150142132Y-72638893D01*
X150129520Y-72617850D01*
X150119030Y-72595671D01*
X150110765Y-72572572D01*
X150104804Y-72548773D01*
X150101204Y-72524505D01*
X150100000Y-72500001D01*
X150100000Y-71599999D01*
X150101204Y-71575495D01*
X150104804Y-71551227D01*
X150110765Y-71527428D01*
X150119030Y-71504329D01*
X150129520Y-71482150D01*
X150142132Y-71461107D01*
X150156747Y-71441401D01*
X150173223Y-71423223D01*
X150191401Y-71406747D01*
X150211107Y-71392132D01*
X150232150Y-71379520D01*
X150254329Y-71369030D01*
X150277428Y-71360765D01*
X150301227Y-71354804D01*
X150325495Y-71351204D01*
X150349999Y-71350000D01*
X151000001Y-71350000D01*
X151024505Y-71351204D01*
X151024505Y-71351204D01*
G37*
D18*
X150675000Y-72050000D03*
D17*
G36*
X150999505Y-73351204D02*
G01*
X151023773Y-73354804D01*
X151047572Y-73360765D01*
X151070671Y-73369030D01*
X151092850Y-73379520D01*
X151113893Y-73392132D01*
X151133599Y-73406747D01*
X151151777Y-73423223D01*
X151168253Y-73441401D01*
X151182868Y-73461107D01*
X151195480Y-73482150D01*
X151205970Y-73504329D01*
X151214235Y-73527428D01*
X151220196Y-73551227D01*
X151223796Y-73575495D01*
X151225000Y-73599999D01*
X151225000Y-74500001D01*
X151223796Y-74524505D01*
X151220196Y-74548773D01*
X151214235Y-74572572D01*
X151205970Y-74595671D01*
X151195480Y-74617850D01*
X151182868Y-74638893D01*
X151168253Y-74658599D01*
X151151777Y-74676777D01*
X151133599Y-74693253D01*
X151113893Y-74707868D01*
X151092850Y-74720480D01*
X151070671Y-74730970D01*
X151047572Y-74739235D01*
X151023773Y-74745196D01*
X150999505Y-74748796D01*
X150975001Y-74750000D01*
X150324999Y-74750000D01*
X150300495Y-74748796D01*
X150276227Y-74745196D01*
X150252428Y-74739235D01*
X150229329Y-74730970D01*
X150207150Y-74720480D01*
X150186107Y-74707868D01*
X150166401Y-74693253D01*
X150148223Y-74676777D01*
X150131747Y-74658599D01*
X150117132Y-74638893D01*
X150104520Y-74617850D01*
X150094030Y-74595671D01*
X150085765Y-74572572D01*
X150079804Y-74548773D01*
X150076204Y-74524505D01*
X150075000Y-74500001D01*
X150075000Y-73599999D01*
X150076204Y-73575495D01*
X150079804Y-73551227D01*
X150085765Y-73527428D01*
X150094030Y-73504329D01*
X150104520Y-73482150D01*
X150117132Y-73461107D01*
X150131747Y-73441401D01*
X150148223Y-73423223D01*
X150166401Y-73406747D01*
X150186107Y-73392132D01*
X150207150Y-73379520D01*
X150229329Y-73369030D01*
X150252428Y-73360765D01*
X150276227Y-73354804D01*
X150300495Y-73351204D01*
X150324999Y-73350000D01*
X150975001Y-73350000D01*
X150999505Y-73351204D01*
X150999505Y-73351204D01*
G37*
D18*
X150650000Y-74050000D03*
D17*
G36*
X148949505Y-73351204D02*
G01*
X148973773Y-73354804D01*
X148997572Y-73360765D01*
X149020671Y-73369030D01*
X149042850Y-73379520D01*
X149063893Y-73392132D01*
X149083599Y-73406747D01*
X149101777Y-73423223D01*
X149118253Y-73441401D01*
X149132868Y-73461107D01*
X149145480Y-73482150D01*
X149155970Y-73504329D01*
X149164235Y-73527428D01*
X149170196Y-73551227D01*
X149173796Y-73575495D01*
X149175000Y-73599999D01*
X149175000Y-74500001D01*
X149173796Y-74524505D01*
X149170196Y-74548773D01*
X149164235Y-74572572D01*
X149155970Y-74595671D01*
X149145480Y-74617850D01*
X149132868Y-74638893D01*
X149118253Y-74658599D01*
X149101777Y-74676777D01*
X149083599Y-74693253D01*
X149063893Y-74707868D01*
X149042850Y-74720480D01*
X149020671Y-74730970D01*
X148997572Y-74739235D01*
X148973773Y-74745196D01*
X148949505Y-74748796D01*
X148925001Y-74750000D01*
X148274999Y-74750000D01*
X148250495Y-74748796D01*
X148226227Y-74745196D01*
X148202428Y-74739235D01*
X148179329Y-74730970D01*
X148157150Y-74720480D01*
X148136107Y-74707868D01*
X148116401Y-74693253D01*
X148098223Y-74676777D01*
X148081747Y-74658599D01*
X148067132Y-74638893D01*
X148054520Y-74617850D01*
X148044030Y-74595671D01*
X148035765Y-74572572D01*
X148029804Y-74548773D01*
X148026204Y-74524505D01*
X148025000Y-74500001D01*
X148025000Y-73599999D01*
X148026204Y-73575495D01*
X148029804Y-73551227D01*
X148035765Y-73527428D01*
X148044030Y-73504329D01*
X148054520Y-73482150D01*
X148067132Y-73461107D01*
X148081747Y-73441401D01*
X148098223Y-73423223D01*
X148116401Y-73406747D01*
X148136107Y-73392132D01*
X148157150Y-73379520D01*
X148179329Y-73369030D01*
X148202428Y-73360765D01*
X148226227Y-73354804D01*
X148250495Y-73351204D01*
X148274999Y-73350000D01*
X148925001Y-73350000D01*
X148949505Y-73351204D01*
X148949505Y-73351204D01*
G37*
D18*
X148600000Y-74050000D03*
D20*
X102650000Y-93300000D03*
X102650000Y-88800000D03*
X109150000Y-93300000D03*
X109150000Y-88800000D03*
X109250000Y-77000000D03*
X109250000Y-81500000D03*
X102750000Y-77000000D03*
X102750000Y-81500000D03*
D28*
X147700004Y-116250000D03*
X147750000Y-118200000D03*
X147450002Y-134000000D03*
X147750004Y-64700000D03*
X147800000Y-66650000D03*
X147500002Y-82450000D03*
D29*
X168000000Y-138750000D03*
X168050000Y-87200000D03*
D30*
X151561813Y-111388187D02*
X155600000Y-107350000D01*
X113760000Y-105850000D02*
X119298187Y-111388187D01*
X119298187Y-111388187D02*
X151561813Y-111388187D01*
X151611813Y-59838187D02*
X155650000Y-55800000D01*
X113810000Y-54300000D02*
X119348187Y-59838187D01*
X119348187Y-59838187D02*
X151611813Y-59838187D01*
X153440000Y-112050000D02*
X155600000Y-109890000D01*
X111220000Y-105850000D02*
X117420000Y-112050000D01*
X117420000Y-112050000D02*
X153440000Y-112050000D01*
X153490000Y-60500000D02*
X155650000Y-58340000D01*
X111270000Y-54300000D02*
X117470000Y-60500000D01*
X117470000Y-60500000D02*
X153490000Y-60500000D01*
X173980000Y-127670000D02*
X181500030Y-120149970D01*
X170840000Y-127670000D02*
X173980000Y-127670000D01*
X181500030Y-120149970D02*
X191424970Y-120149970D01*
X191424970Y-120149970D02*
X192726628Y-121451628D01*
X192726628Y-121451628D02*
X193350000Y-122075000D01*
X174030000Y-76120000D02*
X181550030Y-68599970D01*
X170890000Y-76120000D02*
X174030000Y-76120000D01*
X181550030Y-68599970D02*
X191474970Y-68599970D01*
X191474970Y-68599970D02*
X192776628Y-69901628D01*
X192776628Y-69901628D02*
X193400000Y-70525000D01*
D31*
X148775000Y-116250000D02*
X147700004Y-116250000D01*
X148775000Y-118200000D02*
X147750000Y-118200000D01*
D30*
X148575000Y-134000000D02*
X147450002Y-134000000D01*
D31*
X148825000Y-64700000D02*
X147750004Y-64700000D01*
X148825000Y-66650000D02*
X147800000Y-66650000D01*
D30*
X148625000Y-82450000D02*
X147500002Y-82450000D01*
X190726628Y-121451628D02*
X191350000Y-122075000D01*
X189924980Y-120649980D02*
X190726628Y-121451628D01*
X182000020Y-120649980D02*
X189924980Y-120649980D01*
X173239999Y-129410001D02*
X182000020Y-120649980D01*
X170840000Y-130210000D02*
X171639999Y-129410001D01*
X171639999Y-129410001D02*
X173239999Y-129410001D01*
X190776628Y-69901628D02*
X191400000Y-70525000D01*
X189974980Y-69099980D02*
X190776628Y-69901628D01*
X182050020Y-69099980D02*
X189974980Y-69099980D01*
X173289999Y-77860001D02*
X182050020Y-69099980D01*
X170890000Y-78660000D02*
X171689999Y-77860001D01*
X171689999Y-77860001D02*
X173289999Y-77860001D01*
X154910000Y-118200000D02*
X155600000Y-117510000D01*
X150825000Y-118200000D02*
X154910000Y-118200000D01*
X109100000Y-140350000D02*
X102600000Y-140350000D01*
X149075000Y-119950000D02*
X150825000Y-118200000D01*
X139600000Y-119950000D02*
X149075000Y-119950000D01*
X137700000Y-121850000D02*
X139600000Y-119950000D01*
X137700000Y-125650000D02*
X137700000Y-121850000D01*
X111600000Y-140350000D02*
X115400000Y-136550000D01*
X109100000Y-140350000D02*
X111600000Y-140350000D01*
X115400000Y-136550000D02*
X115400000Y-134301458D01*
X115400000Y-134301458D02*
X121351458Y-128350000D01*
X121351458Y-128350000D02*
X135000000Y-128350000D01*
X135000000Y-128350000D02*
X137700000Y-125650000D01*
D32*
X113350000Y-138500000D02*
X113450000Y-138500000D01*
X112600000Y-137750000D02*
X113350000Y-138500000D01*
D30*
X154960000Y-66650000D02*
X155650000Y-65960000D01*
X150875000Y-66650000D02*
X154960000Y-66650000D01*
X109150000Y-88800000D02*
X102650000Y-88800000D01*
X149125000Y-68400000D02*
X150875000Y-66650000D01*
X139650000Y-68400000D02*
X149125000Y-68400000D01*
X137750000Y-70300000D02*
X139650000Y-68400000D01*
X137750000Y-74100000D02*
X137750000Y-70300000D01*
X111650000Y-88800000D02*
X115450000Y-85000000D01*
X109150000Y-88800000D02*
X111650000Y-88800000D01*
X115450000Y-85000000D02*
X115450000Y-82751458D01*
X115450000Y-82751458D02*
X121401458Y-76800000D01*
X121401458Y-76800000D02*
X135050000Y-76800000D01*
X135050000Y-76800000D02*
X137750000Y-74100000D01*
D32*
X113400000Y-86950000D02*
X113500000Y-86950000D01*
X112650000Y-86200000D02*
X113400000Y-86950000D01*
D30*
X172900000Y-133230000D02*
X170840000Y-135290000D01*
X172900000Y-131750000D02*
X172900000Y-133230000D01*
X187350000Y-122075000D02*
X182575000Y-122075000D01*
X182575000Y-122075000D02*
X172900000Y-131750000D01*
X172950000Y-81680000D02*
X170890000Y-83740000D01*
X172950000Y-80200000D02*
X172950000Y-81680000D01*
X187400000Y-70525000D02*
X182625000Y-70525000D01*
X182625000Y-70525000D02*
X172950000Y-80200000D01*
X152918630Y-121600000D02*
X150625000Y-121600000D01*
X155600000Y-120050000D02*
X154468630Y-120050000D01*
D32*
X153299999Y-119999999D02*
X153909315Y-120609315D01*
X152800000Y-119500000D02*
X153299999Y-119999999D01*
D30*
X154468630Y-120050000D02*
X153909315Y-120609315D01*
X153909315Y-120609315D02*
X152918630Y-121600000D01*
X152968630Y-70050000D02*
X150675000Y-70050000D01*
X155650000Y-68500000D02*
X154518630Y-68500000D01*
D32*
X153349999Y-68449999D02*
X153959315Y-69059315D01*
X152850000Y-67950000D02*
X153349999Y-68449999D01*
D30*
X154518630Y-68500000D02*
X153959315Y-69059315D01*
X153959315Y-69059315D02*
X152968630Y-70050000D01*
X188726628Y-121451628D02*
X189350000Y-122075000D01*
X188424990Y-121149990D02*
X188726628Y-121451628D01*
X182440010Y-121149990D02*
X188424990Y-121149990D01*
X170840000Y-132750000D02*
X182440010Y-121149990D01*
X188776628Y-69901628D02*
X189400000Y-70525000D01*
X188474990Y-69599990D02*
X188776628Y-69901628D01*
X182490010Y-69599990D02*
X188474990Y-69599990D01*
X170890000Y-81200000D02*
X182490010Y-69599990D01*
X107785787Y-128550000D02*
X102700000Y-128550000D01*
X109200000Y-128550000D02*
X107785787Y-128550000D01*
X157000000Y-121190000D02*
X155600000Y-122590000D01*
X157000000Y-116850000D02*
X157000000Y-121190000D01*
X150825000Y-116250000D02*
X156400000Y-116250000D01*
X156400000Y-116250000D02*
X157000000Y-116850000D01*
X121200000Y-127750000D02*
X120400000Y-128550000D01*
X137000000Y-125350000D02*
X134600000Y-127750000D01*
X139400000Y-119150000D02*
X137000000Y-121550000D01*
X134600000Y-127750000D02*
X121200000Y-127750000D01*
X150825000Y-116250000D02*
X149525000Y-114950000D01*
X146200000Y-114950000D02*
X145600000Y-115550000D01*
X149525000Y-114950000D02*
X146200000Y-114950000D01*
X145600000Y-115550000D02*
X145600000Y-117350000D01*
X145600000Y-117350000D02*
X143800000Y-119150000D01*
X137000000Y-121550000D02*
X137000000Y-125350000D01*
X143800000Y-119150000D02*
X139400000Y-119150000D01*
X112600000Y-128550000D02*
X112600000Y-129950000D01*
X112600000Y-128550000D02*
X109200000Y-128550000D01*
X120400000Y-128550000D02*
X112600000Y-128550000D01*
X107835787Y-77000000D02*
X102750000Y-77000000D01*
X109250000Y-77000000D02*
X107835787Y-77000000D01*
X157050000Y-69640000D02*
X155650000Y-71040000D01*
X157050000Y-65300000D02*
X157050000Y-69640000D01*
X150875000Y-64700000D02*
X156450000Y-64700000D01*
X156450000Y-64700000D02*
X157050000Y-65300000D01*
X121250000Y-76200000D02*
X120450000Y-77000000D01*
X137050000Y-73800000D02*
X134650000Y-76200000D01*
X139450000Y-67600000D02*
X137050000Y-70000000D01*
X134650000Y-76200000D02*
X121250000Y-76200000D01*
X150875000Y-64700000D02*
X149575000Y-63400000D01*
X146250000Y-63400000D02*
X145650000Y-64000000D01*
X149575000Y-63400000D02*
X146250000Y-63400000D01*
X145650000Y-64000000D02*
X145650000Y-65800000D01*
X145650000Y-65800000D02*
X143850000Y-67600000D01*
X137050000Y-70000000D02*
X137050000Y-73800000D01*
X143850000Y-67600000D02*
X139450000Y-67600000D01*
X112650000Y-77000000D02*
X112650000Y-78400000D01*
X112650000Y-77000000D02*
X109250000Y-77000000D01*
X120450000Y-77000000D02*
X112650000Y-77000000D01*
X175676628Y-121298372D02*
X176300000Y-120675000D01*
D32*
X171639999Y-124330001D02*
X170840000Y-125130000D01*
X172400000Y-123570000D02*
X171639999Y-124330001D01*
X172400000Y-122150000D02*
X172400000Y-123570000D01*
X172900000Y-121650000D02*
X172400000Y-122150000D01*
X175676628Y-121298372D02*
X175325000Y-121650000D01*
X175325000Y-121650000D02*
X172900000Y-121650000D01*
D30*
X195969999Y-104929999D02*
X195120000Y-104080000D01*
X196550000Y-105510000D02*
X195969999Y-104929999D01*
X196550000Y-107200000D02*
X196550000Y-105510000D01*
X195200000Y-108550000D02*
X196550000Y-107200000D01*
X194825000Y-108925000D02*
X195200000Y-108550000D01*
X181920000Y-108830000D02*
X181920000Y-105350000D01*
X181825000Y-108925000D02*
X181920000Y-108830000D01*
X181825000Y-108925000D02*
X194825000Y-108925000D01*
X176300000Y-110650000D02*
X176300000Y-120675000D01*
X181825000Y-108925000D02*
X178025000Y-108925000D01*
X178025000Y-108925000D02*
X176300000Y-110650000D01*
X175726628Y-69748372D02*
X176350000Y-69125000D01*
D32*
X171689999Y-72780001D02*
X170890000Y-73580000D01*
X172450000Y-72020000D02*
X171689999Y-72780001D01*
X172450000Y-70600000D02*
X172450000Y-72020000D01*
X172950000Y-70100000D02*
X172450000Y-70600000D01*
X175726628Y-69748372D02*
X175375000Y-70100000D01*
X175375000Y-70100000D02*
X172950000Y-70100000D01*
D30*
X196019999Y-53379999D02*
X195170000Y-52530000D01*
X196600000Y-53960000D02*
X196019999Y-53379999D01*
X196600000Y-55650000D02*
X196600000Y-53960000D01*
X195250000Y-57000000D02*
X196600000Y-55650000D01*
X194875000Y-57375000D02*
X195250000Y-57000000D01*
X181970000Y-57280000D02*
X181970000Y-53800000D01*
X181875000Y-57375000D02*
X181970000Y-57280000D01*
X181875000Y-57375000D02*
X194875000Y-57375000D01*
X176350000Y-59100000D02*
X176350000Y-69125000D01*
X181875000Y-57375000D02*
X178075000Y-57375000D01*
X178075000Y-57375000D02*
X176350000Y-59100000D01*
X152300000Y-123600000D02*
X150625000Y-123600000D01*
X155600000Y-125130000D02*
X153830000Y-125130000D01*
X153830000Y-125130000D02*
X152300000Y-123600000D01*
D32*
X152300000Y-123450000D02*
X153000000Y-122750000D01*
X152300000Y-123600000D02*
X152300000Y-123450000D01*
D30*
X152350000Y-72050000D02*
X150675000Y-72050000D01*
X155650000Y-73580000D02*
X153880000Y-73580000D01*
X153880000Y-73580000D02*
X152350000Y-72050000D01*
D32*
X152350000Y-71900000D02*
X153050000Y-71200000D01*
X152350000Y-72050000D02*
X152350000Y-71900000D01*
D30*
X172755000Y-120675000D02*
X173800000Y-120675000D01*
X170840000Y-122590000D02*
X172755000Y-120675000D01*
X174035000Y-110695000D02*
X179380000Y-105350000D01*
X173800000Y-120675000D02*
X173800000Y-110930000D01*
X173800000Y-110930000D02*
X174035000Y-110695000D01*
X180229999Y-104500001D02*
X179380000Y-105350000D01*
X180580000Y-104150000D02*
X180229999Y-104500001D01*
X193497222Y-108242778D02*
X185492778Y-108242778D01*
X195120000Y-106620000D02*
X193497222Y-108242778D01*
X185492778Y-108242778D02*
X183200000Y-105950000D01*
X183200000Y-105950000D02*
X183200000Y-104550000D01*
X183200000Y-104550000D02*
X182800000Y-104150000D01*
X182800000Y-104150000D02*
X180580000Y-104150000D01*
X172805000Y-69125000D02*
X173850000Y-69125000D01*
X170890000Y-71040000D02*
X172805000Y-69125000D01*
X174085000Y-59145000D02*
X179430000Y-53800000D01*
X173850000Y-69125000D02*
X173850000Y-59380000D01*
X173850000Y-59380000D02*
X174085000Y-59145000D01*
X180279999Y-52950001D02*
X179430000Y-53800000D01*
X180630000Y-52600000D02*
X180279999Y-52950001D01*
X193547222Y-56692778D02*
X185542778Y-56692778D01*
X195170000Y-55070000D02*
X193547222Y-56692778D01*
X185542778Y-56692778D02*
X183250000Y-54400000D01*
X183250000Y-54400000D02*
X183250000Y-53000000D01*
X183250000Y-53000000D02*
X182850000Y-52600000D01*
X182850000Y-52600000D02*
X180630000Y-52600000D01*
X153530000Y-125600000D02*
X155600000Y-127670000D01*
X150600000Y-125600000D02*
X153530000Y-125600000D01*
D32*
X148950000Y-127250000D02*
X150600000Y-125600000D01*
X146500000Y-127250000D02*
X148950000Y-127250000D01*
D30*
X153580000Y-74050000D02*
X155650000Y-76120000D01*
X150650000Y-74050000D02*
X153580000Y-74050000D01*
D32*
X149000000Y-75700000D02*
X150650000Y-74050000D01*
X146550000Y-75700000D02*
X149000000Y-75700000D01*
D30*
X144500000Y-142150000D02*
X142000000Y-142150000D01*
X144500000Y-142150000D02*
X147900000Y-145550000D01*
X147900000Y-145550000D02*
X150600000Y-145550000D01*
D32*
X150600000Y-143700000D02*
X150600000Y-145550000D01*
D30*
X169100000Y-140332002D02*
X169100000Y-121790000D01*
X170100000Y-145550000D02*
X172200000Y-143450000D01*
X150600000Y-145550000D02*
X170100000Y-145550000D01*
X172200000Y-143450000D02*
X172200000Y-142567998D01*
X172200000Y-142567998D02*
X171341001Y-141708999D01*
X171341001Y-141708999D02*
X170476997Y-141708999D01*
X169100000Y-121790000D02*
X170840000Y-120050000D01*
X170476997Y-141708999D02*
X169100000Y-140332002D01*
X144550000Y-90600000D02*
X142050000Y-90600000D01*
X144550000Y-90600000D02*
X147950000Y-94000000D01*
X147950000Y-94000000D02*
X150650000Y-94000000D01*
D32*
X150650000Y-92150000D02*
X150650000Y-94000000D01*
D30*
X169150000Y-88782002D02*
X169150000Y-70240000D01*
X170150000Y-94000000D02*
X172250000Y-91900000D01*
X150650000Y-94000000D02*
X170150000Y-94000000D01*
X172250000Y-91900000D02*
X172250000Y-91017998D01*
X172250000Y-91017998D02*
X171391001Y-90158999D01*
X171391001Y-90158999D02*
X170526997Y-90158999D01*
X169150000Y-70240000D02*
X170890000Y-68500000D01*
X170526997Y-90158999D02*
X169150000Y-88782002D01*
X133200000Y-141150000D02*
X131600000Y-141150000D01*
X149574990Y-132600010D02*
X141749990Y-132600010D01*
X150625000Y-131550000D02*
X149574990Y-132600010D01*
X154468630Y-132750000D02*
X155600000Y-132750000D01*
X153400000Y-132750000D02*
X154468630Y-132750000D01*
X150625000Y-131550000D02*
X152200000Y-131550000D01*
X152200000Y-131550000D02*
X153400000Y-132750000D01*
X141749990Y-132600010D02*
X139500000Y-134850000D01*
D32*
X139500000Y-134800000D02*
X139500000Y-134850000D01*
D30*
X136100000Y-138250000D02*
X134800000Y-136950000D01*
X136100000Y-138250000D02*
X133200000Y-141150000D01*
X139500000Y-134850000D02*
X136100000Y-138250000D01*
X133250000Y-89600000D02*
X131650000Y-89600000D01*
X149624990Y-81050010D02*
X141799990Y-81050010D01*
X150675000Y-80000000D02*
X149624990Y-81050010D01*
X154518630Y-81200000D02*
X155650000Y-81200000D01*
X153450000Y-81200000D02*
X154518630Y-81200000D01*
X150675000Y-80000000D02*
X152250000Y-80000000D01*
X152250000Y-80000000D02*
X153450000Y-81200000D01*
X141799990Y-81050010D02*
X139550000Y-83300000D01*
D32*
X139550000Y-83250000D02*
X139550000Y-83300000D01*
D30*
X136150000Y-86700000D02*
X134850000Y-85400000D01*
X136150000Y-86700000D02*
X133250000Y-89600000D01*
X139550000Y-83300000D02*
X136150000Y-86700000D01*
X150625000Y-129050000D02*
X152600000Y-129050000D01*
X153760000Y-130210000D02*
X155600000Y-130210000D01*
X152600000Y-129050000D02*
X153760000Y-130210000D01*
X149392878Y-130250000D02*
X149969506Y-129673372D01*
X149969506Y-129673372D02*
X150001628Y-129673372D01*
X150001628Y-129673372D02*
X150625000Y-129050000D01*
X137500000Y-130250000D02*
X149392878Y-130250000D01*
D32*
X135992894Y-131750000D02*
X136000000Y-131750000D01*
D30*
X136000000Y-131750000D02*
X137500000Y-130250000D01*
X133900000Y-133850000D02*
X134800000Y-134750000D01*
X133900000Y-133850000D02*
X136000000Y-131750000D01*
X131600000Y-136150000D02*
X133900000Y-133850000D01*
X150675000Y-77500000D02*
X152650000Y-77500000D01*
X153810000Y-78660000D02*
X155650000Y-78660000D01*
X152650000Y-77500000D02*
X153810000Y-78660000D01*
X149442878Y-78700000D02*
X150019506Y-78123372D01*
X150019506Y-78123372D02*
X150051628Y-78123372D01*
X150051628Y-78123372D02*
X150675000Y-77500000D01*
X137550000Y-78700000D02*
X149442878Y-78700000D01*
D32*
X136042894Y-80200000D02*
X136050000Y-80200000D01*
D30*
X136050000Y-80200000D02*
X137550000Y-78700000D01*
X133950000Y-82300000D02*
X134850000Y-83200000D01*
X133950000Y-82300000D02*
X136050000Y-80200000D01*
X131650000Y-84600000D02*
X133950000Y-82300000D01*
X150075000Y-127550000D02*
X148575000Y-129050000D01*
X152900000Y-127550000D02*
X150075000Y-127550000D01*
X154350000Y-129000000D02*
X152900000Y-127550000D01*
X156250000Y-129000000D02*
X154350000Y-129000000D01*
X149300000Y-131550000D02*
X149500000Y-131350000D01*
X154392880Y-131550000D02*
X156200000Y-131550000D01*
X149500000Y-131350000D02*
X149500000Y-130850000D01*
X157100000Y-129850000D02*
X156250000Y-129000000D01*
X149500000Y-130850000D02*
X150000000Y-130350000D01*
X150000000Y-130350000D02*
X153192880Y-130350000D01*
X148575000Y-131550000D02*
X149300000Y-131550000D01*
X157100000Y-130650000D02*
X157100000Y-129850000D01*
X153192880Y-130350000D02*
X154392880Y-131550000D01*
X156200000Y-131550000D02*
X157100000Y-130650000D01*
D33*
X112800000Y-140450000D02*
X117100000Y-136150000D01*
X107685787Y-144850000D02*
X102600000Y-144850000D01*
X109100000Y-144850000D02*
X107685787Y-144850000D01*
X109200000Y-133050000D02*
X102700000Y-133050000D01*
X102700000Y-133050000D02*
X100100000Y-133050000D01*
X170840000Y-114964282D02*
X170840000Y-114970000D01*
D30*
X173800000Y-122725000D02*
X176300000Y-122725000D01*
X176325000Y-122725000D02*
X176300000Y-122725000D01*
X173800000Y-124150000D02*
X173800000Y-122725000D01*
X171609000Y-126341000D02*
X173800000Y-124150000D01*
X170109000Y-126341000D02*
X171609000Y-126341000D01*
X170840000Y-114970000D02*
X172600000Y-116730000D01*
X172600000Y-119992002D02*
X171342002Y-121250000D01*
X171342002Y-121250000D02*
X170477998Y-121250000D01*
X170477998Y-121250000D02*
X169600000Y-122127998D01*
X169600000Y-125832000D02*
X170109000Y-126341000D01*
X172600000Y-116730000D02*
X172600000Y-119992002D01*
X169600000Y-122127998D02*
X169600000Y-125832000D01*
D34*
X100110000Y-116800000D02*
X104510000Y-116800000D01*
X104510000Y-116800000D02*
X104510000Y-124420000D01*
D33*
X100100000Y-142350000D02*
X100100000Y-133050000D01*
X102600000Y-144850000D02*
X100100000Y-142350000D01*
X100100000Y-129450000D02*
X100100000Y-113650000D01*
X100100000Y-133050000D02*
X100100000Y-129450000D01*
D34*
X100100000Y-116790000D02*
X100110000Y-116800000D01*
X100100000Y-113650000D02*
X100100000Y-116790000D01*
D33*
X121600000Y-128950000D02*
X136600000Y-128950000D01*
X118099999Y-132450001D02*
X121600000Y-128950000D01*
X117100000Y-136150000D02*
X118099999Y-135150001D01*
X118099999Y-135150001D02*
X118099999Y-132450001D01*
X139950000Y-122870000D02*
X141350000Y-122870000D01*
X138900000Y-123920000D02*
X139950000Y-122870000D01*
X136600000Y-128950000D02*
X138900000Y-128950000D01*
X138900000Y-128950000D02*
X138900000Y-123920000D01*
X148475000Y-128950000D02*
X136600000Y-128950000D01*
X148575000Y-129050000D02*
X148475000Y-128950000D01*
X109900000Y-143350000D02*
X112800000Y-140450000D01*
X109100000Y-144850000D02*
X109900000Y-144050000D01*
X109900000Y-144050000D02*
X109900000Y-143350000D01*
D34*
X170840000Y-114590000D02*
X170840000Y-114970000D01*
X165050000Y-108800000D02*
X170840000Y-114590000D01*
D35*
X184460000Y-104010000D02*
X184460000Y-105350000D01*
X183900000Y-103450000D02*
X184460000Y-104010000D01*
X165050000Y-108800000D02*
X170400000Y-103450000D01*
X170400000Y-103450000D02*
X183900000Y-103450000D01*
D34*
X159300002Y-103050002D02*
X165050000Y-108800000D01*
X100100000Y-106250000D02*
X103299998Y-103050002D01*
X100100000Y-113650000D02*
X100100000Y-106250000D01*
D31*
X134260000Y-103090000D02*
X134299998Y-103050002D01*
X134260000Y-105850000D02*
X134260000Y-103090000D01*
D34*
X134299998Y-103050002D02*
X159300002Y-103050002D01*
D31*
X108680000Y-103070000D02*
X108699998Y-103050002D01*
X108680000Y-105850000D02*
X108680000Y-103070000D01*
D34*
X103299998Y-103050002D02*
X108699998Y-103050002D01*
X108699998Y-103050002D02*
X134299998Y-103050002D01*
D31*
X109100000Y-144850000D02*
X112200000Y-147950000D01*
X136200000Y-147950000D02*
X139500000Y-144650000D01*
X112200000Y-147950000D02*
X136200000Y-147950000D01*
X139500000Y-144650000D02*
X139600000Y-144750000D01*
D30*
X150125000Y-76000000D02*
X148625000Y-77500000D01*
X152950000Y-76000000D02*
X150125000Y-76000000D01*
X154400000Y-77450000D02*
X152950000Y-76000000D01*
X156300000Y-77450000D02*
X154400000Y-77450000D01*
X149350000Y-80000000D02*
X149550000Y-79800000D01*
X154442880Y-80000000D02*
X156250000Y-80000000D01*
X149550000Y-79800000D02*
X149550000Y-79300000D01*
X157150000Y-78300000D02*
X156300000Y-77450000D01*
X149550000Y-79300000D02*
X150050000Y-78800000D01*
X150050000Y-78800000D02*
X153242880Y-78800000D01*
X148625000Y-80000000D02*
X149350000Y-80000000D01*
X157150000Y-79100000D02*
X157150000Y-78300000D01*
X153242880Y-78800000D02*
X154442880Y-80000000D01*
X156250000Y-80000000D02*
X157150000Y-79100000D01*
D33*
X112850000Y-88900000D02*
X117150000Y-84600000D01*
X107735787Y-93300000D02*
X102650000Y-93300000D01*
X109150000Y-93300000D02*
X107735787Y-93300000D01*
X109250000Y-81500000D02*
X102750000Y-81500000D01*
X102750000Y-81500000D02*
X100150000Y-81500000D01*
X170890000Y-63414282D02*
X170890000Y-63420000D01*
D30*
X173850000Y-71175000D02*
X176350000Y-71175000D01*
X176375000Y-71175000D02*
X176350000Y-71175000D01*
X173850000Y-72600000D02*
X173850000Y-71175000D01*
X171659000Y-74791000D02*
X173850000Y-72600000D01*
X170159000Y-74791000D02*
X171659000Y-74791000D01*
X170890000Y-63420000D02*
X172650000Y-65180000D01*
X172650000Y-68442002D02*
X171392002Y-69700000D01*
X171392002Y-69700000D02*
X170527998Y-69700000D01*
X170527998Y-69700000D02*
X169650000Y-70577998D01*
X169650000Y-74282000D02*
X170159000Y-74791000D01*
X172650000Y-65180000D02*
X172650000Y-68442002D01*
X169650000Y-70577998D02*
X169650000Y-74282000D01*
D34*
X100160000Y-65250000D02*
X104560000Y-65250000D01*
X104560000Y-65250000D02*
X104560000Y-72870000D01*
D33*
X100150000Y-90800000D02*
X100150000Y-81500000D01*
X102650000Y-93300000D02*
X100150000Y-90800000D01*
X100150000Y-77900000D02*
X100150000Y-62100000D01*
X100150000Y-81500000D02*
X100150000Y-77900000D01*
D34*
X100150000Y-65240000D02*
X100160000Y-65250000D01*
X100150000Y-62100000D02*
X100150000Y-65240000D01*
D33*
X121650000Y-77400000D02*
X136650000Y-77400000D01*
X118149999Y-80900001D02*
X121650000Y-77400000D01*
X117150000Y-84600000D02*
X118149999Y-83600001D01*
X118149999Y-83600001D02*
X118149999Y-80900001D01*
X140000000Y-71320000D02*
X141400000Y-71320000D01*
X138950000Y-72370000D02*
X140000000Y-71320000D01*
X136650000Y-77400000D02*
X138950000Y-77400000D01*
X138950000Y-77400000D02*
X138950000Y-72370000D01*
X148525000Y-77400000D02*
X136650000Y-77400000D01*
X148625000Y-77500000D02*
X148525000Y-77400000D01*
X109950000Y-91800000D02*
X112850000Y-88900000D01*
X109150000Y-93300000D02*
X109950000Y-92500000D01*
X109950000Y-92500000D02*
X109950000Y-91800000D01*
D34*
X170890000Y-63040000D02*
X170890000Y-63420000D01*
X165100000Y-57250000D02*
X170890000Y-63040000D01*
D35*
X184510000Y-52460000D02*
X184510000Y-53800000D01*
X183950000Y-51900000D02*
X184510000Y-52460000D01*
X165100000Y-57250000D02*
X170450000Y-51900000D01*
X170450000Y-51900000D02*
X183950000Y-51900000D01*
D34*
X159350002Y-51500002D02*
X165100000Y-57250000D01*
X100150000Y-54700000D02*
X103349998Y-51500002D01*
X100150000Y-62100000D02*
X100150000Y-54700000D01*
D31*
X134310000Y-51540000D02*
X134349998Y-51500002D01*
X134310000Y-54300000D02*
X134310000Y-51540000D01*
D34*
X134349998Y-51500002D02*
X159350002Y-51500002D01*
D31*
X108730000Y-51520000D02*
X108749998Y-51500002D01*
X108730000Y-54300000D02*
X108730000Y-51520000D01*
D34*
X103349998Y-51500002D02*
X108749998Y-51500002D01*
X108749998Y-51500002D02*
X134349998Y-51500002D01*
D31*
X109150000Y-93300000D02*
X112250000Y-96400000D01*
X136250000Y-96400000D02*
X139550000Y-93100000D01*
X112250000Y-96400000D02*
X136250000Y-96400000D01*
X139550000Y-93100000D02*
X139650000Y-93200000D01*
D30*
X155660000Y-135290000D02*
X155600000Y-135290000D01*
X155600000Y-135290000D02*
X155600000Y-135450000D01*
X154310000Y-134000000D02*
X155600000Y-135290000D01*
X150625000Y-134000000D02*
X154310000Y-134000000D01*
X125500000Y-141150000D02*
X117100000Y-141150000D01*
X149275000Y-135350000D02*
X140800000Y-135350000D01*
X150625000Y-134000000D02*
X149275000Y-135350000D01*
X140800000Y-135350000D02*
X133200000Y-142950000D01*
X133200000Y-142950000D02*
X127400000Y-142950000D01*
X127400000Y-142950000D02*
X125600000Y-141150000D01*
X125600000Y-141150000D02*
X125500000Y-141150000D01*
D32*
X117100000Y-141150000D02*
X117100000Y-142564213D01*
X117100000Y-142564213D02*
X117100000Y-146850000D01*
D30*
X155710000Y-83740000D02*
X155650000Y-83740000D01*
X155650000Y-83740000D02*
X155650000Y-83900000D01*
X154360000Y-82450000D02*
X155650000Y-83740000D01*
X150675000Y-82450000D02*
X154360000Y-82450000D01*
X125550000Y-89600000D02*
X117150000Y-89600000D01*
X149325000Y-83800000D02*
X140850000Y-83800000D01*
X150675000Y-82450000D02*
X149325000Y-83800000D01*
X140850000Y-83800000D02*
X133250000Y-91400000D01*
X133250000Y-91400000D02*
X127450000Y-91400000D01*
X127450000Y-91400000D02*
X125650000Y-89600000D01*
X125650000Y-89600000D02*
X125550000Y-89600000D01*
D32*
X117150000Y-89600000D02*
X117150000Y-91014213D01*
X117150000Y-91014213D02*
X117150000Y-95300000D01*
D30*
X156731370Y-140370000D02*
X155600000Y-140370000D01*
X161100000Y-136001370D02*
X156731370Y-140370000D01*
X161100000Y-108850000D02*
X161100000Y-136001370D01*
X126630000Y-106000000D02*
X127479999Y-106849999D01*
X127499999Y-106849999D02*
X130500000Y-109850000D01*
X157669988Y-105419988D02*
X161100000Y-108850000D01*
X130500000Y-109850000D02*
X149400000Y-109850000D01*
X149400000Y-109850000D02*
X153830012Y-105419988D01*
X127479999Y-106849999D02*
X127499999Y-106849999D01*
X153830012Y-105419988D02*
X157669988Y-105419988D01*
X156781370Y-88820000D02*
X155650000Y-88820000D01*
X161150000Y-84451370D02*
X156781370Y-88820000D01*
X161150000Y-57300000D02*
X161150000Y-84451370D01*
X126680000Y-54450000D02*
X127529999Y-55299999D01*
X127549999Y-55299999D02*
X130550000Y-58300000D01*
X157719988Y-53869988D02*
X161150000Y-57300000D01*
X130550000Y-58300000D02*
X149450000Y-58300000D01*
X149450000Y-58300000D02*
X153880012Y-53869988D01*
X127529999Y-55299999D02*
X127549999Y-55299999D01*
X153880012Y-53869988D02*
X157719988Y-53869988D01*
X155600000Y-142910000D02*
X161800000Y-136710000D01*
X161800000Y-136710000D02*
X161800000Y-108450000D01*
X161800000Y-108450000D02*
X158200033Y-104850033D01*
X158200033Y-104850033D02*
X153199967Y-104850033D01*
X132220000Y-109050000D02*
X129170000Y-106000000D01*
X149000000Y-109050000D02*
X132220000Y-109050000D01*
X153199967Y-104850033D02*
X149000000Y-109050000D01*
X155650000Y-91360000D02*
X161850000Y-85160000D01*
X161850000Y-85160000D02*
X161850000Y-56900000D01*
X161850000Y-56900000D02*
X158250033Y-53300033D01*
X158250033Y-53300033D02*
X153249967Y-53300033D01*
X132270000Y-57500000D02*
X129220000Y-54450000D01*
X149050000Y-57500000D02*
X132270000Y-57500000D01*
X153249967Y-53300033D02*
X149050000Y-57500000D01*
X162500000Y-134570000D02*
X170040001Y-142110001D01*
X170040001Y-142110001D02*
X170840000Y-142910000D01*
X162500000Y-108350000D02*
X162500000Y-134570000D01*
X131710000Y-107202081D02*
X132809959Y-108302040D01*
X131710000Y-106000000D02*
X131710000Y-107202081D01*
X132809959Y-108302040D02*
X148747962Y-108302040D01*
X148747962Y-108302040D02*
X152699980Y-104350022D01*
X152699980Y-104350022D02*
X158500022Y-104350022D01*
X158500022Y-104350022D02*
X162500000Y-108350000D01*
X162550000Y-83020000D02*
X170090001Y-90560001D01*
X170090001Y-90560001D02*
X170890000Y-91360000D01*
X162550000Y-56800000D02*
X162550000Y-83020000D01*
X131760000Y-55652081D02*
X132859959Y-56752040D01*
X131760000Y-54450000D02*
X131760000Y-55652081D01*
X132859959Y-56752040D02*
X148797962Y-56752040D01*
X148797962Y-56752040D02*
X152749980Y-52800022D01*
X152749980Y-52800022D02*
X158550022Y-52800022D01*
X158550022Y-52800022D02*
X162550000Y-56800000D01*
X148575000Y-121600000D02*
X141350000Y-121600000D01*
X148625000Y-70050000D02*
X141400000Y-70050000D01*
X186890000Y-129850000D02*
X190810000Y-129850000D01*
X190810000Y-131050000D02*
X190810000Y-136350000D01*
X190810000Y-129850000D02*
X190810000Y-131050000D01*
X184350000Y-135150000D02*
X184650000Y-134850000D01*
X184350000Y-136350000D02*
X184350000Y-135150000D01*
X189310000Y-134850000D02*
X190810000Y-136350000D01*
X184650000Y-134850000D02*
X189310000Y-134850000D01*
X190810000Y-129850000D02*
X190810000Y-127390000D01*
X191350000Y-126850000D02*
X191350000Y-124125000D01*
X190810000Y-127390000D02*
X191350000Y-126850000D01*
X190810000Y-136350000D02*
X190810000Y-139540000D01*
X190810000Y-139540000D02*
X190810000Y-142850000D01*
D32*
X195650000Y-124550000D02*
X195650000Y-138150000D01*
X195650000Y-138150000D02*
X194260000Y-139540000D01*
X194260000Y-139540000D02*
X190810000Y-139540000D01*
D30*
X186940000Y-78300000D02*
X190860000Y-78300000D01*
X190860000Y-79500000D02*
X190860000Y-84800000D01*
X190860000Y-78300000D02*
X190860000Y-79500000D01*
X184400000Y-83600000D02*
X184700000Y-83300000D01*
X184400000Y-84800000D02*
X184400000Y-83600000D01*
X189360000Y-83300000D02*
X190860000Y-84800000D01*
X184700000Y-83300000D02*
X189360000Y-83300000D01*
X190860000Y-78300000D02*
X190860000Y-75840000D01*
X191400000Y-75300000D02*
X191400000Y-72575000D01*
X190860000Y-75840000D02*
X191400000Y-75300000D01*
X190860000Y-84800000D02*
X190860000Y-87990000D01*
X190860000Y-87990000D02*
X190860000Y-91300000D01*
D32*
X195700000Y-73000000D02*
X195700000Y-86600000D01*
X195700000Y-86600000D02*
X194310000Y-87990000D01*
X194310000Y-87990000D02*
X190860000Y-87990000D01*
D30*
X180350000Y-136390000D02*
X180390000Y-136350000D01*
X180350000Y-142850000D02*
X180350000Y-136390000D01*
D32*
X195550000Y-121925000D02*
X195550000Y-120900000D01*
X193350000Y-124125000D02*
X195550000Y-121925000D01*
D30*
X193350000Y-124125000D02*
X193350000Y-129850000D01*
X193350000Y-136350000D02*
X193350000Y-129850000D01*
X180400000Y-84840000D02*
X180440000Y-84800000D01*
X180400000Y-91300000D02*
X180400000Y-84840000D01*
D32*
X195600000Y-70375000D02*
X195600000Y-69350000D01*
X193400000Y-72575000D02*
X195600000Y-70375000D01*
D30*
X193400000Y-72575000D02*
X193400000Y-78300000D01*
X193400000Y-84800000D02*
X193400000Y-78300000D01*
X184350000Y-129850000D02*
X180350000Y-129850000D01*
X182850000Y-129850000D02*
X184350000Y-129850000D01*
X184310000Y-142850000D02*
X182850000Y-141390000D01*
X182850000Y-141390000D02*
X182850000Y-129850000D01*
X189350000Y-126100000D02*
X189350000Y-124125000D01*
X187850000Y-127600000D02*
X189350000Y-126100000D01*
X185400000Y-127600000D02*
X187850000Y-127600000D01*
X184350000Y-129850000D02*
X184350000Y-128650000D01*
X184350000Y-128650000D02*
X185400000Y-127600000D01*
D32*
X188726628Y-123501628D02*
X189350000Y-124125000D01*
X188325000Y-123100000D02*
X188726628Y-123501628D01*
X183050000Y-124150000D02*
X184100000Y-123100000D01*
X184100000Y-123100000D02*
X188325000Y-123100000D01*
D30*
X184400000Y-78300000D02*
X180400000Y-78300000D01*
X182900000Y-78300000D02*
X184400000Y-78300000D01*
X184360000Y-91300000D02*
X182900000Y-89840000D01*
X182900000Y-89840000D02*
X182900000Y-78300000D01*
X189400000Y-74550000D02*
X189400000Y-72575000D01*
X187900000Y-76050000D02*
X189400000Y-74550000D01*
X185450000Y-76050000D02*
X187900000Y-76050000D01*
X184400000Y-78300000D02*
X184400000Y-77100000D01*
X184400000Y-77100000D02*
X185450000Y-76050000D01*
D32*
X188776628Y-71951628D02*
X189400000Y-72575000D01*
X188375000Y-71550000D02*
X188776628Y-71951628D01*
X183100000Y-72600000D02*
X184150000Y-71550000D01*
X184150000Y-71550000D02*
X188375000Y-71550000D01*
D30*
X177810000Y-142850000D02*
X177810000Y-129850000D01*
X177810000Y-136390000D02*
X177850000Y-136350000D01*
X177810000Y-142850000D02*
X177810000Y-136390000D01*
X186890000Y-142810000D02*
X186850000Y-142850000D01*
X186890000Y-136350000D02*
X186890000Y-142810000D01*
X179310000Y-144350000D02*
X177810000Y-142850000D01*
X186550000Y-144350000D02*
X179310000Y-144350000D01*
X186850000Y-142850000D02*
X186850000Y-144050000D01*
X186850000Y-144050000D02*
X186550000Y-144350000D01*
X177810000Y-129850000D02*
X181310000Y-126350000D01*
X181310000Y-126350000D02*
X186350000Y-126350000D01*
X187350000Y-125350000D02*
X187350000Y-124125000D01*
X186350000Y-126350000D02*
X187350000Y-125350000D01*
D32*
X187325000Y-124100000D02*
X187350000Y-124125000D01*
X187275000Y-124200000D02*
X187350000Y-124125000D01*
X185300000Y-124200000D02*
X187275000Y-124200000D01*
D30*
X193350000Y-144050000D02*
X193350000Y-142850000D01*
X193050000Y-144350000D02*
X193350000Y-144050000D01*
X186850000Y-144050000D02*
X187150000Y-144350000D01*
X187150000Y-144350000D02*
X193050000Y-144350000D01*
X177860000Y-91300000D02*
X177860000Y-78300000D01*
X177860000Y-84840000D02*
X177900000Y-84800000D01*
X177860000Y-91300000D02*
X177860000Y-84840000D01*
X186940000Y-91260000D02*
X186900000Y-91300000D01*
X186940000Y-84800000D02*
X186940000Y-91260000D01*
X179360000Y-92800000D02*
X177860000Y-91300000D01*
X186600000Y-92800000D02*
X179360000Y-92800000D01*
X186900000Y-91300000D02*
X186900000Y-92500000D01*
X186900000Y-92500000D02*
X186600000Y-92800000D01*
X177860000Y-78300000D02*
X181360000Y-74800000D01*
X181360000Y-74800000D02*
X186400000Y-74800000D01*
X187400000Y-73800000D02*
X187400000Y-72575000D01*
X186400000Y-74800000D02*
X187400000Y-73800000D01*
D32*
X187375000Y-72550000D02*
X187400000Y-72575000D01*
X187325000Y-72650000D02*
X187400000Y-72575000D01*
X185350000Y-72650000D02*
X187325000Y-72650000D01*
D30*
X193400000Y-92500000D02*
X193400000Y-91300000D01*
X193100000Y-92800000D02*
X193400000Y-92500000D01*
X186900000Y-92500000D02*
X187200000Y-92800000D01*
X187200000Y-92800000D02*
X193100000Y-92800000D01*
X141350000Y-124140000D02*
X145610000Y-124140000D01*
X146150000Y-123600000D02*
X148575000Y-123600000D01*
X145610000Y-124140000D02*
X146150000Y-123600000D01*
X141400000Y-72590000D02*
X145660000Y-72590000D01*
X146200000Y-72050000D02*
X148625000Y-72050000D01*
X145660000Y-72590000D02*
X146200000Y-72050000D01*
X148360000Y-125410000D02*
X148550000Y-125600000D01*
X141350000Y-125410000D02*
X148360000Y-125410000D01*
X148410000Y-73860000D02*
X148600000Y-74050000D01*
X141400000Y-73860000D02*
X148410000Y-73860000D01*
D33*
X196000000Y-102550000D02*
X194110000Y-102550000D01*
X197400000Y-103950000D02*
X196000000Y-102550000D01*
X197400000Y-144150000D02*
X197400000Y-103950000D01*
X194110000Y-102550000D02*
X192580000Y-104080000D01*
X172420000Y-140370000D02*
X173725000Y-141675000D01*
X170840000Y-140370000D02*
X172420000Y-140370000D01*
X173725000Y-141675000D02*
X173725000Y-145275000D01*
X173725000Y-145275000D02*
X176000000Y-147550000D01*
X176000000Y-147550000D02*
X194000000Y-147550000D01*
X194000000Y-147550000D02*
X197400000Y-144150000D01*
D31*
X107050000Y-116835000D02*
X107050000Y-124455000D01*
D33*
X192580000Y-104080000D02*
X191310000Y-105350000D01*
X191310000Y-105350000D02*
X187000000Y-105350000D01*
D31*
X163050010Y-133800010D02*
X163050010Y-107927549D01*
X168000000Y-138750000D02*
X163050010Y-133800010D01*
X163050010Y-107927549D02*
X158922472Y-103800011D01*
X158922472Y-103800011D02*
X152149989Y-103800011D01*
X152149989Y-103800011D02*
X148400000Y-107550000D01*
X148400000Y-107550000D02*
X139750000Y-107550000D01*
X133009999Y-106450001D02*
X134109998Y-107550000D01*
X133009999Y-105289997D02*
X133009999Y-106450001D01*
X109928548Y-105021452D02*
X110600000Y-104350000D01*
X132070002Y-104350000D02*
X133009999Y-105289997D01*
X109928548Y-105248546D02*
X109928548Y-105021452D01*
X107050000Y-115757096D02*
X109928548Y-112878548D01*
X110600000Y-104350000D02*
X132070002Y-104350000D01*
X107050000Y-116835000D02*
X107050000Y-115757096D01*
X109928548Y-112878548D02*
X109928548Y-106451454D01*
X109928548Y-106451454D02*
X109930001Y-106450001D01*
X109930001Y-106450001D02*
X109930001Y-105249999D01*
X109930001Y-105249999D02*
X109928548Y-105248546D01*
X136800000Y-107550000D02*
X136800000Y-105850000D01*
X134109998Y-107550000D02*
X136800000Y-107550000D01*
X136800000Y-107550000D02*
X139750000Y-107550000D01*
D33*
X196050000Y-51000000D02*
X194160000Y-51000000D01*
X197450000Y-52400000D02*
X196050000Y-51000000D01*
X197450000Y-92600000D02*
X197450000Y-52400000D01*
X194160000Y-51000000D02*
X192630000Y-52530000D01*
X172470000Y-88820000D02*
X173775000Y-90125000D01*
X170890000Y-88820000D02*
X172470000Y-88820000D01*
X173775000Y-90125000D02*
X173775000Y-93725000D01*
X173775000Y-93725000D02*
X176050000Y-96000000D01*
X176050000Y-96000000D02*
X194050000Y-96000000D01*
X194050000Y-96000000D02*
X197450000Y-92600000D01*
D31*
X107100000Y-65285000D02*
X107100000Y-72905000D01*
D33*
X192630000Y-52530000D02*
X191360000Y-53800000D01*
X191360000Y-53800000D02*
X187050000Y-53800000D01*
D31*
X163100010Y-82250010D02*
X163100010Y-56377549D01*
X168050000Y-87200000D02*
X163100010Y-82250010D01*
X163100010Y-56377549D02*
X158972472Y-52250011D01*
X158972472Y-52250011D02*
X152199989Y-52250011D01*
X152199989Y-52250011D02*
X148450000Y-56000000D01*
X148450000Y-56000000D02*
X139800000Y-56000000D01*
X133059999Y-54900001D02*
X134159998Y-56000000D01*
X133059999Y-53739997D02*
X133059999Y-54900001D01*
X109978548Y-53471452D02*
X110650000Y-52800000D01*
X132120002Y-52800000D02*
X133059999Y-53739997D01*
X109978548Y-53698546D02*
X109978548Y-53471452D01*
X107100000Y-64207096D02*
X109978548Y-61328548D01*
X110650000Y-52800000D02*
X132120002Y-52800000D01*
X107100000Y-65285000D02*
X107100000Y-64207096D01*
X109978548Y-61328548D02*
X109978548Y-54901454D01*
X109978548Y-54901454D02*
X109980001Y-54900001D01*
X109980001Y-54900001D02*
X109980001Y-53699999D01*
X109980001Y-53699999D02*
X109978548Y-53698546D01*
X136850000Y-56000000D02*
X136850000Y-54300000D01*
X134159998Y-56000000D02*
X136850000Y-56000000D01*
X136850000Y-56000000D02*
X139800000Y-56000000D01*
D30*
X158220000Y-137830000D02*
X160300000Y-135750000D01*
X128740000Y-110650000D02*
X124090000Y-106000000D01*
X155600000Y-137830000D02*
X158220000Y-137830000D01*
X160300000Y-135750000D02*
X160300000Y-109050000D01*
X160300000Y-109050000D02*
X157169998Y-105919998D01*
X149700000Y-110650000D02*
X128740000Y-110650000D01*
X157169998Y-105919998D02*
X154430002Y-105919998D01*
X154430002Y-105919998D02*
X149700000Y-110650000D01*
X158270000Y-86280000D02*
X160350000Y-84200000D01*
X128790000Y-59100000D02*
X124140000Y-54450000D01*
X155650000Y-86280000D02*
X158270000Y-86280000D01*
X160350000Y-84200000D02*
X160350000Y-57500000D01*
X160350000Y-57500000D02*
X157219998Y-54369998D01*
X149750000Y-59100000D02*
X128790000Y-59100000D01*
X157219998Y-54369998D02*
X154480002Y-54369998D01*
X154480002Y-54369998D02*
X149750000Y-59100000D01*
M02*
