G04 #@! TF.GenerationSoftware,KiCad,Pcbnew,(5.1.0)-1*
G04 #@! TF.CreationDate,2019-04-19T09:53:14+10:00*
G04 #@! TF.ProjectId,arduinoNanoDev,61726475-696e-46f4-9e61-6e6f4465762e,rev?*
G04 #@! TF.SameCoordinates,Original*
G04 #@! TF.FileFunction,Legend,Top*
G04 #@! TF.FilePolarity,Positive*
%FSLAX46Y46*%
G04 Gerber Fmt 4.6, Leading zero omitted, Abs format (unit mm)*
G04 Created by KiCad (PCBNEW (5.1.0)-1) date 2019-04-19 09:53:14*
%MOMM*%
%LPD*%
G04 APERTURE LIST*
%ADD10C,0.150000*%
%ADD11C,0.200000*%
%ADD12C,0.300000*%
%ADD13C,0.120000*%
%ADD14C,0.500000*%
G04 APERTURE END LIST*
D10*
X201571428Y-65061904D02*
X201571428Y-64300000D01*
X201952380Y-64680952D02*
X201190476Y-64680952D01*
X200952380Y-63919047D02*
X200952380Y-63300000D01*
X201333333Y-63633333D01*
X201333333Y-63490476D01*
X201380952Y-63395238D01*
X201428571Y-63347619D01*
X201523809Y-63300000D01*
X201761904Y-63300000D01*
X201857142Y-63347619D01*
X201904761Y-63395238D01*
X201952380Y-63490476D01*
X201952380Y-63776190D01*
X201904761Y-63871428D01*
X201857142Y-63919047D01*
X200952380Y-63014285D02*
X201952380Y-62680952D01*
X200952380Y-62347619D01*
X200952380Y-62109523D02*
X200952380Y-61490476D01*
X201333333Y-61823809D01*
X201333333Y-61680952D01*
X201380952Y-61585714D01*
X201428571Y-61538095D01*
X201523809Y-61490476D01*
X201761904Y-61490476D01*
X201857142Y-61538095D01*
X201904761Y-61585714D01*
X201952380Y-61680952D01*
X201952380Y-61966666D01*
X201904761Y-62061904D01*
X201857142Y-62109523D01*
X181252380Y-63185714D02*
X180252380Y-63185714D01*
X181252380Y-62614285D01*
X180252380Y-62614285D01*
X181157142Y-61566666D02*
X181204761Y-61614285D01*
X181252380Y-61757142D01*
X181252380Y-61852380D01*
X181204761Y-61995238D01*
X181109523Y-62090476D01*
X181014285Y-62138095D01*
X180823809Y-62185714D01*
X180680952Y-62185714D01*
X180490476Y-62138095D01*
X180395238Y-62090476D01*
X180300000Y-61995238D01*
X180252380Y-61852380D01*
X180252380Y-61757142D01*
X180300000Y-61614285D01*
X180347619Y-61566666D01*
X171052380Y-63185714D02*
X170052380Y-63185714D01*
X171052380Y-62614285D01*
X170052380Y-62614285D01*
X170957142Y-61566666D02*
X171004761Y-61614285D01*
X171052380Y-61757142D01*
X171052380Y-61852380D01*
X171004761Y-61995238D01*
X170909523Y-62090476D01*
X170814285Y-62138095D01*
X170623809Y-62185714D01*
X170480952Y-62185714D01*
X170290476Y-62138095D01*
X170195238Y-62090476D01*
X170100000Y-61995238D01*
X170052380Y-61852380D01*
X170052380Y-61757142D01*
X170100000Y-61614285D01*
X170147619Y-61566666D01*
X251671428Y-64361904D02*
X251671428Y-63600000D01*
X252052380Y-63980952D02*
X251290476Y-63980952D01*
X251052380Y-63219047D02*
X251052380Y-62600000D01*
X251433333Y-62933333D01*
X251433333Y-62790476D01*
X251480952Y-62695238D01*
X251528571Y-62647619D01*
X251623809Y-62600000D01*
X251861904Y-62600000D01*
X251957142Y-62647619D01*
X252004761Y-62695238D01*
X252052380Y-62790476D01*
X252052380Y-63076190D01*
X252004761Y-63171428D01*
X251957142Y-63219047D01*
X251052380Y-62314285D02*
X252052380Y-61980952D01*
X251052380Y-61647619D01*
X251052380Y-61409523D02*
X251052380Y-60790476D01*
X251433333Y-61123809D01*
X251433333Y-60980952D01*
X251480952Y-60885714D01*
X251528571Y-60838095D01*
X251623809Y-60790476D01*
X251861904Y-60790476D01*
X251957142Y-60838095D01*
X252004761Y-60885714D01*
X252052380Y-60980952D01*
X252052380Y-61266666D01*
X252004761Y-61361904D01*
X251957142Y-61409523D01*
X204514285Y-70402380D02*
X204180952Y-69926190D01*
X203942857Y-70402380D02*
X203942857Y-69402380D01*
X204323809Y-69402380D01*
X204419047Y-69450000D01*
X204466666Y-69497619D01*
X204514285Y-69592857D01*
X204514285Y-69735714D01*
X204466666Y-69830952D01*
X204419047Y-69878571D01*
X204323809Y-69926190D01*
X203942857Y-69926190D01*
X204942857Y-70307142D02*
X204990476Y-70354761D01*
X204942857Y-70402380D01*
X204895238Y-70354761D01*
X204942857Y-70307142D01*
X204942857Y-70402380D01*
X204942857Y-69783333D02*
X204990476Y-69830952D01*
X204942857Y-69878571D01*
X204895238Y-69830952D01*
X204942857Y-69783333D01*
X204942857Y-69878571D01*
X206180952Y-70402380D02*
X206180952Y-69402380D01*
X206419047Y-69402380D01*
X206561904Y-69450000D01*
X206657142Y-69545238D01*
X206704761Y-69640476D01*
X206752380Y-69830952D01*
X206752380Y-69973809D01*
X206704761Y-70164285D01*
X206657142Y-70259523D01*
X206561904Y-70354761D01*
X206419047Y-70402380D01*
X206180952Y-70402380D01*
X207085714Y-69402380D02*
X207704761Y-69402380D01*
X207371428Y-69783333D01*
X207514285Y-69783333D01*
X207609523Y-69830952D01*
X207657142Y-69878571D01*
X207704761Y-69973809D01*
X207704761Y-70211904D01*
X207657142Y-70307142D01*
X207609523Y-70354761D01*
X207514285Y-70402380D01*
X207228571Y-70402380D01*
X207133333Y-70354761D01*
X207085714Y-70307142D01*
X204466666Y-71100000D02*
X204371428Y-71052380D01*
X204228571Y-71052380D01*
X204085714Y-71100000D01*
X203990476Y-71195238D01*
X203942857Y-71290476D01*
X203895238Y-71480952D01*
X203895238Y-71623809D01*
X203942857Y-71814285D01*
X203990476Y-71909523D01*
X204085714Y-72004761D01*
X204228571Y-72052380D01*
X204323809Y-72052380D01*
X204466666Y-72004761D01*
X204514285Y-71957142D01*
X204514285Y-71623809D01*
X204323809Y-71623809D01*
X204942857Y-71957142D02*
X204990476Y-72004761D01*
X204942857Y-72052380D01*
X204895238Y-72004761D01*
X204942857Y-71957142D01*
X204942857Y-72052380D01*
X204942857Y-71433333D02*
X204990476Y-71480952D01*
X204942857Y-71528571D01*
X204895238Y-71480952D01*
X204942857Y-71433333D01*
X204942857Y-71528571D01*
X206180952Y-72052380D02*
X206180952Y-71052380D01*
X206419047Y-71052380D01*
X206561904Y-71100000D01*
X206657142Y-71195238D01*
X206704761Y-71290476D01*
X206752380Y-71480952D01*
X206752380Y-71623809D01*
X206704761Y-71814285D01*
X206657142Y-71909523D01*
X206561904Y-72004761D01*
X206419047Y-72052380D01*
X206180952Y-72052380D01*
X207657142Y-71052380D02*
X207180952Y-71052380D01*
X207133333Y-71528571D01*
X207180952Y-71480952D01*
X207276190Y-71433333D01*
X207514285Y-71433333D01*
X207609523Y-71480952D01*
X207657142Y-71528571D01*
X207704761Y-71623809D01*
X207704761Y-71861904D01*
X207657142Y-71957142D01*
X207609523Y-72004761D01*
X207514285Y-72052380D01*
X207276190Y-72052380D01*
X207180952Y-72004761D01*
X207133333Y-71957142D01*
X204276190Y-73178571D02*
X204419047Y-73226190D01*
X204466666Y-73273809D01*
X204514285Y-73369047D01*
X204514285Y-73511904D01*
X204466666Y-73607142D01*
X204419047Y-73654761D01*
X204323809Y-73702380D01*
X203942857Y-73702380D01*
X203942857Y-72702380D01*
X204276190Y-72702380D01*
X204371428Y-72750000D01*
X204419047Y-72797619D01*
X204466666Y-72892857D01*
X204466666Y-72988095D01*
X204419047Y-73083333D01*
X204371428Y-73130952D01*
X204276190Y-73178571D01*
X203942857Y-73178571D01*
X204942857Y-73607142D02*
X204990476Y-73654761D01*
X204942857Y-73702380D01*
X204895238Y-73654761D01*
X204942857Y-73607142D01*
X204942857Y-73702380D01*
X204942857Y-73083333D02*
X204990476Y-73130952D01*
X204942857Y-73178571D01*
X204895238Y-73130952D01*
X204942857Y-73083333D01*
X204942857Y-73178571D01*
X206180952Y-73702380D02*
X206180952Y-72702380D01*
X206419047Y-72702380D01*
X206561904Y-72750000D01*
X206657142Y-72845238D01*
X206704761Y-72940476D01*
X206752380Y-73130952D01*
X206752380Y-73273809D01*
X206704761Y-73464285D01*
X206657142Y-73559523D01*
X206561904Y-73654761D01*
X206419047Y-73702380D01*
X206180952Y-73702380D01*
X207609523Y-72702380D02*
X207419047Y-72702380D01*
X207323809Y-72750000D01*
X207276190Y-72797619D01*
X207180952Y-72940476D01*
X207133333Y-73130952D01*
X207133333Y-73511904D01*
X207180952Y-73607142D01*
X207228571Y-73654761D01*
X207323809Y-73702380D01*
X207514285Y-73702380D01*
X207609523Y-73654761D01*
X207657142Y-73607142D01*
X207704761Y-73511904D01*
X207704761Y-73273809D01*
X207657142Y-73178571D01*
X207609523Y-73130952D01*
X207514285Y-73083333D01*
X207323809Y-73083333D01*
X207228571Y-73130952D01*
X207180952Y-73178571D01*
X207133333Y-73273809D01*
D11*
X171521428Y-68436904D02*
X171521428Y-67675000D01*
X171902380Y-68055952D02*
X171140476Y-68055952D01*
X170902380Y-67294047D02*
X170902380Y-66675000D01*
X171283333Y-67008333D01*
X171283333Y-66865476D01*
X171330952Y-66770238D01*
X171378571Y-66722619D01*
X171473809Y-66675000D01*
X171711904Y-66675000D01*
X171807142Y-66722619D01*
X171854761Y-66770238D01*
X171902380Y-66865476D01*
X171902380Y-67151190D01*
X171854761Y-67246428D01*
X171807142Y-67294047D01*
X170902380Y-66389285D02*
X171902380Y-66055952D01*
X170902380Y-65722619D01*
X170902380Y-65484523D02*
X170902380Y-64865476D01*
X171283333Y-65198809D01*
X171283333Y-65055952D01*
X171330952Y-64960714D01*
X171378571Y-64913095D01*
X171473809Y-64865476D01*
X171711904Y-64865476D01*
X171807142Y-64913095D01*
X171854761Y-64960714D01*
X171902380Y-65055952D01*
X171902380Y-65341666D01*
X171854761Y-65436904D01*
X171807142Y-65484523D01*
X198890000Y-68071904D02*
X198842380Y-68167142D01*
X198842380Y-68310000D01*
X198890000Y-68452857D01*
X198985238Y-68548095D01*
X199080476Y-68595714D01*
X199270952Y-68643333D01*
X199413809Y-68643333D01*
X199604285Y-68595714D01*
X199699523Y-68548095D01*
X199794761Y-68452857D01*
X199842380Y-68310000D01*
X199842380Y-68214761D01*
X199794761Y-68071904D01*
X199747142Y-68024285D01*
X199413809Y-68024285D01*
X199413809Y-68214761D01*
X199842380Y-67595714D02*
X198842380Y-67595714D01*
X199842380Y-67024285D01*
X198842380Y-67024285D01*
X199842380Y-66548095D02*
X198842380Y-66548095D01*
X198842380Y-66310000D01*
X198890000Y-66167142D01*
X198985238Y-66071904D01*
X199080476Y-66024285D01*
X199270952Y-65976666D01*
X199413809Y-65976666D01*
X199604285Y-66024285D01*
X199699523Y-66071904D01*
X199794761Y-66167142D01*
X199842380Y-66310000D01*
X199842380Y-66548095D01*
X168981428Y-68595714D02*
X168981428Y-67833809D01*
X169362380Y-68214761D02*
X168600476Y-68214761D01*
X168362380Y-66881428D02*
X168362380Y-67357619D01*
X168838571Y-67405238D01*
X168790952Y-67357619D01*
X168743333Y-67262380D01*
X168743333Y-67024285D01*
X168790952Y-66929047D01*
X168838571Y-66881428D01*
X168933809Y-66833809D01*
X169171904Y-66833809D01*
X169267142Y-66881428D01*
X169314761Y-66929047D01*
X169362380Y-67024285D01*
X169362380Y-67262380D01*
X169314761Y-67357619D01*
X169267142Y-67405238D01*
X168362380Y-66548095D02*
X169362380Y-66214761D01*
X168362380Y-65881428D01*
D12*
X246457142Y-67957142D02*
X246457142Y-69957142D01*
X245171428Y-67957142D02*
X245171428Y-69528571D01*
X245314285Y-69814285D01*
X245600000Y-69957142D01*
X246028571Y-69957142D01*
X246314285Y-69814285D01*
X246457142Y-69671428D01*
X249600000Y-69671428D02*
X249457142Y-69814285D01*
X249028571Y-69957142D01*
X248742857Y-69957142D01*
X248314285Y-69814285D01*
X248028571Y-69528571D01*
X247885714Y-69242857D01*
X247742857Y-68671428D01*
X247742857Y-68242857D01*
X247885714Y-67671428D01*
X248028571Y-67385714D01*
X248314285Y-67100000D01*
X248742857Y-66957142D01*
X249028571Y-66957142D01*
X249457142Y-67100000D01*
X249600000Y-67242857D01*
X252457142Y-69957142D02*
X250742857Y-69957142D01*
X251600000Y-69957142D02*
X251600000Y-66957142D01*
X251314285Y-67385714D01*
X251028571Y-67671428D01*
X250742857Y-67814285D01*
X254314285Y-66957142D02*
X254600000Y-66957142D01*
X254885714Y-67100000D01*
X255028571Y-67242857D01*
X255171428Y-67528571D01*
X255314285Y-68100000D01*
X255314285Y-68814285D01*
X255171428Y-69385714D01*
X255028571Y-69671428D01*
X254885714Y-69814285D01*
X254600000Y-69957142D01*
X254314285Y-69957142D01*
X254028571Y-69814285D01*
X253885714Y-69671428D01*
X253742857Y-69385714D01*
X253600000Y-68814285D01*
X253600000Y-68100000D01*
X253742857Y-67528571D01*
X253885714Y-67242857D01*
X254028571Y-67100000D01*
X254314285Y-66957142D01*
X258171428Y-69957142D02*
X256457142Y-69957142D01*
X257314285Y-69957142D02*
X257314285Y-66957142D01*
X257028571Y-67385714D01*
X256742857Y-67671428D01*
X256457142Y-67814285D01*
D10*
X256290476Y-62904761D02*
X256433333Y-62952380D01*
X256671428Y-62952380D01*
X256766666Y-62904761D01*
X256814285Y-62857142D01*
X256861904Y-62761904D01*
X256861904Y-62666666D01*
X256814285Y-62571428D01*
X256766666Y-62523809D01*
X256671428Y-62476190D01*
X256480952Y-62428571D01*
X256385714Y-62380952D01*
X256338095Y-62333333D01*
X256290476Y-62238095D01*
X256290476Y-62142857D01*
X256338095Y-62047619D01*
X256385714Y-62000000D01*
X256480952Y-61952380D01*
X256719047Y-61952380D01*
X256861904Y-62000000D01*
X257290476Y-62952380D02*
X257290476Y-61952380D01*
X257719047Y-62952380D02*
X257719047Y-62428571D01*
X257671428Y-62333333D01*
X257576190Y-62285714D01*
X257433333Y-62285714D01*
X257338095Y-62333333D01*
X257290476Y-62380952D01*
X258195238Y-62952380D02*
X258195238Y-62285714D01*
X258195238Y-61952380D02*
X258147619Y-62000000D01*
X258195238Y-62047619D01*
X258242857Y-62000000D01*
X258195238Y-61952380D01*
X258195238Y-62047619D01*
X258528571Y-62285714D02*
X258909523Y-62285714D01*
X258671428Y-61952380D02*
X258671428Y-62809523D01*
X258719047Y-62904761D01*
X258814285Y-62952380D01*
X258909523Y-62952380D01*
X259100000Y-62285714D02*
X259480952Y-62285714D01*
X259242857Y-61952380D02*
X259242857Y-62809523D01*
X259290476Y-62904761D01*
X259385714Y-62952380D01*
X259480952Y-62952380D01*
X259719047Y-62285714D02*
X259957142Y-62952380D01*
X260195238Y-62285714D02*
X259957142Y-62952380D01*
X259861904Y-63190476D01*
X259814285Y-63238095D01*
X259719047Y-63285714D01*
X255861904Y-64316666D02*
X256338095Y-64316666D01*
X255766666Y-64602380D02*
X256100000Y-63602380D01*
X256433333Y-64602380D01*
X257195238Y-64602380D02*
X257195238Y-63602380D01*
X257195238Y-64554761D02*
X257100000Y-64602380D01*
X256909523Y-64602380D01*
X256814285Y-64554761D01*
X256766666Y-64507142D01*
X256719047Y-64411904D01*
X256719047Y-64126190D01*
X256766666Y-64030952D01*
X256814285Y-63983333D01*
X256909523Y-63935714D01*
X257100000Y-63935714D01*
X257195238Y-63983333D01*
X258100000Y-64602380D02*
X258100000Y-63602380D01*
X258100000Y-64554761D02*
X258004761Y-64602380D01*
X257814285Y-64602380D01*
X257719047Y-64554761D01*
X257671428Y-64507142D01*
X257623809Y-64411904D01*
X257623809Y-64126190D01*
X257671428Y-64030952D01*
X257719047Y-63983333D01*
X257814285Y-63935714D01*
X258004761Y-63935714D01*
X258100000Y-63983333D01*
X258576190Y-64221428D02*
X259338095Y-64221428D01*
X260004761Y-63602380D02*
X260195238Y-63602380D01*
X260290476Y-63650000D01*
X260385714Y-63745238D01*
X260433333Y-63935714D01*
X260433333Y-64269047D01*
X260385714Y-64459523D01*
X260290476Y-64554761D01*
X260195238Y-64602380D01*
X260004761Y-64602380D01*
X259909523Y-64554761D01*
X259814285Y-64459523D01*
X259766666Y-64269047D01*
X259766666Y-63935714D01*
X259814285Y-63745238D01*
X259909523Y-63650000D01*
X260004761Y-63602380D01*
X260861904Y-63935714D02*
X260861904Y-64602380D01*
X260861904Y-64030952D02*
X260909523Y-63983333D01*
X261004761Y-63935714D01*
X261147619Y-63935714D01*
X261242857Y-63983333D01*
X261290476Y-64078571D01*
X261290476Y-64602380D01*
X246704761Y-66385714D02*
X246752380Y-66242857D01*
X246752380Y-66004761D01*
X246704761Y-65909523D01*
X246657142Y-65861904D01*
X246561904Y-65814285D01*
X246466666Y-65814285D01*
X246371428Y-65861904D01*
X246323809Y-65909523D01*
X246276190Y-66004761D01*
X246228571Y-66195238D01*
X246180952Y-66290476D01*
X246133333Y-66338095D01*
X246038095Y-66385714D01*
X245942857Y-66385714D01*
X245847619Y-66338095D01*
X245800000Y-66290476D01*
X245752380Y-66195238D01*
X245752380Y-65957142D01*
X245800000Y-65814285D01*
X246752380Y-65385714D02*
X245752380Y-65385714D01*
X245752380Y-65147619D01*
X245800000Y-65004761D01*
X245895238Y-64909523D01*
X245990476Y-64861904D01*
X246180952Y-64814285D01*
X246323809Y-64814285D01*
X246514285Y-64861904D01*
X246609523Y-64909523D01*
X246704761Y-65004761D01*
X246752380Y-65147619D01*
X246752380Y-65385714D01*
X246466666Y-64433333D02*
X246466666Y-63957142D01*
X246752380Y-64528571D02*
X245752380Y-64195238D01*
X246752380Y-63861904D01*
X247133333Y-63242857D02*
X247085714Y-63290476D01*
X246942857Y-63385714D01*
X246847619Y-63433333D01*
X246704761Y-63480952D01*
X246466666Y-63528571D01*
X246276190Y-63528571D01*
X246038095Y-63480952D01*
X245895238Y-63433333D01*
X245800000Y-63385714D01*
X245657142Y-63290476D01*
X245609523Y-63242857D01*
X246466666Y-62909523D02*
X246466666Y-62433333D01*
X246752380Y-63004761D02*
X245752380Y-62671428D01*
X246752380Y-62338095D01*
X246085714Y-61576190D02*
X246752380Y-61576190D01*
X245704761Y-61814285D02*
X246419047Y-62052380D01*
X246419047Y-61433333D01*
X247133333Y-61147619D02*
X247085714Y-61100000D01*
X246942857Y-61004761D01*
X246847619Y-60957142D01*
X246704761Y-60909523D01*
X246466666Y-60861904D01*
X246276190Y-60861904D01*
X246038095Y-60909523D01*
X245895238Y-60957142D01*
X245800000Y-61004761D01*
X245657142Y-61100000D01*
X245609523Y-61147619D01*
X244104761Y-66361904D02*
X244152380Y-66219047D01*
X244152380Y-65980952D01*
X244104761Y-65885714D01*
X244057142Y-65838095D01*
X243961904Y-65790476D01*
X243866666Y-65790476D01*
X243771428Y-65838095D01*
X243723809Y-65885714D01*
X243676190Y-65980952D01*
X243628571Y-66171428D01*
X243580952Y-66266666D01*
X243533333Y-66314285D01*
X243438095Y-66361904D01*
X243342857Y-66361904D01*
X243247619Y-66314285D01*
X243200000Y-66266666D01*
X243152380Y-66171428D01*
X243152380Y-65933333D01*
X243200000Y-65790476D01*
X244057142Y-64790476D02*
X244104761Y-64838095D01*
X244152380Y-64980952D01*
X244152380Y-65076190D01*
X244104761Y-65219047D01*
X244009523Y-65314285D01*
X243914285Y-65361904D01*
X243723809Y-65409523D01*
X243580952Y-65409523D01*
X243390476Y-65361904D01*
X243295238Y-65314285D01*
X243200000Y-65219047D01*
X243152380Y-65076190D01*
X243152380Y-64980952D01*
X243200000Y-64838095D01*
X243247619Y-64790476D01*
X244152380Y-63885714D02*
X244152380Y-64361904D01*
X243152380Y-64361904D01*
X244533333Y-63266666D02*
X244485714Y-63314285D01*
X244342857Y-63409523D01*
X244247619Y-63457142D01*
X244104761Y-63504761D01*
X243866666Y-63552380D01*
X243676190Y-63552380D01*
X243438095Y-63504761D01*
X243295238Y-63457142D01*
X243200000Y-63409523D01*
X243057142Y-63314285D01*
X243009523Y-63266666D01*
X243866666Y-62933333D02*
X243866666Y-62457142D01*
X244152380Y-63028571D02*
X243152380Y-62695238D01*
X244152380Y-62361904D01*
X243152380Y-61552380D02*
X243152380Y-62028571D01*
X243628571Y-62076190D01*
X243580952Y-62028571D01*
X243533333Y-61933333D01*
X243533333Y-61695238D01*
X243580952Y-61600000D01*
X243628571Y-61552380D01*
X243723809Y-61504761D01*
X243961904Y-61504761D01*
X244057142Y-61552380D01*
X244104761Y-61600000D01*
X244152380Y-61695238D01*
X244152380Y-61933333D01*
X244104761Y-62028571D01*
X244057142Y-62076190D01*
X244533333Y-61171428D02*
X244485714Y-61123809D01*
X244342857Y-61028571D01*
X244247619Y-60980952D01*
X244104761Y-60933333D01*
X243866666Y-60885714D01*
X243676190Y-60885714D01*
X243438095Y-60933333D01*
X243295238Y-60980952D01*
X243200000Y-61028571D01*
X243057142Y-61123809D01*
X243009523Y-61171428D01*
X240700000Y-62936904D02*
X240652380Y-63032142D01*
X240652380Y-63175000D01*
X240700000Y-63317857D01*
X240795238Y-63413095D01*
X240890476Y-63460714D01*
X241080952Y-63508333D01*
X241223809Y-63508333D01*
X241414285Y-63460714D01*
X241509523Y-63413095D01*
X241604761Y-63317857D01*
X241652380Y-63175000D01*
X241652380Y-63079761D01*
X241604761Y-62936904D01*
X241557142Y-62889285D01*
X241223809Y-62889285D01*
X241223809Y-63079761D01*
X241652380Y-62460714D02*
X240652380Y-62460714D01*
X241652380Y-61889285D01*
X240652380Y-61889285D01*
X241652380Y-61413095D02*
X240652380Y-61413095D01*
X240652380Y-61175000D01*
X240700000Y-61032142D01*
X240795238Y-60936904D01*
X240890476Y-60889285D01*
X241080952Y-60841666D01*
X241223809Y-60841666D01*
X241414285Y-60889285D01*
X241509523Y-60936904D01*
X241604761Y-61032142D01*
X241652380Y-61175000D01*
X241652380Y-61413095D01*
X167500000Y-63561904D02*
X167452380Y-63657142D01*
X167452380Y-63800000D01*
X167500000Y-63942857D01*
X167595238Y-64038095D01*
X167690476Y-64085714D01*
X167880952Y-64133333D01*
X168023809Y-64133333D01*
X168214285Y-64085714D01*
X168309523Y-64038095D01*
X168404761Y-63942857D01*
X168452380Y-63800000D01*
X168452380Y-63704761D01*
X168404761Y-63561904D01*
X168357142Y-63514285D01*
X168023809Y-63514285D01*
X168023809Y-63704761D01*
X168452380Y-63085714D02*
X167452380Y-63085714D01*
X168452380Y-62514285D01*
X167452380Y-62514285D01*
X168452380Y-62038095D02*
X167452380Y-62038095D01*
X167452380Y-61800000D01*
X167500000Y-61657142D01*
X167595238Y-61561904D01*
X167690476Y-61514285D01*
X167880952Y-61466666D01*
X168023809Y-61466666D01*
X168214285Y-61514285D01*
X168309523Y-61561904D01*
X168404761Y-61657142D01*
X168452380Y-61800000D01*
X168452380Y-62038095D01*
X185400000Y-63661904D02*
X185352380Y-63757142D01*
X185352380Y-63900000D01*
X185400000Y-64042857D01*
X185495238Y-64138095D01*
X185590476Y-64185714D01*
X185780952Y-64233333D01*
X185923809Y-64233333D01*
X186114285Y-64185714D01*
X186209523Y-64138095D01*
X186304761Y-64042857D01*
X186352380Y-63900000D01*
X186352380Y-63804761D01*
X186304761Y-63661904D01*
X186257142Y-63614285D01*
X185923809Y-63614285D01*
X185923809Y-63804761D01*
X186352380Y-63185714D02*
X185352380Y-63185714D01*
X186352380Y-62614285D01*
X185352380Y-62614285D01*
X186352380Y-62138095D02*
X185352380Y-62138095D01*
X185352380Y-61900000D01*
X185400000Y-61757142D01*
X185495238Y-61661904D01*
X185590476Y-61614285D01*
X185780952Y-61566666D01*
X185923809Y-61566666D01*
X186114285Y-61614285D01*
X186209523Y-61661904D01*
X186304761Y-61757142D01*
X186352380Y-61900000D01*
X186352380Y-62138095D01*
X248971428Y-63560714D02*
X248971428Y-62798809D01*
X249352380Y-63179761D02*
X248590476Y-63179761D01*
X248352380Y-61846428D02*
X248352380Y-62322619D01*
X248828571Y-62370238D01*
X248780952Y-62322619D01*
X248733333Y-62227380D01*
X248733333Y-61989285D01*
X248780952Y-61894047D01*
X248828571Y-61846428D01*
X248923809Y-61798809D01*
X249161904Y-61798809D01*
X249257142Y-61846428D01*
X249304761Y-61894047D01*
X249352380Y-61989285D01*
X249352380Y-62227380D01*
X249304761Y-62322619D01*
X249257142Y-62370238D01*
X248352380Y-61513095D02*
X249352380Y-61179761D01*
X248352380Y-60846428D01*
X198971428Y-64285714D02*
X198971428Y-63523809D01*
X199352380Y-63904761D02*
X198590476Y-63904761D01*
X198352380Y-62571428D02*
X198352380Y-63047619D01*
X198828571Y-63095238D01*
X198780952Y-63047619D01*
X198733333Y-62952380D01*
X198733333Y-62714285D01*
X198780952Y-62619047D01*
X198828571Y-62571428D01*
X198923809Y-62523809D01*
X199161904Y-62523809D01*
X199257142Y-62571428D01*
X199304761Y-62619047D01*
X199352380Y-62714285D01*
X199352380Y-62952380D01*
X199304761Y-63047619D01*
X199257142Y-63095238D01*
X198352380Y-62238095D02*
X199352380Y-61904761D01*
X198352380Y-61571428D01*
X173071428Y-64285714D02*
X173071428Y-63523809D01*
X173452380Y-63904761D02*
X172690476Y-63904761D01*
X172452380Y-62571428D02*
X172452380Y-63047619D01*
X172928571Y-63095238D01*
X172880952Y-63047619D01*
X172833333Y-62952380D01*
X172833333Y-62714285D01*
X172880952Y-62619047D01*
X172928571Y-62571428D01*
X173023809Y-62523809D01*
X173261904Y-62523809D01*
X173357142Y-62571428D01*
X173404761Y-62619047D01*
X173452380Y-62714285D01*
X173452380Y-62952380D01*
X173404761Y-63047619D01*
X173357142Y-63095238D01*
X172452380Y-62238095D02*
X173452380Y-61904761D01*
X172452380Y-61571428D01*
X196604761Y-68404761D02*
X196652380Y-68261904D01*
X196652380Y-68023809D01*
X196604761Y-67928571D01*
X196557142Y-67880952D01*
X196461904Y-67833333D01*
X196366666Y-67833333D01*
X196271428Y-67880952D01*
X196223809Y-67928571D01*
X196176190Y-68023809D01*
X196128571Y-68214285D01*
X196080952Y-68309523D01*
X196033333Y-68357142D01*
X195938095Y-68404761D01*
X195842857Y-68404761D01*
X195747619Y-68357142D01*
X195700000Y-68309523D01*
X195652380Y-68214285D01*
X195652380Y-67976190D01*
X195700000Y-67833333D01*
X196557142Y-66833333D02*
X196604761Y-66880952D01*
X196652380Y-67023809D01*
X196652380Y-67119047D01*
X196604761Y-67261904D01*
X196509523Y-67357142D01*
X196414285Y-67404761D01*
X196223809Y-67452380D01*
X196080952Y-67452380D01*
X195890476Y-67404761D01*
X195795238Y-67357142D01*
X195700000Y-67261904D01*
X195652380Y-67119047D01*
X195652380Y-67023809D01*
X195700000Y-66880952D01*
X195747619Y-66833333D01*
X196652380Y-66404761D02*
X195652380Y-66404761D01*
X196652380Y-65833333D02*
X196080952Y-66261904D01*
X195652380Y-65833333D02*
X196223809Y-66404761D01*
X197033333Y-65119047D02*
X196985714Y-65166666D01*
X196842857Y-65261904D01*
X196747619Y-65309523D01*
X196604761Y-65357142D01*
X196366666Y-65404761D01*
X196176190Y-65404761D01*
X195938095Y-65357142D01*
X195795238Y-65309523D01*
X195700000Y-65261904D01*
X195557142Y-65166666D01*
X195509523Y-65119047D01*
X196652380Y-64738095D02*
X195652380Y-64738095D01*
X195652380Y-64500000D01*
X195700000Y-64357142D01*
X195795238Y-64261904D01*
X195890476Y-64214285D01*
X196080952Y-64166666D01*
X196223809Y-64166666D01*
X196414285Y-64214285D01*
X196509523Y-64261904D01*
X196604761Y-64357142D01*
X196652380Y-64500000D01*
X196652380Y-64738095D01*
X196652380Y-63214285D02*
X196652380Y-63785714D01*
X196652380Y-63500000D02*
X195652380Y-63500000D01*
X195795238Y-63595238D01*
X195890476Y-63690476D01*
X195938095Y-63785714D01*
X195652380Y-62880952D02*
X195652380Y-62261904D01*
X196033333Y-62595238D01*
X196033333Y-62452380D01*
X196080952Y-62357142D01*
X196128571Y-62309523D01*
X196223809Y-62261904D01*
X196461904Y-62261904D01*
X196557142Y-62309523D01*
X196604761Y-62357142D01*
X196652380Y-62452380D01*
X196652380Y-62738095D01*
X196604761Y-62833333D01*
X196557142Y-62880952D01*
X197033333Y-61928571D02*
X196985714Y-61880952D01*
X196842857Y-61785714D01*
X196747619Y-61738095D01*
X196604761Y-61690476D01*
X196366666Y-61642857D01*
X196176190Y-61642857D01*
X195938095Y-61690476D01*
X195795238Y-61738095D01*
X195700000Y-61785714D01*
X195557142Y-61880952D01*
X195509523Y-61928571D01*
X194052380Y-68890476D02*
X193052380Y-68890476D01*
X193766666Y-68557142D01*
X193052380Y-68223809D01*
X194052380Y-68223809D01*
X194052380Y-67747619D02*
X193052380Y-67747619D01*
X194004761Y-67319047D02*
X194052380Y-67176190D01*
X194052380Y-66938095D01*
X194004761Y-66842857D01*
X193957142Y-66795238D01*
X193861904Y-66747619D01*
X193766666Y-66747619D01*
X193671428Y-66795238D01*
X193623809Y-66842857D01*
X193576190Y-66938095D01*
X193528571Y-67128571D01*
X193480952Y-67223809D01*
X193433333Y-67271428D01*
X193338095Y-67319047D01*
X193242857Y-67319047D01*
X193147619Y-67271428D01*
X193100000Y-67223809D01*
X193052380Y-67128571D01*
X193052380Y-66890476D01*
X193100000Y-66747619D01*
X193052380Y-66128571D02*
X193052380Y-65938095D01*
X193100000Y-65842857D01*
X193195238Y-65747619D01*
X193385714Y-65700000D01*
X193719047Y-65700000D01*
X193909523Y-65747619D01*
X194004761Y-65842857D01*
X194052380Y-65938095D01*
X194052380Y-66128571D01*
X194004761Y-66223809D01*
X193909523Y-66319047D01*
X193719047Y-66366666D01*
X193385714Y-66366666D01*
X193195238Y-66319047D01*
X193100000Y-66223809D01*
X193052380Y-66128571D01*
X194433333Y-64985714D02*
X194385714Y-65033333D01*
X194242857Y-65128571D01*
X194147619Y-65176190D01*
X194004761Y-65223809D01*
X193766666Y-65271428D01*
X193576190Y-65271428D01*
X193338095Y-65223809D01*
X193195238Y-65176190D01*
X193100000Y-65128571D01*
X192957142Y-65033333D01*
X192909523Y-64985714D01*
X194052380Y-64604761D02*
X193052380Y-64604761D01*
X193052380Y-64366666D01*
X193100000Y-64223809D01*
X193195238Y-64128571D01*
X193290476Y-64080952D01*
X193480952Y-64033333D01*
X193623809Y-64033333D01*
X193814285Y-64080952D01*
X193909523Y-64128571D01*
X194004761Y-64223809D01*
X194052380Y-64366666D01*
X194052380Y-64604761D01*
X194052380Y-63080952D02*
X194052380Y-63652380D01*
X194052380Y-63366666D02*
X193052380Y-63366666D01*
X193195238Y-63461904D01*
X193290476Y-63557142D01*
X193338095Y-63652380D01*
X193147619Y-62700000D02*
X193100000Y-62652380D01*
X193052380Y-62557142D01*
X193052380Y-62319047D01*
X193100000Y-62223809D01*
X193147619Y-62176190D01*
X193242857Y-62128571D01*
X193338095Y-62128571D01*
X193480952Y-62176190D01*
X194052380Y-62747619D01*
X194052380Y-62128571D01*
X194433333Y-61795238D02*
X194385714Y-61747619D01*
X194242857Y-61652380D01*
X194147619Y-61604761D01*
X194004761Y-61557142D01*
X193766666Y-61509523D01*
X193576190Y-61509523D01*
X193338095Y-61557142D01*
X193195238Y-61604761D01*
X193100000Y-61652380D01*
X192957142Y-61747619D01*
X192909523Y-61795238D01*
X191552380Y-68890476D02*
X190552380Y-68890476D01*
X191266666Y-68557142D01*
X190552380Y-68223809D01*
X191552380Y-68223809D01*
X190552380Y-67557142D02*
X190552380Y-67366666D01*
X190600000Y-67271428D01*
X190695238Y-67176190D01*
X190885714Y-67128571D01*
X191219047Y-67128571D01*
X191409523Y-67176190D01*
X191504761Y-67271428D01*
X191552380Y-67366666D01*
X191552380Y-67557142D01*
X191504761Y-67652380D01*
X191409523Y-67747619D01*
X191219047Y-67795238D01*
X190885714Y-67795238D01*
X190695238Y-67747619D01*
X190600000Y-67652380D01*
X190552380Y-67557142D01*
X191504761Y-66747619D02*
X191552380Y-66604761D01*
X191552380Y-66366666D01*
X191504761Y-66271428D01*
X191457142Y-66223809D01*
X191361904Y-66176190D01*
X191266666Y-66176190D01*
X191171428Y-66223809D01*
X191123809Y-66271428D01*
X191076190Y-66366666D01*
X191028571Y-66557142D01*
X190980952Y-66652380D01*
X190933333Y-66700000D01*
X190838095Y-66747619D01*
X190742857Y-66747619D01*
X190647619Y-66700000D01*
X190600000Y-66652380D01*
X190552380Y-66557142D01*
X190552380Y-66319047D01*
X190600000Y-66176190D01*
X191552380Y-65747619D02*
X190552380Y-65747619D01*
X191933333Y-64985714D02*
X191885714Y-65033333D01*
X191742857Y-65128571D01*
X191647619Y-65176190D01*
X191504761Y-65223809D01*
X191266666Y-65271428D01*
X191076190Y-65271428D01*
X190838095Y-65223809D01*
X190695238Y-65176190D01*
X190600000Y-65128571D01*
X190457142Y-65033333D01*
X190409523Y-64985714D01*
X191552380Y-64604761D02*
X190552380Y-64604761D01*
X190552380Y-64366666D01*
X190600000Y-64223809D01*
X190695238Y-64128571D01*
X190790476Y-64080952D01*
X190980952Y-64033333D01*
X191123809Y-64033333D01*
X191314285Y-64080952D01*
X191409523Y-64128571D01*
X191504761Y-64223809D01*
X191552380Y-64366666D01*
X191552380Y-64604761D01*
X191552380Y-63080952D02*
X191552380Y-63652380D01*
X191552380Y-63366666D02*
X190552380Y-63366666D01*
X190695238Y-63461904D01*
X190790476Y-63557142D01*
X190838095Y-63652380D01*
X191552380Y-62128571D02*
X191552380Y-62700000D01*
X191552380Y-62414285D02*
X190552380Y-62414285D01*
X190695238Y-62509523D01*
X190790476Y-62604761D01*
X190838095Y-62700000D01*
X191933333Y-61795238D02*
X191885714Y-61747619D01*
X191742857Y-61652380D01*
X191647619Y-61604761D01*
X191504761Y-61557142D01*
X191266666Y-61509523D01*
X191076190Y-61509523D01*
X190838095Y-61557142D01*
X190695238Y-61604761D01*
X190600000Y-61652380D01*
X190457142Y-61747619D01*
X190409523Y-61795238D01*
X188385714Y-68085714D02*
X189052380Y-68085714D01*
X188480952Y-68085714D02*
X188433333Y-68038095D01*
X188385714Y-67942857D01*
X188385714Y-67800000D01*
X188433333Y-67704761D01*
X188528571Y-67657142D01*
X189052380Y-67657142D01*
X189004761Y-67228571D02*
X189052380Y-67085714D01*
X189052380Y-66847619D01*
X189004761Y-66752380D01*
X188957142Y-66704761D01*
X188861904Y-66657142D01*
X188766666Y-66657142D01*
X188671428Y-66704761D01*
X188623809Y-66752380D01*
X188576190Y-66847619D01*
X188528571Y-67038095D01*
X188480952Y-67133333D01*
X188433333Y-67180952D01*
X188338095Y-67228571D01*
X188242857Y-67228571D01*
X188147619Y-67180952D01*
X188100000Y-67133333D01*
X188052380Y-67038095D01*
X188052380Y-66800000D01*
X188100000Y-66657142D01*
X189004761Y-66276190D02*
X189052380Y-66133333D01*
X189052380Y-65895238D01*
X189004761Y-65800000D01*
X188957142Y-65752380D01*
X188861904Y-65704761D01*
X188766666Y-65704761D01*
X188671428Y-65752380D01*
X188623809Y-65800000D01*
X188576190Y-65895238D01*
X188528571Y-66085714D01*
X188480952Y-66180952D01*
X188433333Y-66228571D01*
X188338095Y-66276190D01*
X188242857Y-66276190D01*
X188147619Y-66228571D01*
X188100000Y-66180952D01*
X188052380Y-66085714D01*
X188052380Y-65847619D01*
X188100000Y-65704761D01*
X189433333Y-64990476D02*
X189385714Y-65038095D01*
X189242857Y-65133333D01*
X189147619Y-65180952D01*
X189004761Y-65228571D01*
X188766666Y-65276190D01*
X188576190Y-65276190D01*
X188338095Y-65228571D01*
X188195238Y-65180952D01*
X188100000Y-65133333D01*
X187957142Y-65038095D01*
X187909523Y-64990476D01*
X189052380Y-64609523D02*
X188052380Y-64609523D01*
X188052380Y-64371428D01*
X188100000Y-64228571D01*
X188195238Y-64133333D01*
X188290476Y-64085714D01*
X188480952Y-64038095D01*
X188623809Y-64038095D01*
X188814285Y-64085714D01*
X188909523Y-64133333D01*
X189004761Y-64228571D01*
X189052380Y-64371428D01*
X189052380Y-64609523D01*
X189052380Y-63085714D02*
X189052380Y-63657142D01*
X189052380Y-63371428D02*
X188052380Y-63371428D01*
X188195238Y-63466666D01*
X188290476Y-63561904D01*
X188338095Y-63657142D01*
X188052380Y-62466666D02*
X188052380Y-62371428D01*
X188100000Y-62276190D01*
X188147619Y-62228571D01*
X188242857Y-62180952D01*
X188433333Y-62133333D01*
X188671428Y-62133333D01*
X188861904Y-62180952D01*
X188957142Y-62228571D01*
X189004761Y-62276190D01*
X189052380Y-62371428D01*
X189052380Y-62466666D01*
X189004761Y-62561904D01*
X188957142Y-62609523D01*
X188861904Y-62657142D01*
X188671428Y-62704761D01*
X188433333Y-62704761D01*
X188242857Y-62657142D01*
X188147619Y-62609523D01*
X188100000Y-62561904D01*
X188052380Y-62466666D01*
X189433333Y-61800000D02*
X189385714Y-61752380D01*
X189242857Y-61657142D01*
X189147619Y-61609523D01*
X189004761Y-61561904D01*
X188766666Y-61514285D01*
X188576190Y-61514285D01*
X188338095Y-61561904D01*
X188195238Y-61609523D01*
X188100000Y-61657142D01*
X187957142Y-61752380D01*
X187909523Y-61800000D01*
X175385714Y-67857142D02*
X175671428Y-68619047D01*
X175957142Y-67857142D01*
X175671428Y-67380952D02*
X175671428Y-66619047D01*
X176052380Y-65571428D02*
X175576190Y-65904761D01*
X176052380Y-66142857D02*
X175052380Y-66142857D01*
X175052380Y-65761904D01*
X175100000Y-65666666D01*
X175147619Y-65619047D01*
X175242857Y-65571428D01*
X175385714Y-65571428D01*
X175480952Y-65619047D01*
X175528571Y-65666666D01*
X175576190Y-65761904D01*
X175576190Y-66142857D01*
X175052380Y-65238095D02*
X176052380Y-64571428D01*
X175052380Y-64571428D02*
X176052380Y-65238095D01*
X176433333Y-63904761D02*
X176385714Y-63952380D01*
X176242857Y-64047619D01*
X176147619Y-64095238D01*
X176004761Y-64142857D01*
X175766666Y-64190476D01*
X175576190Y-64190476D01*
X175338095Y-64142857D01*
X175195238Y-64095238D01*
X175100000Y-64047619D01*
X174957142Y-63952380D01*
X174909523Y-63904761D01*
X176052380Y-63523809D02*
X175052380Y-63523809D01*
X175052380Y-63285714D01*
X175100000Y-63142857D01*
X175195238Y-63047619D01*
X175290476Y-63000000D01*
X175480952Y-62952380D01*
X175623809Y-62952380D01*
X175814285Y-63000000D01*
X175909523Y-63047619D01*
X176004761Y-63142857D01*
X176052380Y-63285714D01*
X176052380Y-63523809D01*
X175052380Y-62333333D02*
X175052380Y-62238095D01*
X175100000Y-62142857D01*
X175147619Y-62095238D01*
X175242857Y-62047619D01*
X175433333Y-62000000D01*
X175671428Y-62000000D01*
X175861904Y-62047619D01*
X175957142Y-62095238D01*
X176004761Y-62142857D01*
X176052380Y-62238095D01*
X176052380Y-62333333D01*
X176004761Y-62428571D01*
X175957142Y-62476190D01*
X175861904Y-62523809D01*
X175671428Y-62571428D01*
X175433333Y-62571428D01*
X175242857Y-62523809D01*
X175147619Y-62476190D01*
X175100000Y-62428571D01*
X175052380Y-62333333D01*
X176433333Y-61666666D02*
X176385714Y-61619047D01*
X176242857Y-61523809D01*
X176147619Y-61476190D01*
X176004761Y-61428571D01*
X175766666Y-61380952D01*
X175576190Y-61380952D01*
X175338095Y-61428571D01*
X175195238Y-61476190D01*
X175100000Y-61523809D01*
X174957142Y-61619047D01*
X174909523Y-61666666D01*
X178271428Y-68500000D02*
X178271428Y-67738095D01*
X177985714Y-67261904D02*
X178271428Y-66500000D01*
X178557142Y-67261904D01*
X177652380Y-66166666D02*
X177652380Y-65595238D01*
X178652380Y-65880952D02*
X177652380Y-65880952D01*
X177652380Y-65357142D02*
X178652380Y-64690476D01*
X177652380Y-64690476D02*
X178652380Y-65357142D01*
X179033333Y-64023809D02*
X178985714Y-64071428D01*
X178842857Y-64166666D01*
X178747619Y-64214285D01*
X178604761Y-64261904D01*
X178366666Y-64309523D01*
X178176190Y-64309523D01*
X177938095Y-64261904D01*
X177795238Y-64214285D01*
X177700000Y-64166666D01*
X177557142Y-64071428D01*
X177509523Y-64023809D01*
X178652380Y-63642857D02*
X177652380Y-63642857D01*
X177652380Y-63404761D01*
X177700000Y-63261904D01*
X177795238Y-63166666D01*
X177890476Y-63119047D01*
X178080952Y-63071428D01*
X178223809Y-63071428D01*
X178414285Y-63119047D01*
X178509523Y-63166666D01*
X178604761Y-63261904D01*
X178652380Y-63404761D01*
X178652380Y-63642857D01*
X178652380Y-62119047D02*
X178652380Y-62690476D01*
X178652380Y-62404761D02*
X177652380Y-62404761D01*
X177795238Y-62500000D01*
X177890476Y-62595238D01*
X177938095Y-62690476D01*
X179033333Y-61785714D02*
X178985714Y-61738095D01*
X178842857Y-61642857D01*
X178747619Y-61595238D01*
X178604761Y-61547619D01*
X178366666Y-61500000D01*
X178176190Y-61500000D01*
X177938095Y-61547619D01*
X177795238Y-61595238D01*
X177700000Y-61642857D01*
X177557142Y-61738095D01*
X177509523Y-61785714D01*
D13*
X221270000Y-62270000D02*
X221270000Y-59730000D01*
X221270000Y-59730000D02*
X218600000Y-59730000D01*
X218600000Y-62270000D02*
X218600000Y-100500000D01*
X218600000Y-57060000D02*
X218600000Y-59730000D01*
X233970000Y-59730000D02*
X236640000Y-59730000D01*
X233970000Y-59730000D02*
X233970000Y-97830000D01*
X233970000Y-97830000D02*
X236640000Y-97830000D01*
X221270000Y-62270000D02*
X218600000Y-62270000D01*
X221270000Y-62270000D02*
X221270000Y-97830000D01*
X221270000Y-97830000D02*
X218600000Y-97830000D01*
X218600000Y-100500000D02*
X236640000Y-100500000D01*
X236640000Y-100500000D02*
X236640000Y-57060000D01*
X236640000Y-57060000D02*
X218600000Y-57060000D01*
X252730000Y-57670000D02*
X252730000Y-59000000D01*
X251400000Y-57670000D02*
X252730000Y-57670000D01*
X250130000Y-57670000D02*
X250130000Y-60330000D01*
X250130000Y-60330000D02*
X239910000Y-60330000D01*
X250130000Y-57670000D02*
X239910000Y-57670000D01*
X239910000Y-57670000D02*
X239910000Y-60330000D01*
X182200000Y-100500000D02*
G75*
G03X182200000Y-100500000I-700000J0D01*
G01*
X202530000Y-58170000D02*
X202530000Y-59500000D01*
X201200000Y-58170000D02*
X202530000Y-58170000D01*
X199930000Y-58170000D02*
X199930000Y-60830000D01*
X199930000Y-60830000D02*
X184630000Y-60830000D01*
X199930000Y-58170000D02*
X184630000Y-58170000D01*
X184630000Y-58170000D02*
X184630000Y-60830000D01*
X170120000Y-69185000D02*
X172780000Y-69185000D01*
X172750000Y-69185000D02*
X172780000Y-79435000D01*
X170120000Y-69185000D02*
X170120000Y-79435000D01*
X170120000Y-79435000D02*
X172780000Y-79435000D01*
X167580000Y-69185000D02*
X170240000Y-69185000D01*
X170210000Y-69185000D02*
X170240000Y-79435000D01*
X167580000Y-69185000D02*
X167580000Y-79435000D01*
X167580000Y-79435000D02*
X170240000Y-79435000D01*
X198060000Y-69150000D02*
X200720000Y-69150000D01*
X200690000Y-69150000D02*
X200720000Y-79400000D01*
X198060000Y-69150000D02*
X198060000Y-79400000D01*
X198060000Y-79400000D02*
X200720000Y-79400000D01*
X177950000Y-86800000D02*
G75*
G03X177950000Y-86800000I-950000J0D01*
G01*
X202950000Y-86200000D02*
G75*
G03X202950000Y-86200000I-950000J0D01*
G01*
X215700000Y-97350000D02*
G75*
G03X215700000Y-97350000I-700000J0D01*
G01*
X218100000Y-76400000D02*
G75*
G03X218100000Y-76400000I-700000J0D01*
G01*
X211600000Y-80900000D02*
G75*
G03X211600000Y-80900000I-700000J0D01*
G01*
X217900000Y-73150000D02*
G75*
G03X217900000Y-73150000I-700000J0D01*
G01*
X248150000Y-77800000D02*
G75*
G03X248150000Y-77800000I-700000J0D01*
G01*
X250400000Y-77850000D02*
G75*
G03X250400000Y-77850000I-700000J0D01*
G01*
X260750000Y-78200000D02*
G75*
G03X260750000Y-78200000I-700000J0D01*
G01*
X260650000Y-74550000D02*
G75*
G03X260650000Y-74550000I-700000J0D01*
G01*
X177700000Y-83600000D02*
G75*
G03X177700000Y-83600000I-700000J0D01*
G01*
X199900000Y-90600000D02*
G75*
G03X199900000Y-90600000I-700000J0D01*
G01*
X177700000Y-91400000D02*
G75*
G03X177700000Y-91400000I-700000J0D01*
G01*
X199900000Y-88400000D02*
G75*
G03X199900000Y-88400000I-700000J0D01*
G01*
X213738748Y-83410000D02*
X214261252Y-83410000D01*
X213738748Y-81990000D02*
X214261252Y-81990000D01*
X213738748Y-85910000D02*
X214261252Y-85910000D01*
X213738748Y-84490000D02*
X214261252Y-84490000D01*
X238910000Y-75611252D02*
X238910000Y-75088748D01*
X237490000Y-75611252D02*
X237490000Y-75088748D01*
X241410000Y-75611252D02*
X241410000Y-75088748D01*
X239990000Y-75611252D02*
X239990000Y-75088748D01*
X189000000Y-92300000D02*
X188000000Y-92300000D01*
X188500000Y-92800000D02*
X188500000Y-91800000D01*
X182400000Y-88800000D02*
X182400000Y-86400000D01*
X182400000Y-93600000D02*
X182400000Y-91000000D01*
X182400000Y-98200000D02*
X182400000Y-95800000D01*
X195700000Y-96400000D02*
X196000000Y-96100000D01*
X196300000Y-96400000D02*
X195700000Y-96400000D01*
X196000000Y-96100000D02*
X196300000Y-96400000D01*
X194600000Y-98200000D02*
X194600000Y-86400000D01*
X190500000Y-98200000D02*
X194600000Y-98200000D01*
X190500000Y-86400000D02*
X194600000Y-86400000D01*
X182400000Y-86400000D02*
X186500000Y-86400000D01*
X186500000Y-98200000D02*
X182400000Y-98200000D01*
X191500000Y-92300000D02*
G75*
G03X191500000Y-92300000I-3000000J0D01*
G01*
D12*
X255550000Y-56500000D02*
G75*
G03X255550000Y-56500000I-50000J0D01*
G01*
D14*
X255750000Y-56500000D02*
G75*
G03X255750000Y-56500000I-250000J0D01*
G01*
D13*
X204670000Y-74595000D02*
X204205000Y-74595000D01*
X207295000Y-74595000D02*
X206830000Y-74595000D01*
X204669571Y-79409479D02*
G75*
G02X204670000Y-74900316I1080429J2254479D01*
G01*
X206830429Y-79409479D02*
G75*
G03X206830000Y-74900316I-1080429J2254479D01*
G01*
X204669173Y-79942815D02*
G75*
G02X204205170Y-74595000I1080827J2787815D01*
G01*
X206830827Y-79942815D02*
G75*
G03X207294830Y-74595000I-1080827J2787815D01*
G01*
X259470000Y-83500462D02*
G75*
G03X253920000Y-81955170I-2990000J462D01*
G01*
X259470000Y-83499538D02*
G75*
G02X253920000Y-85044830I-2990000J-462D01*
G01*
X258980000Y-83500000D02*
G75*
G03X258980000Y-83500000I-2500000J0D01*
G01*
X253920000Y-81955000D02*
X253920000Y-85045000D01*
X240490000Y-83499538D02*
G75*
G03X246040000Y-85044830I2990000J-462D01*
G01*
X240490000Y-83500462D02*
G75*
G02X246040000Y-81955170I2990000J462D01*
G01*
X245980000Y-83500000D02*
G75*
G03X245980000Y-83500000I-2500000J0D01*
G01*
X246040000Y-85045000D02*
X246040000Y-81955000D01*
X259040000Y-91545000D02*
X259040000Y-88455000D01*
X258980000Y-90000000D02*
G75*
G03X258980000Y-90000000I-2500000J0D01*
G01*
X253490000Y-90000462D02*
G75*
G02X259040000Y-88455170I2990000J462D01*
G01*
X253490000Y-89999538D02*
G75*
G03X259040000Y-91544830I2990000J-462D01*
G01*
X252540000Y-98045000D02*
X252540000Y-94955000D01*
X252480000Y-96500000D02*
G75*
G03X252480000Y-96500000I-2500000J0D01*
G01*
X246990000Y-96500462D02*
G75*
G02X252540000Y-94955170I2990000J462D01*
G01*
X246990000Y-96499538D02*
G75*
G03X252540000Y-98044830I2990000J-462D01*
G01*
X253490000Y-96499538D02*
G75*
G03X259040000Y-98044830I2990000J-462D01*
G01*
X253490000Y-96500462D02*
G75*
G02X259040000Y-94955170I2990000J462D01*
G01*
X258980000Y-96500000D02*
G75*
G03X258980000Y-96500000I-2500000J0D01*
G01*
X259040000Y-98045000D02*
X259040000Y-94955000D01*
X247460000Y-88455000D02*
X247460000Y-91545000D01*
X252520000Y-90000000D02*
G75*
G03X252520000Y-90000000I-2500000J0D01*
G01*
X253010000Y-89999538D02*
G75*
G02X247460000Y-91544830I-2990000J-462D01*
G01*
X253010000Y-90000462D02*
G75*
G03X247460000Y-88455170I-2990000J462D01*
G01*
X246510000Y-90000462D02*
G75*
G03X240960000Y-88455170I-2990000J462D01*
G01*
X246510000Y-89999538D02*
G75*
G02X240960000Y-91544830I-2990000J-462D01*
G01*
X246020000Y-90000000D02*
G75*
G03X246020000Y-90000000I-2500000J0D01*
G01*
X240960000Y-88455000D02*
X240960000Y-91545000D01*
X240490000Y-96499538D02*
G75*
G03X246040000Y-98044830I2990000J-462D01*
G01*
X240490000Y-96500462D02*
G75*
G02X246040000Y-94955170I2990000J462D01*
G01*
X245980000Y-96500000D02*
G75*
G03X245980000Y-96500000I-2500000J0D01*
G01*
X246040000Y-98045000D02*
X246040000Y-94955000D01*
X247460000Y-81955000D02*
X247460000Y-85045000D01*
X252520000Y-83500000D02*
G75*
G03X252520000Y-83500000I-2500000J0D01*
G01*
X253010000Y-83499538D02*
G75*
G02X247460000Y-85044830I-2990000J-462D01*
G01*
X253010000Y-83500462D02*
G75*
G03X247460000Y-81955170I-2990000J462D01*
G01*
X166670000Y-60830000D02*
X166670000Y-59500000D01*
X168000000Y-60830000D02*
X166670000Y-60830000D01*
X169270000Y-60830000D02*
X169270000Y-58170000D01*
X169270000Y-58170000D02*
X182030000Y-58170000D01*
X169270000Y-60830000D02*
X182030000Y-60830000D01*
X182030000Y-60830000D02*
X182030000Y-58170000D01*
X214461252Y-71140000D02*
X213938748Y-71140000D01*
X214461252Y-72560000D02*
X213938748Y-72560000D01*
X214261252Y-88360000D02*
X213738748Y-88360000D01*
X214261252Y-86940000D02*
X213738748Y-86940000D01*
X214461252Y-69190000D02*
X213938748Y-69190000D01*
X214461252Y-70610000D02*
X213938748Y-70610000D01*
X258460000Y-77011252D02*
X258460000Y-76488748D01*
X257040000Y-77011252D02*
X257040000Y-76488748D01*
X255040000Y-77011252D02*
X255040000Y-76488748D01*
X256460000Y-77011252D02*
X256460000Y-76488748D01*
X252460000Y-77011252D02*
X252460000Y-76488748D01*
X251040000Y-77011252D02*
X251040000Y-76488748D01*
X253040000Y-77011252D02*
X253040000Y-76488748D01*
X254460000Y-77011252D02*
X254460000Y-76488748D01*
X214261252Y-75960000D02*
X213738748Y-75960000D01*
X214261252Y-74540000D02*
X213738748Y-74540000D01*
X214261252Y-76540000D02*
X213738748Y-76540000D01*
X214261252Y-77960000D02*
X213738748Y-77960000D01*
X214236252Y-79960000D02*
X213713748Y-79960000D01*
X214236252Y-78540000D02*
X213713748Y-78540000D01*
X166750000Y-95500000D02*
X166750000Y-97000000D01*
X168000000Y-99500000D02*
X172500000Y-99500000D01*
X173750000Y-97000000D02*
X173750000Y-95500000D01*
X172500000Y-93000000D02*
X168000000Y-93000000D01*
X172600000Y-81200000D02*
X168100000Y-81200000D01*
X173850000Y-85200000D02*
X173850000Y-83700000D01*
X168100000Y-87700000D02*
X172600000Y-87700000D01*
X166850000Y-83700000D02*
X166850000Y-85200000D01*
D10*
X226905714Y-56086666D02*
X227381904Y-56086666D01*
X226810476Y-56372380D02*
X227143809Y-55372380D01*
X227477142Y-56372380D01*
X228334285Y-56372380D02*
X227762857Y-56372380D01*
X228048571Y-56372380D02*
X228048571Y-55372380D01*
X227953333Y-55515238D01*
X227858095Y-55610476D01*
X227762857Y-55658095D01*
X253182380Y-59333333D02*
X253896666Y-59333333D01*
X254039523Y-59380952D01*
X254134761Y-59476190D01*
X254182380Y-59619047D01*
X254182380Y-59714285D01*
X253182380Y-58952380D02*
X253182380Y-58333333D01*
X253563333Y-58666666D01*
X253563333Y-58523809D01*
X253610952Y-58428571D01*
X253658571Y-58380952D01*
X253753809Y-58333333D01*
X253991904Y-58333333D01*
X254087142Y-58380952D01*
X254134761Y-58428571D01*
X254182380Y-58523809D01*
X254182380Y-58809523D01*
X254134761Y-58904761D01*
X254087142Y-58952380D01*
X242647619Y-57052380D02*
X242647619Y-56052380D01*
X243076190Y-56147619D02*
X243123809Y-56100000D01*
X243219047Y-56052380D01*
X243457142Y-56052380D01*
X243552380Y-56100000D01*
X243600000Y-56147619D01*
X243647619Y-56242857D01*
X243647619Y-56338095D01*
X243600000Y-56480952D01*
X243028571Y-57052380D01*
X243647619Y-57052380D01*
X244647619Y-56957142D02*
X244600000Y-57004761D01*
X244457142Y-57052380D01*
X244361904Y-57052380D01*
X244219047Y-57004761D01*
X244123809Y-56909523D01*
X244076190Y-56814285D01*
X244028571Y-56623809D01*
X244028571Y-56480952D01*
X244076190Y-56290476D01*
X244123809Y-56195238D01*
X244219047Y-56100000D01*
X244361904Y-56052380D01*
X244457142Y-56052380D01*
X244600000Y-56100000D01*
X244647619Y-56147619D01*
X245838095Y-57052380D02*
X245838095Y-56052380D01*
X245838095Y-56528571D02*
X246409523Y-56528571D01*
X246409523Y-57052380D02*
X246409523Y-56052380D01*
X247266666Y-57004761D02*
X247171428Y-57052380D01*
X246980952Y-57052380D01*
X246885714Y-57004761D01*
X246838095Y-56909523D01*
X246838095Y-56528571D01*
X246885714Y-56433333D01*
X246980952Y-56385714D01*
X247171428Y-56385714D01*
X247266666Y-56433333D01*
X247314285Y-56528571D01*
X247314285Y-56623809D01*
X246838095Y-56719047D01*
X248171428Y-57052380D02*
X248171428Y-56528571D01*
X248123809Y-56433333D01*
X248028571Y-56385714D01*
X247838095Y-56385714D01*
X247742857Y-56433333D01*
X248171428Y-57004761D02*
X248076190Y-57052380D01*
X247838095Y-57052380D01*
X247742857Y-57004761D01*
X247695238Y-56909523D01*
X247695238Y-56814285D01*
X247742857Y-56719047D01*
X247838095Y-56671428D01*
X248076190Y-56671428D01*
X248171428Y-56623809D01*
X249076190Y-57052380D02*
X249076190Y-56052380D01*
X249076190Y-57004761D02*
X248980952Y-57052380D01*
X248790476Y-57052380D01*
X248695238Y-57004761D01*
X248647619Y-56957142D01*
X248600000Y-56861904D01*
X248600000Y-56576190D01*
X248647619Y-56480952D01*
X248695238Y-56433333D01*
X248790476Y-56385714D01*
X248980952Y-56385714D01*
X249076190Y-56433333D01*
X249933333Y-57004761D02*
X249838095Y-57052380D01*
X249647619Y-57052380D01*
X249552380Y-57004761D01*
X249504761Y-56909523D01*
X249504761Y-56528571D01*
X249552380Y-56433333D01*
X249647619Y-56385714D01*
X249838095Y-56385714D01*
X249933333Y-56433333D01*
X249980952Y-56528571D01*
X249980952Y-56623809D01*
X249504761Y-56719047D01*
X250409523Y-57052380D02*
X250409523Y-56385714D01*
X250409523Y-56576190D02*
X250457142Y-56480952D01*
X250504761Y-56433333D01*
X250600000Y-56385714D01*
X250695238Y-56385714D01*
X182690476Y-100428571D02*
X183023809Y-100428571D01*
X183166666Y-100952380D02*
X182690476Y-100952380D01*
X182690476Y-99952380D01*
X183166666Y-99952380D01*
X183595238Y-100952380D02*
X183595238Y-99952380D01*
X184166666Y-100952380D01*
X184166666Y-99952380D01*
X185214285Y-100857142D02*
X185166666Y-100904761D01*
X185023809Y-100952380D01*
X184928571Y-100952380D01*
X184785714Y-100904761D01*
X184690476Y-100809523D01*
X184642857Y-100714285D01*
X184595238Y-100523809D01*
X184595238Y-100380952D01*
X184642857Y-100190476D01*
X184690476Y-100095238D01*
X184785714Y-100000000D01*
X184928571Y-99952380D01*
X185023809Y-99952380D01*
X185166666Y-100000000D01*
X185214285Y-100047619D01*
X185404761Y-101047619D02*
X186166666Y-101047619D01*
X186357142Y-100904761D02*
X186500000Y-100952380D01*
X186738095Y-100952380D01*
X186833333Y-100904761D01*
X186880952Y-100857142D01*
X186928571Y-100761904D01*
X186928571Y-100666666D01*
X186880952Y-100571428D01*
X186833333Y-100523809D01*
X186738095Y-100476190D01*
X186547619Y-100428571D01*
X186452380Y-100380952D01*
X186404761Y-100333333D01*
X186357142Y-100238095D01*
X186357142Y-100142857D01*
X186404761Y-100047619D01*
X186452380Y-100000000D01*
X186547619Y-99952380D01*
X186785714Y-99952380D01*
X186928571Y-100000000D01*
X187261904Y-99952380D02*
X187500000Y-100952380D01*
X187690476Y-100238095D01*
X187880952Y-100952380D01*
X188119047Y-99952380D01*
X188785714Y-101333333D02*
X188738095Y-101285714D01*
X188642857Y-101142857D01*
X188595238Y-101047619D01*
X188547619Y-100904761D01*
X188500000Y-100666666D01*
X188500000Y-100476190D01*
X188547619Y-100238095D01*
X188595238Y-100095238D01*
X188642857Y-100000000D01*
X188738095Y-99857142D01*
X188785714Y-99809523D01*
X189166666Y-100952380D02*
X189166666Y-99952380D01*
X189404761Y-99952380D01*
X189547619Y-100000000D01*
X189642857Y-100095238D01*
X189690476Y-100190476D01*
X189738095Y-100380952D01*
X189738095Y-100523809D01*
X189690476Y-100714285D01*
X189642857Y-100809523D01*
X189547619Y-100904761D01*
X189404761Y-100952380D01*
X189166666Y-100952380D01*
X190214285Y-100952380D02*
X190404761Y-100952380D01*
X190500000Y-100904761D01*
X190547619Y-100857142D01*
X190642857Y-100714285D01*
X190690476Y-100523809D01*
X190690476Y-100142857D01*
X190642857Y-100047619D01*
X190595238Y-100000000D01*
X190500000Y-99952380D01*
X190309523Y-99952380D01*
X190214285Y-100000000D01*
X190166666Y-100047619D01*
X190119047Y-100142857D01*
X190119047Y-100380952D01*
X190166666Y-100476190D01*
X190214285Y-100523809D01*
X190309523Y-100571428D01*
X190500000Y-100571428D01*
X190595238Y-100523809D01*
X190642857Y-100476190D01*
X190690476Y-100380952D01*
X191023809Y-101333333D02*
X191071428Y-101285714D01*
X191166666Y-101142857D01*
X191214285Y-101047619D01*
X191261904Y-100904761D01*
X191309523Y-100666666D01*
X191309523Y-100476190D01*
X191261904Y-100238095D01*
X191214285Y-100095238D01*
X191166666Y-100000000D01*
X191071428Y-99857142D01*
X191023809Y-99809523D01*
X202982380Y-59833333D02*
X203696666Y-59833333D01*
X203839523Y-59880952D01*
X203934761Y-59976190D01*
X203982380Y-60119047D01*
X203982380Y-60214285D01*
X203077619Y-59404761D02*
X203030000Y-59357142D01*
X202982380Y-59261904D01*
X202982380Y-59023809D01*
X203030000Y-58928571D01*
X203077619Y-58880952D01*
X203172857Y-58833333D01*
X203268095Y-58833333D01*
X203410952Y-58880952D01*
X203982380Y-59452380D01*
X203982380Y-58833333D01*
X189500000Y-57504761D02*
X189642857Y-57552380D01*
X189880952Y-57552380D01*
X189976190Y-57504761D01*
X190023809Y-57457142D01*
X190071428Y-57361904D01*
X190071428Y-57266666D01*
X190023809Y-57171428D01*
X189976190Y-57123809D01*
X189880952Y-57076190D01*
X189690476Y-57028571D01*
X189595238Y-56980952D01*
X189547619Y-56933333D01*
X189500000Y-56838095D01*
X189500000Y-56742857D01*
X189547619Y-56647619D01*
X189595238Y-56600000D01*
X189690476Y-56552380D01*
X189928571Y-56552380D01*
X190071428Y-56600000D01*
X190500000Y-57552380D02*
X190500000Y-56552380D01*
X190880952Y-56552380D01*
X190976190Y-56600000D01*
X191023809Y-56647619D01*
X191071428Y-56742857D01*
X191071428Y-56885714D01*
X191023809Y-56980952D01*
X190976190Y-57028571D01*
X190880952Y-57076190D01*
X190500000Y-57076190D01*
X191500000Y-57552380D02*
X191500000Y-56552380D01*
X192738095Y-57552380D02*
X192738095Y-56552380D01*
X192738095Y-57028571D02*
X193309523Y-57028571D01*
X193309523Y-57552380D02*
X193309523Y-56552380D01*
X194166666Y-57504761D02*
X194071428Y-57552380D01*
X193880952Y-57552380D01*
X193785714Y-57504761D01*
X193738095Y-57409523D01*
X193738095Y-57028571D01*
X193785714Y-56933333D01*
X193880952Y-56885714D01*
X194071428Y-56885714D01*
X194166666Y-56933333D01*
X194214285Y-57028571D01*
X194214285Y-57123809D01*
X193738095Y-57219047D01*
X195071428Y-57552380D02*
X195071428Y-57028571D01*
X195023809Y-56933333D01*
X194928571Y-56885714D01*
X194738095Y-56885714D01*
X194642857Y-56933333D01*
X195071428Y-57504761D02*
X194976190Y-57552380D01*
X194738095Y-57552380D01*
X194642857Y-57504761D01*
X194595238Y-57409523D01*
X194595238Y-57314285D01*
X194642857Y-57219047D01*
X194738095Y-57171428D01*
X194976190Y-57171428D01*
X195071428Y-57123809D01*
X195976190Y-57552380D02*
X195976190Y-56552380D01*
X195976190Y-57504761D02*
X195880952Y-57552380D01*
X195690476Y-57552380D01*
X195595238Y-57504761D01*
X195547619Y-57457142D01*
X195500000Y-57361904D01*
X195500000Y-57076190D01*
X195547619Y-56980952D01*
X195595238Y-56933333D01*
X195690476Y-56885714D01*
X195880952Y-56885714D01*
X195976190Y-56933333D01*
X196833333Y-57504761D02*
X196738095Y-57552380D01*
X196547619Y-57552380D01*
X196452380Y-57504761D01*
X196404761Y-57409523D01*
X196404761Y-57028571D01*
X196452380Y-56933333D01*
X196547619Y-56885714D01*
X196738095Y-56885714D01*
X196833333Y-56933333D01*
X196880952Y-57028571D01*
X196880952Y-57123809D01*
X196404761Y-57219047D01*
X197309523Y-57552380D02*
X197309523Y-56885714D01*
X197309523Y-57076190D02*
X197357142Y-56980952D01*
X197404761Y-56933333D01*
X197500000Y-56885714D01*
X197595238Y-56885714D01*
X176238095Y-88300000D02*
X176142857Y-88252380D01*
X176000000Y-88252380D01*
X175857142Y-88300000D01*
X175761904Y-88395238D01*
X175714285Y-88490476D01*
X175666666Y-88680952D01*
X175666666Y-88823809D01*
X175714285Y-89014285D01*
X175761904Y-89109523D01*
X175857142Y-89204761D01*
X176000000Y-89252380D01*
X176095238Y-89252380D01*
X176238095Y-89204761D01*
X176285714Y-89157142D01*
X176285714Y-88823809D01*
X176095238Y-88823809D01*
X176714285Y-89252380D02*
X176714285Y-88252380D01*
X177285714Y-89252380D01*
X177285714Y-88252380D01*
X177761904Y-89252380D02*
X177761904Y-88252380D01*
X178000000Y-88252380D01*
X178142857Y-88300000D01*
X178238095Y-88395238D01*
X178285714Y-88490476D01*
X178333333Y-88680952D01*
X178333333Y-88823809D01*
X178285714Y-89014285D01*
X178238095Y-89109523D01*
X178142857Y-89204761D01*
X178000000Y-89252380D01*
X177761904Y-89252380D01*
X204038095Y-85700000D02*
X203942857Y-85652380D01*
X203800000Y-85652380D01*
X203657142Y-85700000D01*
X203561904Y-85795238D01*
X203514285Y-85890476D01*
X203466666Y-86080952D01*
X203466666Y-86223809D01*
X203514285Y-86414285D01*
X203561904Y-86509523D01*
X203657142Y-86604761D01*
X203800000Y-86652380D01*
X203895238Y-86652380D01*
X204038095Y-86604761D01*
X204085714Y-86557142D01*
X204085714Y-86223809D01*
X203895238Y-86223809D01*
X204514285Y-86652380D02*
X204514285Y-85652380D01*
X205085714Y-86652380D01*
X205085714Y-85652380D01*
X205561904Y-86652380D02*
X205561904Y-85652380D01*
X205800000Y-85652380D01*
X205942857Y-85700000D01*
X206038095Y-85795238D01*
X206085714Y-85890476D01*
X206133333Y-86080952D01*
X206133333Y-86223809D01*
X206085714Y-86414285D01*
X206038095Y-86509523D01*
X205942857Y-86604761D01*
X205800000Y-86652380D01*
X205561904Y-86652380D01*
X213833333Y-96202380D02*
X213833333Y-95202380D01*
X214214285Y-95202380D01*
X214309523Y-95250000D01*
X214357142Y-95297619D01*
X214404761Y-95392857D01*
X214404761Y-95535714D01*
X214357142Y-95630952D01*
X214309523Y-95678571D01*
X214214285Y-95726190D01*
X213833333Y-95726190D01*
X215023809Y-95202380D02*
X215214285Y-95202380D01*
X215309523Y-95250000D01*
X215404761Y-95345238D01*
X215452380Y-95535714D01*
X215452380Y-95869047D01*
X215404761Y-96059523D01*
X215309523Y-96154761D01*
X215214285Y-96202380D01*
X215023809Y-96202380D01*
X214928571Y-96154761D01*
X214833333Y-96059523D01*
X214785714Y-95869047D01*
X214785714Y-95535714D01*
X214833333Y-95345238D01*
X214928571Y-95250000D01*
X215023809Y-95202380D01*
X215738095Y-95202380D02*
X216309523Y-95202380D01*
X216023809Y-96202380D02*
X216023809Y-95202380D01*
X216900000Y-81666666D02*
X216852380Y-81761904D01*
X216852380Y-81904761D01*
X216900000Y-82047619D01*
X216995238Y-82142857D01*
X217090476Y-82190476D01*
X217280952Y-82238095D01*
X217423809Y-82238095D01*
X217614285Y-82190476D01*
X217709523Y-82142857D01*
X217804761Y-82047619D01*
X217852380Y-81904761D01*
X217852380Y-81809523D01*
X217804761Y-81666666D01*
X217757142Y-81619047D01*
X217423809Y-81619047D01*
X217423809Y-81809523D01*
X217852380Y-80619047D02*
X217376190Y-80952380D01*
X217852380Y-81190476D02*
X216852380Y-81190476D01*
X216852380Y-80809523D01*
X216900000Y-80714285D01*
X216947619Y-80666666D01*
X217042857Y-80619047D01*
X217185714Y-80619047D01*
X217280952Y-80666666D01*
X217328571Y-80714285D01*
X217376190Y-80809523D01*
X217376190Y-81190476D01*
X217328571Y-80190476D02*
X217328571Y-79857142D01*
X217852380Y-79714285D02*
X217852380Y-80190476D01*
X216852380Y-80190476D01*
X216852380Y-79714285D01*
X217328571Y-79285714D02*
X217328571Y-78952380D01*
X217852380Y-78809523D02*
X217852380Y-79285714D01*
X216852380Y-79285714D01*
X216852380Y-78809523D01*
X217852380Y-78380952D02*
X216852380Y-78380952D01*
X217852380Y-77809523D01*
X216852380Y-77809523D01*
X212490476Y-80928571D02*
X212633333Y-80976190D01*
X212680952Y-81023809D01*
X212728571Y-81119047D01*
X212728571Y-81261904D01*
X212680952Y-81357142D01*
X212633333Y-81404761D01*
X212538095Y-81452380D01*
X212157142Y-81452380D01*
X212157142Y-80452380D01*
X212490476Y-80452380D01*
X212585714Y-80500000D01*
X212633333Y-80547619D01*
X212680952Y-80642857D01*
X212680952Y-80738095D01*
X212633333Y-80833333D01*
X212585714Y-80880952D01*
X212490476Y-80928571D01*
X212157142Y-80928571D01*
X213633333Y-81452380D02*
X213157142Y-81452380D01*
X213157142Y-80452380D01*
X213966666Y-80452380D02*
X213966666Y-81261904D01*
X214014285Y-81357142D01*
X214061904Y-81404761D01*
X214157142Y-81452380D01*
X214347619Y-81452380D01*
X214442857Y-81404761D01*
X214490476Y-81357142D01*
X214538095Y-81261904D01*
X214538095Y-80452380D01*
X215014285Y-80928571D02*
X215347619Y-80928571D01*
X215490476Y-81452380D02*
X215014285Y-81452380D01*
X215014285Y-80452380D01*
X215490476Y-80452380D01*
X214157142Y-74002380D02*
X213823809Y-73526190D01*
X213585714Y-74002380D02*
X213585714Y-73002380D01*
X213966666Y-73002380D01*
X214061904Y-73050000D01*
X214109523Y-73097619D01*
X214157142Y-73192857D01*
X214157142Y-73335714D01*
X214109523Y-73430952D01*
X214061904Y-73478571D01*
X213966666Y-73526190D01*
X213585714Y-73526190D01*
X214585714Y-73478571D02*
X214919047Y-73478571D01*
X215061904Y-74002380D02*
X214585714Y-74002380D01*
X214585714Y-73002380D01*
X215061904Y-73002380D01*
X215490476Y-74002380D02*
X215490476Y-73002380D01*
X215728571Y-73002380D01*
X215871428Y-73050000D01*
X215966666Y-73145238D01*
X216014285Y-73240476D01*
X216061904Y-73430952D01*
X216061904Y-73573809D01*
X216014285Y-73764285D01*
X215966666Y-73859523D01*
X215871428Y-73954761D01*
X215728571Y-74002380D01*
X215490476Y-74002380D01*
X247233333Y-76657142D02*
X247185714Y-76704761D01*
X247042857Y-76752380D01*
X246947619Y-76752380D01*
X246804761Y-76704761D01*
X246709523Y-76609523D01*
X246661904Y-76514285D01*
X246614285Y-76323809D01*
X246614285Y-76180952D01*
X246661904Y-75990476D01*
X246709523Y-75895238D01*
X246804761Y-75800000D01*
X246947619Y-75752380D01*
X247042857Y-75752380D01*
X247185714Y-75800000D01*
X247233333Y-75847619D01*
X248090476Y-76085714D02*
X248090476Y-76752380D01*
X247852380Y-75704761D02*
X247614285Y-76419047D01*
X248233333Y-76419047D01*
X249483333Y-76657142D02*
X249435714Y-76704761D01*
X249292857Y-76752380D01*
X249197619Y-76752380D01*
X249054761Y-76704761D01*
X248959523Y-76609523D01*
X248911904Y-76514285D01*
X248864285Y-76323809D01*
X248864285Y-76180952D01*
X248911904Y-75990476D01*
X248959523Y-75895238D01*
X249054761Y-75800000D01*
X249197619Y-75752380D01*
X249292857Y-75752380D01*
X249435714Y-75800000D01*
X249483333Y-75847619D01*
X249816666Y-75752380D02*
X250435714Y-75752380D01*
X250102380Y-76133333D01*
X250245238Y-76133333D01*
X250340476Y-76180952D01*
X250388095Y-76228571D01*
X250435714Y-76323809D01*
X250435714Y-76561904D01*
X250388095Y-76657142D01*
X250340476Y-76704761D01*
X250245238Y-76752380D01*
X249959523Y-76752380D01*
X249864285Y-76704761D01*
X249816666Y-76657142D01*
X259883333Y-77007142D02*
X259835714Y-77054761D01*
X259692857Y-77102380D01*
X259597619Y-77102380D01*
X259454761Y-77054761D01*
X259359523Y-76959523D01*
X259311904Y-76864285D01*
X259264285Y-76673809D01*
X259264285Y-76530952D01*
X259311904Y-76340476D01*
X259359523Y-76245238D01*
X259454761Y-76150000D01*
X259597619Y-76102380D01*
X259692857Y-76102380D01*
X259835714Y-76150000D01*
X259883333Y-76197619D01*
X260264285Y-76197619D02*
X260311904Y-76150000D01*
X260407142Y-76102380D01*
X260645238Y-76102380D01*
X260740476Y-76150000D01*
X260788095Y-76197619D01*
X260835714Y-76292857D01*
X260835714Y-76388095D01*
X260788095Y-76530952D01*
X260216666Y-77102380D01*
X260835714Y-77102380D01*
X259783333Y-73357142D02*
X259735714Y-73404761D01*
X259592857Y-73452380D01*
X259497619Y-73452380D01*
X259354761Y-73404761D01*
X259259523Y-73309523D01*
X259211904Y-73214285D01*
X259164285Y-73023809D01*
X259164285Y-72880952D01*
X259211904Y-72690476D01*
X259259523Y-72595238D01*
X259354761Y-72500000D01*
X259497619Y-72452380D01*
X259592857Y-72452380D01*
X259735714Y-72500000D01*
X259783333Y-72547619D01*
X260735714Y-73452380D02*
X260164285Y-73452380D01*
X260450000Y-73452380D02*
X260450000Y-72452380D01*
X260354761Y-72595238D01*
X260259523Y-72690476D01*
X260164285Y-72738095D01*
X178595238Y-83528571D02*
X178738095Y-83576190D01*
X178785714Y-83623809D01*
X178833333Y-83719047D01*
X178833333Y-83861904D01*
X178785714Y-83957142D01*
X178738095Y-84004761D01*
X178642857Y-84052380D01*
X178261904Y-84052380D01*
X178261904Y-83052380D01*
X178595238Y-83052380D01*
X178690476Y-83100000D01*
X178738095Y-83147619D01*
X178785714Y-83242857D01*
X178785714Y-83338095D01*
X178738095Y-83433333D01*
X178690476Y-83480952D01*
X178595238Y-83528571D01*
X178261904Y-83528571D01*
X179214285Y-83147619D02*
X179261904Y-83100000D01*
X179357142Y-83052380D01*
X179595238Y-83052380D01*
X179690476Y-83100000D01*
X179738095Y-83147619D01*
X179785714Y-83242857D01*
X179785714Y-83338095D01*
X179738095Y-83480952D01*
X179166666Y-84052380D01*
X179785714Y-84052380D01*
X200909523Y-90528571D02*
X201242857Y-90528571D01*
X201385714Y-91052380D02*
X200909523Y-91052380D01*
X200909523Y-90052380D01*
X201385714Y-90052380D01*
X201814285Y-91052380D02*
X201814285Y-90052380D01*
X202385714Y-91052380D01*
X202385714Y-90052380D01*
X203433333Y-90957142D02*
X203385714Y-91004761D01*
X203242857Y-91052380D01*
X203147619Y-91052380D01*
X203004761Y-91004761D01*
X202909523Y-90909523D01*
X202861904Y-90814285D01*
X202814285Y-90623809D01*
X202814285Y-90480952D01*
X202861904Y-90290476D01*
X202909523Y-90195238D01*
X203004761Y-90100000D01*
X203147619Y-90052380D01*
X203242857Y-90052380D01*
X203385714Y-90100000D01*
X203433333Y-90147619D01*
X203623809Y-91147619D02*
X204385714Y-91147619D01*
X204576190Y-90766666D02*
X205052380Y-90766666D01*
X204480952Y-91052380D02*
X204814285Y-90052380D01*
X205147619Y-91052380D01*
X205766666Y-91433333D02*
X205719047Y-91385714D01*
X205623809Y-91242857D01*
X205576190Y-91147619D01*
X205528571Y-91004761D01*
X205480952Y-90766666D01*
X205480952Y-90576190D01*
X205528571Y-90338095D01*
X205576190Y-90195238D01*
X205623809Y-90100000D01*
X205719047Y-89957142D01*
X205766666Y-89909523D01*
X206147619Y-91052380D02*
X206147619Y-90052380D01*
X206385714Y-90052380D01*
X206528571Y-90100000D01*
X206623809Y-90195238D01*
X206671428Y-90290476D01*
X206719047Y-90480952D01*
X206719047Y-90623809D01*
X206671428Y-90814285D01*
X206623809Y-90909523D01*
X206528571Y-91004761D01*
X206385714Y-91052380D01*
X206147619Y-91052380D01*
X207290476Y-90480952D02*
X207195238Y-90433333D01*
X207147619Y-90385714D01*
X207100000Y-90290476D01*
X207100000Y-90242857D01*
X207147619Y-90147619D01*
X207195238Y-90100000D01*
X207290476Y-90052380D01*
X207480952Y-90052380D01*
X207576190Y-90100000D01*
X207623809Y-90147619D01*
X207671428Y-90242857D01*
X207671428Y-90290476D01*
X207623809Y-90385714D01*
X207576190Y-90433333D01*
X207480952Y-90480952D01*
X207290476Y-90480952D01*
X207195238Y-90528571D01*
X207147619Y-90576190D01*
X207100000Y-90671428D01*
X207100000Y-90861904D01*
X207147619Y-90957142D01*
X207195238Y-91004761D01*
X207290476Y-91052380D01*
X207480952Y-91052380D01*
X207576190Y-91004761D01*
X207623809Y-90957142D01*
X207671428Y-90861904D01*
X207671428Y-90671428D01*
X207623809Y-90576190D01*
X207576190Y-90528571D01*
X207480952Y-90480952D01*
X208004761Y-91433333D02*
X208052380Y-91385714D01*
X208147619Y-91242857D01*
X208195238Y-91147619D01*
X208242857Y-91004761D01*
X208290476Y-90766666D01*
X208290476Y-90576190D01*
X208242857Y-90338095D01*
X208195238Y-90195238D01*
X208147619Y-90100000D01*
X208052380Y-89957142D01*
X208004761Y-89909523D01*
X176595238Y-92878571D02*
X176738095Y-92926190D01*
X176785714Y-92973809D01*
X176833333Y-93069047D01*
X176833333Y-93211904D01*
X176785714Y-93307142D01*
X176738095Y-93354761D01*
X176642857Y-93402380D01*
X176261904Y-93402380D01*
X176261904Y-92402380D01*
X176595238Y-92402380D01*
X176690476Y-92450000D01*
X176738095Y-92497619D01*
X176785714Y-92592857D01*
X176785714Y-92688095D01*
X176738095Y-92783333D01*
X176690476Y-92830952D01*
X176595238Y-92878571D01*
X176261904Y-92878571D01*
X177785714Y-93402380D02*
X177214285Y-93402380D01*
X177500000Y-93402380D02*
X177500000Y-92402380D01*
X177404761Y-92545238D01*
X177309523Y-92640476D01*
X177214285Y-92688095D01*
X200838095Y-88328571D02*
X201171428Y-88328571D01*
X201314285Y-88852380D02*
X200838095Y-88852380D01*
X200838095Y-87852380D01*
X201314285Y-87852380D01*
X201742857Y-88852380D02*
X201742857Y-87852380D01*
X202314285Y-88852380D01*
X202314285Y-87852380D01*
X203361904Y-88757142D02*
X203314285Y-88804761D01*
X203171428Y-88852380D01*
X203076190Y-88852380D01*
X202933333Y-88804761D01*
X202838095Y-88709523D01*
X202790476Y-88614285D01*
X202742857Y-88423809D01*
X202742857Y-88280952D01*
X202790476Y-88090476D01*
X202838095Y-87995238D01*
X202933333Y-87900000D01*
X203076190Y-87852380D01*
X203171428Y-87852380D01*
X203314285Y-87900000D01*
X203361904Y-87947619D01*
X203552380Y-88947619D02*
X204314285Y-88947619D01*
X204885714Y-88328571D02*
X205028571Y-88376190D01*
X205076190Y-88423809D01*
X205123809Y-88519047D01*
X205123809Y-88661904D01*
X205076190Y-88757142D01*
X205028571Y-88804761D01*
X204933333Y-88852380D01*
X204552380Y-88852380D01*
X204552380Y-87852380D01*
X204885714Y-87852380D01*
X204980952Y-87900000D01*
X205028571Y-87947619D01*
X205076190Y-88042857D01*
X205076190Y-88138095D01*
X205028571Y-88233333D01*
X204980952Y-88280952D01*
X204885714Y-88328571D01*
X204552380Y-88328571D01*
X205838095Y-89233333D02*
X205790476Y-89185714D01*
X205695238Y-89042857D01*
X205647619Y-88947619D01*
X205600000Y-88804761D01*
X205552380Y-88566666D01*
X205552380Y-88376190D01*
X205600000Y-88138095D01*
X205647619Y-87995238D01*
X205695238Y-87900000D01*
X205790476Y-87757142D01*
X205838095Y-87709523D01*
X206219047Y-88852380D02*
X206219047Y-87852380D01*
X206457142Y-87852380D01*
X206600000Y-87900000D01*
X206695238Y-87995238D01*
X206742857Y-88090476D01*
X206790476Y-88280952D01*
X206790476Y-88423809D01*
X206742857Y-88614285D01*
X206695238Y-88709523D01*
X206600000Y-88804761D01*
X206457142Y-88852380D01*
X206219047Y-88852380D01*
X207123809Y-87852380D02*
X207790476Y-87852380D01*
X207361904Y-88852380D01*
X208076190Y-89233333D02*
X208123809Y-89185714D01*
X208219047Y-89042857D01*
X208266666Y-88947619D01*
X208314285Y-88804761D01*
X208361904Y-88566666D01*
X208361904Y-88376190D01*
X208314285Y-88138095D01*
X208266666Y-87995238D01*
X208219047Y-87900000D01*
X208123809Y-87757142D01*
X208076190Y-87709523D01*
X210057142Y-83152380D02*
X209723809Y-82676190D01*
X209485714Y-83152380D02*
X209485714Y-82152380D01*
X209866666Y-82152380D01*
X209961904Y-82200000D01*
X210009523Y-82247619D01*
X210057142Y-82342857D01*
X210057142Y-82485714D01*
X210009523Y-82580952D01*
X209961904Y-82628571D01*
X209866666Y-82676190D01*
X209485714Y-82676190D01*
X211009523Y-83152380D02*
X210438095Y-83152380D01*
X210723809Y-83152380D02*
X210723809Y-82152380D01*
X210628571Y-82295238D01*
X210533333Y-82390476D01*
X210438095Y-82438095D01*
X211866666Y-82485714D02*
X211866666Y-83152380D01*
X211628571Y-82104761D02*
X211390476Y-82819047D01*
X212009523Y-82819047D01*
X210057142Y-85752380D02*
X209723809Y-85276190D01*
X209485714Y-85752380D02*
X209485714Y-84752380D01*
X209866666Y-84752380D01*
X209961904Y-84800000D01*
X210009523Y-84847619D01*
X210057142Y-84942857D01*
X210057142Y-85085714D01*
X210009523Y-85180952D01*
X209961904Y-85228571D01*
X209866666Y-85276190D01*
X209485714Y-85276190D01*
X211009523Y-85752380D02*
X210438095Y-85752380D01*
X210723809Y-85752380D02*
X210723809Y-84752380D01*
X210628571Y-84895238D01*
X210533333Y-84990476D01*
X210438095Y-85038095D01*
X211342857Y-84752380D02*
X211961904Y-84752380D01*
X211628571Y-85133333D01*
X211771428Y-85133333D01*
X211866666Y-85180952D01*
X211914285Y-85228571D01*
X211961904Y-85323809D01*
X211961904Y-85561904D01*
X211914285Y-85657142D01*
X211866666Y-85704761D01*
X211771428Y-85752380D01*
X211485714Y-85752380D01*
X211390476Y-85704761D01*
X211342857Y-85657142D01*
X238652380Y-72742857D02*
X238176190Y-73076190D01*
X238652380Y-73314285D02*
X237652380Y-73314285D01*
X237652380Y-72933333D01*
X237700000Y-72838095D01*
X237747619Y-72790476D01*
X237842857Y-72742857D01*
X237985714Y-72742857D01*
X238080952Y-72790476D01*
X238128571Y-72838095D01*
X238176190Y-72933333D01*
X238176190Y-73314285D01*
X238652380Y-71790476D02*
X238652380Y-72361904D01*
X238652380Y-72076190D02*
X237652380Y-72076190D01*
X237795238Y-72171428D01*
X237890476Y-72266666D01*
X237938095Y-72361904D01*
X237747619Y-71409523D02*
X237700000Y-71361904D01*
X237652380Y-71266666D01*
X237652380Y-71028571D01*
X237700000Y-70933333D01*
X237747619Y-70885714D01*
X237842857Y-70838095D01*
X237938095Y-70838095D01*
X238080952Y-70885714D01*
X238652380Y-71457142D01*
X238652380Y-70838095D01*
X241152380Y-72742857D02*
X240676190Y-73076190D01*
X241152380Y-73314285D02*
X240152380Y-73314285D01*
X240152380Y-72933333D01*
X240200000Y-72838095D01*
X240247619Y-72790476D01*
X240342857Y-72742857D01*
X240485714Y-72742857D01*
X240580952Y-72790476D01*
X240628571Y-72838095D01*
X240676190Y-72933333D01*
X240676190Y-73314285D01*
X241152380Y-71790476D02*
X241152380Y-72361904D01*
X241152380Y-72076190D02*
X240152380Y-72076190D01*
X240295238Y-72171428D01*
X240390476Y-72266666D01*
X240438095Y-72361904D01*
X241152380Y-70838095D02*
X241152380Y-71409523D01*
X241152380Y-71123809D02*
X240152380Y-71123809D01*
X240295238Y-71219047D01*
X240390476Y-71314285D01*
X240438095Y-71409523D01*
X204233333Y-101252380D02*
X203900000Y-100776190D01*
X203661904Y-101252380D02*
X203661904Y-100252380D01*
X204042857Y-100252380D01*
X204138095Y-100300000D01*
X204185714Y-100347619D01*
X204233333Y-100442857D01*
X204233333Y-100585714D01*
X204185714Y-100680952D01*
X204138095Y-100728571D01*
X204042857Y-100776190D01*
X203661904Y-100776190D01*
X204519047Y-100252380D02*
X204852380Y-101252380D01*
X205185714Y-100252380D01*
X206042857Y-101252380D02*
X205471428Y-101252380D01*
X205757142Y-101252380D02*
X205757142Y-100252380D01*
X205661904Y-100395238D01*
X205566666Y-100490476D01*
X205471428Y-100538095D01*
X206757142Y-101633333D02*
X206709523Y-101585714D01*
X206614285Y-101442857D01*
X206566666Y-101347619D01*
X206519047Y-101204761D01*
X206471428Y-100966666D01*
X206471428Y-100776190D01*
X206519047Y-100538095D01*
X206566666Y-100395238D01*
X206614285Y-100300000D01*
X206709523Y-100157142D01*
X206757142Y-100109523D01*
X207090476Y-100966666D02*
X207566666Y-100966666D01*
X206995238Y-101252380D02*
X207328571Y-100252380D01*
X207661904Y-101252380D01*
X208423809Y-100252380D02*
X208233333Y-100252380D01*
X208138095Y-100300000D01*
X208090476Y-100347619D01*
X207995238Y-100490476D01*
X207947619Y-100680952D01*
X207947619Y-101061904D01*
X207995238Y-101157142D01*
X208042857Y-101204761D01*
X208138095Y-101252380D01*
X208328571Y-101252380D01*
X208423809Y-101204761D01*
X208471428Y-101157142D01*
X208519047Y-101061904D01*
X208519047Y-100823809D01*
X208471428Y-100728571D01*
X208423809Y-100680952D01*
X208328571Y-100633333D01*
X208138095Y-100633333D01*
X208042857Y-100680952D01*
X207995238Y-100728571D01*
X207947619Y-100823809D01*
X208852380Y-101633333D02*
X208900000Y-101585714D01*
X208995238Y-101442857D01*
X209042857Y-101347619D01*
X209090476Y-101204761D01*
X209138095Y-100966666D01*
X209138095Y-100776190D01*
X209090476Y-100538095D01*
X209042857Y-100395238D01*
X208995238Y-100300000D01*
X208900000Y-100157142D01*
X208852380Y-100109523D01*
X186966666Y-84154761D02*
X187109523Y-84202380D01*
X187347619Y-84202380D01*
X187442857Y-84154761D01*
X187490476Y-84107142D01*
X187538095Y-84011904D01*
X187538095Y-83916666D01*
X187490476Y-83821428D01*
X187442857Y-83773809D01*
X187347619Y-83726190D01*
X187157142Y-83678571D01*
X187061904Y-83630952D01*
X187014285Y-83583333D01*
X186966666Y-83488095D01*
X186966666Y-83392857D01*
X187014285Y-83297619D01*
X187061904Y-83250000D01*
X187157142Y-83202380D01*
X187395238Y-83202380D01*
X187538095Y-83250000D01*
X187871428Y-83202380D02*
X188109523Y-84202380D01*
X188300000Y-83488095D01*
X188490476Y-84202380D01*
X188728571Y-83202380D01*
X189014285Y-83202380D02*
X189633333Y-83202380D01*
X189300000Y-83583333D01*
X189442857Y-83583333D01*
X189538095Y-83630952D01*
X189585714Y-83678571D01*
X189633333Y-83773809D01*
X189633333Y-84011904D01*
X189585714Y-84107142D01*
X189538095Y-84154761D01*
X189442857Y-84202380D01*
X189157142Y-84202380D01*
X189061904Y-84154761D01*
X189014285Y-84107142D01*
X205011904Y-81452380D02*
X205011904Y-80452380D01*
X205250000Y-80452380D01*
X205392857Y-80500000D01*
X205488095Y-80595238D01*
X205535714Y-80690476D01*
X205583333Y-80880952D01*
X205583333Y-81023809D01*
X205535714Y-81214285D01*
X205488095Y-81309523D01*
X205392857Y-81404761D01*
X205250000Y-81452380D01*
X205011904Y-81452380D01*
X206535714Y-81452380D02*
X205964285Y-81452380D01*
X206250000Y-81452380D02*
X206250000Y-80452380D01*
X206154761Y-80595238D01*
X206059523Y-80690476D01*
X205964285Y-80738095D01*
X255741904Y-79992380D02*
X255741904Y-78992380D01*
X255980000Y-78992380D01*
X256122857Y-79040000D01*
X256218095Y-79135238D01*
X256265714Y-79230476D01*
X256313333Y-79420952D01*
X256313333Y-79563809D01*
X256265714Y-79754285D01*
X256218095Y-79849523D01*
X256122857Y-79944761D01*
X255980000Y-79992380D01*
X255741904Y-79992380D01*
X256694285Y-79087619D02*
X256741904Y-79040000D01*
X256837142Y-78992380D01*
X257075238Y-78992380D01*
X257170476Y-79040000D01*
X257218095Y-79087619D01*
X257265714Y-79182857D01*
X257265714Y-79278095D01*
X257218095Y-79420952D01*
X256646666Y-79992380D01*
X257265714Y-79992380D01*
X242741904Y-79952380D02*
X242741904Y-78952380D01*
X242980000Y-78952380D01*
X243122857Y-79000000D01*
X243218095Y-79095238D01*
X243265714Y-79190476D01*
X243313333Y-79380952D01*
X243313333Y-79523809D01*
X243265714Y-79714285D01*
X243218095Y-79809523D01*
X243122857Y-79904761D01*
X242980000Y-79952380D01*
X242741904Y-79952380D01*
X243646666Y-78952380D02*
X244265714Y-78952380D01*
X243932380Y-79333333D01*
X244075238Y-79333333D01*
X244170476Y-79380952D01*
X244218095Y-79428571D01*
X244265714Y-79523809D01*
X244265714Y-79761904D01*
X244218095Y-79857142D01*
X244170476Y-79904761D01*
X244075238Y-79952380D01*
X243789523Y-79952380D01*
X243694285Y-79904761D01*
X243646666Y-79857142D01*
X260011904Y-90452380D02*
X260011904Y-89452380D01*
X260250000Y-89452380D01*
X260392857Y-89500000D01*
X260488095Y-89595238D01*
X260535714Y-89690476D01*
X260583333Y-89880952D01*
X260583333Y-90023809D01*
X260535714Y-90214285D01*
X260488095Y-90309523D01*
X260392857Y-90404761D01*
X260250000Y-90452380D01*
X260011904Y-90452380D01*
X261440476Y-89785714D02*
X261440476Y-90452380D01*
X261202380Y-89404761D02*
X260964285Y-90119047D01*
X261583333Y-90119047D01*
X249261904Y-102452380D02*
X249261904Y-101452380D01*
X249500000Y-101452380D01*
X249642857Y-101500000D01*
X249738095Y-101595238D01*
X249785714Y-101690476D01*
X249833333Y-101880952D01*
X249833333Y-102023809D01*
X249785714Y-102214285D01*
X249738095Y-102309523D01*
X249642857Y-102404761D01*
X249500000Y-102452380D01*
X249261904Y-102452380D01*
X250738095Y-101452380D02*
X250261904Y-101452380D01*
X250214285Y-101928571D01*
X250261904Y-101880952D01*
X250357142Y-101833333D01*
X250595238Y-101833333D01*
X250690476Y-101880952D01*
X250738095Y-101928571D01*
X250785714Y-102023809D01*
X250785714Y-102261904D01*
X250738095Y-102357142D01*
X250690476Y-102404761D01*
X250595238Y-102452380D01*
X250357142Y-102452380D01*
X250261904Y-102404761D01*
X250214285Y-102357142D01*
X255741904Y-100912380D02*
X255741904Y-99912380D01*
X255980000Y-99912380D01*
X256122857Y-99960000D01*
X256218095Y-100055238D01*
X256265714Y-100150476D01*
X256313333Y-100340952D01*
X256313333Y-100483809D01*
X256265714Y-100674285D01*
X256218095Y-100769523D01*
X256122857Y-100864761D01*
X255980000Y-100912380D01*
X255741904Y-100912380D01*
X257170476Y-99912380D02*
X256980000Y-99912380D01*
X256884761Y-99960000D01*
X256837142Y-100007619D01*
X256741904Y-100150476D01*
X256694285Y-100340952D01*
X256694285Y-100721904D01*
X256741904Y-100817142D01*
X256789523Y-100864761D01*
X256884761Y-100912380D01*
X257075238Y-100912380D01*
X257170476Y-100864761D01*
X257218095Y-100817142D01*
X257265714Y-100721904D01*
X257265714Y-100483809D01*
X257218095Y-100388571D01*
X257170476Y-100340952D01*
X257075238Y-100293333D01*
X256884761Y-100293333D01*
X256789523Y-100340952D01*
X256741904Y-100388571D01*
X256694285Y-100483809D01*
X249261904Y-100952380D02*
X249261904Y-99952380D01*
X249500000Y-99952380D01*
X249642857Y-100000000D01*
X249738095Y-100095238D01*
X249785714Y-100190476D01*
X249833333Y-100380952D01*
X249833333Y-100523809D01*
X249785714Y-100714285D01*
X249738095Y-100809523D01*
X249642857Y-100904761D01*
X249500000Y-100952380D01*
X249261904Y-100952380D01*
X250166666Y-99952380D02*
X250833333Y-99952380D01*
X250404761Y-100952380D01*
X238511904Y-90452380D02*
X238511904Y-89452380D01*
X238750000Y-89452380D01*
X238892857Y-89500000D01*
X238988095Y-89595238D01*
X239035714Y-89690476D01*
X239083333Y-89880952D01*
X239083333Y-90023809D01*
X239035714Y-90214285D01*
X238988095Y-90309523D01*
X238892857Y-90404761D01*
X238750000Y-90452380D01*
X238511904Y-90452380D01*
X239654761Y-89880952D02*
X239559523Y-89833333D01*
X239511904Y-89785714D01*
X239464285Y-89690476D01*
X239464285Y-89642857D01*
X239511904Y-89547619D01*
X239559523Y-89500000D01*
X239654761Y-89452380D01*
X239845238Y-89452380D01*
X239940476Y-89500000D01*
X239988095Y-89547619D01*
X240035714Y-89642857D01*
X240035714Y-89690476D01*
X239988095Y-89785714D01*
X239940476Y-89833333D01*
X239845238Y-89880952D01*
X239654761Y-89880952D01*
X239559523Y-89928571D01*
X239511904Y-89976190D01*
X239464285Y-90071428D01*
X239464285Y-90261904D01*
X239511904Y-90357142D01*
X239559523Y-90404761D01*
X239654761Y-90452380D01*
X239845238Y-90452380D01*
X239940476Y-90404761D01*
X239988095Y-90357142D01*
X240035714Y-90261904D01*
X240035714Y-90071428D01*
X239988095Y-89976190D01*
X239940476Y-89928571D01*
X239845238Y-89880952D01*
X242741904Y-100912380D02*
X242741904Y-99912380D01*
X242980000Y-99912380D01*
X243122857Y-99960000D01*
X243218095Y-100055238D01*
X243265714Y-100150476D01*
X243313333Y-100340952D01*
X243313333Y-100483809D01*
X243265714Y-100674285D01*
X243218095Y-100769523D01*
X243122857Y-100864761D01*
X242980000Y-100912380D01*
X242741904Y-100912380D01*
X243789523Y-100912380D02*
X243980000Y-100912380D01*
X244075238Y-100864761D01*
X244122857Y-100817142D01*
X244218095Y-100674285D01*
X244265714Y-100483809D01*
X244265714Y-100102857D01*
X244218095Y-100007619D01*
X244170476Y-99960000D01*
X244075238Y-99912380D01*
X243884761Y-99912380D01*
X243789523Y-99960000D01*
X243741904Y-100007619D01*
X243694285Y-100102857D01*
X243694285Y-100340952D01*
X243741904Y-100436190D01*
X243789523Y-100483809D01*
X243884761Y-100531428D01*
X244075238Y-100531428D01*
X244170476Y-100483809D01*
X244218095Y-100436190D01*
X244265714Y-100340952D01*
X248805714Y-79992380D02*
X248805714Y-78992380D01*
X249043809Y-78992380D01*
X249186666Y-79040000D01*
X249281904Y-79135238D01*
X249329523Y-79230476D01*
X249377142Y-79420952D01*
X249377142Y-79563809D01*
X249329523Y-79754285D01*
X249281904Y-79849523D01*
X249186666Y-79944761D01*
X249043809Y-79992380D01*
X248805714Y-79992380D01*
X250329523Y-79992380D02*
X249758095Y-79992380D01*
X250043809Y-79992380D02*
X250043809Y-78992380D01*
X249948571Y-79135238D01*
X249853333Y-79230476D01*
X249758095Y-79278095D01*
X250948571Y-78992380D02*
X251043809Y-78992380D01*
X251139047Y-79040000D01*
X251186666Y-79087619D01*
X251234285Y-79182857D01*
X251281904Y-79373333D01*
X251281904Y-79611428D01*
X251234285Y-79801904D01*
X251186666Y-79897142D01*
X251139047Y-79944761D01*
X251043809Y-79992380D01*
X250948571Y-79992380D01*
X250853333Y-79944761D01*
X250805714Y-79897142D01*
X250758095Y-79801904D01*
X250710476Y-79611428D01*
X250710476Y-79373333D01*
X250758095Y-79182857D01*
X250805714Y-79087619D01*
X250853333Y-79040000D01*
X250948571Y-78992380D01*
X165316666Y-58952380D02*
X165316666Y-59666666D01*
X165269047Y-59809523D01*
X165173809Y-59904761D01*
X165030952Y-59952380D01*
X164935714Y-59952380D01*
X166316666Y-59952380D02*
X165745238Y-59952380D01*
X166030952Y-59952380D02*
X166030952Y-58952380D01*
X165935714Y-59095238D01*
X165840476Y-59190476D01*
X165745238Y-59238095D01*
X169404761Y-57404761D02*
X169547619Y-57452380D01*
X169785714Y-57452380D01*
X169880952Y-57404761D01*
X169928571Y-57357142D01*
X169976190Y-57261904D01*
X169976190Y-57166666D01*
X169928571Y-57071428D01*
X169880952Y-57023809D01*
X169785714Y-56976190D01*
X169595238Y-56928571D01*
X169500000Y-56880952D01*
X169452380Y-56833333D01*
X169404761Y-56738095D01*
X169404761Y-56642857D01*
X169452380Y-56547619D01*
X169500000Y-56500000D01*
X169595238Y-56452380D01*
X169833333Y-56452380D01*
X169976190Y-56500000D01*
X170785714Y-57404761D02*
X170690476Y-57452380D01*
X170500000Y-57452380D01*
X170404761Y-57404761D01*
X170357142Y-57309523D01*
X170357142Y-56928571D01*
X170404761Y-56833333D01*
X170500000Y-56785714D01*
X170690476Y-56785714D01*
X170785714Y-56833333D01*
X170833333Y-56928571D01*
X170833333Y-57023809D01*
X170357142Y-57119047D01*
X171261904Y-57452380D02*
X171261904Y-56785714D01*
X171261904Y-56976190D02*
X171309523Y-56880952D01*
X171357142Y-56833333D01*
X171452380Y-56785714D01*
X171547619Y-56785714D01*
X171880952Y-57452380D02*
X171880952Y-56785714D01*
X171880952Y-56452380D02*
X171833333Y-56500000D01*
X171880952Y-56547619D01*
X171928571Y-56500000D01*
X171880952Y-56452380D01*
X171880952Y-56547619D01*
X172785714Y-57452380D02*
X172785714Y-56928571D01*
X172738095Y-56833333D01*
X172642857Y-56785714D01*
X172452380Y-56785714D01*
X172357142Y-56833333D01*
X172785714Y-57404761D02*
X172690476Y-57452380D01*
X172452380Y-57452380D01*
X172357142Y-57404761D01*
X172309523Y-57309523D01*
X172309523Y-57214285D01*
X172357142Y-57119047D01*
X172452380Y-57071428D01*
X172690476Y-57071428D01*
X172785714Y-57023809D01*
X173404761Y-57452380D02*
X173309523Y-57404761D01*
X173261904Y-57309523D01*
X173261904Y-56452380D01*
X175261904Y-56404761D02*
X174404761Y-57690476D01*
X176357142Y-56452380D02*
X176357142Y-57261904D01*
X176404761Y-57357142D01*
X176452380Y-57404761D01*
X176547619Y-57452380D01*
X176738095Y-57452380D01*
X176833333Y-57404761D01*
X176880952Y-57357142D01*
X176928571Y-57261904D01*
X176928571Y-56452380D01*
X177357142Y-57166666D02*
X177833333Y-57166666D01*
X177261904Y-57452380D02*
X177595238Y-56452380D01*
X177928571Y-57452380D01*
X178833333Y-57452380D02*
X178500000Y-56976190D01*
X178261904Y-57452380D02*
X178261904Y-56452380D01*
X178642857Y-56452380D01*
X178738095Y-56500000D01*
X178785714Y-56547619D01*
X178833333Y-56642857D01*
X178833333Y-56785714D01*
X178785714Y-56880952D01*
X178738095Y-56928571D01*
X178642857Y-56976190D01*
X178261904Y-56976190D01*
X179119047Y-56452380D02*
X179690476Y-56452380D01*
X179404761Y-57452380D02*
X179404761Y-56452380D01*
X211233333Y-72352380D02*
X210900000Y-71876190D01*
X210661904Y-72352380D02*
X210661904Y-71352380D01*
X211042857Y-71352380D01*
X211138095Y-71400000D01*
X211185714Y-71447619D01*
X211233333Y-71542857D01*
X211233333Y-71685714D01*
X211185714Y-71780952D01*
X211138095Y-71828571D01*
X211042857Y-71876190D01*
X210661904Y-71876190D01*
X212185714Y-72352380D02*
X211614285Y-72352380D01*
X211900000Y-72352380D02*
X211900000Y-71352380D01*
X211804761Y-71495238D01*
X211709523Y-71590476D01*
X211614285Y-71638095D01*
X211033333Y-88152380D02*
X210700000Y-87676190D01*
X210461904Y-88152380D02*
X210461904Y-87152380D01*
X210842857Y-87152380D01*
X210938095Y-87200000D01*
X210985714Y-87247619D01*
X211033333Y-87342857D01*
X211033333Y-87485714D01*
X210985714Y-87580952D01*
X210938095Y-87628571D01*
X210842857Y-87676190D01*
X210461904Y-87676190D01*
X211414285Y-87247619D02*
X211461904Y-87200000D01*
X211557142Y-87152380D01*
X211795238Y-87152380D01*
X211890476Y-87200000D01*
X211938095Y-87247619D01*
X211985714Y-87342857D01*
X211985714Y-87438095D01*
X211938095Y-87580952D01*
X211366666Y-88152380D01*
X211985714Y-88152380D01*
X211233333Y-70402380D02*
X210900000Y-69926190D01*
X210661904Y-70402380D02*
X210661904Y-69402380D01*
X211042857Y-69402380D01*
X211138095Y-69450000D01*
X211185714Y-69497619D01*
X211233333Y-69592857D01*
X211233333Y-69735714D01*
X211185714Y-69830952D01*
X211138095Y-69878571D01*
X211042857Y-69926190D01*
X210661904Y-69926190D01*
X211566666Y-69402380D02*
X212185714Y-69402380D01*
X211852380Y-69783333D01*
X211995238Y-69783333D01*
X212090476Y-69830952D01*
X212138095Y-69878571D01*
X212185714Y-69973809D01*
X212185714Y-70211904D01*
X212138095Y-70307142D01*
X212090476Y-70354761D01*
X211995238Y-70402380D01*
X211709523Y-70402380D01*
X211614285Y-70354761D01*
X211566666Y-70307142D01*
X258202380Y-74166666D02*
X257726190Y-74500000D01*
X258202380Y-74738095D02*
X257202380Y-74738095D01*
X257202380Y-74357142D01*
X257250000Y-74261904D01*
X257297619Y-74214285D01*
X257392857Y-74166666D01*
X257535714Y-74166666D01*
X257630952Y-74214285D01*
X257678571Y-74261904D01*
X257726190Y-74357142D01*
X257726190Y-74738095D01*
X257535714Y-73309523D02*
X258202380Y-73309523D01*
X257154761Y-73547619D02*
X257869047Y-73785714D01*
X257869047Y-73166666D01*
X256202380Y-74166666D02*
X255726190Y-74500000D01*
X256202380Y-74738095D02*
X255202380Y-74738095D01*
X255202380Y-74357142D01*
X255250000Y-74261904D01*
X255297619Y-74214285D01*
X255392857Y-74166666D01*
X255535714Y-74166666D01*
X255630952Y-74214285D01*
X255678571Y-74261904D01*
X255726190Y-74357142D01*
X255726190Y-74738095D01*
X255202380Y-73261904D02*
X255202380Y-73738095D01*
X255678571Y-73785714D01*
X255630952Y-73738095D01*
X255583333Y-73642857D01*
X255583333Y-73404761D01*
X255630952Y-73309523D01*
X255678571Y-73261904D01*
X255773809Y-73214285D01*
X256011904Y-73214285D01*
X256107142Y-73261904D01*
X256154761Y-73309523D01*
X256202380Y-73404761D01*
X256202380Y-73642857D01*
X256154761Y-73738095D01*
X256107142Y-73785714D01*
X252202380Y-74166666D02*
X251726190Y-74500000D01*
X252202380Y-74738095D02*
X251202380Y-74738095D01*
X251202380Y-74357142D01*
X251250000Y-74261904D01*
X251297619Y-74214285D01*
X251392857Y-74166666D01*
X251535714Y-74166666D01*
X251630952Y-74214285D01*
X251678571Y-74261904D01*
X251726190Y-74357142D01*
X251726190Y-74738095D01*
X251202380Y-73309523D02*
X251202380Y-73500000D01*
X251250000Y-73595238D01*
X251297619Y-73642857D01*
X251440476Y-73738095D01*
X251630952Y-73785714D01*
X252011904Y-73785714D01*
X252107142Y-73738095D01*
X252154761Y-73690476D01*
X252202380Y-73595238D01*
X252202380Y-73404761D01*
X252154761Y-73309523D01*
X252107142Y-73261904D01*
X252011904Y-73214285D01*
X251773809Y-73214285D01*
X251678571Y-73261904D01*
X251630952Y-73309523D01*
X251583333Y-73404761D01*
X251583333Y-73595238D01*
X251630952Y-73690476D01*
X251678571Y-73738095D01*
X251773809Y-73785714D01*
X254202380Y-74166666D02*
X253726190Y-74500000D01*
X254202380Y-74738095D02*
X253202380Y-74738095D01*
X253202380Y-74357142D01*
X253250000Y-74261904D01*
X253297619Y-74214285D01*
X253392857Y-74166666D01*
X253535714Y-74166666D01*
X253630952Y-74214285D01*
X253678571Y-74261904D01*
X253726190Y-74357142D01*
X253726190Y-74738095D01*
X253202380Y-73833333D02*
X253202380Y-73166666D01*
X254202380Y-73595238D01*
X211083333Y-75702380D02*
X210750000Y-75226190D01*
X210511904Y-75702380D02*
X210511904Y-74702380D01*
X210892857Y-74702380D01*
X210988095Y-74750000D01*
X211035714Y-74797619D01*
X211083333Y-74892857D01*
X211083333Y-75035714D01*
X211035714Y-75130952D01*
X210988095Y-75178571D01*
X210892857Y-75226190D01*
X210511904Y-75226190D01*
X211654761Y-75130952D02*
X211559523Y-75083333D01*
X211511904Y-75035714D01*
X211464285Y-74940476D01*
X211464285Y-74892857D01*
X211511904Y-74797619D01*
X211559523Y-74750000D01*
X211654761Y-74702380D01*
X211845238Y-74702380D01*
X211940476Y-74750000D01*
X211988095Y-74797619D01*
X212035714Y-74892857D01*
X212035714Y-74940476D01*
X211988095Y-75035714D01*
X211940476Y-75083333D01*
X211845238Y-75130952D01*
X211654761Y-75130952D01*
X211559523Y-75178571D01*
X211511904Y-75226190D01*
X211464285Y-75321428D01*
X211464285Y-75511904D01*
X211511904Y-75607142D01*
X211559523Y-75654761D01*
X211654761Y-75702380D01*
X211845238Y-75702380D01*
X211940476Y-75654761D01*
X211988095Y-75607142D01*
X212035714Y-75511904D01*
X212035714Y-75321428D01*
X211988095Y-75226190D01*
X211940476Y-75178571D01*
X211845238Y-75130952D01*
X211083333Y-77702380D02*
X210750000Y-77226190D01*
X210511904Y-77702380D02*
X210511904Y-76702380D01*
X210892857Y-76702380D01*
X210988095Y-76750000D01*
X211035714Y-76797619D01*
X211083333Y-76892857D01*
X211083333Y-77035714D01*
X211035714Y-77130952D01*
X210988095Y-77178571D01*
X210892857Y-77226190D01*
X210511904Y-77226190D01*
X211559523Y-77702380D02*
X211750000Y-77702380D01*
X211845238Y-77654761D01*
X211892857Y-77607142D01*
X211988095Y-77464285D01*
X212035714Y-77273809D01*
X212035714Y-76892857D01*
X211988095Y-76797619D01*
X211940476Y-76750000D01*
X211845238Y-76702380D01*
X211654761Y-76702380D01*
X211559523Y-76750000D01*
X211511904Y-76797619D01*
X211464285Y-76892857D01*
X211464285Y-77130952D01*
X211511904Y-77226190D01*
X211559523Y-77273809D01*
X211654761Y-77321428D01*
X211845238Y-77321428D01*
X211940476Y-77273809D01*
X211988095Y-77226190D01*
X212035714Y-77130952D01*
X210107142Y-79702380D02*
X209773809Y-79226190D01*
X209535714Y-79702380D02*
X209535714Y-78702380D01*
X209916666Y-78702380D01*
X210011904Y-78750000D01*
X210059523Y-78797619D01*
X210107142Y-78892857D01*
X210107142Y-79035714D01*
X210059523Y-79130952D01*
X210011904Y-79178571D01*
X209916666Y-79226190D01*
X209535714Y-79226190D01*
X211059523Y-79702380D02*
X210488095Y-79702380D01*
X210773809Y-79702380D02*
X210773809Y-78702380D01*
X210678571Y-78845238D01*
X210583333Y-78940476D01*
X210488095Y-78988095D01*
X211678571Y-78702380D02*
X211773809Y-78702380D01*
X211869047Y-78750000D01*
X211916666Y-78797619D01*
X211964285Y-78892857D01*
X212011904Y-79083333D01*
X212011904Y-79321428D01*
X211964285Y-79511904D01*
X211916666Y-79607142D01*
X211869047Y-79654761D01*
X211773809Y-79702380D01*
X211678571Y-79702380D01*
X211583333Y-79654761D01*
X211535714Y-79607142D01*
X211488095Y-79511904D01*
X211440476Y-79321428D01*
X211440476Y-79083333D01*
X211488095Y-78892857D01*
X211535714Y-78797619D01*
X211583333Y-78750000D01*
X211678571Y-78702380D01*
X167273809Y-100904761D02*
X167416666Y-100952380D01*
X167654761Y-100952380D01*
X167750000Y-100904761D01*
X167797619Y-100857142D01*
X167845238Y-100761904D01*
X167845238Y-100666666D01*
X167797619Y-100571428D01*
X167750000Y-100523809D01*
X167654761Y-100476190D01*
X167464285Y-100428571D01*
X167369047Y-100380952D01*
X167321428Y-100333333D01*
X167273809Y-100238095D01*
X167273809Y-100142857D01*
X167321428Y-100047619D01*
X167369047Y-100000000D01*
X167464285Y-99952380D01*
X167702380Y-99952380D01*
X167845238Y-100000000D01*
X168178571Y-99952380D02*
X168416666Y-100952380D01*
X168607142Y-100238095D01*
X168797619Y-100952380D01*
X169035714Y-99952380D01*
X169940476Y-100952380D02*
X169369047Y-100952380D01*
X169654761Y-100952380D02*
X169654761Y-99952380D01*
X169559523Y-100095238D01*
X169464285Y-100190476D01*
X169369047Y-100238095D01*
X170654761Y-101333333D02*
X170607142Y-101285714D01*
X170511904Y-101142857D01*
X170464285Y-101047619D01*
X170416666Y-100904761D01*
X170369047Y-100666666D01*
X170369047Y-100476190D01*
X170416666Y-100238095D01*
X170464285Y-100095238D01*
X170511904Y-100000000D01*
X170607142Y-99857142D01*
X170654761Y-99809523D01*
X171035714Y-100952380D02*
X171035714Y-99952380D01*
X171273809Y-99952380D01*
X171416666Y-100000000D01*
X171511904Y-100095238D01*
X171559523Y-100190476D01*
X171607142Y-100380952D01*
X171607142Y-100523809D01*
X171559523Y-100714285D01*
X171511904Y-100809523D01*
X171416666Y-100904761D01*
X171273809Y-100952380D01*
X171035714Y-100952380D01*
X171988095Y-100047619D02*
X172035714Y-100000000D01*
X172130952Y-99952380D01*
X172369047Y-99952380D01*
X172464285Y-100000000D01*
X172511904Y-100047619D01*
X172559523Y-100142857D01*
X172559523Y-100238095D01*
X172511904Y-100380952D01*
X171940476Y-100952380D01*
X172559523Y-100952380D01*
X172892857Y-101333333D02*
X172940476Y-101285714D01*
X173035714Y-101142857D01*
X173083333Y-101047619D01*
X173130952Y-100904761D01*
X173178571Y-100666666D01*
X173178571Y-100476190D01*
X173130952Y-100238095D01*
X173083333Y-100095238D01*
X173035714Y-100000000D01*
X172940476Y-99857142D01*
X172892857Y-99809523D01*
X167373809Y-89104761D02*
X167516666Y-89152380D01*
X167754761Y-89152380D01*
X167850000Y-89104761D01*
X167897619Y-89057142D01*
X167945238Y-88961904D01*
X167945238Y-88866666D01*
X167897619Y-88771428D01*
X167850000Y-88723809D01*
X167754761Y-88676190D01*
X167564285Y-88628571D01*
X167469047Y-88580952D01*
X167421428Y-88533333D01*
X167373809Y-88438095D01*
X167373809Y-88342857D01*
X167421428Y-88247619D01*
X167469047Y-88200000D01*
X167564285Y-88152380D01*
X167802380Y-88152380D01*
X167945238Y-88200000D01*
X168278571Y-88152380D02*
X168516666Y-89152380D01*
X168707142Y-88438095D01*
X168897619Y-89152380D01*
X169135714Y-88152380D01*
X169469047Y-88247619D02*
X169516666Y-88200000D01*
X169611904Y-88152380D01*
X169850000Y-88152380D01*
X169945238Y-88200000D01*
X169992857Y-88247619D01*
X170040476Y-88342857D01*
X170040476Y-88438095D01*
X169992857Y-88580952D01*
X169421428Y-89152380D01*
X170040476Y-89152380D01*
X170754761Y-89533333D02*
X170707142Y-89485714D01*
X170611904Y-89342857D01*
X170564285Y-89247619D01*
X170516666Y-89104761D01*
X170469047Y-88866666D01*
X170469047Y-88676190D01*
X170516666Y-88438095D01*
X170564285Y-88295238D01*
X170611904Y-88200000D01*
X170707142Y-88057142D01*
X170754761Y-88009523D01*
X171135714Y-89152380D02*
X171135714Y-88152380D01*
X171373809Y-88152380D01*
X171516666Y-88200000D01*
X171611904Y-88295238D01*
X171659523Y-88390476D01*
X171707142Y-88580952D01*
X171707142Y-88723809D01*
X171659523Y-88914285D01*
X171611904Y-89009523D01*
X171516666Y-89104761D01*
X171373809Y-89152380D01*
X171135714Y-89152380D01*
X172564285Y-88485714D02*
X172564285Y-89152380D01*
X172326190Y-88104761D02*
X172088095Y-88819047D01*
X172707142Y-88819047D01*
X172992857Y-89533333D02*
X173040476Y-89485714D01*
X173135714Y-89342857D01*
X173183333Y-89247619D01*
X173230952Y-89104761D01*
X173278571Y-88866666D01*
X173278571Y-88676190D01*
X173230952Y-88438095D01*
X173183333Y-88295238D01*
X173135714Y-88200000D01*
X173040476Y-88057142D01*
X172992857Y-88009523D01*
M02*
