M48
; DRILL file {KiCad (5.1.0)-1} date 19/04/2019 09:53:28
; FORMAT={-:-/ absolute / metric / decimal}
; #@! TF.CreationDate,2019-04-19T09:53:28+10:00
; #@! TF.GenerationSoftware,Kicad,Pcbnew,(5.1.0)-1
FMAT,2
METRIC
T1C0.300
T2C0.400
T3C0.700
T4C0.762
T5C0.800
T6C0.900
T7C1.000
T8C1.100
T9C2.600
%
G90
G05
T1
X211.85Y-87.65
X212.1Y-69.9
X212.15Y-71.85
T2
X232.4Y-92.4
T3
X177.0Y-86.8
X202.0Y-86.2
T4
X203.9Y-93.3
X203.9Y-98.3
X206.4Y-95.8
X208.9Y-95.8
T5
X220.0Y-61.0
X220.0Y-63.54
X220.0Y-66.08
X220.0Y-68.62
X220.0Y-71.16
X220.0Y-73.7
X220.0Y-76.24
X220.0Y-78.78
X220.0Y-81.32
X220.0Y-83.86
X220.0Y-86.4
X220.0Y-88.94
X220.0Y-91.48
X220.0Y-94.02
X220.0Y-96.56
X235.24Y-61.0
X235.24Y-63.54
X235.24Y-66.08
X235.24Y-68.62
X235.24Y-71.16
X235.24Y-73.7
X235.24Y-76.24
X235.24Y-78.78
X235.24Y-81.32
X235.24Y-83.86
X235.24Y-86.4
X235.24Y-88.94
X235.24Y-91.48
X235.24Y-94.02
X235.24Y-96.56
T6
X248.75Y-90.0
X251.29Y-90.0
X242.25Y-90.0
X244.79Y-90.0
X255.21Y-83.5
X257.75Y-83.5
X248.75Y-83.5
X251.29Y-83.5
X242.21Y-96.5
X244.75Y-96.5
X242.21Y-83.5
X244.75Y-83.5
X248.71Y-96.5
X251.25Y-96.5
X255.21Y-96.5
X257.75Y-96.5
X255.21Y-90.0
X257.75Y-90.0
X205.75Y-75.25
X205.75Y-76.52
X205.75Y-77.79
X205.75Y-79.06
T7
X199.39Y-70.45
X199.39Y-72.99
X199.39Y-75.53
X199.39Y-78.07
X173.99Y-72.99
X176.53Y-72.99
X179.07Y-72.99
X181.61Y-72.99
X184.15Y-72.99
X186.69Y-72.99
X189.23Y-72.99
X191.77Y-72.99
X194.31Y-72.99
X196.85Y-72.99
X185.96Y-59.5
X188.5Y-59.5
X191.04Y-59.5
X193.58Y-59.5
X196.12Y-59.5
X198.66Y-59.5
X201.2Y-59.5
X168.0Y-59.5
X170.54Y-59.5
X173.08Y-59.5
X175.62Y-59.5
X178.16Y-59.5
X180.7Y-59.5
X168.91Y-70.485
X168.91Y-73.025
X168.91Y-75.565
X168.91Y-78.105
X173.99Y-78.07
X176.53Y-78.07
X179.07Y-78.07
X181.61Y-78.07
X184.15Y-78.07
X186.69Y-78.07
X189.23Y-78.07
X191.77Y-78.07
X194.31Y-78.07
X196.85Y-78.07
X181.5Y-89.8
X181.5Y-94.8
X196.0Y-89.8
X196.0Y-92.3
X196.0Y-94.8
X256.98Y-57.73
X256.98Y-60.27
X259.52Y-57.73
X259.52Y-60.27
X241.24Y-59.0
X243.78Y-59.0
X246.32Y-59.0
X248.86Y-59.0
X251.4Y-59.0
X171.45Y-70.485
X171.45Y-73.025
X171.45Y-75.565
X171.45Y-78.105
X173.99Y-70.45
X176.53Y-70.45
X179.07Y-70.45
X181.61Y-70.45
X184.15Y-70.45
X186.69Y-70.45
X189.23Y-70.45
X191.77Y-70.45
X194.31Y-70.45
X196.85Y-70.45
X173.99Y-75.53
X176.53Y-75.53
X179.07Y-75.53
X181.61Y-75.53
X184.15Y-75.53
X186.69Y-75.53
X189.23Y-75.53
X191.77Y-75.53
X194.31Y-75.53
X196.85Y-75.53
T8
X167.1Y-82.2
X167.1Y-86.7
X173.6Y-82.2
X173.6Y-86.7
X167.0Y-94.0
X167.0Y-98.5
X173.5Y-94.0
X173.5Y-98.5
T9
X188.5Y-86.7
X188.5Y-97.9
T0
M30
