G04 #@! TF.GenerationSoftware,KiCad,Pcbnew,(5.1.0)-1*
G04 #@! TF.CreationDate,2019-04-19T09:53:14+10:00*
G04 #@! TF.ProjectId,arduinoNanoDev,61726475-696e-46f4-9e61-6e6f4465762e,rev?*
G04 #@! TF.SameCoordinates,Original*
G04 #@! TF.FileFunction,Copper,L2,Bot*
G04 #@! TF.FilePolarity,Positive*
%FSLAX46Y46*%
G04 Gerber Fmt 4.6, Leading zero omitted, Abs format (unit mm)*
G04 Created by KiCad (PCBNEW (5.1.0)-1) date 2019-04-19 09:53:14*
%MOMM*%
%LPD*%
G04 APERTURE LIST*
%ADD10R,1.600000X1.600000*%
%ADD11O,1.600000X1.600000*%
%ADD12O,1.700000X1.700000*%
%ADD13R,1.700000X1.700000*%
%ADD14C,1.500000*%
%ADD15C,1.524000*%
%ADD16C,2.000000*%
%ADD17C,3.200000*%
%ADD18R,2.000000X2.000000*%
%ADD19C,1.700000*%
%ADD20O,1.800000X1.070000*%
%ADD21R,1.800000X1.070000*%
%ADD22R,1.800000X1.800000*%
%ADD23C,1.800000*%
%ADD24C,0.600000*%
%ADD25C,0.800000*%
%ADD26C,0.300000*%
%ADD27C,0.400000*%
%ADD28C,0.254000*%
G04 APERTURE END LIST*
D10*
X220000000Y-61000000D03*
D11*
X235240000Y-94020000D03*
X220000000Y-63540000D03*
X235240000Y-91480000D03*
X220000000Y-66080000D03*
X235240000Y-88940000D03*
X220000000Y-68620000D03*
X235240000Y-86400000D03*
X220000000Y-71160000D03*
X235240000Y-83860000D03*
X220000000Y-73700000D03*
X235240000Y-81320000D03*
X220000000Y-76240000D03*
X235240000Y-78780000D03*
X220000000Y-78780000D03*
X235240000Y-76240000D03*
X220000000Y-81320000D03*
X235240000Y-73700000D03*
X220000000Y-83860000D03*
X235240000Y-71160000D03*
X220000000Y-86400000D03*
X235240000Y-68620000D03*
X220000000Y-88940000D03*
X235240000Y-66080000D03*
X220000000Y-91480000D03*
X235240000Y-63540000D03*
X220000000Y-94020000D03*
X235240000Y-61000000D03*
X220000000Y-96560000D03*
X235240000Y-96560000D03*
D12*
X241240000Y-59000000D03*
X243780000Y-59000000D03*
X246320000Y-59000000D03*
X248860000Y-59000000D03*
D13*
X251400000Y-59000000D03*
D12*
X185960000Y-59500000D03*
X188500000Y-59500000D03*
X191040000Y-59500000D03*
X193580000Y-59500000D03*
X196120000Y-59500000D03*
X198660000Y-59500000D03*
D13*
X201200000Y-59500000D03*
D12*
X171450000Y-70485000D03*
X171450000Y-78105000D03*
X171450000Y-75565000D03*
X171450000Y-73025000D03*
X168910000Y-70485000D03*
X168910000Y-78105000D03*
X168910000Y-75565000D03*
X168910000Y-73025000D03*
X199390000Y-70450000D03*
X199390000Y-78070000D03*
X199390000Y-75530000D03*
X199390000Y-72990000D03*
X173990000Y-70450000D03*
X196850000Y-70450000D03*
X194310000Y-70450000D03*
X191770000Y-70450000D03*
X189230000Y-70450000D03*
X186690000Y-70450000D03*
X184150000Y-70450000D03*
X181610000Y-70450000D03*
X179070000Y-70450000D03*
X176530000Y-70450000D03*
X173990000Y-78070000D03*
X196850000Y-78070000D03*
X194310000Y-78070000D03*
X191770000Y-78070000D03*
X189230000Y-78070000D03*
X186690000Y-78070000D03*
X184150000Y-78070000D03*
X181610000Y-78070000D03*
X179070000Y-78070000D03*
X176530000Y-78070000D03*
X173990000Y-75530000D03*
X196850000Y-75530000D03*
X194310000Y-75530000D03*
X191770000Y-75530000D03*
X189230000Y-75530000D03*
X186690000Y-75530000D03*
X184150000Y-75530000D03*
X181610000Y-75530000D03*
X179070000Y-75530000D03*
X176530000Y-75530000D03*
X173990000Y-72990000D03*
X196850000Y-72990000D03*
X194310000Y-72990000D03*
X191770000Y-72990000D03*
X189230000Y-72990000D03*
X186690000Y-72990000D03*
X184150000Y-72990000D03*
X181610000Y-72990000D03*
X179070000Y-72990000D03*
X176530000Y-72990000D03*
D14*
X177000000Y-86800000D03*
X202000000Y-86200000D03*
D15*
X203900000Y-93300000D03*
X203900000Y-98300000D03*
X206400000Y-95800000D03*
X208900000Y-95800000D03*
D16*
X181500000Y-89800000D03*
X181500000Y-94800000D03*
D17*
X188500000Y-86700000D03*
X188500000Y-97900000D03*
D16*
X196000000Y-89800000D03*
X196000000Y-92300000D03*
D18*
X196000000Y-94800000D03*
D19*
X259520000Y-57730000D03*
X256980000Y-57730000D03*
X259520000Y-60270000D03*
X256980000Y-60270000D03*
D20*
X205750000Y-79060000D03*
X205750000Y-77790000D03*
X205750000Y-76520000D03*
D21*
X205750000Y-75250000D03*
D22*
X255210000Y-83500000D03*
D23*
X257750000Y-83500000D03*
D22*
X244750000Y-83500000D03*
D23*
X242210000Y-83500000D03*
X255210000Y-90000000D03*
D22*
X257750000Y-90000000D03*
D23*
X248710000Y-96500000D03*
D22*
X251250000Y-96500000D03*
X257750000Y-96500000D03*
D23*
X255210000Y-96500000D03*
X251290000Y-90000000D03*
D22*
X248750000Y-90000000D03*
X242250000Y-90000000D03*
D23*
X244790000Y-90000000D03*
D22*
X244750000Y-96500000D03*
D23*
X242210000Y-96500000D03*
X251290000Y-83500000D03*
D22*
X248750000Y-83500000D03*
D12*
X180700000Y-59500000D03*
X178160000Y-59500000D03*
X175620000Y-59500000D03*
X173080000Y-59500000D03*
X170540000Y-59500000D03*
D13*
X168000000Y-59500000D03*
D16*
X167000000Y-98500000D03*
X167000000Y-94000000D03*
X173500000Y-98500000D03*
X173500000Y-94000000D03*
X173600000Y-82200000D03*
X173600000Y-86700000D03*
X167100000Y-82200000D03*
X167100000Y-86700000D03*
D24*
X212100004Y-69900000D03*
X212150000Y-71850000D03*
X211850002Y-87650000D03*
D25*
X232400000Y-92400000D03*
D26*
X246190000Y-91400000D02*
X244790000Y-90000000D01*
X255660002Y-91400000D02*
X246190000Y-91400000D01*
X257750000Y-90000000D02*
X257060002Y-90000000D01*
X257060002Y-90000000D02*
X255660002Y-91400000D01*
D27*
X235220000Y-94020000D02*
X235240000Y-94020000D01*
X232400000Y-92400000D02*
X233600000Y-92400000D01*
X233600000Y-92400000D02*
X235220000Y-94020000D01*
D28*
G36*
X260444134Y-55756953D02*
G01*
X260871355Y-55885938D01*
X261265384Y-56095446D01*
X261611214Y-56377499D01*
X261895673Y-56721351D01*
X262107929Y-57113910D01*
X262239892Y-57540213D01*
X262290000Y-58016964D01*
X262290001Y-99965269D01*
X262243048Y-100444133D01*
X262114063Y-100871353D01*
X261904554Y-101265384D01*
X261622501Y-101611214D01*
X261278651Y-101895672D01*
X260886093Y-102107927D01*
X260459788Y-102239891D01*
X259983036Y-102290000D01*
X166034721Y-102290000D01*
X165555867Y-102243048D01*
X165128647Y-102114063D01*
X164734616Y-101904554D01*
X164388786Y-101622501D01*
X164104328Y-101278651D01*
X163892073Y-100886093D01*
X163760109Y-100459788D01*
X163710000Y-99983036D01*
X163710000Y-98338967D01*
X165365000Y-98338967D01*
X165365000Y-98661033D01*
X165427832Y-98976912D01*
X165551082Y-99274463D01*
X165730013Y-99542252D01*
X165957748Y-99769987D01*
X166225537Y-99948918D01*
X166523088Y-100072168D01*
X166838967Y-100135000D01*
X167161033Y-100135000D01*
X167476912Y-100072168D01*
X167774463Y-99948918D01*
X168042252Y-99769987D01*
X168269987Y-99542252D01*
X168448918Y-99274463D01*
X168572168Y-98976912D01*
X168635000Y-98661033D01*
X168635000Y-98338967D01*
X171865000Y-98338967D01*
X171865000Y-98661033D01*
X171927832Y-98976912D01*
X172051082Y-99274463D01*
X172230013Y-99542252D01*
X172457748Y-99769987D01*
X172725537Y-99948918D01*
X173023088Y-100072168D01*
X173338967Y-100135000D01*
X173661033Y-100135000D01*
X173976912Y-100072168D01*
X174274463Y-99948918D01*
X174542252Y-99769987D01*
X174769987Y-99542252D01*
X174948918Y-99274463D01*
X175072168Y-98976912D01*
X175135000Y-98661033D01*
X175135000Y-98338967D01*
X175072168Y-98023088D01*
X174948918Y-97725537D01*
X174918406Y-97679872D01*
X186265000Y-97679872D01*
X186265000Y-98120128D01*
X186350890Y-98551925D01*
X186519369Y-98958669D01*
X186763962Y-99324729D01*
X187075271Y-99636038D01*
X187441331Y-99880631D01*
X187848075Y-100049110D01*
X188279872Y-100135000D01*
X188720128Y-100135000D01*
X189151925Y-100049110D01*
X189558669Y-99880631D01*
X189924729Y-99636038D01*
X190236038Y-99324729D01*
X190480631Y-98958669D01*
X190649110Y-98551925D01*
X190726589Y-98162408D01*
X202503000Y-98162408D01*
X202503000Y-98437592D01*
X202556686Y-98707490D01*
X202661995Y-98961727D01*
X202814880Y-99190535D01*
X203009465Y-99385120D01*
X203238273Y-99538005D01*
X203492510Y-99643314D01*
X203762408Y-99697000D01*
X204037592Y-99697000D01*
X204307490Y-99643314D01*
X204561727Y-99538005D01*
X204790535Y-99385120D01*
X204985120Y-99190535D01*
X205138005Y-98961727D01*
X205243314Y-98707490D01*
X205297000Y-98437592D01*
X205297000Y-98162408D01*
X205243314Y-97892510D01*
X205138005Y-97638273D01*
X204985120Y-97409465D01*
X204790535Y-97214880D01*
X204561727Y-97061995D01*
X204307490Y-96956686D01*
X204037592Y-96903000D01*
X203762408Y-96903000D01*
X203492510Y-96956686D01*
X203238273Y-97061995D01*
X203009465Y-97214880D01*
X202814880Y-97409465D01*
X202661995Y-97638273D01*
X202556686Y-97892510D01*
X202503000Y-98162408D01*
X190726589Y-98162408D01*
X190735000Y-98120128D01*
X190735000Y-97679872D01*
X190649110Y-97248075D01*
X190480631Y-96841331D01*
X190236038Y-96475271D01*
X189924729Y-96163962D01*
X189558669Y-95919369D01*
X189151925Y-95750890D01*
X188720128Y-95665000D01*
X188279872Y-95665000D01*
X187848075Y-95750890D01*
X187441331Y-95919369D01*
X187075271Y-96163962D01*
X186763962Y-96475271D01*
X186519369Y-96841331D01*
X186350890Y-97248075D01*
X186265000Y-97679872D01*
X174918406Y-97679872D01*
X174769987Y-97457748D01*
X174542252Y-97230013D01*
X174274463Y-97051082D01*
X173976912Y-96927832D01*
X173661033Y-96865000D01*
X173338967Y-96865000D01*
X173023088Y-96927832D01*
X172725537Y-97051082D01*
X172457748Y-97230013D01*
X172230013Y-97457748D01*
X172051082Y-97725537D01*
X171927832Y-98023088D01*
X171865000Y-98338967D01*
X168635000Y-98338967D01*
X168572168Y-98023088D01*
X168448918Y-97725537D01*
X168269987Y-97457748D01*
X168042252Y-97230013D01*
X167774463Y-97051082D01*
X167476912Y-96927832D01*
X167161033Y-96865000D01*
X166838967Y-96865000D01*
X166523088Y-96927832D01*
X166225537Y-97051082D01*
X165957748Y-97230013D01*
X165730013Y-97457748D01*
X165551082Y-97725537D01*
X165427832Y-98023088D01*
X165365000Y-98338967D01*
X163710000Y-98338967D01*
X163710000Y-93838967D01*
X165365000Y-93838967D01*
X165365000Y-94161033D01*
X165427832Y-94476912D01*
X165551082Y-94774463D01*
X165730013Y-95042252D01*
X165957748Y-95269987D01*
X166225537Y-95448918D01*
X166523088Y-95572168D01*
X166838967Y-95635000D01*
X167161033Y-95635000D01*
X167476912Y-95572168D01*
X167774463Y-95448918D01*
X168042252Y-95269987D01*
X168269987Y-95042252D01*
X168448918Y-94774463D01*
X168572168Y-94476912D01*
X168635000Y-94161033D01*
X168635000Y-93838967D01*
X171865000Y-93838967D01*
X171865000Y-94161033D01*
X171927832Y-94476912D01*
X172051082Y-94774463D01*
X172230013Y-95042252D01*
X172457748Y-95269987D01*
X172725537Y-95448918D01*
X173023088Y-95572168D01*
X173338967Y-95635000D01*
X173661033Y-95635000D01*
X173976912Y-95572168D01*
X174274463Y-95448918D01*
X174542252Y-95269987D01*
X174769987Y-95042252D01*
X174948918Y-94774463D01*
X175005042Y-94638967D01*
X179865000Y-94638967D01*
X179865000Y-94961033D01*
X179927832Y-95276912D01*
X180051082Y-95574463D01*
X180230013Y-95842252D01*
X180457748Y-96069987D01*
X180725537Y-96248918D01*
X181023088Y-96372168D01*
X181338967Y-96435000D01*
X181661033Y-96435000D01*
X181976912Y-96372168D01*
X182274463Y-96248918D01*
X182542252Y-96069987D01*
X182769987Y-95842252D01*
X182948918Y-95574463D01*
X183072168Y-95276912D01*
X183135000Y-94961033D01*
X183135000Y-94638967D01*
X183072168Y-94323088D01*
X182948918Y-94025537D01*
X182769987Y-93757748D01*
X182542252Y-93530013D01*
X182274463Y-93351082D01*
X181976912Y-93227832D01*
X181661033Y-93165000D01*
X181338967Y-93165000D01*
X181023088Y-93227832D01*
X180725537Y-93351082D01*
X180457748Y-93530013D01*
X180230013Y-93757748D01*
X180051082Y-94025537D01*
X179927832Y-94323088D01*
X179865000Y-94638967D01*
X175005042Y-94638967D01*
X175072168Y-94476912D01*
X175135000Y-94161033D01*
X175135000Y-93838967D01*
X175072168Y-93523088D01*
X174948918Y-93225537D01*
X174769987Y-92957748D01*
X174542252Y-92730013D01*
X174274463Y-92551082D01*
X173976912Y-92427832D01*
X173661033Y-92365000D01*
X173338967Y-92365000D01*
X173023088Y-92427832D01*
X172725537Y-92551082D01*
X172457748Y-92730013D01*
X172230013Y-92957748D01*
X172051082Y-93225537D01*
X171927832Y-93523088D01*
X171865000Y-93838967D01*
X168635000Y-93838967D01*
X168572168Y-93523088D01*
X168448918Y-93225537D01*
X168269987Y-92957748D01*
X168042252Y-92730013D01*
X167774463Y-92551082D01*
X167476912Y-92427832D01*
X167161033Y-92365000D01*
X166838967Y-92365000D01*
X166523088Y-92427832D01*
X166225537Y-92551082D01*
X165957748Y-92730013D01*
X165730013Y-92957748D01*
X165551082Y-93225537D01*
X165427832Y-93523088D01*
X165365000Y-93838967D01*
X163710000Y-93838967D01*
X163710000Y-92362595D01*
X194358282Y-92362595D01*
X194402039Y-92681675D01*
X194507205Y-92986088D01*
X194600186Y-93160044D01*
X194749223Y-93214024D01*
X194645506Y-93269463D01*
X194548815Y-93348815D01*
X194469463Y-93445506D01*
X194410498Y-93555820D01*
X194374188Y-93675518D01*
X194361928Y-93800000D01*
X194361928Y-95800000D01*
X194374188Y-95924482D01*
X194410498Y-96044180D01*
X194469463Y-96154494D01*
X194548815Y-96251185D01*
X194645506Y-96330537D01*
X194755820Y-96389502D01*
X194875518Y-96425812D01*
X195000000Y-96438072D01*
X197000000Y-96438072D01*
X197124482Y-96425812D01*
X197244180Y-96389502D01*
X197354494Y-96330537D01*
X197451185Y-96251185D01*
X197530537Y-96154494D01*
X197589502Y-96044180D01*
X197625812Y-95924482D01*
X197638072Y-95800000D01*
X197638072Y-95662408D01*
X205003000Y-95662408D01*
X205003000Y-95937592D01*
X205056686Y-96207490D01*
X205161995Y-96461727D01*
X205314880Y-96690535D01*
X205509465Y-96885120D01*
X205738273Y-97038005D01*
X205992510Y-97143314D01*
X206262408Y-97197000D01*
X206537592Y-97197000D01*
X206807490Y-97143314D01*
X207061727Y-97038005D01*
X207290535Y-96885120D01*
X207485120Y-96690535D01*
X207638005Y-96461727D01*
X207650000Y-96432769D01*
X207661995Y-96461727D01*
X207814880Y-96690535D01*
X208009465Y-96885120D01*
X208238273Y-97038005D01*
X208492510Y-97143314D01*
X208762408Y-97197000D01*
X209037592Y-97197000D01*
X209307490Y-97143314D01*
X209561727Y-97038005D01*
X209790535Y-96885120D01*
X209985120Y-96690535D01*
X210138005Y-96461727D01*
X210243314Y-96207490D01*
X210297000Y-95937592D01*
X210297000Y-95662408D01*
X210243314Y-95392510D01*
X210138005Y-95138273D01*
X209985120Y-94909465D01*
X209790535Y-94714880D01*
X209561727Y-94561995D01*
X209307490Y-94456686D01*
X209037592Y-94403000D01*
X208762408Y-94403000D01*
X208492510Y-94456686D01*
X208238273Y-94561995D01*
X208009465Y-94714880D01*
X207814880Y-94909465D01*
X207661995Y-95138273D01*
X207650000Y-95167231D01*
X207638005Y-95138273D01*
X207485120Y-94909465D01*
X207290535Y-94714880D01*
X207061727Y-94561995D01*
X206807490Y-94456686D01*
X206537592Y-94403000D01*
X206262408Y-94403000D01*
X205992510Y-94456686D01*
X205738273Y-94561995D01*
X205509465Y-94714880D01*
X205314880Y-94909465D01*
X205161995Y-95138273D01*
X205056686Y-95392510D01*
X205003000Y-95662408D01*
X197638072Y-95662408D01*
X197638072Y-94265565D01*
X203114040Y-94265565D01*
X203181020Y-94505656D01*
X203430048Y-94622756D01*
X203697135Y-94689023D01*
X203972017Y-94701910D01*
X204244133Y-94660922D01*
X204503023Y-94567636D01*
X204618980Y-94505656D01*
X204685960Y-94265565D01*
X203900000Y-93479605D01*
X203114040Y-94265565D01*
X197638072Y-94265565D01*
X197638072Y-93800000D01*
X197625812Y-93675518D01*
X197589502Y-93555820D01*
X197530537Y-93445506D01*
X197470227Y-93372017D01*
X202498090Y-93372017D01*
X202539078Y-93644133D01*
X202632364Y-93903023D01*
X202694344Y-94018980D01*
X202934435Y-94085960D01*
X203720395Y-93300000D01*
X204079605Y-93300000D01*
X204865565Y-94085960D01*
X205105656Y-94018980D01*
X205222756Y-93769952D01*
X205289023Y-93502865D01*
X205301910Y-93227983D01*
X205260922Y-92955867D01*
X205167636Y-92696977D01*
X205105656Y-92581020D01*
X204865565Y-92514040D01*
X204079605Y-93300000D01*
X203720395Y-93300000D01*
X202934435Y-92514040D01*
X202694344Y-92581020D01*
X202577244Y-92830048D01*
X202510977Y-93097135D01*
X202498090Y-93372017D01*
X197470227Y-93372017D01*
X197451185Y-93348815D01*
X197354494Y-93269463D01*
X197250777Y-93214024D01*
X197399814Y-93160044D01*
X197540704Y-92870429D01*
X197622384Y-92558892D01*
X197635882Y-92334435D01*
X203114040Y-92334435D01*
X203900000Y-93120395D01*
X204685960Y-92334435D01*
X204618980Y-92094344D01*
X204369952Y-91977244D01*
X204102865Y-91910977D01*
X203827983Y-91898090D01*
X203555867Y-91939078D01*
X203296977Y-92032364D01*
X203181020Y-92094344D01*
X203114040Y-92334435D01*
X197635882Y-92334435D01*
X197641718Y-92237405D01*
X197597961Y-91918325D01*
X197492795Y-91613912D01*
X197399814Y-91439956D01*
X197135413Y-91344192D01*
X196179605Y-92300000D01*
X196193748Y-92314143D01*
X196014143Y-92493748D01*
X196000000Y-92479605D01*
X195985858Y-92493748D01*
X195806253Y-92314143D01*
X195820395Y-92300000D01*
X194864587Y-91344192D01*
X194600186Y-91439956D01*
X194459296Y-91729571D01*
X194377616Y-92041108D01*
X194358282Y-92362595D01*
X163710000Y-92362595D01*
X163710000Y-89638967D01*
X179865000Y-89638967D01*
X179865000Y-89961033D01*
X179927832Y-90276912D01*
X180051082Y-90574463D01*
X180230013Y-90842252D01*
X180457748Y-91069987D01*
X180725537Y-91248918D01*
X181023088Y-91372168D01*
X181338967Y-91435000D01*
X181661033Y-91435000D01*
X181976912Y-91372168D01*
X182274463Y-91248918D01*
X182542252Y-91069987D01*
X182769987Y-90842252D01*
X182948918Y-90574463D01*
X183072168Y-90276912D01*
X183135000Y-89961033D01*
X183135000Y-89638967D01*
X194365000Y-89638967D01*
X194365000Y-89961033D01*
X194427832Y-90276912D01*
X194551082Y-90574463D01*
X194730013Y-90842252D01*
X194957748Y-91069987D01*
X195054935Y-91134925D01*
X195044192Y-91164587D01*
X196000000Y-92120395D01*
X196955808Y-91164587D01*
X196945065Y-91134925D01*
X197042252Y-91069987D01*
X197269987Y-90842252D01*
X197448918Y-90574463D01*
X197572168Y-90276912D01*
X197635000Y-89961033D01*
X197635000Y-89638967D01*
X197572168Y-89323088D01*
X197448918Y-89025537D01*
X197269987Y-88757748D01*
X197042252Y-88530013D01*
X196774463Y-88351082D01*
X196476912Y-88227832D01*
X196161033Y-88165000D01*
X195838967Y-88165000D01*
X195523088Y-88227832D01*
X195225537Y-88351082D01*
X194957748Y-88530013D01*
X194730013Y-88757748D01*
X194551082Y-89025537D01*
X194427832Y-89323088D01*
X194365000Y-89638967D01*
X183135000Y-89638967D01*
X183072168Y-89323088D01*
X182948918Y-89025537D01*
X182769987Y-88757748D01*
X182542252Y-88530013D01*
X182274463Y-88351082D01*
X181976912Y-88227832D01*
X181661033Y-88165000D01*
X181338967Y-88165000D01*
X181023088Y-88227832D01*
X180725537Y-88351082D01*
X180457748Y-88530013D01*
X180230013Y-88757748D01*
X180051082Y-89025537D01*
X179927832Y-89323088D01*
X179865000Y-89638967D01*
X163710000Y-89638967D01*
X163710000Y-86538967D01*
X165465000Y-86538967D01*
X165465000Y-86861033D01*
X165527832Y-87176912D01*
X165651082Y-87474463D01*
X165830013Y-87742252D01*
X166057748Y-87969987D01*
X166325537Y-88148918D01*
X166623088Y-88272168D01*
X166938967Y-88335000D01*
X167261033Y-88335000D01*
X167576912Y-88272168D01*
X167874463Y-88148918D01*
X168142252Y-87969987D01*
X168369987Y-87742252D01*
X168548918Y-87474463D01*
X168672168Y-87176912D01*
X168735000Y-86861033D01*
X168735000Y-86538967D01*
X171965000Y-86538967D01*
X171965000Y-86861033D01*
X172027832Y-87176912D01*
X172151082Y-87474463D01*
X172330013Y-87742252D01*
X172557748Y-87969987D01*
X172825537Y-88148918D01*
X173123088Y-88272168D01*
X173438967Y-88335000D01*
X173761033Y-88335000D01*
X174076912Y-88272168D01*
X174374463Y-88148918D01*
X174642252Y-87969987D01*
X174855246Y-87756993D01*
X176222612Y-87756993D01*
X176288137Y-87995860D01*
X176535116Y-88111760D01*
X176799960Y-88177250D01*
X177072492Y-88189812D01*
X177342238Y-88148965D01*
X177598832Y-88056277D01*
X177711863Y-87995860D01*
X177777388Y-87756993D01*
X177000000Y-86979605D01*
X176222612Y-87756993D01*
X174855246Y-87756993D01*
X174869987Y-87742252D01*
X175048918Y-87474463D01*
X175172168Y-87176912D01*
X175232720Y-86872492D01*
X175610188Y-86872492D01*
X175651035Y-87142238D01*
X175743723Y-87398832D01*
X175804140Y-87511863D01*
X176043007Y-87577388D01*
X176820395Y-86800000D01*
X177179605Y-86800000D01*
X177956993Y-87577388D01*
X178195860Y-87511863D01*
X178311760Y-87264884D01*
X178377250Y-87000040D01*
X178389812Y-86727508D01*
X178352314Y-86479872D01*
X186265000Y-86479872D01*
X186265000Y-86920128D01*
X186350890Y-87351925D01*
X186519369Y-87758669D01*
X186763962Y-88124729D01*
X187075271Y-88436038D01*
X187441331Y-88680631D01*
X187848075Y-88849110D01*
X188279872Y-88935000D01*
X188720128Y-88935000D01*
X189151925Y-88849110D01*
X189558669Y-88680631D01*
X189924729Y-88436038D01*
X190236038Y-88124729D01*
X190480631Y-87758669D01*
X190649110Y-87351925D01*
X190687884Y-87156993D01*
X201222612Y-87156993D01*
X201288137Y-87395860D01*
X201535116Y-87511760D01*
X201799960Y-87577250D01*
X202072492Y-87589812D01*
X202342238Y-87548965D01*
X202598832Y-87456277D01*
X202711863Y-87395860D01*
X202777388Y-87156993D01*
X202000000Y-86379605D01*
X201222612Y-87156993D01*
X190687884Y-87156993D01*
X190735000Y-86920128D01*
X190735000Y-86479872D01*
X190693750Y-86272492D01*
X200610188Y-86272492D01*
X200651035Y-86542238D01*
X200743723Y-86798832D01*
X200804140Y-86911863D01*
X201043007Y-86977388D01*
X201820395Y-86200000D01*
X202179605Y-86200000D01*
X202956993Y-86977388D01*
X203195860Y-86911863D01*
X203311760Y-86664884D01*
X203377250Y-86400040D01*
X203389812Y-86127508D01*
X203348965Y-85857762D01*
X203256277Y-85601168D01*
X203195860Y-85488137D01*
X202956993Y-85422612D01*
X202179605Y-86200000D01*
X201820395Y-86200000D01*
X201043007Y-85422612D01*
X200804140Y-85488137D01*
X200688240Y-85735116D01*
X200622750Y-85999960D01*
X200610188Y-86272492D01*
X190693750Y-86272492D01*
X190649110Y-86048075D01*
X190480631Y-85641331D01*
X190236038Y-85275271D01*
X190203774Y-85243007D01*
X201222612Y-85243007D01*
X202000000Y-86020395D01*
X202777388Y-85243007D01*
X202711863Y-85004140D01*
X202464884Y-84888240D01*
X202200040Y-84822750D01*
X201927508Y-84810188D01*
X201657762Y-84851035D01*
X201401168Y-84943723D01*
X201288137Y-85004140D01*
X201222612Y-85243007D01*
X190203774Y-85243007D01*
X189924729Y-84963962D01*
X189558669Y-84719369D01*
X189151925Y-84550890D01*
X188720128Y-84465000D01*
X188279872Y-84465000D01*
X187848075Y-84550890D01*
X187441331Y-84719369D01*
X187075271Y-84963962D01*
X186763962Y-85275271D01*
X186519369Y-85641331D01*
X186350890Y-86048075D01*
X186265000Y-86479872D01*
X178352314Y-86479872D01*
X178348965Y-86457762D01*
X178256277Y-86201168D01*
X178195860Y-86088137D01*
X177956993Y-86022612D01*
X177179605Y-86800000D01*
X176820395Y-86800000D01*
X176043007Y-86022612D01*
X175804140Y-86088137D01*
X175688240Y-86335116D01*
X175622750Y-86599960D01*
X175610188Y-86872492D01*
X175232720Y-86872492D01*
X175235000Y-86861033D01*
X175235000Y-86538967D01*
X175172168Y-86223088D01*
X175048918Y-85925537D01*
X174993774Y-85843007D01*
X176222612Y-85843007D01*
X177000000Y-86620395D01*
X177777388Y-85843007D01*
X177711863Y-85604140D01*
X177464884Y-85488240D01*
X177200040Y-85422750D01*
X176927508Y-85410188D01*
X176657762Y-85451035D01*
X176401168Y-85543723D01*
X176288137Y-85604140D01*
X176222612Y-85843007D01*
X174993774Y-85843007D01*
X174869987Y-85657748D01*
X174642252Y-85430013D01*
X174374463Y-85251082D01*
X174076912Y-85127832D01*
X173761033Y-85065000D01*
X173438967Y-85065000D01*
X173123088Y-85127832D01*
X172825537Y-85251082D01*
X172557748Y-85430013D01*
X172330013Y-85657748D01*
X172151082Y-85925537D01*
X172027832Y-86223088D01*
X171965000Y-86538967D01*
X168735000Y-86538967D01*
X168672168Y-86223088D01*
X168548918Y-85925537D01*
X168369987Y-85657748D01*
X168142252Y-85430013D01*
X167874463Y-85251082D01*
X167576912Y-85127832D01*
X167261033Y-85065000D01*
X166938967Y-85065000D01*
X166623088Y-85127832D01*
X166325537Y-85251082D01*
X166057748Y-85430013D01*
X165830013Y-85657748D01*
X165651082Y-85925537D01*
X165527832Y-86223088D01*
X165465000Y-86538967D01*
X163710000Y-86538967D01*
X163710000Y-82038967D01*
X165465000Y-82038967D01*
X165465000Y-82361033D01*
X165527832Y-82676912D01*
X165651082Y-82974463D01*
X165830013Y-83242252D01*
X166057748Y-83469987D01*
X166325537Y-83648918D01*
X166623088Y-83772168D01*
X166938967Y-83835000D01*
X167261033Y-83835000D01*
X167576912Y-83772168D01*
X167874463Y-83648918D01*
X168142252Y-83469987D01*
X168369987Y-83242252D01*
X168548918Y-82974463D01*
X168672168Y-82676912D01*
X168735000Y-82361033D01*
X168735000Y-82038967D01*
X171965000Y-82038967D01*
X171965000Y-82361033D01*
X172027832Y-82676912D01*
X172151082Y-82974463D01*
X172330013Y-83242252D01*
X172557748Y-83469987D01*
X172825537Y-83648918D01*
X173123088Y-83772168D01*
X173438967Y-83835000D01*
X173761033Y-83835000D01*
X174076912Y-83772168D01*
X174374463Y-83648918D01*
X174642252Y-83469987D01*
X174869987Y-83242252D01*
X175048918Y-82974463D01*
X175172168Y-82676912D01*
X175235000Y-82361033D01*
X175235000Y-82038967D01*
X175172168Y-81723088D01*
X175048918Y-81425537D01*
X174869987Y-81157748D01*
X174642252Y-80930013D01*
X174374463Y-80751082D01*
X174076912Y-80627832D01*
X173761033Y-80565000D01*
X173438967Y-80565000D01*
X173123088Y-80627832D01*
X172825537Y-80751082D01*
X172557748Y-80930013D01*
X172330013Y-81157748D01*
X172151082Y-81425537D01*
X172027832Y-81723088D01*
X171965000Y-82038967D01*
X168735000Y-82038967D01*
X168672168Y-81723088D01*
X168548918Y-81425537D01*
X168369987Y-81157748D01*
X168142252Y-80930013D01*
X167874463Y-80751082D01*
X167576912Y-80627832D01*
X167261033Y-80565000D01*
X166938967Y-80565000D01*
X166623088Y-80627832D01*
X166325537Y-80751082D01*
X166057748Y-80930013D01*
X165830013Y-81157748D01*
X165651082Y-81425537D01*
X165527832Y-81723088D01*
X165465000Y-82038967D01*
X163710000Y-82038967D01*
X163710000Y-70485000D01*
X167417815Y-70485000D01*
X167446487Y-70776111D01*
X167531401Y-71056034D01*
X167669294Y-71314014D01*
X167854866Y-71540134D01*
X168080986Y-71725706D01*
X168135791Y-71755000D01*
X168080986Y-71784294D01*
X167854866Y-71969866D01*
X167669294Y-72195986D01*
X167531401Y-72453966D01*
X167446487Y-72733889D01*
X167417815Y-73025000D01*
X167446487Y-73316111D01*
X167531401Y-73596034D01*
X167669294Y-73854014D01*
X167854866Y-74080134D01*
X168080986Y-74265706D01*
X168135791Y-74295000D01*
X168080986Y-74324294D01*
X167854866Y-74509866D01*
X167669294Y-74735986D01*
X167531401Y-74993966D01*
X167446487Y-75273889D01*
X167417815Y-75565000D01*
X167446487Y-75856111D01*
X167531401Y-76136034D01*
X167669294Y-76394014D01*
X167854866Y-76620134D01*
X168080986Y-76805706D01*
X168135791Y-76835000D01*
X168080986Y-76864294D01*
X167854866Y-77049866D01*
X167669294Y-77275986D01*
X167531401Y-77533966D01*
X167446487Y-77813889D01*
X167417815Y-78105000D01*
X167446487Y-78396111D01*
X167531401Y-78676034D01*
X167669294Y-78934014D01*
X167854866Y-79160134D01*
X168080986Y-79345706D01*
X168338966Y-79483599D01*
X168618889Y-79568513D01*
X168837050Y-79590000D01*
X168982950Y-79590000D01*
X169201111Y-79568513D01*
X169481034Y-79483599D01*
X169739014Y-79345706D01*
X169965134Y-79160134D01*
X170150706Y-78934014D01*
X170180000Y-78879209D01*
X170209294Y-78934014D01*
X170394866Y-79160134D01*
X170620986Y-79345706D01*
X170878966Y-79483599D01*
X171158889Y-79568513D01*
X171377050Y-79590000D01*
X171522950Y-79590000D01*
X171741111Y-79568513D01*
X172021034Y-79483599D01*
X172279014Y-79345706D01*
X172505134Y-79160134D01*
X172690706Y-78934014D01*
X172729354Y-78861709D01*
X172749294Y-78899014D01*
X172934866Y-79125134D01*
X173160986Y-79310706D01*
X173418966Y-79448599D01*
X173698889Y-79533513D01*
X173917050Y-79555000D01*
X174062950Y-79555000D01*
X174281111Y-79533513D01*
X174561034Y-79448599D01*
X174819014Y-79310706D01*
X175045134Y-79125134D01*
X175230706Y-78899014D01*
X175260000Y-78844209D01*
X175289294Y-78899014D01*
X175474866Y-79125134D01*
X175700986Y-79310706D01*
X175958966Y-79448599D01*
X176238889Y-79533513D01*
X176457050Y-79555000D01*
X176602950Y-79555000D01*
X176821111Y-79533513D01*
X177101034Y-79448599D01*
X177359014Y-79310706D01*
X177585134Y-79125134D01*
X177770706Y-78899014D01*
X177800000Y-78844209D01*
X177829294Y-78899014D01*
X178014866Y-79125134D01*
X178240986Y-79310706D01*
X178498966Y-79448599D01*
X178778889Y-79533513D01*
X178997050Y-79555000D01*
X179142950Y-79555000D01*
X179361111Y-79533513D01*
X179641034Y-79448599D01*
X179899014Y-79310706D01*
X180125134Y-79125134D01*
X180310706Y-78899014D01*
X180340000Y-78844209D01*
X180369294Y-78899014D01*
X180554866Y-79125134D01*
X180780986Y-79310706D01*
X181038966Y-79448599D01*
X181318889Y-79533513D01*
X181537050Y-79555000D01*
X181682950Y-79555000D01*
X181901111Y-79533513D01*
X182181034Y-79448599D01*
X182439014Y-79310706D01*
X182665134Y-79125134D01*
X182850706Y-78899014D01*
X182880000Y-78844209D01*
X182909294Y-78899014D01*
X183094866Y-79125134D01*
X183320986Y-79310706D01*
X183578966Y-79448599D01*
X183858889Y-79533513D01*
X184077050Y-79555000D01*
X184222950Y-79555000D01*
X184441111Y-79533513D01*
X184721034Y-79448599D01*
X184979014Y-79310706D01*
X185205134Y-79125134D01*
X185390706Y-78899014D01*
X185420000Y-78844209D01*
X185449294Y-78899014D01*
X185634866Y-79125134D01*
X185860986Y-79310706D01*
X186118966Y-79448599D01*
X186398889Y-79533513D01*
X186617050Y-79555000D01*
X186762950Y-79555000D01*
X186981111Y-79533513D01*
X187261034Y-79448599D01*
X187519014Y-79310706D01*
X187745134Y-79125134D01*
X187930706Y-78899014D01*
X187960000Y-78844209D01*
X187989294Y-78899014D01*
X188174866Y-79125134D01*
X188400986Y-79310706D01*
X188658966Y-79448599D01*
X188938889Y-79533513D01*
X189157050Y-79555000D01*
X189302950Y-79555000D01*
X189521111Y-79533513D01*
X189801034Y-79448599D01*
X190059014Y-79310706D01*
X190285134Y-79125134D01*
X190470706Y-78899014D01*
X190500000Y-78844209D01*
X190529294Y-78899014D01*
X190714866Y-79125134D01*
X190940986Y-79310706D01*
X191198966Y-79448599D01*
X191478889Y-79533513D01*
X191697050Y-79555000D01*
X191842950Y-79555000D01*
X192061111Y-79533513D01*
X192341034Y-79448599D01*
X192599014Y-79310706D01*
X192825134Y-79125134D01*
X193010706Y-78899014D01*
X193040000Y-78844209D01*
X193069294Y-78899014D01*
X193254866Y-79125134D01*
X193480986Y-79310706D01*
X193738966Y-79448599D01*
X194018889Y-79533513D01*
X194237050Y-79555000D01*
X194382950Y-79555000D01*
X194601111Y-79533513D01*
X194881034Y-79448599D01*
X195139014Y-79310706D01*
X195365134Y-79125134D01*
X195550706Y-78899014D01*
X195580000Y-78844209D01*
X195609294Y-78899014D01*
X195794866Y-79125134D01*
X196020986Y-79310706D01*
X196278966Y-79448599D01*
X196558889Y-79533513D01*
X196777050Y-79555000D01*
X196922950Y-79555000D01*
X197141111Y-79533513D01*
X197421034Y-79448599D01*
X197679014Y-79310706D01*
X197905134Y-79125134D01*
X198090706Y-78899014D01*
X198121584Y-78841244D01*
X198292412Y-79070269D01*
X198508645Y-79265178D01*
X198758748Y-79414157D01*
X199033109Y-79511481D01*
X199263000Y-79390814D01*
X199263000Y-78197000D01*
X199517000Y-78197000D01*
X199517000Y-79390814D01*
X199746891Y-79511481D01*
X200021252Y-79414157D01*
X200271355Y-79265178D01*
X200487588Y-79070269D01*
X200661641Y-78836920D01*
X200786825Y-78574099D01*
X200831476Y-78426890D01*
X200710155Y-78197000D01*
X199517000Y-78197000D01*
X199263000Y-78197000D01*
X199243000Y-78197000D01*
X199243000Y-77943000D01*
X199263000Y-77943000D01*
X199263000Y-75657000D01*
X199517000Y-75657000D01*
X199517000Y-77943000D01*
X200710155Y-77943000D01*
X200831476Y-77713110D01*
X200786825Y-77565901D01*
X200661641Y-77303080D01*
X200487588Y-77069731D01*
X200271355Y-76874822D01*
X200145745Y-76800000D01*
X200271355Y-76725178D01*
X200487588Y-76530269D01*
X200495247Y-76520000D01*
X204209339Y-76520000D01*
X204231929Y-76749360D01*
X204298831Y-76969906D01*
X204397766Y-77155000D01*
X204298831Y-77340094D01*
X204231929Y-77560640D01*
X204209339Y-77790000D01*
X204231929Y-78019360D01*
X204298831Y-78239906D01*
X204397766Y-78425000D01*
X204298831Y-78610094D01*
X204231929Y-78830640D01*
X204209339Y-79060000D01*
X204231929Y-79289360D01*
X204298831Y-79509906D01*
X204407474Y-79713162D01*
X204553682Y-79891318D01*
X204731838Y-80037526D01*
X204935094Y-80146169D01*
X205155640Y-80213071D01*
X205327523Y-80230000D01*
X206172477Y-80230000D01*
X206344360Y-80213071D01*
X206564906Y-80146169D01*
X206768162Y-80037526D01*
X206946318Y-79891318D01*
X207092526Y-79713162D01*
X207201169Y-79509906D01*
X207268071Y-79289360D01*
X207290661Y-79060000D01*
X207268071Y-78830640D01*
X207201169Y-78610094D01*
X207102234Y-78425000D01*
X207201169Y-78239906D01*
X207268071Y-78019360D01*
X207290661Y-77790000D01*
X207268071Y-77560640D01*
X207201169Y-77340094D01*
X207102234Y-77155000D01*
X207201169Y-76969906D01*
X207268071Y-76749360D01*
X207290661Y-76520000D01*
X207268071Y-76290640D01*
X207207130Y-76089743D01*
X207239502Y-76029180D01*
X207275812Y-75909482D01*
X207288072Y-75785000D01*
X207288072Y-74715000D01*
X207275812Y-74590518D01*
X207239502Y-74470820D01*
X207180537Y-74360506D01*
X207101185Y-74263815D01*
X207004494Y-74184463D01*
X206894180Y-74125498D01*
X206774482Y-74089188D01*
X206650000Y-74076928D01*
X204850000Y-74076928D01*
X204725518Y-74089188D01*
X204605820Y-74125498D01*
X204495506Y-74184463D01*
X204398815Y-74263815D01*
X204319463Y-74360506D01*
X204260498Y-74470820D01*
X204224188Y-74590518D01*
X204211928Y-74715000D01*
X204211928Y-75785000D01*
X204224188Y-75909482D01*
X204260498Y-76029180D01*
X204292870Y-76089743D01*
X204231929Y-76290640D01*
X204209339Y-76520000D01*
X200495247Y-76520000D01*
X200661641Y-76296920D01*
X200786825Y-76034099D01*
X200831476Y-75886890D01*
X200710155Y-75657000D01*
X199517000Y-75657000D01*
X199263000Y-75657000D01*
X199243000Y-75657000D01*
X199243000Y-75403000D01*
X199263000Y-75403000D01*
X199263000Y-73117000D01*
X199517000Y-73117000D01*
X199517000Y-75403000D01*
X200710155Y-75403000D01*
X200831476Y-75173110D01*
X200786825Y-75025901D01*
X200661641Y-74763080D01*
X200487588Y-74529731D01*
X200271355Y-74334822D01*
X200145745Y-74260000D01*
X200271355Y-74185178D01*
X200487588Y-73990269D01*
X200661641Y-73756920D01*
X200786825Y-73494099D01*
X200831476Y-73346890D01*
X200710155Y-73117000D01*
X199517000Y-73117000D01*
X199263000Y-73117000D01*
X199243000Y-73117000D01*
X199243000Y-72863000D01*
X199263000Y-72863000D01*
X199263000Y-70577000D01*
X199517000Y-70577000D01*
X199517000Y-72863000D01*
X200710155Y-72863000D01*
X200831476Y-72633110D01*
X200786825Y-72485901D01*
X200661641Y-72223080D01*
X200487588Y-71989731D01*
X200271355Y-71794822D01*
X200145745Y-71720000D01*
X200271355Y-71645178D01*
X200487588Y-71450269D01*
X200661641Y-71216920D01*
X200688752Y-71160000D01*
X218558057Y-71160000D01*
X218585764Y-71441309D01*
X218667818Y-71711808D01*
X218801068Y-71961101D01*
X218980392Y-72179608D01*
X219198899Y-72358932D01*
X219331858Y-72430000D01*
X219198899Y-72501068D01*
X218980392Y-72680392D01*
X218801068Y-72898899D01*
X218667818Y-73148192D01*
X218585764Y-73418691D01*
X218558057Y-73700000D01*
X218585764Y-73981309D01*
X218667818Y-74251808D01*
X218801068Y-74501101D01*
X218980392Y-74719608D01*
X219198899Y-74898932D01*
X219331858Y-74970000D01*
X219198899Y-75041068D01*
X218980392Y-75220392D01*
X218801068Y-75438899D01*
X218667818Y-75688192D01*
X218585764Y-75958691D01*
X218558057Y-76240000D01*
X218585764Y-76521309D01*
X218667818Y-76791808D01*
X218801068Y-77041101D01*
X218980392Y-77259608D01*
X219198899Y-77438932D01*
X219331858Y-77510000D01*
X219198899Y-77581068D01*
X218980392Y-77760392D01*
X218801068Y-77978899D01*
X218667818Y-78228192D01*
X218585764Y-78498691D01*
X218558057Y-78780000D01*
X218585764Y-79061309D01*
X218667818Y-79331808D01*
X218801068Y-79581101D01*
X218980392Y-79799608D01*
X219198899Y-79978932D01*
X219331858Y-80050000D01*
X219198899Y-80121068D01*
X218980392Y-80300392D01*
X218801068Y-80518899D01*
X218667818Y-80768192D01*
X218585764Y-81038691D01*
X218558057Y-81320000D01*
X218585764Y-81601309D01*
X218667818Y-81871808D01*
X218801068Y-82121101D01*
X218980392Y-82339608D01*
X219198899Y-82518932D01*
X219331858Y-82590000D01*
X219198899Y-82661068D01*
X218980392Y-82840392D01*
X218801068Y-83058899D01*
X218667818Y-83308192D01*
X218585764Y-83578691D01*
X218558057Y-83860000D01*
X218585764Y-84141309D01*
X218667818Y-84411808D01*
X218801068Y-84661101D01*
X218980392Y-84879608D01*
X219198899Y-85058932D01*
X219331858Y-85130000D01*
X219198899Y-85201068D01*
X218980392Y-85380392D01*
X218801068Y-85598899D01*
X218667818Y-85848192D01*
X218585764Y-86118691D01*
X218558057Y-86400000D01*
X218585764Y-86681309D01*
X218667818Y-86951808D01*
X218801068Y-87201101D01*
X218980392Y-87419608D01*
X219198899Y-87598932D01*
X219331858Y-87670000D01*
X219198899Y-87741068D01*
X218980392Y-87920392D01*
X218801068Y-88138899D01*
X218667818Y-88388192D01*
X218585764Y-88658691D01*
X218558057Y-88940000D01*
X218585764Y-89221309D01*
X218667818Y-89491808D01*
X218801068Y-89741101D01*
X218980392Y-89959608D01*
X219198899Y-90138932D01*
X219331858Y-90210000D01*
X219198899Y-90281068D01*
X218980392Y-90460392D01*
X218801068Y-90678899D01*
X218667818Y-90928192D01*
X218585764Y-91198691D01*
X218558057Y-91480000D01*
X218585764Y-91761309D01*
X218667818Y-92031808D01*
X218801068Y-92281101D01*
X218980392Y-92499608D01*
X219198899Y-92678932D01*
X219331858Y-92750000D01*
X219198899Y-92821068D01*
X218980392Y-93000392D01*
X218801068Y-93218899D01*
X218667818Y-93468192D01*
X218585764Y-93738691D01*
X218558057Y-94020000D01*
X218585764Y-94301309D01*
X218667818Y-94571808D01*
X218801068Y-94821101D01*
X218980392Y-95039608D01*
X219198899Y-95218932D01*
X219331858Y-95290000D01*
X219198899Y-95361068D01*
X218980392Y-95540392D01*
X218801068Y-95758899D01*
X218667818Y-96008192D01*
X218585764Y-96278691D01*
X218558057Y-96560000D01*
X218585764Y-96841309D01*
X218667818Y-97111808D01*
X218801068Y-97361101D01*
X218980392Y-97579608D01*
X219198899Y-97758932D01*
X219448192Y-97892182D01*
X219718691Y-97974236D01*
X219929508Y-97995000D01*
X220070492Y-97995000D01*
X220281309Y-97974236D01*
X220551808Y-97892182D01*
X220801101Y-97758932D01*
X221019608Y-97579608D01*
X221198932Y-97361101D01*
X221332182Y-97111808D01*
X221414236Y-96841309D01*
X221441943Y-96560000D01*
X221414236Y-96278691D01*
X221332182Y-96008192D01*
X221198932Y-95758899D01*
X221019608Y-95540392D01*
X220801101Y-95361068D01*
X220668142Y-95290000D01*
X220801101Y-95218932D01*
X221019608Y-95039608D01*
X221198932Y-94821101D01*
X221332182Y-94571808D01*
X221414236Y-94301309D01*
X221441943Y-94020000D01*
X221414236Y-93738691D01*
X221332182Y-93468192D01*
X221198932Y-93218899D01*
X221019608Y-93000392D01*
X220801101Y-92821068D01*
X220668142Y-92750000D01*
X220801101Y-92678932D01*
X221019608Y-92499608D01*
X221185013Y-92298061D01*
X231365000Y-92298061D01*
X231365000Y-92501939D01*
X231404774Y-92701898D01*
X231482795Y-92890256D01*
X231596063Y-93059774D01*
X231740226Y-93203937D01*
X231909744Y-93317205D01*
X232098102Y-93395226D01*
X232298061Y-93435000D01*
X232501939Y-93435000D01*
X232701898Y-93395226D01*
X232890256Y-93317205D01*
X233013285Y-93235000D01*
X233254133Y-93235000D01*
X233819672Y-93800540D01*
X233798057Y-94020000D01*
X233825764Y-94301309D01*
X233907818Y-94571808D01*
X234041068Y-94821101D01*
X234220392Y-95039608D01*
X234438899Y-95218932D01*
X234571858Y-95290000D01*
X234438899Y-95361068D01*
X234220392Y-95540392D01*
X234041068Y-95758899D01*
X233907818Y-96008192D01*
X233825764Y-96278691D01*
X233798057Y-96560000D01*
X233825764Y-96841309D01*
X233907818Y-97111808D01*
X234041068Y-97361101D01*
X234220392Y-97579608D01*
X234438899Y-97758932D01*
X234688192Y-97892182D01*
X234958691Y-97974236D01*
X235169508Y-97995000D01*
X235310492Y-97995000D01*
X235521309Y-97974236D01*
X235791808Y-97892182D01*
X236041101Y-97758932D01*
X236259608Y-97579608D01*
X236438932Y-97361101D01*
X236572182Y-97111808D01*
X236654236Y-96841309D01*
X236681943Y-96560000D01*
X236661143Y-96348816D01*
X240675000Y-96348816D01*
X240675000Y-96651184D01*
X240733989Y-96947743D01*
X240849701Y-97227095D01*
X241017688Y-97478505D01*
X241231495Y-97692312D01*
X241482905Y-97860299D01*
X241762257Y-97976011D01*
X242058816Y-98035000D01*
X242361184Y-98035000D01*
X242657743Y-97976011D01*
X242937095Y-97860299D01*
X243188505Y-97692312D01*
X243254944Y-97625873D01*
X243260498Y-97644180D01*
X243319463Y-97754494D01*
X243398815Y-97851185D01*
X243495506Y-97930537D01*
X243605820Y-97989502D01*
X243725518Y-98025812D01*
X243850000Y-98038072D01*
X245650000Y-98038072D01*
X245774482Y-98025812D01*
X245894180Y-97989502D01*
X246004494Y-97930537D01*
X246101185Y-97851185D01*
X246180537Y-97754494D01*
X246239502Y-97644180D01*
X246275812Y-97524482D01*
X246288072Y-97400000D01*
X246288072Y-96348816D01*
X247175000Y-96348816D01*
X247175000Y-96651184D01*
X247233989Y-96947743D01*
X247349701Y-97227095D01*
X247517688Y-97478505D01*
X247731495Y-97692312D01*
X247982905Y-97860299D01*
X248262257Y-97976011D01*
X248558816Y-98035000D01*
X248861184Y-98035000D01*
X249157743Y-97976011D01*
X249437095Y-97860299D01*
X249688505Y-97692312D01*
X249754944Y-97625873D01*
X249760498Y-97644180D01*
X249819463Y-97754494D01*
X249898815Y-97851185D01*
X249995506Y-97930537D01*
X250105820Y-97989502D01*
X250225518Y-98025812D01*
X250350000Y-98038072D01*
X252150000Y-98038072D01*
X252274482Y-98025812D01*
X252394180Y-97989502D01*
X252504494Y-97930537D01*
X252601185Y-97851185D01*
X252680537Y-97754494D01*
X252739502Y-97644180D01*
X252775812Y-97524482D01*
X252788072Y-97400000D01*
X252788072Y-96348816D01*
X253675000Y-96348816D01*
X253675000Y-96651184D01*
X253733989Y-96947743D01*
X253849701Y-97227095D01*
X254017688Y-97478505D01*
X254231495Y-97692312D01*
X254482905Y-97860299D01*
X254762257Y-97976011D01*
X255058816Y-98035000D01*
X255361184Y-98035000D01*
X255657743Y-97976011D01*
X255937095Y-97860299D01*
X256188505Y-97692312D01*
X256254944Y-97625873D01*
X256260498Y-97644180D01*
X256319463Y-97754494D01*
X256398815Y-97851185D01*
X256495506Y-97930537D01*
X256605820Y-97989502D01*
X256725518Y-98025812D01*
X256850000Y-98038072D01*
X258650000Y-98038072D01*
X258774482Y-98025812D01*
X258894180Y-97989502D01*
X259004494Y-97930537D01*
X259101185Y-97851185D01*
X259180537Y-97754494D01*
X259239502Y-97644180D01*
X259275812Y-97524482D01*
X259288072Y-97400000D01*
X259288072Y-95600000D01*
X259275812Y-95475518D01*
X259239502Y-95355820D01*
X259180537Y-95245506D01*
X259101185Y-95148815D01*
X259004494Y-95069463D01*
X258894180Y-95010498D01*
X258774482Y-94974188D01*
X258650000Y-94961928D01*
X256850000Y-94961928D01*
X256725518Y-94974188D01*
X256605820Y-95010498D01*
X256495506Y-95069463D01*
X256398815Y-95148815D01*
X256319463Y-95245506D01*
X256260498Y-95355820D01*
X256254944Y-95374127D01*
X256188505Y-95307688D01*
X255937095Y-95139701D01*
X255657743Y-95023989D01*
X255361184Y-94965000D01*
X255058816Y-94965000D01*
X254762257Y-95023989D01*
X254482905Y-95139701D01*
X254231495Y-95307688D01*
X254017688Y-95521495D01*
X253849701Y-95772905D01*
X253733989Y-96052257D01*
X253675000Y-96348816D01*
X252788072Y-96348816D01*
X252788072Y-95600000D01*
X252775812Y-95475518D01*
X252739502Y-95355820D01*
X252680537Y-95245506D01*
X252601185Y-95148815D01*
X252504494Y-95069463D01*
X252394180Y-95010498D01*
X252274482Y-94974188D01*
X252150000Y-94961928D01*
X250350000Y-94961928D01*
X250225518Y-94974188D01*
X250105820Y-95010498D01*
X249995506Y-95069463D01*
X249898815Y-95148815D01*
X249819463Y-95245506D01*
X249760498Y-95355820D01*
X249754944Y-95374127D01*
X249688505Y-95307688D01*
X249437095Y-95139701D01*
X249157743Y-95023989D01*
X248861184Y-94965000D01*
X248558816Y-94965000D01*
X248262257Y-95023989D01*
X247982905Y-95139701D01*
X247731495Y-95307688D01*
X247517688Y-95521495D01*
X247349701Y-95772905D01*
X247233989Y-96052257D01*
X247175000Y-96348816D01*
X246288072Y-96348816D01*
X246288072Y-95600000D01*
X246275812Y-95475518D01*
X246239502Y-95355820D01*
X246180537Y-95245506D01*
X246101185Y-95148815D01*
X246004494Y-95069463D01*
X245894180Y-95010498D01*
X245774482Y-94974188D01*
X245650000Y-94961928D01*
X243850000Y-94961928D01*
X243725518Y-94974188D01*
X243605820Y-95010498D01*
X243495506Y-95069463D01*
X243398815Y-95148815D01*
X243319463Y-95245506D01*
X243260498Y-95355820D01*
X243254944Y-95374127D01*
X243188505Y-95307688D01*
X242937095Y-95139701D01*
X242657743Y-95023989D01*
X242361184Y-94965000D01*
X242058816Y-94965000D01*
X241762257Y-95023989D01*
X241482905Y-95139701D01*
X241231495Y-95307688D01*
X241017688Y-95521495D01*
X240849701Y-95772905D01*
X240733989Y-96052257D01*
X240675000Y-96348816D01*
X236661143Y-96348816D01*
X236654236Y-96278691D01*
X236572182Y-96008192D01*
X236438932Y-95758899D01*
X236259608Y-95540392D01*
X236041101Y-95361068D01*
X235908142Y-95290000D01*
X236041101Y-95218932D01*
X236259608Y-95039608D01*
X236438932Y-94821101D01*
X236572182Y-94571808D01*
X236654236Y-94301309D01*
X236681943Y-94020000D01*
X236654236Y-93738691D01*
X236572182Y-93468192D01*
X236438932Y-93218899D01*
X236259608Y-93000392D01*
X236041101Y-92821068D01*
X235908142Y-92750000D01*
X236041101Y-92678932D01*
X236259608Y-92499608D01*
X236438932Y-92281101D01*
X236572182Y-92031808D01*
X236654236Y-91761309D01*
X236681943Y-91480000D01*
X236654236Y-91198691D01*
X236572182Y-90928192D01*
X236438932Y-90678899D01*
X236259608Y-90460392D01*
X236041101Y-90281068D01*
X235908142Y-90210000D01*
X236041101Y-90138932D01*
X236259608Y-89959608D01*
X236438932Y-89741101D01*
X236572182Y-89491808D01*
X236654236Y-89221309D01*
X236666184Y-89100000D01*
X240711928Y-89100000D01*
X240711928Y-90900000D01*
X240724188Y-91024482D01*
X240760498Y-91144180D01*
X240819463Y-91254494D01*
X240898815Y-91351185D01*
X240995506Y-91430537D01*
X241105820Y-91489502D01*
X241225518Y-91525812D01*
X241350000Y-91538072D01*
X243150000Y-91538072D01*
X243274482Y-91525812D01*
X243394180Y-91489502D01*
X243504494Y-91430537D01*
X243601185Y-91351185D01*
X243680537Y-91254494D01*
X243739502Y-91144180D01*
X243745056Y-91125873D01*
X243811495Y-91192312D01*
X244062905Y-91360299D01*
X244342257Y-91476011D01*
X244638816Y-91535000D01*
X244941184Y-91535000D01*
X245169440Y-91489597D01*
X245607658Y-91927816D01*
X245632236Y-91957764D01*
X245662184Y-91982342D01*
X245662187Y-91982345D01*
X245691559Y-92006450D01*
X245751767Y-92055862D01*
X245872501Y-92120395D01*
X245888140Y-92128754D01*
X246036113Y-92173642D01*
X246111026Y-92181020D01*
X246151439Y-92185000D01*
X246151444Y-92185000D01*
X246190000Y-92188797D01*
X246228555Y-92185000D01*
X255621449Y-92185000D01*
X255660002Y-92188797D01*
X255698555Y-92185000D01*
X255698563Y-92185000D01*
X255813889Y-92173641D01*
X255961862Y-92128754D01*
X256098235Y-92055862D01*
X256217766Y-91957764D01*
X256242349Y-91927810D01*
X256663239Y-91506920D01*
X256725518Y-91525812D01*
X256850000Y-91538072D01*
X258650000Y-91538072D01*
X258774482Y-91525812D01*
X258894180Y-91489502D01*
X259004494Y-91430537D01*
X259101185Y-91351185D01*
X259180537Y-91254494D01*
X259239502Y-91144180D01*
X259275812Y-91024482D01*
X259288072Y-90900000D01*
X259288072Y-89100000D01*
X259275812Y-88975518D01*
X259239502Y-88855820D01*
X259180537Y-88745506D01*
X259101185Y-88648815D01*
X259004494Y-88569463D01*
X258894180Y-88510498D01*
X258774482Y-88474188D01*
X258650000Y-88461928D01*
X256850000Y-88461928D01*
X256725518Y-88474188D01*
X256605820Y-88510498D01*
X256495506Y-88569463D01*
X256398815Y-88648815D01*
X256319463Y-88745506D01*
X256260498Y-88855820D01*
X256254944Y-88874127D01*
X256188505Y-88807688D01*
X255937095Y-88639701D01*
X255657743Y-88523989D01*
X255361184Y-88465000D01*
X255058816Y-88465000D01*
X254762257Y-88523989D01*
X254482905Y-88639701D01*
X254231495Y-88807688D01*
X254017688Y-89021495D01*
X253849701Y-89272905D01*
X253733989Y-89552257D01*
X253675000Y-89848816D01*
X253675000Y-90151184D01*
X253733989Y-90447743D01*
X253803269Y-90615000D01*
X252696731Y-90615000D01*
X252766011Y-90447743D01*
X252825000Y-90151184D01*
X252825000Y-89848816D01*
X252766011Y-89552257D01*
X252650299Y-89272905D01*
X252482312Y-89021495D01*
X252268505Y-88807688D01*
X252017095Y-88639701D01*
X251737743Y-88523989D01*
X251441184Y-88465000D01*
X251138816Y-88465000D01*
X250842257Y-88523989D01*
X250562905Y-88639701D01*
X250311495Y-88807688D01*
X250245056Y-88874127D01*
X250239502Y-88855820D01*
X250180537Y-88745506D01*
X250101185Y-88648815D01*
X250004494Y-88569463D01*
X249894180Y-88510498D01*
X249774482Y-88474188D01*
X249650000Y-88461928D01*
X247850000Y-88461928D01*
X247725518Y-88474188D01*
X247605820Y-88510498D01*
X247495506Y-88569463D01*
X247398815Y-88648815D01*
X247319463Y-88745506D01*
X247260498Y-88855820D01*
X247224188Y-88975518D01*
X247211928Y-89100000D01*
X247211928Y-90615000D01*
X246515158Y-90615000D01*
X246279597Y-90379440D01*
X246325000Y-90151184D01*
X246325000Y-89848816D01*
X246266011Y-89552257D01*
X246150299Y-89272905D01*
X245982312Y-89021495D01*
X245768505Y-88807688D01*
X245517095Y-88639701D01*
X245237743Y-88523989D01*
X244941184Y-88465000D01*
X244638816Y-88465000D01*
X244342257Y-88523989D01*
X244062905Y-88639701D01*
X243811495Y-88807688D01*
X243745056Y-88874127D01*
X243739502Y-88855820D01*
X243680537Y-88745506D01*
X243601185Y-88648815D01*
X243504494Y-88569463D01*
X243394180Y-88510498D01*
X243274482Y-88474188D01*
X243150000Y-88461928D01*
X241350000Y-88461928D01*
X241225518Y-88474188D01*
X241105820Y-88510498D01*
X240995506Y-88569463D01*
X240898815Y-88648815D01*
X240819463Y-88745506D01*
X240760498Y-88855820D01*
X240724188Y-88975518D01*
X240711928Y-89100000D01*
X236666184Y-89100000D01*
X236681943Y-88940000D01*
X236654236Y-88658691D01*
X236572182Y-88388192D01*
X236438932Y-88138899D01*
X236259608Y-87920392D01*
X236041101Y-87741068D01*
X235908142Y-87670000D01*
X236041101Y-87598932D01*
X236259608Y-87419608D01*
X236438932Y-87201101D01*
X236572182Y-86951808D01*
X236654236Y-86681309D01*
X236681943Y-86400000D01*
X236654236Y-86118691D01*
X236572182Y-85848192D01*
X236438932Y-85598899D01*
X236259608Y-85380392D01*
X236041101Y-85201068D01*
X235908142Y-85130000D01*
X236041101Y-85058932D01*
X236259608Y-84879608D01*
X236438932Y-84661101D01*
X236572182Y-84411808D01*
X236654236Y-84141309D01*
X236681943Y-83860000D01*
X236654236Y-83578691D01*
X236584506Y-83348816D01*
X240675000Y-83348816D01*
X240675000Y-83651184D01*
X240733989Y-83947743D01*
X240849701Y-84227095D01*
X241017688Y-84478505D01*
X241231495Y-84692312D01*
X241482905Y-84860299D01*
X241762257Y-84976011D01*
X242058816Y-85035000D01*
X242361184Y-85035000D01*
X242657743Y-84976011D01*
X242937095Y-84860299D01*
X243188505Y-84692312D01*
X243254944Y-84625873D01*
X243260498Y-84644180D01*
X243319463Y-84754494D01*
X243398815Y-84851185D01*
X243495506Y-84930537D01*
X243605820Y-84989502D01*
X243725518Y-85025812D01*
X243850000Y-85038072D01*
X245650000Y-85038072D01*
X245774482Y-85025812D01*
X245894180Y-84989502D01*
X246004494Y-84930537D01*
X246101185Y-84851185D01*
X246180537Y-84754494D01*
X246239502Y-84644180D01*
X246275812Y-84524482D01*
X246288072Y-84400000D01*
X246288072Y-82600000D01*
X247211928Y-82600000D01*
X247211928Y-84400000D01*
X247224188Y-84524482D01*
X247260498Y-84644180D01*
X247319463Y-84754494D01*
X247398815Y-84851185D01*
X247495506Y-84930537D01*
X247605820Y-84989502D01*
X247725518Y-85025812D01*
X247850000Y-85038072D01*
X249650000Y-85038072D01*
X249774482Y-85025812D01*
X249894180Y-84989502D01*
X250004494Y-84930537D01*
X250101185Y-84851185D01*
X250180537Y-84754494D01*
X250239502Y-84644180D01*
X250245056Y-84625873D01*
X250311495Y-84692312D01*
X250562905Y-84860299D01*
X250842257Y-84976011D01*
X251138816Y-85035000D01*
X251441184Y-85035000D01*
X251737743Y-84976011D01*
X252017095Y-84860299D01*
X252268505Y-84692312D01*
X252482312Y-84478505D01*
X252650299Y-84227095D01*
X252766011Y-83947743D01*
X252825000Y-83651184D01*
X252825000Y-83348816D01*
X252766011Y-83052257D01*
X252650299Y-82772905D01*
X252534768Y-82600000D01*
X253671928Y-82600000D01*
X253671928Y-84400000D01*
X253684188Y-84524482D01*
X253720498Y-84644180D01*
X253779463Y-84754494D01*
X253858815Y-84851185D01*
X253955506Y-84930537D01*
X254065820Y-84989502D01*
X254185518Y-85025812D01*
X254310000Y-85038072D01*
X256110000Y-85038072D01*
X256234482Y-85025812D01*
X256354180Y-84989502D01*
X256464494Y-84930537D01*
X256561185Y-84851185D01*
X256640537Y-84754494D01*
X256699502Y-84644180D01*
X256705056Y-84625873D01*
X256771495Y-84692312D01*
X257022905Y-84860299D01*
X257302257Y-84976011D01*
X257598816Y-85035000D01*
X257901184Y-85035000D01*
X258197743Y-84976011D01*
X258477095Y-84860299D01*
X258728505Y-84692312D01*
X258942312Y-84478505D01*
X259110299Y-84227095D01*
X259226011Y-83947743D01*
X259285000Y-83651184D01*
X259285000Y-83348816D01*
X259226011Y-83052257D01*
X259110299Y-82772905D01*
X258942312Y-82521495D01*
X258728505Y-82307688D01*
X258477095Y-82139701D01*
X258197743Y-82023989D01*
X257901184Y-81965000D01*
X257598816Y-81965000D01*
X257302257Y-82023989D01*
X257022905Y-82139701D01*
X256771495Y-82307688D01*
X256705056Y-82374127D01*
X256699502Y-82355820D01*
X256640537Y-82245506D01*
X256561185Y-82148815D01*
X256464494Y-82069463D01*
X256354180Y-82010498D01*
X256234482Y-81974188D01*
X256110000Y-81961928D01*
X254310000Y-81961928D01*
X254185518Y-81974188D01*
X254065820Y-82010498D01*
X253955506Y-82069463D01*
X253858815Y-82148815D01*
X253779463Y-82245506D01*
X253720498Y-82355820D01*
X253684188Y-82475518D01*
X253671928Y-82600000D01*
X252534768Y-82600000D01*
X252482312Y-82521495D01*
X252268505Y-82307688D01*
X252017095Y-82139701D01*
X251737743Y-82023989D01*
X251441184Y-81965000D01*
X251138816Y-81965000D01*
X250842257Y-82023989D01*
X250562905Y-82139701D01*
X250311495Y-82307688D01*
X250245056Y-82374127D01*
X250239502Y-82355820D01*
X250180537Y-82245506D01*
X250101185Y-82148815D01*
X250004494Y-82069463D01*
X249894180Y-82010498D01*
X249774482Y-81974188D01*
X249650000Y-81961928D01*
X247850000Y-81961928D01*
X247725518Y-81974188D01*
X247605820Y-82010498D01*
X247495506Y-82069463D01*
X247398815Y-82148815D01*
X247319463Y-82245506D01*
X247260498Y-82355820D01*
X247224188Y-82475518D01*
X247211928Y-82600000D01*
X246288072Y-82600000D01*
X246275812Y-82475518D01*
X246239502Y-82355820D01*
X246180537Y-82245506D01*
X246101185Y-82148815D01*
X246004494Y-82069463D01*
X245894180Y-82010498D01*
X245774482Y-81974188D01*
X245650000Y-81961928D01*
X243850000Y-81961928D01*
X243725518Y-81974188D01*
X243605820Y-82010498D01*
X243495506Y-82069463D01*
X243398815Y-82148815D01*
X243319463Y-82245506D01*
X243260498Y-82355820D01*
X243254944Y-82374127D01*
X243188505Y-82307688D01*
X242937095Y-82139701D01*
X242657743Y-82023989D01*
X242361184Y-81965000D01*
X242058816Y-81965000D01*
X241762257Y-82023989D01*
X241482905Y-82139701D01*
X241231495Y-82307688D01*
X241017688Y-82521495D01*
X240849701Y-82772905D01*
X240733989Y-83052257D01*
X240675000Y-83348816D01*
X236584506Y-83348816D01*
X236572182Y-83308192D01*
X236438932Y-83058899D01*
X236259608Y-82840392D01*
X236041101Y-82661068D01*
X235908142Y-82590000D01*
X236041101Y-82518932D01*
X236259608Y-82339608D01*
X236438932Y-82121101D01*
X236572182Y-81871808D01*
X236654236Y-81601309D01*
X236681943Y-81320000D01*
X236654236Y-81038691D01*
X236572182Y-80768192D01*
X236438932Y-80518899D01*
X236259608Y-80300392D01*
X236041101Y-80121068D01*
X235908142Y-80050000D01*
X236041101Y-79978932D01*
X236259608Y-79799608D01*
X236438932Y-79581101D01*
X236572182Y-79331808D01*
X236654236Y-79061309D01*
X236681943Y-78780000D01*
X236654236Y-78498691D01*
X236572182Y-78228192D01*
X236438932Y-77978899D01*
X236259608Y-77760392D01*
X236041101Y-77581068D01*
X235908142Y-77510000D01*
X236041101Y-77438932D01*
X236259608Y-77259608D01*
X236438932Y-77041101D01*
X236572182Y-76791808D01*
X236654236Y-76521309D01*
X236681943Y-76240000D01*
X236654236Y-75958691D01*
X236572182Y-75688192D01*
X236438932Y-75438899D01*
X236259608Y-75220392D01*
X236041101Y-75041068D01*
X235908142Y-74970000D01*
X236041101Y-74898932D01*
X236259608Y-74719608D01*
X236438932Y-74501101D01*
X236572182Y-74251808D01*
X236654236Y-73981309D01*
X236681943Y-73700000D01*
X236654236Y-73418691D01*
X236572182Y-73148192D01*
X236438932Y-72898899D01*
X236259608Y-72680392D01*
X236041101Y-72501068D01*
X235908142Y-72430000D01*
X236041101Y-72358932D01*
X236259608Y-72179608D01*
X236438932Y-71961101D01*
X236572182Y-71711808D01*
X236654236Y-71441309D01*
X236681943Y-71160000D01*
X236654236Y-70878691D01*
X236572182Y-70608192D01*
X236438932Y-70358899D01*
X236259608Y-70140392D01*
X236041101Y-69961068D01*
X235908142Y-69890000D01*
X236041101Y-69818932D01*
X236259608Y-69639608D01*
X236438932Y-69421101D01*
X236572182Y-69171808D01*
X236654236Y-68901309D01*
X236681943Y-68620000D01*
X236654236Y-68338691D01*
X236572182Y-68068192D01*
X236438932Y-67818899D01*
X236259608Y-67600392D01*
X236041101Y-67421068D01*
X235908142Y-67350000D01*
X236041101Y-67278932D01*
X236259608Y-67099608D01*
X236438932Y-66881101D01*
X236572182Y-66631808D01*
X236654236Y-66361309D01*
X236681943Y-66080000D01*
X236654236Y-65798691D01*
X236572182Y-65528192D01*
X236438932Y-65278899D01*
X236259608Y-65060392D01*
X236041101Y-64881068D01*
X235903318Y-64807421D01*
X236095131Y-64692385D01*
X236303519Y-64503414D01*
X236471037Y-64277420D01*
X236591246Y-64023087D01*
X236631904Y-63889039D01*
X236509915Y-63667000D01*
X235367000Y-63667000D01*
X235367000Y-63687000D01*
X235113000Y-63687000D01*
X235113000Y-63667000D01*
X233970085Y-63667000D01*
X233848096Y-63889039D01*
X233888754Y-64023087D01*
X234008963Y-64277420D01*
X234176481Y-64503414D01*
X234384869Y-64692385D01*
X234576682Y-64807421D01*
X234438899Y-64881068D01*
X234220392Y-65060392D01*
X234041068Y-65278899D01*
X233907818Y-65528192D01*
X233825764Y-65798691D01*
X233798057Y-66080000D01*
X233825764Y-66361309D01*
X233907818Y-66631808D01*
X234041068Y-66881101D01*
X234220392Y-67099608D01*
X234438899Y-67278932D01*
X234571858Y-67350000D01*
X234438899Y-67421068D01*
X234220392Y-67600392D01*
X234041068Y-67818899D01*
X233907818Y-68068192D01*
X233825764Y-68338691D01*
X233798057Y-68620000D01*
X233825764Y-68901309D01*
X233907818Y-69171808D01*
X234041068Y-69421101D01*
X234220392Y-69639608D01*
X234438899Y-69818932D01*
X234571858Y-69890000D01*
X234438899Y-69961068D01*
X234220392Y-70140392D01*
X234041068Y-70358899D01*
X233907818Y-70608192D01*
X233825764Y-70878691D01*
X233798057Y-71160000D01*
X233825764Y-71441309D01*
X233907818Y-71711808D01*
X234041068Y-71961101D01*
X234220392Y-72179608D01*
X234438899Y-72358932D01*
X234571858Y-72430000D01*
X234438899Y-72501068D01*
X234220392Y-72680392D01*
X234041068Y-72898899D01*
X233907818Y-73148192D01*
X233825764Y-73418691D01*
X233798057Y-73700000D01*
X233825764Y-73981309D01*
X233907818Y-74251808D01*
X234041068Y-74501101D01*
X234220392Y-74719608D01*
X234438899Y-74898932D01*
X234571858Y-74970000D01*
X234438899Y-75041068D01*
X234220392Y-75220392D01*
X234041068Y-75438899D01*
X233907818Y-75688192D01*
X233825764Y-75958691D01*
X233798057Y-76240000D01*
X233825764Y-76521309D01*
X233907818Y-76791808D01*
X234041068Y-77041101D01*
X234220392Y-77259608D01*
X234438899Y-77438932D01*
X234571858Y-77510000D01*
X234438899Y-77581068D01*
X234220392Y-77760392D01*
X234041068Y-77978899D01*
X233907818Y-78228192D01*
X233825764Y-78498691D01*
X233798057Y-78780000D01*
X233825764Y-79061309D01*
X233907818Y-79331808D01*
X234041068Y-79581101D01*
X234220392Y-79799608D01*
X234438899Y-79978932D01*
X234571858Y-80050000D01*
X234438899Y-80121068D01*
X234220392Y-80300392D01*
X234041068Y-80518899D01*
X233907818Y-80768192D01*
X233825764Y-81038691D01*
X233798057Y-81320000D01*
X233825764Y-81601309D01*
X233907818Y-81871808D01*
X234041068Y-82121101D01*
X234220392Y-82339608D01*
X234438899Y-82518932D01*
X234571858Y-82590000D01*
X234438899Y-82661068D01*
X234220392Y-82840392D01*
X234041068Y-83058899D01*
X233907818Y-83308192D01*
X233825764Y-83578691D01*
X233798057Y-83860000D01*
X233825764Y-84141309D01*
X233907818Y-84411808D01*
X234041068Y-84661101D01*
X234220392Y-84879608D01*
X234438899Y-85058932D01*
X234571858Y-85130000D01*
X234438899Y-85201068D01*
X234220392Y-85380392D01*
X234041068Y-85598899D01*
X233907818Y-85848192D01*
X233825764Y-86118691D01*
X233798057Y-86400000D01*
X233825764Y-86681309D01*
X233907818Y-86951808D01*
X234041068Y-87201101D01*
X234220392Y-87419608D01*
X234438899Y-87598932D01*
X234571858Y-87670000D01*
X234438899Y-87741068D01*
X234220392Y-87920392D01*
X234041068Y-88138899D01*
X233907818Y-88388192D01*
X233825764Y-88658691D01*
X233798057Y-88940000D01*
X233825764Y-89221309D01*
X233907818Y-89491808D01*
X234041068Y-89741101D01*
X234220392Y-89959608D01*
X234438899Y-90138932D01*
X234571858Y-90210000D01*
X234438899Y-90281068D01*
X234220392Y-90460392D01*
X234041068Y-90678899D01*
X233907818Y-90928192D01*
X233825764Y-91198691D01*
X233798057Y-91480000D01*
X233808972Y-91590818D01*
X233763689Y-91577082D01*
X233641019Y-91565000D01*
X233641018Y-91565000D01*
X233600000Y-91560960D01*
X233558982Y-91565000D01*
X233013285Y-91565000D01*
X232890256Y-91482795D01*
X232701898Y-91404774D01*
X232501939Y-91365000D01*
X232298061Y-91365000D01*
X232098102Y-91404774D01*
X231909744Y-91482795D01*
X231740226Y-91596063D01*
X231596063Y-91740226D01*
X231482795Y-91909744D01*
X231404774Y-92098102D01*
X231365000Y-92298061D01*
X221185013Y-92298061D01*
X221198932Y-92281101D01*
X221332182Y-92031808D01*
X221414236Y-91761309D01*
X221441943Y-91480000D01*
X221414236Y-91198691D01*
X221332182Y-90928192D01*
X221198932Y-90678899D01*
X221019608Y-90460392D01*
X220801101Y-90281068D01*
X220668142Y-90210000D01*
X220801101Y-90138932D01*
X221019608Y-89959608D01*
X221198932Y-89741101D01*
X221332182Y-89491808D01*
X221414236Y-89221309D01*
X221441943Y-88940000D01*
X221414236Y-88658691D01*
X221332182Y-88388192D01*
X221198932Y-88138899D01*
X221019608Y-87920392D01*
X220801101Y-87741068D01*
X220668142Y-87670000D01*
X220801101Y-87598932D01*
X221019608Y-87419608D01*
X221198932Y-87201101D01*
X221332182Y-86951808D01*
X221414236Y-86681309D01*
X221441943Y-86400000D01*
X221414236Y-86118691D01*
X221332182Y-85848192D01*
X221198932Y-85598899D01*
X221019608Y-85380392D01*
X220801101Y-85201068D01*
X220668142Y-85130000D01*
X220801101Y-85058932D01*
X221019608Y-84879608D01*
X221198932Y-84661101D01*
X221332182Y-84411808D01*
X221414236Y-84141309D01*
X221441943Y-83860000D01*
X221414236Y-83578691D01*
X221332182Y-83308192D01*
X221198932Y-83058899D01*
X221019608Y-82840392D01*
X220801101Y-82661068D01*
X220668142Y-82590000D01*
X220801101Y-82518932D01*
X221019608Y-82339608D01*
X221198932Y-82121101D01*
X221332182Y-81871808D01*
X221414236Y-81601309D01*
X221441943Y-81320000D01*
X221414236Y-81038691D01*
X221332182Y-80768192D01*
X221198932Y-80518899D01*
X221019608Y-80300392D01*
X220801101Y-80121068D01*
X220668142Y-80050000D01*
X220801101Y-79978932D01*
X221019608Y-79799608D01*
X221198932Y-79581101D01*
X221332182Y-79331808D01*
X221414236Y-79061309D01*
X221441943Y-78780000D01*
X221414236Y-78498691D01*
X221332182Y-78228192D01*
X221198932Y-77978899D01*
X221019608Y-77760392D01*
X220801101Y-77581068D01*
X220668142Y-77510000D01*
X220801101Y-77438932D01*
X221019608Y-77259608D01*
X221198932Y-77041101D01*
X221332182Y-76791808D01*
X221414236Y-76521309D01*
X221441943Y-76240000D01*
X221414236Y-75958691D01*
X221332182Y-75688192D01*
X221198932Y-75438899D01*
X221019608Y-75220392D01*
X220801101Y-75041068D01*
X220668142Y-74970000D01*
X220801101Y-74898932D01*
X221019608Y-74719608D01*
X221198932Y-74501101D01*
X221332182Y-74251808D01*
X221414236Y-73981309D01*
X221441943Y-73700000D01*
X221414236Y-73418691D01*
X221332182Y-73148192D01*
X221198932Y-72898899D01*
X221019608Y-72680392D01*
X220801101Y-72501068D01*
X220668142Y-72430000D01*
X220801101Y-72358932D01*
X221019608Y-72179608D01*
X221198932Y-71961101D01*
X221332182Y-71711808D01*
X221414236Y-71441309D01*
X221441943Y-71160000D01*
X221414236Y-70878691D01*
X221332182Y-70608192D01*
X221198932Y-70358899D01*
X221019608Y-70140392D01*
X220801101Y-69961068D01*
X220663318Y-69887421D01*
X220855131Y-69772385D01*
X221063519Y-69583414D01*
X221231037Y-69357420D01*
X221351246Y-69103087D01*
X221391904Y-68969039D01*
X221269915Y-68747000D01*
X220127000Y-68747000D01*
X220127000Y-68767000D01*
X219873000Y-68767000D01*
X219873000Y-68747000D01*
X218730085Y-68747000D01*
X218608096Y-68969039D01*
X218648754Y-69103087D01*
X218768963Y-69357420D01*
X218936481Y-69583414D01*
X219144869Y-69772385D01*
X219336682Y-69887421D01*
X219198899Y-69961068D01*
X218980392Y-70140392D01*
X218801068Y-70358899D01*
X218667818Y-70608192D01*
X218585764Y-70878691D01*
X218558057Y-71160000D01*
X200688752Y-71160000D01*
X200786825Y-70954099D01*
X200831476Y-70806890D01*
X200710155Y-70577000D01*
X199517000Y-70577000D01*
X199263000Y-70577000D01*
X199243000Y-70577000D01*
X199243000Y-70323000D01*
X199263000Y-70323000D01*
X199263000Y-69129186D01*
X199517000Y-69129186D01*
X199517000Y-70323000D01*
X200710155Y-70323000D01*
X200831476Y-70093110D01*
X200786825Y-69945901D01*
X200661641Y-69683080D01*
X200487588Y-69449731D01*
X200271355Y-69254822D01*
X200021252Y-69105843D01*
X199746891Y-69008519D01*
X199517000Y-69129186D01*
X199263000Y-69129186D01*
X199033109Y-69008519D01*
X198758748Y-69105843D01*
X198508645Y-69254822D01*
X198292412Y-69449731D01*
X198121584Y-69678756D01*
X198090706Y-69620986D01*
X197905134Y-69394866D01*
X197679014Y-69209294D01*
X197421034Y-69071401D01*
X197141111Y-68986487D01*
X196922950Y-68965000D01*
X196777050Y-68965000D01*
X196558889Y-68986487D01*
X196278966Y-69071401D01*
X196020986Y-69209294D01*
X195794866Y-69394866D01*
X195609294Y-69620986D01*
X195580000Y-69675791D01*
X195550706Y-69620986D01*
X195365134Y-69394866D01*
X195139014Y-69209294D01*
X194881034Y-69071401D01*
X194601111Y-68986487D01*
X194382950Y-68965000D01*
X194237050Y-68965000D01*
X194018889Y-68986487D01*
X193738966Y-69071401D01*
X193480986Y-69209294D01*
X193254866Y-69394866D01*
X193069294Y-69620986D01*
X193040000Y-69675791D01*
X193010706Y-69620986D01*
X192825134Y-69394866D01*
X192599014Y-69209294D01*
X192341034Y-69071401D01*
X192061111Y-68986487D01*
X191842950Y-68965000D01*
X191697050Y-68965000D01*
X191478889Y-68986487D01*
X191198966Y-69071401D01*
X190940986Y-69209294D01*
X190714866Y-69394866D01*
X190529294Y-69620986D01*
X190500000Y-69675791D01*
X190470706Y-69620986D01*
X190285134Y-69394866D01*
X190059014Y-69209294D01*
X189801034Y-69071401D01*
X189521111Y-68986487D01*
X189302950Y-68965000D01*
X189157050Y-68965000D01*
X188938889Y-68986487D01*
X188658966Y-69071401D01*
X188400986Y-69209294D01*
X188174866Y-69394866D01*
X187989294Y-69620986D01*
X187960000Y-69675791D01*
X187930706Y-69620986D01*
X187745134Y-69394866D01*
X187519014Y-69209294D01*
X187261034Y-69071401D01*
X186981111Y-68986487D01*
X186762950Y-68965000D01*
X186617050Y-68965000D01*
X186398889Y-68986487D01*
X186118966Y-69071401D01*
X185860986Y-69209294D01*
X185634866Y-69394866D01*
X185449294Y-69620986D01*
X185420000Y-69675791D01*
X185390706Y-69620986D01*
X185205134Y-69394866D01*
X184979014Y-69209294D01*
X184721034Y-69071401D01*
X184441111Y-68986487D01*
X184222950Y-68965000D01*
X184077050Y-68965000D01*
X183858889Y-68986487D01*
X183578966Y-69071401D01*
X183320986Y-69209294D01*
X183094866Y-69394866D01*
X182909294Y-69620986D01*
X182880000Y-69675791D01*
X182850706Y-69620986D01*
X182665134Y-69394866D01*
X182439014Y-69209294D01*
X182181034Y-69071401D01*
X181901111Y-68986487D01*
X181682950Y-68965000D01*
X181537050Y-68965000D01*
X181318889Y-68986487D01*
X181038966Y-69071401D01*
X180780986Y-69209294D01*
X180554866Y-69394866D01*
X180369294Y-69620986D01*
X180340000Y-69675791D01*
X180310706Y-69620986D01*
X180125134Y-69394866D01*
X179899014Y-69209294D01*
X179641034Y-69071401D01*
X179361111Y-68986487D01*
X179142950Y-68965000D01*
X178997050Y-68965000D01*
X178778889Y-68986487D01*
X178498966Y-69071401D01*
X178240986Y-69209294D01*
X178014866Y-69394866D01*
X177829294Y-69620986D01*
X177800000Y-69675791D01*
X177770706Y-69620986D01*
X177585134Y-69394866D01*
X177359014Y-69209294D01*
X177101034Y-69071401D01*
X176821111Y-68986487D01*
X176602950Y-68965000D01*
X176457050Y-68965000D01*
X176238889Y-68986487D01*
X175958966Y-69071401D01*
X175700986Y-69209294D01*
X175474866Y-69394866D01*
X175289294Y-69620986D01*
X175260000Y-69675791D01*
X175230706Y-69620986D01*
X175045134Y-69394866D01*
X174819014Y-69209294D01*
X174561034Y-69071401D01*
X174281111Y-68986487D01*
X174062950Y-68965000D01*
X173917050Y-68965000D01*
X173698889Y-68986487D01*
X173418966Y-69071401D01*
X173160986Y-69209294D01*
X172934866Y-69394866D01*
X172749294Y-69620986D01*
X172710646Y-69693291D01*
X172690706Y-69655986D01*
X172505134Y-69429866D01*
X172279014Y-69244294D01*
X172021034Y-69106401D01*
X171741111Y-69021487D01*
X171522950Y-69000000D01*
X171377050Y-69000000D01*
X171158889Y-69021487D01*
X170878966Y-69106401D01*
X170620986Y-69244294D01*
X170394866Y-69429866D01*
X170209294Y-69655986D01*
X170180000Y-69710791D01*
X170150706Y-69655986D01*
X169965134Y-69429866D01*
X169739014Y-69244294D01*
X169481034Y-69106401D01*
X169201111Y-69021487D01*
X168982950Y-69000000D01*
X168837050Y-69000000D01*
X168618889Y-69021487D01*
X168338966Y-69106401D01*
X168080986Y-69244294D01*
X167854866Y-69429866D01*
X167669294Y-69655986D01*
X167531401Y-69913966D01*
X167446487Y-70193889D01*
X167417815Y-70485000D01*
X163710000Y-70485000D01*
X163710000Y-63540000D01*
X218558057Y-63540000D01*
X218585764Y-63821309D01*
X218667818Y-64091808D01*
X218801068Y-64341101D01*
X218980392Y-64559608D01*
X219198899Y-64738932D01*
X219331858Y-64810000D01*
X219198899Y-64881068D01*
X218980392Y-65060392D01*
X218801068Y-65278899D01*
X218667818Y-65528192D01*
X218585764Y-65798691D01*
X218558057Y-66080000D01*
X218585764Y-66361309D01*
X218667818Y-66631808D01*
X218801068Y-66881101D01*
X218980392Y-67099608D01*
X219198899Y-67278932D01*
X219336682Y-67352579D01*
X219144869Y-67467615D01*
X218936481Y-67656586D01*
X218768963Y-67882580D01*
X218648754Y-68136913D01*
X218608096Y-68270961D01*
X218730085Y-68493000D01*
X219873000Y-68493000D01*
X219873000Y-68473000D01*
X220127000Y-68473000D01*
X220127000Y-68493000D01*
X221269915Y-68493000D01*
X221391904Y-68270961D01*
X221351246Y-68136913D01*
X221231037Y-67882580D01*
X221063519Y-67656586D01*
X220855131Y-67467615D01*
X220663318Y-67352579D01*
X220801101Y-67278932D01*
X221019608Y-67099608D01*
X221198932Y-66881101D01*
X221332182Y-66631808D01*
X221414236Y-66361309D01*
X221441943Y-66080000D01*
X221414236Y-65798691D01*
X221332182Y-65528192D01*
X221198932Y-65278899D01*
X221019608Y-65060392D01*
X220801101Y-64881068D01*
X220668142Y-64810000D01*
X220801101Y-64738932D01*
X221019608Y-64559608D01*
X221198932Y-64341101D01*
X221332182Y-64091808D01*
X221414236Y-63821309D01*
X221441943Y-63540000D01*
X221414236Y-63258691D01*
X221332182Y-62988192D01*
X221198932Y-62738899D01*
X221019608Y-62520392D01*
X220906518Y-62427581D01*
X220924482Y-62425812D01*
X221044180Y-62389502D01*
X221154494Y-62330537D01*
X221251185Y-62251185D01*
X221330537Y-62154494D01*
X221389502Y-62044180D01*
X221425812Y-61924482D01*
X221438072Y-61800000D01*
X221438072Y-61000000D01*
X233798057Y-61000000D01*
X233825764Y-61281309D01*
X233907818Y-61551808D01*
X234041068Y-61801101D01*
X234220392Y-62019608D01*
X234438899Y-62198932D01*
X234576682Y-62272579D01*
X234384869Y-62387615D01*
X234176481Y-62576586D01*
X234008963Y-62802580D01*
X233888754Y-63056913D01*
X233848096Y-63190961D01*
X233970085Y-63413000D01*
X235113000Y-63413000D01*
X235113000Y-63393000D01*
X235367000Y-63393000D01*
X235367000Y-63413000D01*
X236509915Y-63413000D01*
X236631904Y-63190961D01*
X236591246Y-63056913D01*
X236471037Y-62802580D01*
X236303519Y-62576586D01*
X236095131Y-62387615D01*
X235903318Y-62272579D01*
X236041101Y-62198932D01*
X236259608Y-62019608D01*
X236438932Y-61801101D01*
X236572182Y-61551808D01*
X236649052Y-61298397D01*
X256131208Y-61298397D01*
X256208843Y-61547472D01*
X256472883Y-61673371D01*
X256756411Y-61745339D01*
X257048531Y-61760611D01*
X257338019Y-61718599D01*
X257613747Y-61620919D01*
X257751157Y-61547472D01*
X257828792Y-61298397D01*
X256980000Y-60449605D01*
X256131208Y-61298397D01*
X236649052Y-61298397D01*
X236654236Y-61281309D01*
X236681943Y-61000000D01*
X236654236Y-60718691D01*
X236572182Y-60448192D01*
X236438932Y-60198899D01*
X236259608Y-59980392D01*
X236041101Y-59801068D01*
X235791808Y-59667818D01*
X235521309Y-59585764D01*
X235310492Y-59565000D01*
X235169508Y-59565000D01*
X234958691Y-59585764D01*
X234688192Y-59667818D01*
X234438899Y-59801068D01*
X234220392Y-59980392D01*
X234041068Y-60198899D01*
X233907818Y-60448192D01*
X233825764Y-60718691D01*
X233798057Y-61000000D01*
X221438072Y-61000000D01*
X221438072Y-60200000D01*
X221425812Y-60075518D01*
X221389502Y-59955820D01*
X221330537Y-59845506D01*
X221251185Y-59748815D01*
X221154494Y-59669463D01*
X221044180Y-59610498D01*
X220924482Y-59574188D01*
X220800000Y-59561928D01*
X219200000Y-59561928D01*
X219075518Y-59574188D01*
X218955820Y-59610498D01*
X218845506Y-59669463D01*
X218748815Y-59748815D01*
X218669463Y-59845506D01*
X218610498Y-59955820D01*
X218574188Y-60075518D01*
X218561928Y-60200000D01*
X218561928Y-61800000D01*
X218574188Y-61924482D01*
X218610498Y-62044180D01*
X218669463Y-62154494D01*
X218748815Y-62251185D01*
X218845506Y-62330537D01*
X218955820Y-62389502D01*
X219075518Y-62425812D01*
X219093482Y-62427581D01*
X218980392Y-62520392D01*
X218801068Y-62738899D01*
X218667818Y-62988192D01*
X218585764Y-63258691D01*
X218558057Y-63540000D01*
X163710000Y-63540000D01*
X163710000Y-60350000D01*
X166511928Y-60350000D01*
X166524188Y-60474482D01*
X166560498Y-60594180D01*
X166619463Y-60704494D01*
X166698815Y-60801185D01*
X166795506Y-60880537D01*
X166905820Y-60939502D01*
X167025518Y-60975812D01*
X167150000Y-60988072D01*
X167714250Y-60985000D01*
X167873000Y-60826250D01*
X167873000Y-59627000D01*
X166673750Y-59627000D01*
X166515000Y-59785750D01*
X166511928Y-60350000D01*
X163710000Y-60350000D01*
X163710000Y-58650000D01*
X166511928Y-58650000D01*
X166515000Y-59214250D01*
X166673750Y-59373000D01*
X167873000Y-59373000D01*
X167873000Y-58173750D01*
X168127000Y-58173750D01*
X168127000Y-59373000D01*
X168147000Y-59373000D01*
X168147000Y-59627000D01*
X168127000Y-59627000D01*
X168127000Y-60826250D01*
X168285750Y-60985000D01*
X168850000Y-60988072D01*
X168974482Y-60975812D01*
X169094180Y-60939502D01*
X169204494Y-60880537D01*
X169301185Y-60801185D01*
X169380537Y-60704494D01*
X169439502Y-60594180D01*
X169460393Y-60525313D01*
X169484866Y-60555134D01*
X169710986Y-60740706D01*
X169968966Y-60878599D01*
X170248889Y-60963513D01*
X170467050Y-60985000D01*
X170612950Y-60985000D01*
X170831111Y-60963513D01*
X171111034Y-60878599D01*
X171369014Y-60740706D01*
X171595134Y-60555134D01*
X171780706Y-60329014D01*
X171810000Y-60274209D01*
X171839294Y-60329014D01*
X172024866Y-60555134D01*
X172250986Y-60740706D01*
X172508966Y-60878599D01*
X172788889Y-60963513D01*
X173007050Y-60985000D01*
X173152950Y-60985000D01*
X173371111Y-60963513D01*
X173651034Y-60878599D01*
X173909014Y-60740706D01*
X174135134Y-60555134D01*
X174320706Y-60329014D01*
X174350000Y-60274209D01*
X174379294Y-60329014D01*
X174564866Y-60555134D01*
X174790986Y-60740706D01*
X175048966Y-60878599D01*
X175328889Y-60963513D01*
X175547050Y-60985000D01*
X175692950Y-60985000D01*
X175911111Y-60963513D01*
X176191034Y-60878599D01*
X176449014Y-60740706D01*
X176675134Y-60555134D01*
X176860706Y-60329014D01*
X176890000Y-60274209D01*
X176919294Y-60329014D01*
X177104866Y-60555134D01*
X177330986Y-60740706D01*
X177588966Y-60878599D01*
X177868889Y-60963513D01*
X178087050Y-60985000D01*
X178232950Y-60985000D01*
X178451111Y-60963513D01*
X178731034Y-60878599D01*
X178989014Y-60740706D01*
X179215134Y-60555134D01*
X179400706Y-60329014D01*
X179430000Y-60274209D01*
X179459294Y-60329014D01*
X179644866Y-60555134D01*
X179870986Y-60740706D01*
X180128966Y-60878599D01*
X180408889Y-60963513D01*
X180627050Y-60985000D01*
X180772950Y-60985000D01*
X180991111Y-60963513D01*
X181271034Y-60878599D01*
X181529014Y-60740706D01*
X181755134Y-60555134D01*
X181940706Y-60329014D01*
X182078599Y-60071034D01*
X182143558Y-59856891D01*
X184518519Y-59856891D01*
X184615843Y-60131252D01*
X184764822Y-60381355D01*
X184959731Y-60597588D01*
X185193080Y-60771641D01*
X185455901Y-60896825D01*
X185603110Y-60941476D01*
X185833000Y-60820155D01*
X185833000Y-59627000D01*
X184639186Y-59627000D01*
X184518519Y-59856891D01*
X182143558Y-59856891D01*
X182163513Y-59791111D01*
X182192185Y-59500000D01*
X182163513Y-59208889D01*
X182143559Y-59143109D01*
X184518519Y-59143109D01*
X184639186Y-59373000D01*
X185833000Y-59373000D01*
X185833000Y-58179845D01*
X186087000Y-58179845D01*
X186087000Y-59373000D01*
X186107000Y-59373000D01*
X186107000Y-59627000D01*
X186087000Y-59627000D01*
X186087000Y-60820155D01*
X186316890Y-60941476D01*
X186464099Y-60896825D01*
X186726920Y-60771641D01*
X186960269Y-60597588D01*
X187155178Y-60381355D01*
X187224799Y-60264477D01*
X187259294Y-60329014D01*
X187444866Y-60555134D01*
X187670986Y-60740706D01*
X187928966Y-60878599D01*
X188208889Y-60963513D01*
X188427050Y-60985000D01*
X188572950Y-60985000D01*
X188791111Y-60963513D01*
X189071034Y-60878599D01*
X189329014Y-60740706D01*
X189555134Y-60555134D01*
X189740706Y-60329014D01*
X189770000Y-60274209D01*
X189799294Y-60329014D01*
X189984866Y-60555134D01*
X190210986Y-60740706D01*
X190468966Y-60878599D01*
X190748889Y-60963513D01*
X190967050Y-60985000D01*
X191112950Y-60985000D01*
X191331111Y-60963513D01*
X191611034Y-60878599D01*
X191869014Y-60740706D01*
X192095134Y-60555134D01*
X192280706Y-60329014D01*
X192310000Y-60274209D01*
X192339294Y-60329014D01*
X192524866Y-60555134D01*
X192750986Y-60740706D01*
X193008966Y-60878599D01*
X193288889Y-60963513D01*
X193507050Y-60985000D01*
X193652950Y-60985000D01*
X193871111Y-60963513D01*
X194151034Y-60878599D01*
X194409014Y-60740706D01*
X194635134Y-60555134D01*
X194820706Y-60329014D01*
X194850000Y-60274209D01*
X194879294Y-60329014D01*
X195064866Y-60555134D01*
X195290986Y-60740706D01*
X195548966Y-60878599D01*
X195828889Y-60963513D01*
X196047050Y-60985000D01*
X196192950Y-60985000D01*
X196411111Y-60963513D01*
X196691034Y-60878599D01*
X196949014Y-60740706D01*
X197175134Y-60555134D01*
X197360706Y-60329014D01*
X197390000Y-60274209D01*
X197419294Y-60329014D01*
X197604866Y-60555134D01*
X197830986Y-60740706D01*
X198088966Y-60878599D01*
X198368889Y-60963513D01*
X198587050Y-60985000D01*
X198732950Y-60985000D01*
X198951111Y-60963513D01*
X199231034Y-60878599D01*
X199489014Y-60740706D01*
X199715134Y-60555134D01*
X199739607Y-60525313D01*
X199760498Y-60594180D01*
X199819463Y-60704494D01*
X199898815Y-60801185D01*
X199995506Y-60880537D01*
X200105820Y-60939502D01*
X200225518Y-60975812D01*
X200350000Y-60988072D01*
X202050000Y-60988072D01*
X202174482Y-60975812D01*
X202294180Y-60939502D01*
X202404494Y-60880537D01*
X202501185Y-60801185D01*
X202580537Y-60704494D01*
X202639502Y-60594180D01*
X202675812Y-60474482D01*
X202688072Y-60350000D01*
X202688072Y-59356891D01*
X239798519Y-59356891D01*
X239895843Y-59631252D01*
X240044822Y-59881355D01*
X240239731Y-60097588D01*
X240473080Y-60271641D01*
X240735901Y-60396825D01*
X240883110Y-60441476D01*
X241113000Y-60320155D01*
X241113000Y-59127000D01*
X239919186Y-59127000D01*
X239798519Y-59356891D01*
X202688072Y-59356891D01*
X202688072Y-58650000D01*
X202687394Y-58643109D01*
X239798519Y-58643109D01*
X239919186Y-58873000D01*
X241113000Y-58873000D01*
X241113000Y-57679845D01*
X241367000Y-57679845D01*
X241367000Y-58873000D01*
X241387000Y-58873000D01*
X241387000Y-59127000D01*
X241367000Y-59127000D01*
X241367000Y-60320155D01*
X241596890Y-60441476D01*
X241744099Y-60396825D01*
X242006920Y-60271641D01*
X242240269Y-60097588D01*
X242435178Y-59881355D01*
X242504799Y-59764477D01*
X242539294Y-59829014D01*
X242724866Y-60055134D01*
X242950986Y-60240706D01*
X243208966Y-60378599D01*
X243488889Y-60463513D01*
X243707050Y-60485000D01*
X243852950Y-60485000D01*
X244071111Y-60463513D01*
X244351034Y-60378599D01*
X244609014Y-60240706D01*
X244835134Y-60055134D01*
X245020706Y-59829014D01*
X245050000Y-59774209D01*
X245079294Y-59829014D01*
X245264866Y-60055134D01*
X245490986Y-60240706D01*
X245748966Y-60378599D01*
X246028889Y-60463513D01*
X246247050Y-60485000D01*
X246392950Y-60485000D01*
X246611111Y-60463513D01*
X246891034Y-60378599D01*
X247149014Y-60240706D01*
X247375134Y-60055134D01*
X247560706Y-59829014D01*
X247590000Y-59774209D01*
X247619294Y-59829014D01*
X247804866Y-60055134D01*
X248030986Y-60240706D01*
X248288966Y-60378599D01*
X248568889Y-60463513D01*
X248787050Y-60485000D01*
X248932950Y-60485000D01*
X249151111Y-60463513D01*
X249431034Y-60378599D01*
X249689014Y-60240706D01*
X249915134Y-60055134D01*
X249939607Y-60025313D01*
X249960498Y-60094180D01*
X250019463Y-60204494D01*
X250098815Y-60301185D01*
X250195506Y-60380537D01*
X250305820Y-60439502D01*
X250425518Y-60475812D01*
X250550000Y-60488072D01*
X252250000Y-60488072D01*
X252374482Y-60475812D01*
X252494180Y-60439502D01*
X252604494Y-60380537D01*
X252655678Y-60338531D01*
X255489389Y-60338531D01*
X255531401Y-60628019D01*
X255629081Y-60903747D01*
X255702528Y-61041157D01*
X255951603Y-61118792D01*
X256800395Y-60270000D01*
X255951603Y-59421208D01*
X255702528Y-59498843D01*
X255576629Y-59762883D01*
X255504661Y-60046411D01*
X255489389Y-60338531D01*
X252655678Y-60338531D01*
X252701185Y-60301185D01*
X252780537Y-60204494D01*
X252839502Y-60094180D01*
X252875812Y-59974482D01*
X252888072Y-59850000D01*
X252888072Y-58150000D01*
X252875812Y-58025518D01*
X252839502Y-57905820D01*
X252780537Y-57795506D01*
X252701185Y-57698815D01*
X252604494Y-57619463D01*
X252537663Y-57583740D01*
X255495000Y-57583740D01*
X255495000Y-57876260D01*
X255552068Y-58163158D01*
X255664010Y-58433411D01*
X255826525Y-58676632D01*
X256033368Y-58883475D01*
X256206729Y-58999311D01*
X256131208Y-59241603D01*
X256980000Y-60090395D01*
X257828792Y-59241603D01*
X257753271Y-58999311D01*
X257926632Y-58883475D01*
X258133475Y-58676632D01*
X258250000Y-58502240D01*
X258366525Y-58676632D01*
X258573368Y-58883475D01*
X258747760Y-59000000D01*
X258573368Y-59116525D01*
X258366525Y-59323368D01*
X258250689Y-59496729D01*
X258008397Y-59421208D01*
X257159605Y-60270000D01*
X258008397Y-61118792D01*
X258250689Y-61043271D01*
X258366525Y-61216632D01*
X258573368Y-61423475D01*
X258816589Y-61585990D01*
X259086842Y-61697932D01*
X259373740Y-61755000D01*
X259666260Y-61755000D01*
X259953158Y-61697932D01*
X260223411Y-61585990D01*
X260466632Y-61423475D01*
X260673475Y-61216632D01*
X260835990Y-60973411D01*
X260947932Y-60703158D01*
X261005000Y-60416260D01*
X261005000Y-60123740D01*
X260947932Y-59836842D01*
X260835990Y-59566589D01*
X260673475Y-59323368D01*
X260466632Y-59116525D01*
X260292240Y-59000000D01*
X260466632Y-58883475D01*
X260673475Y-58676632D01*
X260835990Y-58433411D01*
X260947932Y-58163158D01*
X261005000Y-57876260D01*
X261005000Y-57583740D01*
X260947932Y-57296842D01*
X260835990Y-57026589D01*
X260673475Y-56783368D01*
X260466632Y-56576525D01*
X260223411Y-56414010D01*
X259953158Y-56302068D01*
X259666260Y-56245000D01*
X259373740Y-56245000D01*
X259086842Y-56302068D01*
X258816589Y-56414010D01*
X258573368Y-56576525D01*
X258366525Y-56783368D01*
X258250000Y-56957760D01*
X258133475Y-56783368D01*
X257926632Y-56576525D01*
X257683411Y-56414010D01*
X257413158Y-56302068D01*
X257126260Y-56245000D01*
X256833740Y-56245000D01*
X256546842Y-56302068D01*
X256276589Y-56414010D01*
X256033368Y-56576525D01*
X255826525Y-56783368D01*
X255664010Y-57026589D01*
X255552068Y-57296842D01*
X255495000Y-57583740D01*
X252537663Y-57583740D01*
X252494180Y-57560498D01*
X252374482Y-57524188D01*
X252250000Y-57511928D01*
X250550000Y-57511928D01*
X250425518Y-57524188D01*
X250305820Y-57560498D01*
X250195506Y-57619463D01*
X250098815Y-57698815D01*
X250019463Y-57795506D01*
X249960498Y-57905820D01*
X249939607Y-57974687D01*
X249915134Y-57944866D01*
X249689014Y-57759294D01*
X249431034Y-57621401D01*
X249151111Y-57536487D01*
X248932950Y-57515000D01*
X248787050Y-57515000D01*
X248568889Y-57536487D01*
X248288966Y-57621401D01*
X248030986Y-57759294D01*
X247804866Y-57944866D01*
X247619294Y-58170986D01*
X247590000Y-58225791D01*
X247560706Y-58170986D01*
X247375134Y-57944866D01*
X247149014Y-57759294D01*
X246891034Y-57621401D01*
X246611111Y-57536487D01*
X246392950Y-57515000D01*
X246247050Y-57515000D01*
X246028889Y-57536487D01*
X245748966Y-57621401D01*
X245490986Y-57759294D01*
X245264866Y-57944866D01*
X245079294Y-58170986D01*
X245050000Y-58225791D01*
X245020706Y-58170986D01*
X244835134Y-57944866D01*
X244609014Y-57759294D01*
X244351034Y-57621401D01*
X244071111Y-57536487D01*
X243852950Y-57515000D01*
X243707050Y-57515000D01*
X243488889Y-57536487D01*
X243208966Y-57621401D01*
X242950986Y-57759294D01*
X242724866Y-57944866D01*
X242539294Y-58170986D01*
X242504799Y-58235523D01*
X242435178Y-58118645D01*
X242240269Y-57902412D01*
X242006920Y-57728359D01*
X241744099Y-57603175D01*
X241596890Y-57558524D01*
X241367000Y-57679845D01*
X241113000Y-57679845D01*
X240883110Y-57558524D01*
X240735901Y-57603175D01*
X240473080Y-57728359D01*
X240239731Y-57902412D01*
X240044822Y-58118645D01*
X239895843Y-58368748D01*
X239798519Y-58643109D01*
X202687394Y-58643109D01*
X202675812Y-58525518D01*
X202639502Y-58405820D01*
X202580537Y-58295506D01*
X202501185Y-58198815D01*
X202404494Y-58119463D01*
X202294180Y-58060498D01*
X202174482Y-58024188D01*
X202050000Y-58011928D01*
X200350000Y-58011928D01*
X200225518Y-58024188D01*
X200105820Y-58060498D01*
X199995506Y-58119463D01*
X199898815Y-58198815D01*
X199819463Y-58295506D01*
X199760498Y-58405820D01*
X199739607Y-58474687D01*
X199715134Y-58444866D01*
X199489014Y-58259294D01*
X199231034Y-58121401D01*
X198951111Y-58036487D01*
X198732950Y-58015000D01*
X198587050Y-58015000D01*
X198368889Y-58036487D01*
X198088966Y-58121401D01*
X197830986Y-58259294D01*
X197604866Y-58444866D01*
X197419294Y-58670986D01*
X197390000Y-58725791D01*
X197360706Y-58670986D01*
X197175134Y-58444866D01*
X196949014Y-58259294D01*
X196691034Y-58121401D01*
X196411111Y-58036487D01*
X196192950Y-58015000D01*
X196047050Y-58015000D01*
X195828889Y-58036487D01*
X195548966Y-58121401D01*
X195290986Y-58259294D01*
X195064866Y-58444866D01*
X194879294Y-58670986D01*
X194850000Y-58725791D01*
X194820706Y-58670986D01*
X194635134Y-58444866D01*
X194409014Y-58259294D01*
X194151034Y-58121401D01*
X193871111Y-58036487D01*
X193652950Y-58015000D01*
X193507050Y-58015000D01*
X193288889Y-58036487D01*
X193008966Y-58121401D01*
X192750986Y-58259294D01*
X192524866Y-58444866D01*
X192339294Y-58670986D01*
X192310000Y-58725791D01*
X192280706Y-58670986D01*
X192095134Y-58444866D01*
X191869014Y-58259294D01*
X191611034Y-58121401D01*
X191331111Y-58036487D01*
X191112950Y-58015000D01*
X190967050Y-58015000D01*
X190748889Y-58036487D01*
X190468966Y-58121401D01*
X190210986Y-58259294D01*
X189984866Y-58444866D01*
X189799294Y-58670986D01*
X189770000Y-58725791D01*
X189740706Y-58670986D01*
X189555134Y-58444866D01*
X189329014Y-58259294D01*
X189071034Y-58121401D01*
X188791111Y-58036487D01*
X188572950Y-58015000D01*
X188427050Y-58015000D01*
X188208889Y-58036487D01*
X187928966Y-58121401D01*
X187670986Y-58259294D01*
X187444866Y-58444866D01*
X187259294Y-58670986D01*
X187224799Y-58735523D01*
X187155178Y-58618645D01*
X186960269Y-58402412D01*
X186726920Y-58228359D01*
X186464099Y-58103175D01*
X186316890Y-58058524D01*
X186087000Y-58179845D01*
X185833000Y-58179845D01*
X185603110Y-58058524D01*
X185455901Y-58103175D01*
X185193080Y-58228359D01*
X184959731Y-58402412D01*
X184764822Y-58618645D01*
X184615843Y-58868748D01*
X184518519Y-59143109D01*
X182143559Y-59143109D01*
X182078599Y-58928966D01*
X181940706Y-58670986D01*
X181755134Y-58444866D01*
X181529014Y-58259294D01*
X181271034Y-58121401D01*
X180991111Y-58036487D01*
X180772950Y-58015000D01*
X180627050Y-58015000D01*
X180408889Y-58036487D01*
X180128966Y-58121401D01*
X179870986Y-58259294D01*
X179644866Y-58444866D01*
X179459294Y-58670986D01*
X179430000Y-58725791D01*
X179400706Y-58670986D01*
X179215134Y-58444866D01*
X178989014Y-58259294D01*
X178731034Y-58121401D01*
X178451111Y-58036487D01*
X178232950Y-58015000D01*
X178087050Y-58015000D01*
X177868889Y-58036487D01*
X177588966Y-58121401D01*
X177330986Y-58259294D01*
X177104866Y-58444866D01*
X176919294Y-58670986D01*
X176890000Y-58725791D01*
X176860706Y-58670986D01*
X176675134Y-58444866D01*
X176449014Y-58259294D01*
X176191034Y-58121401D01*
X175911111Y-58036487D01*
X175692950Y-58015000D01*
X175547050Y-58015000D01*
X175328889Y-58036487D01*
X175048966Y-58121401D01*
X174790986Y-58259294D01*
X174564866Y-58444866D01*
X174379294Y-58670986D01*
X174350000Y-58725791D01*
X174320706Y-58670986D01*
X174135134Y-58444866D01*
X173909014Y-58259294D01*
X173651034Y-58121401D01*
X173371111Y-58036487D01*
X173152950Y-58015000D01*
X173007050Y-58015000D01*
X172788889Y-58036487D01*
X172508966Y-58121401D01*
X172250986Y-58259294D01*
X172024866Y-58444866D01*
X171839294Y-58670986D01*
X171810000Y-58725791D01*
X171780706Y-58670986D01*
X171595134Y-58444866D01*
X171369014Y-58259294D01*
X171111034Y-58121401D01*
X170831111Y-58036487D01*
X170612950Y-58015000D01*
X170467050Y-58015000D01*
X170248889Y-58036487D01*
X169968966Y-58121401D01*
X169710986Y-58259294D01*
X169484866Y-58444866D01*
X169460393Y-58474687D01*
X169439502Y-58405820D01*
X169380537Y-58295506D01*
X169301185Y-58198815D01*
X169204494Y-58119463D01*
X169094180Y-58060498D01*
X168974482Y-58024188D01*
X168850000Y-58011928D01*
X168285750Y-58015000D01*
X168127000Y-58173750D01*
X167873000Y-58173750D01*
X167714250Y-58015000D01*
X167150000Y-58011928D01*
X167025518Y-58024188D01*
X166905820Y-58060498D01*
X166795506Y-58119463D01*
X166698815Y-58198815D01*
X166619463Y-58295506D01*
X166560498Y-58405820D01*
X166524188Y-58525518D01*
X166511928Y-58650000D01*
X163710000Y-58650000D01*
X163710000Y-58034721D01*
X163756953Y-57555866D01*
X163885938Y-57128645D01*
X164095446Y-56734616D01*
X164377499Y-56388786D01*
X164721351Y-56104327D01*
X165113910Y-55892071D01*
X165540213Y-55760108D01*
X166016964Y-55710000D01*
X259965279Y-55710000D01*
X260444134Y-55756953D01*
X260444134Y-55756953D01*
G37*
X260444134Y-55756953D02*
X260871355Y-55885938D01*
X261265384Y-56095446D01*
X261611214Y-56377499D01*
X261895673Y-56721351D01*
X262107929Y-57113910D01*
X262239892Y-57540213D01*
X262290000Y-58016964D01*
X262290001Y-99965269D01*
X262243048Y-100444133D01*
X262114063Y-100871353D01*
X261904554Y-101265384D01*
X261622501Y-101611214D01*
X261278651Y-101895672D01*
X260886093Y-102107927D01*
X260459788Y-102239891D01*
X259983036Y-102290000D01*
X166034721Y-102290000D01*
X165555867Y-102243048D01*
X165128647Y-102114063D01*
X164734616Y-101904554D01*
X164388786Y-101622501D01*
X164104328Y-101278651D01*
X163892073Y-100886093D01*
X163760109Y-100459788D01*
X163710000Y-99983036D01*
X163710000Y-98338967D01*
X165365000Y-98338967D01*
X165365000Y-98661033D01*
X165427832Y-98976912D01*
X165551082Y-99274463D01*
X165730013Y-99542252D01*
X165957748Y-99769987D01*
X166225537Y-99948918D01*
X166523088Y-100072168D01*
X166838967Y-100135000D01*
X167161033Y-100135000D01*
X167476912Y-100072168D01*
X167774463Y-99948918D01*
X168042252Y-99769987D01*
X168269987Y-99542252D01*
X168448918Y-99274463D01*
X168572168Y-98976912D01*
X168635000Y-98661033D01*
X168635000Y-98338967D01*
X171865000Y-98338967D01*
X171865000Y-98661033D01*
X171927832Y-98976912D01*
X172051082Y-99274463D01*
X172230013Y-99542252D01*
X172457748Y-99769987D01*
X172725537Y-99948918D01*
X173023088Y-100072168D01*
X173338967Y-100135000D01*
X173661033Y-100135000D01*
X173976912Y-100072168D01*
X174274463Y-99948918D01*
X174542252Y-99769987D01*
X174769987Y-99542252D01*
X174948918Y-99274463D01*
X175072168Y-98976912D01*
X175135000Y-98661033D01*
X175135000Y-98338967D01*
X175072168Y-98023088D01*
X174948918Y-97725537D01*
X174918406Y-97679872D01*
X186265000Y-97679872D01*
X186265000Y-98120128D01*
X186350890Y-98551925D01*
X186519369Y-98958669D01*
X186763962Y-99324729D01*
X187075271Y-99636038D01*
X187441331Y-99880631D01*
X187848075Y-100049110D01*
X188279872Y-100135000D01*
X188720128Y-100135000D01*
X189151925Y-100049110D01*
X189558669Y-99880631D01*
X189924729Y-99636038D01*
X190236038Y-99324729D01*
X190480631Y-98958669D01*
X190649110Y-98551925D01*
X190726589Y-98162408D01*
X202503000Y-98162408D01*
X202503000Y-98437592D01*
X202556686Y-98707490D01*
X202661995Y-98961727D01*
X202814880Y-99190535D01*
X203009465Y-99385120D01*
X203238273Y-99538005D01*
X203492510Y-99643314D01*
X203762408Y-99697000D01*
X204037592Y-99697000D01*
X204307490Y-99643314D01*
X204561727Y-99538005D01*
X204790535Y-99385120D01*
X204985120Y-99190535D01*
X205138005Y-98961727D01*
X205243314Y-98707490D01*
X205297000Y-98437592D01*
X205297000Y-98162408D01*
X205243314Y-97892510D01*
X205138005Y-97638273D01*
X204985120Y-97409465D01*
X204790535Y-97214880D01*
X204561727Y-97061995D01*
X204307490Y-96956686D01*
X204037592Y-96903000D01*
X203762408Y-96903000D01*
X203492510Y-96956686D01*
X203238273Y-97061995D01*
X203009465Y-97214880D01*
X202814880Y-97409465D01*
X202661995Y-97638273D01*
X202556686Y-97892510D01*
X202503000Y-98162408D01*
X190726589Y-98162408D01*
X190735000Y-98120128D01*
X190735000Y-97679872D01*
X190649110Y-97248075D01*
X190480631Y-96841331D01*
X190236038Y-96475271D01*
X189924729Y-96163962D01*
X189558669Y-95919369D01*
X189151925Y-95750890D01*
X188720128Y-95665000D01*
X188279872Y-95665000D01*
X187848075Y-95750890D01*
X187441331Y-95919369D01*
X187075271Y-96163962D01*
X186763962Y-96475271D01*
X186519369Y-96841331D01*
X186350890Y-97248075D01*
X186265000Y-97679872D01*
X174918406Y-97679872D01*
X174769987Y-97457748D01*
X174542252Y-97230013D01*
X174274463Y-97051082D01*
X173976912Y-96927832D01*
X173661033Y-96865000D01*
X173338967Y-96865000D01*
X173023088Y-96927832D01*
X172725537Y-97051082D01*
X172457748Y-97230013D01*
X172230013Y-97457748D01*
X172051082Y-97725537D01*
X171927832Y-98023088D01*
X171865000Y-98338967D01*
X168635000Y-98338967D01*
X168572168Y-98023088D01*
X168448918Y-97725537D01*
X168269987Y-97457748D01*
X168042252Y-97230013D01*
X167774463Y-97051082D01*
X167476912Y-96927832D01*
X167161033Y-96865000D01*
X166838967Y-96865000D01*
X166523088Y-96927832D01*
X166225537Y-97051082D01*
X165957748Y-97230013D01*
X165730013Y-97457748D01*
X165551082Y-97725537D01*
X165427832Y-98023088D01*
X165365000Y-98338967D01*
X163710000Y-98338967D01*
X163710000Y-93838967D01*
X165365000Y-93838967D01*
X165365000Y-94161033D01*
X165427832Y-94476912D01*
X165551082Y-94774463D01*
X165730013Y-95042252D01*
X165957748Y-95269987D01*
X166225537Y-95448918D01*
X166523088Y-95572168D01*
X166838967Y-95635000D01*
X167161033Y-95635000D01*
X167476912Y-95572168D01*
X167774463Y-95448918D01*
X168042252Y-95269987D01*
X168269987Y-95042252D01*
X168448918Y-94774463D01*
X168572168Y-94476912D01*
X168635000Y-94161033D01*
X168635000Y-93838967D01*
X171865000Y-93838967D01*
X171865000Y-94161033D01*
X171927832Y-94476912D01*
X172051082Y-94774463D01*
X172230013Y-95042252D01*
X172457748Y-95269987D01*
X172725537Y-95448918D01*
X173023088Y-95572168D01*
X173338967Y-95635000D01*
X173661033Y-95635000D01*
X173976912Y-95572168D01*
X174274463Y-95448918D01*
X174542252Y-95269987D01*
X174769987Y-95042252D01*
X174948918Y-94774463D01*
X175005042Y-94638967D01*
X179865000Y-94638967D01*
X179865000Y-94961033D01*
X179927832Y-95276912D01*
X180051082Y-95574463D01*
X180230013Y-95842252D01*
X180457748Y-96069987D01*
X180725537Y-96248918D01*
X181023088Y-96372168D01*
X181338967Y-96435000D01*
X181661033Y-96435000D01*
X181976912Y-96372168D01*
X182274463Y-96248918D01*
X182542252Y-96069987D01*
X182769987Y-95842252D01*
X182948918Y-95574463D01*
X183072168Y-95276912D01*
X183135000Y-94961033D01*
X183135000Y-94638967D01*
X183072168Y-94323088D01*
X182948918Y-94025537D01*
X182769987Y-93757748D01*
X182542252Y-93530013D01*
X182274463Y-93351082D01*
X181976912Y-93227832D01*
X181661033Y-93165000D01*
X181338967Y-93165000D01*
X181023088Y-93227832D01*
X180725537Y-93351082D01*
X180457748Y-93530013D01*
X180230013Y-93757748D01*
X180051082Y-94025537D01*
X179927832Y-94323088D01*
X179865000Y-94638967D01*
X175005042Y-94638967D01*
X175072168Y-94476912D01*
X175135000Y-94161033D01*
X175135000Y-93838967D01*
X175072168Y-93523088D01*
X174948918Y-93225537D01*
X174769987Y-92957748D01*
X174542252Y-92730013D01*
X174274463Y-92551082D01*
X173976912Y-92427832D01*
X173661033Y-92365000D01*
X173338967Y-92365000D01*
X173023088Y-92427832D01*
X172725537Y-92551082D01*
X172457748Y-92730013D01*
X172230013Y-92957748D01*
X172051082Y-93225537D01*
X171927832Y-93523088D01*
X171865000Y-93838967D01*
X168635000Y-93838967D01*
X168572168Y-93523088D01*
X168448918Y-93225537D01*
X168269987Y-92957748D01*
X168042252Y-92730013D01*
X167774463Y-92551082D01*
X167476912Y-92427832D01*
X167161033Y-92365000D01*
X166838967Y-92365000D01*
X166523088Y-92427832D01*
X166225537Y-92551082D01*
X165957748Y-92730013D01*
X165730013Y-92957748D01*
X165551082Y-93225537D01*
X165427832Y-93523088D01*
X165365000Y-93838967D01*
X163710000Y-93838967D01*
X163710000Y-92362595D01*
X194358282Y-92362595D01*
X194402039Y-92681675D01*
X194507205Y-92986088D01*
X194600186Y-93160044D01*
X194749223Y-93214024D01*
X194645506Y-93269463D01*
X194548815Y-93348815D01*
X194469463Y-93445506D01*
X194410498Y-93555820D01*
X194374188Y-93675518D01*
X194361928Y-93800000D01*
X194361928Y-95800000D01*
X194374188Y-95924482D01*
X194410498Y-96044180D01*
X194469463Y-96154494D01*
X194548815Y-96251185D01*
X194645506Y-96330537D01*
X194755820Y-96389502D01*
X194875518Y-96425812D01*
X195000000Y-96438072D01*
X197000000Y-96438072D01*
X197124482Y-96425812D01*
X197244180Y-96389502D01*
X197354494Y-96330537D01*
X197451185Y-96251185D01*
X197530537Y-96154494D01*
X197589502Y-96044180D01*
X197625812Y-95924482D01*
X197638072Y-95800000D01*
X197638072Y-95662408D01*
X205003000Y-95662408D01*
X205003000Y-95937592D01*
X205056686Y-96207490D01*
X205161995Y-96461727D01*
X205314880Y-96690535D01*
X205509465Y-96885120D01*
X205738273Y-97038005D01*
X205992510Y-97143314D01*
X206262408Y-97197000D01*
X206537592Y-97197000D01*
X206807490Y-97143314D01*
X207061727Y-97038005D01*
X207290535Y-96885120D01*
X207485120Y-96690535D01*
X207638005Y-96461727D01*
X207650000Y-96432769D01*
X207661995Y-96461727D01*
X207814880Y-96690535D01*
X208009465Y-96885120D01*
X208238273Y-97038005D01*
X208492510Y-97143314D01*
X208762408Y-97197000D01*
X209037592Y-97197000D01*
X209307490Y-97143314D01*
X209561727Y-97038005D01*
X209790535Y-96885120D01*
X209985120Y-96690535D01*
X210138005Y-96461727D01*
X210243314Y-96207490D01*
X210297000Y-95937592D01*
X210297000Y-95662408D01*
X210243314Y-95392510D01*
X210138005Y-95138273D01*
X209985120Y-94909465D01*
X209790535Y-94714880D01*
X209561727Y-94561995D01*
X209307490Y-94456686D01*
X209037592Y-94403000D01*
X208762408Y-94403000D01*
X208492510Y-94456686D01*
X208238273Y-94561995D01*
X208009465Y-94714880D01*
X207814880Y-94909465D01*
X207661995Y-95138273D01*
X207650000Y-95167231D01*
X207638005Y-95138273D01*
X207485120Y-94909465D01*
X207290535Y-94714880D01*
X207061727Y-94561995D01*
X206807490Y-94456686D01*
X206537592Y-94403000D01*
X206262408Y-94403000D01*
X205992510Y-94456686D01*
X205738273Y-94561995D01*
X205509465Y-94714880D01*
X205314880Y-94909465D01*
X205161995Y-95138273D01*
X205056686Y-95392510D01*
X205003000Y-95662408D01*
X197638072Y-95662408D01*
X197638072Y-94265565D01*
X203114040Y-94265565D01*
X203181020Y-94505656D01*
X203430048Y-94622756D01*
X203697135Y-94689023D01*
X203972017Y-94701910D01*
X204244133Y-94660922D01*
X204503023Y-94567636D01*
X204618980Y-94505656D01*
X204685960Y-94265565D01*
X203900000Y-93479605D01*
X203114040Y-94265565D01*
X197638072Y-94265565D01*
X197638072Y-93800000D01*
X197625812Y-93675518D01*
X197589502Y-93555820D01*
X197530537Y-93445506D01*
X197470227Y-93372017D01*
X202498090Y-93372017D01*
X202539078Y-93644133D01*
X202632364Y-93903023D01*
X202694344Y-94018980D01*
X202934435Y-94085960D01*
X203720395Y-93300000D01*
X204079605Y-93300000D01*
X204865565Y-94085960D01*
X205105656Y-94018980D01*
X205222756Y-93769952D01*
X205289023Y-93502865D01*
X205301910Y-93227983D01*
X205260922Y-92955867D01*
X205167636Y-92696977D01*
X205105656Y-92581020D01*
X204865565Y-92514040D01*
X204079605Y-93300000D01*
X203720395Y-93300000D01*
X202934435Y-92514040D01*
X202694344Y-92581020D01*
X202577244Y-92830048D01*
X202510977Y-93097135D01*
X202498090Y-93372017D01*
X197470227Y-93372017D01*
X197451185Y-93348815D01*
X197354494Y-93269463D01*
X197250777Y-93214024D01*
X197399814Y-93160044D01*
X197540704Y-92870429D01*
X197622384Y-92558892D01*
X197635882Y-92334435D01*
X203114040Y-92334435D01*
X203900000Y-93120395D01*
X204685960Y-92334435D01*
X204618980Y-92094344D01*
X204369952Y-91977244D01*
X204102865Y-91910977D01*
X203827983Y-91898090D01*
X203555867Y-91939078D01*
X203296977Y-92032364D01*
X203181020Y-92094344D01*
X203114040Y-92334435D01*
X197635882Y-92334435D01*
X197641718Y-92237405D01*
X197597961Y-91918325D01*
X197492795Y-91613912D01*
X197399814Y-91439956D01*
X197135413Y-91344192D01*
X196179605Y-92300000D01*
X196193748Y-92314143D01*
X196014143Y-92493748D01*
X196000000Y-92479605D01*
X195985858Y-92493748D01*
X195806253Y-92314143D01*
X195820395Y-92300000D01*
X194864587Y-91344192D01*
X194600186Y-91439956D01*
X194459296Y-91729571D01*
X194377616Y-92041108D01*
X194358282Y-92362595D01*
X163710000Y-92362595D01*
X163710000Y-89638967D01*
X179865000Y-89638967D01*
X179865000Y-89961033D01*
X179927832Y-90276912D01*
X180051082Y-90574463D01*
X180230013Y-90842252D01*
X180457748Y-91069987D01*
X180725537Y-91248918D01*
X181023088Y-91372168D01*
X181338967Y-91435000D01*
X181661033Y-91435000D01*
X181976912Y-91372168D01*
X182274463Y-91248918D01*
X182542252Y-91069987D01*
X182769987Y-90842252D01*
X182948918Y-90574463D01*
X183072168Y-90276912D01*
X183135000Y-89961033D01*
X183135000Y-89638967D01*
X194365000Y-89638967D01*
X194365000Y-89961033D01*
X194427832Y-90276912D01*
X194551082Y-90574463D01*
X194730013Y-90842252D01*
X194957748Y-91069987D01*
X195054935Y-91134925D01*
X195044192Y-91164587D01*
X196000000Y-92120395D01*
X196955808Y-91164587D01*
X196945065Y-91134925D01*
X197042252Y-91069987D01*
X197269987Y-90842252D01*
X197448918Y-90574463D01*
X197572168Y-90276912D01*
X197635000Y-89961033D01*
X197635000Y-89638967D01*
X197572168Y-89323088D01*
X197448918Y-89025537D01*
X197269987Y-88757748D01*
X197042252Y-88530013D01*
X196774463Y-88351082D01*
X196476912Y-88227832D01*
X196161033Y-88165000D01*
X195838967Y-88165000D01*
X195523088Y-88227832D01*
X195225537Y-88351082D01*
X194957748Y-88530013D01*
X194730013Y-88757748D01*
X194551082Y-89025537D01*
X194427832Y-89323088D01*
X194365000Y-89638967D01*
X183135000Y-89638967D01*
X183072168Y-89323088D01*
X182948918Y-89025537D01*
X182769987Y-88757748D01*
X182542252Y-88530013D01*
X182274463Y-88351082D01*
X181976912Y-88227832D01*
X181661033Y-88165000D01*
X181338967Y-88165000D01*
X181023088Y-88227832D01*
X180725537Y-88351082D01*
X180457748Y-88530013D01*
X180230013Y-88757748D01*
X180051082Y-89025537D01*
X179927832Y-89323088D01*
X179865000Y-89638967D01*
X163710000Y-89638967D01*
X163710000Y-86538967D01*
X165465000Y-86538967D01*
X165465000Y-86861033D01*
X165527832Y-87176912D01*
X165651082Y-87474463D01*
X165830013Y-87742252D01*
X166057748Y-87969987D01*
X166325537Y-88148918D01*
X166623088Y-88272168D01*
X166938967Y-88335000D01*
X167261033Y-88335000D01*
X167576912Y-88272168D01*
X167874463Y-88148918D01*
X168142252Y-87969987D01*
X168369987Y-87742252D01*
X168548918Y-87474463D01*
X168672168Y-87176912D01*
X168735000Y-86861033D01*
X168735000Y-86538967D01*
X171965000Y-86538967D01*
X171965000Y-86861033D01*
X172027832Y-87176912D01*
X172151082Y-87474463D01*
X172330013Y-87742252D01*
X172557748Y-87969987D01*
X172825537Y-88148918D01*
X173123088Y-88272168D01*
X173438967Y-88335000D01*
X173761033Y-88335000D01*
X174076912Y-88272168D01*
X174374463Y-88148918D01*
X174642252Y-87969987D01*
X174855246Y-87756993D01*
X176222612Y-87756993D01*
X176288137Y-87995860D01*
X176535116Y-88111760D01*
X176799960Y-88177250D01*
X177072492Y-88189812D01*
X177342238Y-88148965D01*
X177598832Y-88056277D01*
X177711863Y-87995860D01*
X177777388Y-87756993D01*
X177000000Y-86979605D01*
X176222612Y-87756993D01*
X174855246Y-87756993D01*
X174869987Y-87742252D01*
X175048918Y-87474463D01*
X175172168Y-87176912D01*
X175232720Y-86872492D01*
X175610188Y-86872492D01*
X175651035Y-87142238D01*
X175743723Y-87398832D01*
X175804140Y-87511863D01*
X176043007Y-87577388D01*
X176820395Y-86800000D01*
X177179605Y-86800000D01*
X177956993Y-87577388D01*
X178195860Y-87511863D01*
X178311760Y-87264884D01*
X178377250Y-87000040D01*
X178389812Y-86727508D01*
X178352314Y-86479872D01*
X186265000Y-86479872D01*
X186265000Y-86920128D01*
X186350890Y-87351925D01*
X186519369Y-87758669D01*
X186763962Y-88124729D01*
X187075271Y-88436038D01*
X187441331Y-88680631D01*
X187848075Y-88849110D01*
X188279872Y-88935000D01*
X188720128Y-88935000D01*
X189151925Y-88849110D01*
X189558669Y-88680631D01*
X189924729Y-88436038D01*
X190236038Y-88124729D01*
X190480631Y-87758669D01*
X190649110Y-87351925D01*
X190687884Y-87156993D01*
X201222612Y-87156993D01*
X201288137Y-87395860D01*
X201535116Y-87511760D01*
X201799960Y-87577250D01*
X202072492Y-87589812D01*
X202342238Y-87548965D01*
X202598832Y-87456277D01*
X202711863Y-87395860D01*
X202777388Y-87156993D01*
X202000000Y-86379605D01*
X201222612Y-87156993D01*
X190687884Y-87156993D01*
X190735000Y-86920128D01*
X190735000Y-86479872D01*
X190693750Y-86272492D01*
X200610188Y-86272492D01*
X200651035Y-86542238D01*
X200743723Y-86798832D01*
X200804140Y-86911863D01*
X201043007Y-86977388D01*
X201820395Y-86200000D01*
X202179605Y-86200000D01*
X202956993Y-86977388D01*
X203195860Y-86911863D01*
X203311760Y-86664884D01*
X203377250Y-86400040D01*
X203389812Y-86127508D01*
X203348965Y-85857762D01*
X203256277Y-85601168D01*
X203195860Y-85488137D01*
X202956993Y-85422612D01*
X202179605Y-86200000D01*
X201820395Y-86200000D01*
X201043007Y-85422612D01*
X200804140Y-85488137D01*
X200688240Y-85735116D01*
X200622750Y-85999960D01*
X200610188Y-86272492D01*
X190693750Y-86272492D01*
X190649110Y-86048075D01*
X190480631Y-85641331D01*
X190236038Y-85275271D01*
X190203774Y-85243007D01*
X201222612Y-85243007D01*
X202000000Y-86020395D01*
X202777388Y-85243007D01*
X202711863Y-85004140D01*
X202464884Y-84888240D01*
X202200040Y-84822750D01*
X201927508Y-84810188D01*
X201657762Y-84851035D01*
X201401168Y-84943723D01*
X201288137Y-85004140D01*
X201222612Y-85243007D01*
X190203774Y-85243007D01*
X189924729Y-84963962D01*
X189558669Y-84719369D01*
X189151925Y-84550890D01*
X188720128Y-84465000D01*
X188279872Y-84465000D01*
X187848075Y-84550890D01*
X187441331Y-84719369D01*
X187075271Y-84963962D01*
X186763962Y-85275271D01*
X186519369Y-85641331D01*
X186350890Y-86048075D01*
X186265000Y-86479872D01*
X178352314Y-86479872D01*
X178348965Y-86457762D01*
X178256277Y-86201168D01*
X178195860Y-86088137D01*
X177956993Y-86022612D01*
X177179605Y-86800000D01*
X176820395Y-86800000D01*
X176043007Y-86022612D01*
X175804140Y-86088137D01*
X175688240Y-86335116D01*
X175622750Y-86599960D01*
X175610188Y-86872492D01*
X175232720Y-86872492D01*
X175235000Y-86861033D01*
X175235000Y-86538967D01*
X175172168Y-86223088D01*
X175048918Y-85925537D01*
X174993774Y-85843007D01*
X176222612Y-85843007D01*
X177000000Y-86620395D01*
X177777388Y-85843007D01*
X177711863Y-85604140D01*
X177464884Y-85488240D01*
X177200040Y-85422750D01*
X176927508Y-85410188D01*
X176657762Y-85451035D01*
X176401168Y-85543723D01*
X176288137Y-85604140D01*
X176222612Y-85843007D01*
X174993774Y-85843007D01*
X174869987Y-85657748D01*
X174642252Y-85430013D01*
X174374463Y-85251082D01*
X174076912Y-85127832D01*
X173761033Y-85065000D01*
X173438967Y-85065000D01*
X173123088Y-85127832D01*
X172825537Y-85251082D01*
X172557748Y-85430013D01*
X172330013Y-85657748D01*
X172151082Y-85925537D01*
X172027832Y-86223088D01*
X171965000Y-86538967D01*
X168735000Y-86538967D01*
X168672168Y-86223088D01*
X168548918Y-85925537D01*
X168369987Y-85657748D01*
X168142252Y-85430013D01*
X167874463Y-85251082D01*
X167576912Y-85127832D01*
X167261033Y-85065000D01*
X166938967Y-85065000D01*
X166623088Y-85127832D01*
X166325537Y-85251082D01*
X166057748Y-85430013D01*
X165830013Y-85657748D01*
X165651082Y-85925537D01*
X165527832Y-86223088D01*
X165465000Y-86538967D01*
X163710000Y-86538967D01*
X163710000Y-82038967D01*
X165465000Y-82038967D01*
X165465000Y-82361033D01*
X165527832Y-82676912D01*
X165651082Y-82974463D01*
X165830013Y-83242252D01*
X166057748Y-83469987D01*
X166325537Y-83648918D01*
X166623088Y-83772168D01*
X166938967Y-83835000D01*
X167261033Y-83835000D01*
X167576912Y-83772168D01*
X167874463Y-83648918D01*
X168142252Y-83469987D01*
X168369987Y-83242252D01*
X168548918Y-82974463D01*
X168672168Y-82676912D01*
X168735000Y-82361033D01*
X168735000Y-82038967D01*
X171965000Y-82038967D01*
X171965000Y-82361033D01*
X172027832Y-82676912D01*
X172151082Y-82974463D01*
X172330013Y-83242252D01*
X172557748Y-83469987D01*
X172825537Y-83648918D01*
X173123088Y-83772168D01*
X173438967Y-83835000D01*
X173761033Y-83835000D01*
X174076912Y-83772168D01*
X174374463Y-83648918D01*
X174642252Y-83469987D01*
X174869987Y-83242252D01*
X175048918Y-82974463D01*
X175172168Y-82676912D01*
X175235000Y-82361033D01*
X175235000Y-82038967D01*
X175172168Y-81723088D01*
X175048918Y-81425537D01*
X174869987Y-81157748D01*
X174642252Y-80930013D01*
X174374463Y-80751082D01*
X174076912Y-80627832D01*
X173761033Y-80565000D01*
X173438967Y-80565000D01*
X173123088Y-80627832D01*
X172825537Y-80751082D01*
X172557748Y-80930013D01*
X172330013Y-81157748D01*
X172151082Y-81425537D01*
X172027832Y-81723088D01*
X171965000Y-82038967D01*
X168735000Y-82038967D01*
X168672168Y-81723088D01*
X168548918Y-81425537D01*
X168369987Y-81157748D01*
X168142252Y-80930013D01*
X167874463Y-80751082D01*
X167576912Y-80627832D01*
X167261033Y-80565000D01*
X166938967Y-80565000D01*
X166623088Y-80627832D01*
X166325537Y-80751082D01*
X166057748Y-80930013D01*
X165830013Y-81157748D01*
X165651082Y-81425537D01*
X165527832Y-81723088D01*
X165465000Y-82038967D01*
X163710000Y-82038967D01*
X163710000Y-70485000D01*
X167417815Y-70485000D01*
X167446487Y-70776111D01*
X167531401Y-71056034D01*
X167669294Y-71314014D01*
X167854866Y-71540134D01*
X168080986Y-71725706D01*
X168135791Y-71755000D01*
X168080986Y-71784294D01*
X167854866Y-71969866D01*
X167669294Y-72195986D01*
X167531401Y-72453966D01*
X167446487Y-72733889D01*
X167417815Y-73025000D01*
X167446487Y-73316111D01*
X167531401Y-73596034D01*
X167669294Y-73854014D01*
X167854866Y-74080134D01*
X168080986Y-74265706D01*
X168135791Y-74295000D01*
X168080986Y-74324294D01*
X167854866Y-74509866D01*
X167669294Y-74735986D01*
X167531401Y-74993966D01*
X167446487Y-75273889D01*
X167417815Y-75565000D01*
X167446487Y-75856111D01*
X167531401Y-76136034D01*
X167669294Y-76394014D01*
X167854866Y-76620134D01*
X168080986Y-76805706D01*
X168135791Y-76835000D01*
X168080986Y-76864294D01*
X167854866Y-77049866D01*
X167669294Y-77275986D01*
X167531401Y-77533966D01*
X167446487Y-77813889D01*
X167417815Y-78105000D01*
X167446487Y-78396111D01*
X167531401Y-78676034D01*
X167669294Y-78934014D01*
X167854866Y-79160134D01*
X168080986Y-79345706D01*
X168338966Y-79483599D01*
X168618889Y-79568513D01*
X168837050Y-79590000D01*
X168982950Y-79590000D01*
X169201111Y-79568513D01*
X169481034Y-79483599D01*
X169739014Y-79345706D01*
X169965134Y-79160134D01*
X170150706Y-78934014D01*
X170180000Y-78879209D01*
X170209294Y-78934014D01*
X170394866Y-79160134D01*
X170620986Y-79345706D01*
X170878966Y-79483599D01*
X171158889Y-79568513D01*
X171377050Y-79590000D01*
X171522950Y-79590000D01*
X171741111Y-79568513D01*
X172021034Y-79483599D01*
X172279014Y-79345706D01*
X172505134Y-79160134D01*
X172690706Y-78934014D01*
X172729354Y-78861709D01*
X172749294Y-78899014D01*
X172934866Y-79125134D01*
X173160986Y-79310706D01*
X173418966Y-79448599D01*
X173698889Y-79533513D01*
X173917050Y-79555000D01*
X174062950Y-79555000D01*
X174281111Y-79533513D01*
X174561034Y-79448599D01*
X174819014Y-79310706D01*
X175045134Y-79125134D01*
X175230706Y-78899014D01*
X175260000Y-78844209D01*
X175289294Y-78899014D01*
X175474866Y-79125134D01*
X175700986Y-79310706D01*
X175958966Y-79448599D01*
X176238889Y-79533513D01*
X176457050Y-79555000D01*
X176602950Y-79555000D01*
X176821111Y-79533513D01*
X177101034Y-79448599D01*
X177359014Y-79310706D01*
X177585134Y-79125134D01*
X177770706Y-78899014D01*
X177800000Y-78844209D01*
X177829294Y-78899014D01*
X178014866Y-79125134D01*
X178240986Y-79310706D01*
X178498966Y-79448599D01*
X178778889Y-79533513D01*
X178997050Y-79555000D01*
X179142950Y-79555000D01*
X179361111Y-79533513D01*
X179641034Y-79448599D01*
X179899014Y-79310706D01*
X180125134Y-79125134D01*
X180310706Y-78899014D01*
X180340000Y-78844209D01*
X180369294Y-78899014D01*
X180554866Y-79125134D01*
X180780986Y-79310706D01*
X181038966Y-79448599D01*
X181318889Y-79533513D01*
X181537050Y-79555000D01*
X181682950Y-79555000D01*
X181901111Y-79533513D01*
X182181034Y-79448599D01*
X182439014Y-79310706D01*
X182665134Y-79125134D01*
X182850706Y-78899014D01*
X182880000Y-78844209D01*
X182909294Y-78899014D01*
X183094866Y-79125134D01*
X183320986Y-79310706D01*
X183578966Y-79448599D01*
X183858889Y-79533513D01*
X184077050Y-79555000D01*
X184222950Y-79555000D01*
X184441111Y-79533513D01*
X184721034Y-79448599D01*
X184979014Y-79310706D01*
X185205134Y-79125134D01*
X185390706Y-78899014D01*
X185420000Y-78844209D01*
X185449294Y-78899014D01*
X185634866Y-79125134D01*
X185860986Y-79310706D01*
X186118966Y-79448599D01*
X186398889Y-79533513D01*
X186617050Y-79555000D01*
X186762950Y-79555000D01*
X186981111Y-79533513D01*
X187261034Y-79448599D01*
X187519014Y-79310706D01*
X187745134Y-79125134D01*
X187930706Y-78899014D01*
X187960000Y-78844209D01*
X187989294Y-78899014D01*
X188174866Y-79125134D01*
X188400986Y-79310706D01*
X188658966Y-79448599D01*
X188938889Y-79533513D01*
X189157050Y-79555000D01*
X189302950Y-79555000D01*
X189521111Y-79533513D01*
X189801034Y-79448599D01*
X190059014Y-79310706D01*
X190285134Y-79125134D01*
X190470706Y-78899014D01*
X190500000Y-78844209D01*
X190529294Y-78899014D01*
X190714866Y-79125134D01*
X190940986Y-79310706D01*
X191198966Y-79448599D01*
X191478889Y-79533513D01*
X191697050Y-79555000D01*
X191842950Y-79555000D01*
X192061111Y-79533513D01*
X192341034Y-79448599D01*
X192599014Y-79310706D01*
X192825134Y-79125134D01*
X193010706Y-78899014D01*
X193040000Y-78844209D01*
X193069294Y-78899014D01*
X193254866Y-79125134D01*
X193480986Y-79310706D01*
X193738966Y-79448599D01*
X194018889Y-79533513D01*
X194237050Y-79555000D01*
X194382950Y-79555000D01*
X194601111Y-79533513D01*
X194881034Y-79448599D01*
X195139014Y-79310706D01*
X195365134Y-79125134D01*
X195550706Y-78899014D01*
X195580000Y-78844209D01*
X195609294Y-78899014D01*
X195794866Y-79125134D01*
X196020986Y-79310706D01*
X196278966Y-79448599D01*
X196558889Y-79533513D01*
X196777050Y-79555000D01*
X196922950Y-79555000D01*
X197141111Y-79533513D01*
X197421034Y-79448599D01*
X197679014Y-79310706D01*
X197905134Y-79125134D01*
X198090706Y-78899014D01*
X198121584Y-78841244D01*
X198292412Y-79070269D01*
X198508645Y-79265178D01*
X198758748Y-79414157D01*
X199033109Y-79511481D01*
X199263000Y-79390814D01*
X199263000Y-78197000D01*
X199517000Y-78197000D01*
X199517000Y-79390814D01*
X199746891Y-79511481D01*
X200021252Y-79414157D01*
X200271355Y-79265178D01*
X200487588Y-79070269D01*
X200661641Y-78836920D01*
X200786825Y-78574099D01*
X200831476Y-78426890D01*
X200710155Y-78197000D01*
X199517000Y-78197000D01*
X199263000Y-78197000D01*
X199243000Y-78197000D01*
X199243000Y-77943000D01*
X199263000Y-77943000D01*
X199263000Y-75657000D01*
X199517000Y-75657000D01*
X199517000Y-77943000D01*
X200710155Y-77943000D01*
X200831476Y-77713110D01*
X200786825Y-77565901D01*
X200661641Y-77303080D01*
X200487588Y-77069731D01*
X200271355Y-76874822D01*
X200145745Y-76800000D01*
X200271355Y-76725178D01*
X200487588Y-76530269D01*
X200495247Y-76520000D01*
X204209339Y-76520000D01*
X204231929Y-76749360D01*
X204298831Y-76969906D01*
X204397766Y-77155000D01*
X204298831Y-77340094D01*
X204231929Y-77560640D01*
X204209339Y-77790000D01*
X204231929Y-78019360D01*
X204298831Y-78239906D01*
X204397766Y-78425000D01*
X204298831Y-78610094D01*
X204231929Y-78830640D01*
X204209339Y-79060000D01*
X204231929Y-79289360D01*
X204298831Y-79509906D01*
X204407474Y-79713162D01*
X204553682Y-79891318D01*
X204731838Y-80037526D01*
X204935094Y-80146169D01*
X205155640Y-80213071D01*
X205327523Y-80230000D01*
X206172477Y-80230000D01*
X206344360Y-80213071D01*
X206564906Y-80146169D01*
X206768162Y-80037526D01*
X206946318Y-79891318D01*
X207092526Y-79713162D01*
X207201169Y-79509906D01*
X207268071Y-79289360D01*
X207290661Y-79060000D01*
X207268071Y-78830640D01*
X207201169Y-78610094D01*
X207102234Y-78425000D01*
X207201169Y-78239906D01*
X207268071Y-78019360D01*
X207290661Y-77790000D01*
X207268071Y-77560640D01*
X207201169Y-77340094D01*
X207102234Y-77155000D01*
X207201169Y-76969906D01*
X207268071Y-76749360D01*
X207290661Y-76520000D01*
X207268071Y-76290640D01*
X207207130Y-76089743D01*
X207239502Y-76029180D01*
X207275812Y-75909482D01*
X207288072Y-75785000D01*
X207288072Y-74715000D01*
X207275812Y-74590518D01*
X207239502Y-74470820D01*
X207180537Y-74360506D01*
X207101185Y-74263815D01*
X207004494Y-74184463D01*
X206894180Y-74125498D01*
X206774482Y-74089188D01*
X206650000Y-74076928D01*
X204850000Y-74076928D01*
X204725518Y-74089188D01*
X204605820Y-74125498D01*
X204495506Y-74184463D01*
X204398815Y-74263815D01*
X204319463Y-74360506D01*
X204260498Y-74470820D01*
X204224188Y-74590518D01*
X204211928Y-74715000D01*
X204211928Y-75785000D01*
X204224188Y-75909482D01*
X204260498Y-76029180D01*
X204292870Y-76089743D01*
X204231929Y-76290640D01*
X204209339Y-76520000D01*
X200495247Y-76520000D01*
X200661641Y-76296920D01*
X200786825Y-76034099D01*
X200831476Y-75886890D01*
X200710155Y-75657000D01*
X199517000Y-75657000D01*
X199263000Y-75657000D01*
X199243000Y-75657000D01*
X199243000Y-75403000D01*
X199263000Y-75403000D01*
X199263000Y-73117000D01*
X199517000Y-73117000D01*
X199517000Y-75403000D01*
X200710155Y-75403000D01*
X200831476Y-75173110D01*
X200786825Y-75025901D01*
X200661641Y-74763080D01*
X200487588Y-74529731D01*
X200271355Y-74334822D01*
X200145745Y-74260000D01*
X200271355Y-74185178D01*
X200487588Y-73990269D01*
X200661641Y-73756920D01*
X200786825Y-73494099D01*
X200831476Y-73346890D01*
X200710155Y-73117000D01*
X199517000Y-73117000D01*
X199263000Y-73117000D01*
X199243000Y-73117000D01*
X199243000Y-72863000D01*
X199263000Y-72863000D01*
X199263000Y-70577000D01*
X199517000Y-70577000D01*
X199517000Y-72863000D01*
X200710155Y-72863000D01*
X200831476Y-72633110D01*
X200786825Y-72485901D01*
X200661641Y-72223080D01*
X200487588Y-71989731D01*
X200271355Y-71794822D01*
X200145745Y-71720000D01*
X200271355Y-71645178D01*
X200487588Y-71450269D01*
X200661641Y-71216920D01*
X200688752Y-71160000D01*
X218558057Y-71160000D01*
X218585764Y-71441309D01*
X218667818Y-71711808D01*
X218801068Y-71961101D01*
X218980392Y-72179608D01*
X219198899Y-72358932D01*
X219331858Y-72430000D01*
X219198899Y-72501068D01*
X218980392Y-72680392D01*
X218801068Y-72898899D01*
X218667818Y-73148192D01*
X218585764Y-73418691D01*
X218558057Y-73700000D01*
X218585764Y-73981309D01*
X218667818Y-74251808D01*
X218801068Y-74501101D01*
X218980392Y-74719608D01*
X219198899Y-74898932D01*
X219331858Y-74970000D01*
X219198899Y-75041068D01*
X218980392Y-75220392D01*
X218801068Y-75438899D01*
X218667818Y-75688192D01*
X218585764Y-75958691D01*
X218558057Y-76240000D01*
X218585764Y-76521309D01*
X218667818Y-76791808D01*
X218801068Y-77041101D01*
X218980392Y-77259608D01*
X219198899Y-77438932D01*
X219331858Y-77510000D01*
X219198899Y-77581068D01*
X218980392Y-77760392D01*
X218801068Y-77978899D01*
X218667818Y-78228192D01*
X218585764Y-78498691D01*
X218558057Y-78780000D01*
X218585764Y-79061309D01*
X218667818Y-79331808D01*
X218801068Y-79581101D01*
X218980392Y-79799608D01*
X219198899Y-79978932D01*
X219331858Y-80050000D01*
X219198899Y-80121068D01*
X218980392Y-80300392D01*
X218801068Y-80518899D01*
X218667818Y-80768192D01*
X218585764Y-81038691D01*
X218558057Y-81320000D01*
X218585764Y-81601309D01*
X218667818Y-81871808D01*
X218801068Y-82121101D01*
X218980392Y-82339608D01*
X219198899Y-82518932D01*
X219331858Y-82590000D01*
X219198899Y-82661068D01*
X218980392Y-82840392D01*
X218801068Y-83058899D01*
X218667818Y-83308192D01*
X218585764Y-83578691D01*
X218558057Y-83860000D01*
X218585764Y-84141309D01*
X218667818Y-84411808D01*
X218801068Y-84661101D01*
X218980392Y-84879608D01*
X219198899Y-85058932D01*
X219331858Y-85130000D01*
X219198899Y-85201068D01*
X218980392Y-85380392D01*
X218801068Y-85598899D01*
X218667818Y-85848192D01*
X218585764Y-86118691D01*
X218558057Y-86400000D01*
X218585764Y-86681309D01*
X218667818Y-86951808D01*
X218801068Y-87201101D01*
X218980392Y-87419608D01*
X219198899Y-87598932D01*
X219331858Y-87670000D01*
X219198899Y-87741068D01*
X218980392Y-87920392D01*
X218801068Y-88138899D01*
X218667818Y-88388192D01*
X218585764Y-88658691D01*
X218558057Y-88940000D01*
X218585764Y-89221309D01*
X218667818Y-89491808D01*
X218801068Y-89741101D01*
X218980392Y-89959608D01*
X219198899Y-90138932D01*
X219331858Y-90210000D01*
X219198899Y-90281068D01*
X218980392Y-90460392D01*
X218801068Y-90678899D01*
X218667818Y-90928192D01*
X218585764Y-91198691D01*
X218558057Y-91480000D01*
X218585764Y-91761309D01*
X218667818Y-92031808D01*
X218801068Y-92281101D01*
X218980392Y-92499608D01*
X219198899Y-92678932D01*
X219331858Y-92750000D01*
X219198899Y-92821068D01*
X218980392Y-93000392D01*
X218801068Y-93218899D01*
X218667818Y-93468192D01*
X218585764Y-93738691D01*
X218558057Y-94020000D01*
X218585764Y-94301309D01*
X218667818Y-94571808D01*
X218801068Y-94821101D01*
X218980392Y-95039608D01*
X219198899Y-95218932D01*
X219331858Y-95290000D01*
X219198899Y-95361068D01*
X218980392Y-95540392D01*
X218801068Y-95758899D01*
X218667818Y-96008192D01*
X218585764Y-96278691D01*
X218558057Y-96560000D01*
X218585764Y-96841309D01*
X218667818Y-97111808D01*
X218801068Y-97361101D01*
X218980392Y-97579608D01*
X219198899Y-97758932D01*
X219448192Y-97892182D01*
X219718691Y-97974236D01*
X219929508Y-97995000D01*
X220070492Y-97995000D01*
X220281309Y-97974236D01*
X220551808Y-97892182D01*
X220801101Y-97758932D01*
X221019608Y-97579608D01*
X221198932Y-97361101D01*
X221332182Y-97111808D01*
X221414236Y-96841309D01*
X221441943Y-96560000D01*
X221414236Y-96278691D01*
X221332182Y-96008192D01*
X221198932Y-95758899D01*
X221019608Y-95540392D01*
X220801101Y-95361068D01*
X220668142Y-95290000D01*
X220801101Y-95218932D01*
X221019608Y-95039608D01*
X221198932Y-94821101D01*
X221332182Y-94571808D01*
X221414236Y-94301309D01*
X221441943Y-94020000D01*
X221414236Y-93738691D01*
X221332182Y-93468192D01*
X221198932Y-93218899D01*
X221019608Y-93000392D01*
X220801101Y-92821068D01*
X220668142Y-92750000D01*
X220801101Y-92678932D01*
X221019608Y-92499608D01*
X221185013Y-92298061D01*
X231365000Y-92298061D01*
X231365000Y-92501939D01*
X231404774Y-92701898D01*
X231482795Y-92890256D01*
X231596063Y-93059774D01*
X231740226Y-93203937D01*
X231909744Y-93317205D01*
X232098102Y-93395226D01*
X232298061Y-93435000D01*
X232501939Y-93435000D01*
X232701898Y-93395226D01*
X232890256Y-93317205D01*
X233013285Y-93235000D01*
X233254133Y-93235000D01*
X233819672Y-93800540D01*
X233798057Y-94020000D01*
X233825764Y-94301309D01*
X233907818Y-94571808D01*
X234041068Y-94821101D01*
X234220392Y-95039608D01*
X234438899Y-95218932D01*
X234571858Y-95290000D01*
X234438899Y-95361068D01*
X234220392Y-95540392D01*
X234041068Y-95758899D01*
X233907818Y-96008192D01*
X233825764Y-96278691D01*
X233798057Y-96560000D01*
X233825764Y-96841309D01*
X233907818Y-97111808D01*
X234041068Y-97361101D01*
X234220392Y-97579608D01*
X234438899Y-97758932D01*
X234688192Y-97892182D01*
X234958691Y-97974236D01*
X235169508Y-97995000D01*
X235310492Y-97995000D01*
X235521309Y-97974236D01*
X235791808Y-97892182D01*
X236041101Y-97758932D01*
X236259608Y-97579608D01*
X236438932Y-97361101D01*
X236572182Y-97111808D01*
X236654236Y-96841309D01*
X236681943Y-96560000D01*
X236661143Y-96348816D01*
X240675000Y-96348816D01*
X240675000Y-96651184D01*
X240733989Y-96947743D01*
X240849701Y-97227095D01*
X241017688Y-97478505D01*
X241231495Y-97692312D01*
X241482905Y-97860299D01*
X241762257Y-97976011D01*
X242058816Y-98035000D01*
X242361184Y-98035000D01*
X242657743Y-97976011D01*
X242937095Y-97860299D01*
X243188505Y-97692312D01*
X243254944Y-97625873D01*
X243260498Y-97644180D01*
X243319463Y-97754494D01*
X243398815Y-97851185D01*
X243495506Y-97930537D01*
X243605820Y-97989502D01*
X243725518Y-98025812D01*
X243850000Y-98038072D01*
X245650000Y-98038072D01*
X245774482Y-98025812D01*
X245894180Y-97989502D01*
X246004494Y-97930537D01*
X246101185Y-97851185D01*
X246180537Y-97754494D01*
X246239502Y-97644180D01*
X246275812Y-97524482D01*
X246288072Y-97400000D01*
X246288072Y-96348816D01*
X247175000Y-96348816D01*
X247175000Y-96651184D01*
X247233989Y-96947743D01*
X247349701Y-97227095D01*
X247517688Y-97478505D01*
X247731495Y-97692312D01*
X247982905Y-97860299D01*
X248262257Y-97976011D01*
X248558816Y-98035000D01*
X248861184Y-98035000D01*
X249157743Y-97976011D01*
X249437095Y-97860299D01*
X249688505Y-97692312D01*
X249754944Y-97625873D01*
X249760498Y-97644180D01*
X249819463Y-97754494D01*
X249898815Y-97851185D01*
X249995506Y-97930537D01*
X250105820Y-97989502D01*
X250225518Y-98025812D01*
X250350000Y-98038072D01*
X252150000Y-98038072D01*
X252274482Y-98025812D01*
X252394180Y-97989502D01*
X252504494Y-97930537D01*
X252601185Y-97851185D01*
X252680537Y-97754494D01*
X252739502Y-97644180D01*
X252775812Y-97524482D01*
X252788072Y-97400000D01*
X252788072Y-96348816D01*
X253675000Y-96348816D01*
X253675000Y-96651184D01*
X253733989Y-96947743D01*
X253849701Y-97227095D01*
X254017688Y-97478505D01*
X254231495Y-97692312D01*
X254482905Y-97860299D01*
X254762257Y-97976011D01*
X255058816Y-98035000D01*
X255361184Y-98035000D01*
X255657743Y-97976011D01*
X255937095Y-97860299D01*
X256188505Y-97692312D01*
X256254944Y-97625873D01*
X256260498Y-97644180D01*
X256319463Y-97754494D01*
X256398815Y-97851185D01*
X256495506Y-97930537D01*
X256605820Y-97989502D01*
X256725518Y-98025812D01*
X256850000Y-98038072D01*
X258650000Y-98038072D01*
X258774482Y-98025812D01*
X258894180Y-97989502D01*
X259004494Y-97930537D01*
X259101185Y-97851185D01*
X259180537Y-97754494D01*
X259239502Y-97644180D01*
X259275812Y-97524482D01*
X259288072Y-97400000D01*
X259288072Y-95600000D01*
X259275812Y-95475518D01*
X259239502Y-95355820D01*
X259180537Y-95245506D01*
X259101185Y-95148815D01*
X259004494Y-95069463D01*
X258894180Y-95010498D01*
X258774482Y-94974188D01*
X258650000Y-94961928D01*
X256850000Y-94961928D01*
X256725518Y-94974188D01*
X256605820Y-95010498D01*
X256495506Y-95069463D01*
X256398815Y-95148815D01*
X256319463Y-95245506D01*
X256260498Y-95355820D01*
X256254944Y-95374127D01*
X256188505Y-95307688D01*
X255937095Y-95139701D01*
X255657743Y-95023989D01*
X255361184Y-94965000D01*
X255058816Y-94965000D01*
X254762257Y-95023989D01*
X254482905Y-95139701D01*
X254231495Y-95307688D01*
X254017688Y-95521495D01*
X253849701Y-95772905D01*
X253733989Y-96052257D01*
X253675000Y-96348816D01*
X252788072Y-96348816D01*
X252788072Y-95600000D01*
X252775812Y-95475518D01*
X252739502Y-95355820D01*
X252680537Y-95245506D01*
X252601185Y-95148815D01*
X252504494Y-95069463D01*
X252394180Y-95010498D01*
X252274482Y-94974188D01*
X252150000Y-94961928D01*
X250350000Y-94961928D01*
X250225518Y-94974188D01*
X250105820Y-95010498D01*
X249995506Y-95069463D01*
X249898815Y-95148815D01*
X249819463Y-95245506D01*
X249760498Y-95355820D01*
X249754944Y-95374127D01*
X249688505Y-95307688D01*
X249437095Y-95139701D01*
X249157743Y-95023989D01*
X248861184Y-94965000D01*
X248558816Y-94965000D01*
X248262257Y-95023989D01*
X247982905Y-95139701D01*
X247731495Y-95307688D01*
X247517688Y-95521495D01*
X247349701Y-95772905D01*
X247233989Y-96052257D01*
X247175000Y-96348816D01*
X246288072Y-96348816D01*
X246288072Y-95600000D01*
X246275812Y-95475518D01*
X246239502Y-95355820D01*
X246180537Y-95245506D01*
X246101185Y-95148815D01*
X246004494Y-95069463D01*
X245894180Y-95010498D01*
X245774482Y-94974188D01*
X245650000Y-94961928D01*
X243850000Y-94961928D01*
X243725518Y-94974188D01*
X243605820Y-95010498D01*
X243495506Y-95069463D01*
X243398815Y-95148815D01*
X243319463Y-95245506D01*
X243260498Y-95355820D01*
X243254944Y-95374127D01*
X243188505Y-95307688D01*
X242937095Y-95139701D01*
X242657743Y-95023989D01*
X242361184Y-94965000D01*
X242058816Y-94965000D01*
X241762257Y-95023989D01*
X241482905Y-95139701D01*
X241231495Y-95307688D01*
X241017688Y-95521495D01*
X240849701Y-95772905D01*
X240733989Y-96052257D01*
X240675000Y-96348816D01*
X236661143Y-96348816D01*
X236654236Y-96278691D01*
X236572182Y-96008192D01*
X236438932Y-95758899D01*
X236259608Y-95540392D01*
X236041101Y-95361068D01*
X235908142Y-95290000D01*
X236041101Y-95218932D01*
X236259608Y-95039608D01*
X236438932Y-94821101D01*
X236572182Y-94571808D01*
X236654236Y-94301309D01*
X236681943Y-94020000D01*
X236654236Y-93738691D01*
X236572182Y-93468192D01*
X236438932Y-93218899D01*
X236259608Y-93000392D01*
X236041101Y-92821068D01*
X235908142Y-92750000D01*
X236041101Y-92678932D01*
X236259608Y-92499608D01*
X236438932Y-92281101D01*
X236572182Y-92031808D01*
X236654236Y-91761309D01*
X236681943Y-91480000D01*
X236654236Y-91198691D01*
X236572182Y-90928192D01*
X236438932Y-90678899D01*
X236259608Y-90460392D01*
X236041101Y-90281068D01*
X235908142Y-90210000D01*
X236041101Y-90138932D01*
X236259608Y-89959608D01*
X236438932Y-89741101D01*
X236572182Y-89491808D01*
X236654236Y-89221309D01*
X236666184Y-89100000D01*
X240711928Y-89100000D01*
X240711928Y-90900000D01*
X240724188Y-91024482D01*
X240760498Y-91144180D01*
X240819463Y-91254494D01*
X240898815Y-91351185D01*
X240995506Y-91430537D01*
X241105820Y-91489502D01*
X241225518Y-91525812D01*
X241350000Y-91538072D01*
X243150000Y-91538072D01*
X243274482Y-91525812D01*
X243394180Y-91489502D01*
X243504494Y-91430537D01*
X243601185Y-91351185D01*
X243680537Y-91254494D01*
X243739502Y-91144180D01*
X243745056Y-91125873D01*
X243811495Y-91192312D01*
X244062905Y-91360299D01*
X244342257Y-91476011D01*
X244638816Y-91535000D01*
X244941184Y-91535000D01*
X245169440Y-91489597D01*
X245607658Y-91927816D01*
X245632236Y-91957764D01*
X245662184Y-91982342D01*
X245662187Y-91982345D01*
X245691559Y-92006450D01*
X245751767Y-92055862D01*
X245872501Y-92120395D01*
X245888140Y-92128754D01*
X246036113Y-92173642D01*
X246111026Y-92181020D01*
X246151439Y-92185000D01*
X246151444Y-92185000D01*
X246190000Y-92188797D01*
X246228555Y-92185000D01*
X255621449Y-92185000D01*
X255660002Y-92188797D01*
X255698555Y-92185000D01*
X255698563Y-92185000D01*
X255813889Y-92173641D01*
X255961862Y-92128754D01*
X256098235Y-92055862D01*
X256217766Y-91957764D01*
X256242349Y-91927810D01*
X256663239Y-91506920D01*
X256725518Y-91525812D01*
X256850000Y-91538072D01*
X258650000Y-91538072D01*
X258774482Y-91525812D01*
X258894180Y-91489502D01*
X259004494Y-91430537D01*
X259101185Y-91351185D01*
X259180537Y-91254494D01*
X259239502Y-91144180D01*
X259275812Y-91024482D01*
X259288072Y-90900000D01*
X259288072Y-89100000D01*
X259275812Y-88975518D01*
X259239502Y-88855820D01*
X259180537Y-88745506D01*
X259101185Y-88648815D01*
X259004494Y-88569463D01*
X258894180Y-88510498D01*
X258774482Y-88474188D01*
X258650000Y-88461928D01*
X256850000Y-88461928D01*
X256725518Y-88474188D01*
X256605820Y-88510498D01*
X256495506Y-88569463D01*
X256398815Y-88648815D01*
X256319463Y-88745506D01*
X256260498Y-88855820D01*
X256254944Y-88874127D01*
X256188505Y-88807688D01*
X255937095Y-88639701D01*
X255657743Y-88523989D01*
X255361184Y-88465000D01*
X255058816Y-88465000D01*
X254762257Y-88523989D01*
X254482905Y-88639701D01*
X254231495Y-88807688D01*
X254017688Y-89021495D01*
X253849701Y-89272905D01*
X253733989Y-89552257D01*
X253675000Y-89848816D01*
X253675000Y-90151184D01*
X253733989Y-90447743D01*
X253803269Y-90615000D01*
X252696731Y-90615000D01*
X252766011Y-90447743D01*
X252825000Y-90151184D01*
X252825000Y-89848816D01*
X252766011Y-89552257D01*
X252650299Y-89272905D01*
X252482312Y-89021495D01*
X252268505Y-88807688D01*
X252017095Y-88639701D01*
X251737743Y-88523989D01*
X251441184Y-88465000D01*
X251138816Y-88465000D01*
X250842257Y-88523989D01*
X250562905Y-88639701D01*
X250311495Y-88807688D01*
X250245056Y-88874127D01*
X250239502Y-88855820D01*
X250180537Y-88745506D01*
X250101185Y-88648815D01*
X250004494Y-88569463D01*
X249894180Y-88510498D01*
X249774482Y-88474188D01*
X249650000Y-88461928D01*
X247850000Y-88461928D01*
X247725518Y-88474188D01*
X247605820Y-88510498D01*
X247495506Y-88569463D01*
X247398815Y-88648815D01*
X247319463Y-88745506D01*
X247260498Y-88855820D01*
X247224188Y-88975518D01*
X247211928Y-89100000D01*
X247211928Y-90615000D01*
X246515158Y-90615000D01*
X246279597Y-90379440D01*
X246325000Y-90151184D01*
X246325000Y-89848816D01*
X246266011Y-89552257D01*
X246150299Y-89272905D01*
X245982312Y-89021495D01*
X245768505Y-88807688D01*
X245517095Y-88639701D01*
X245237743Y-88523989D01*
X244941184Y-88465000D01*
X244638816Y-88465000D01*
X244342257Y-88523989D01*
X244062905Y-88639701D01*
X243811495Y-88807688D01*
X243745056Y-88874127D01*
X243739502Y-88855820D01*
X243680537Y-88745506D01*
X243601185Y-88648815D01*
X243504494Y-88569463D01*
X243394180Y-88510498D01*
X243274482Y-88474188D01*
X243150000Y-88461928D01*
X241350000Y-88461928D01*
X241225518Y-88474188D01*
X241105820Y-88510498D01*
X240995506Y-88569463D01*
X240898815Y-88648815D01*
X240819463Y-88745506D01*
X240760498Y-88855820D01*
X240724188Y-88975518D01*
X240711928Y-89100000D01*
X236666184Y-89100000D01*
X236681943Y-88940000D01*
X236654236Y-88658691D01*
X236572182Y-88388192D01*
X236438932Y-88138899D01*
X236259608Y-87920392D01*
X236041101Y-87741068D01*
X235908142Y-87670000D01*
X236041101Y-87598932D01*
X236259608Y-87419608D01*
X236438932Y-87201101D01*
X236572182Y-86951808D01*
X236654236Y-86681309D01*
X236681943Y-86400000D01*
X236654236Y-86118691D01*
X236572182Y-85848192D01*
X236438932Y-85598899D01*
X236259608Y-85380392D01*
X236041101Y-85201068D01*
X235908142Y-85130000D01*
X236041101Y-85058932D01*
X236259608Y-84879608D01*
X236438932Y-84661101D01*
X236572182Y-84411808D01*
X236654236Y-84141309D01*
X236681943Y-83860000D01*
X236654236Y-83578691D01*
X236584506Y-83348816D01*
X240675000Y-83348816D01*
X240675000Y-83651184D01*
X240733989Y-83947743D01*
X240849701Y-84227095D01*
X241017688Y-84478505D01*
X241231495Y-84692312D01*
X241482905Y-84860299D01*
X241762257Y-84976011D01*
X242058816Y-85035000D01*
X242361184Y-85035000D01*
X242657743Y-84976011D01*
X242937095Y-84860299D01*
X243188505Y-84692312D01*
X243254944Y-84625873D01*
X243260498Y-84644180D01*
X243319463Y-84754494D01*
X243398815Y-84851185D01*
X243495506Y-84930537D01*
X243605820Y-84989502D01*
X243725518Y-85025812D01*
X243850000Y-85038072D01*
X245650000Y-85038072D01*
X245774482Y-85025812D01*
X245894180Y-84989502D01*
X246004494Y-84930537D01*
X246101185Y-84851185D01*
X246180537Y-84754494D01*
X246239502Y-84644180D01*
X246275812Y-84524482D01*
X246288072Y-84400000D01*
X246288072Y-82600000D01*
X247211928Y-82600000D01*
X247211928Y-84400000D01*
X247224188Y-84524482D01*
X247260498Y-84644180D01*
X247319463Y-84754494D01*
X247398815Y-84851185D01*
X247495506Y-84930537D01*
X247605820Y-84989502D01*
X247725518Y-85025812D01*
X247850000Y-85038072D01*
X249650000Y-85038072D01*
X249774482Y-85025812D01*
X249894180Y-84989502D01*
X250004494Y-84930537D01*
X250101185Y-84851185D01*
X250180537Y-84754494D01*
X250239502Y-84644180D01*
X250245056Y-84625873D01*
X250311495Y-84692312D01*
X250562905Y-84860299D01*
X250842257Y-84976011D01*
X251138816Y-85035000D01*
X251441184Y-85035000D01*
X251737743Y-84976011D01*
X252017095Y-84860299D01*
X252268505Y-84692312D01*
X252482312Y-84478505D01*
X252650299Y-84227095D01*
X252766011Y-83947743D01*
X252825000Y-83651184D01*
X252825000Y-83348816D01*
X252766011Y-83052257D01*
X252650299Y-82772905D01*
X252534768Y-82600000D01*
X253671928Y-82600000D01*
X253671928Y-84400000D01*
X253684188Y-84524482D01*
X253720498Y-84644180D01*
X253779463Y-84754494D01*
X253858815Y-84851185D01*
X253955506Y-84930537D01*
X254065820Y-84989502D01*
X254185518Y-85025812D01*
X254310000Y-85038072D01*
X256110000Y-85038072D01*
X256234482Y-85025812D01*
X256354180Y-84989502D01*
X256464494Y-84930537D01*
X256561185Y-84851185D01*
X256640537Y-84754494D01*
X256699502Y-84644180D01*
X256705056Y-84625873D01*
X256771495Y-84692312D01*
X257022905Y-84860299D01*
X257302257Y-84976011D01*
X257598816Y-85035000D01*
X257901184Y-85035000D01*
X258197743Y-84976011D01*
X258477095Y-84860299D01*
X258728505Y-84692312D01*
X258942312Y-84478505D01*
X259110299Y-84227095D01*
X259226011Y-83947743D01*
X259285000Y-83651184D01*
X259285000Y-83348816D01*
X259226011Y-83052257D01*
X259110299Y-82772905D01*
X258942312Y-82521495D01*
X258728505Y-82307688D01*
X258477095Y-82139701D01*
X258197743Y-82023989D01*
X257901184Y-81965000D01*
X257598816Y-81965000D01*
X257302257Y-82023989D01*
X257022905Y-82139701D01*
X256771495Y-82307688D01*
X256705056Y-82374127D01*
X256699502Y-82355820D01*
X256640537Y-82245506D01*
X256561185Y-82148815D01*
X256464494Y-82069463D01*
X256354180Y-82010498D01*
X256234482Y-81974188D01*
X256110000Y-81961928D01*
X254310000Y-81961928D01*
X254185518Y-81974188D01*
X254065820Y-82010498D01*
X253955506Y-82069463D01*
X253858815Y-82148815D01*
X253779463Y-82245506D01*
X253720498Y-82355820D01*
X253684188Y-82475518D01*
X253671928Y-82600000D01*
X252534768Y-82600000D01*
X252482312Y-82521495D01*
X252268505Y-82307688D01*
X252017095Y-82139701D01*
X251737743Y-82023989D01*
X251441184Y-81965000D01*
X251138816Y-81965000D01*
X250842257Y-82023989D01*
X250562905Y-82139701D01*
X250311495Y-82307688D01*
X250245056Y-82374127D01*
X250239502Y-82355820D01*
X250180537Y-82245506D01*
X250101185Y-82148815D01*
X250004494Y-82069463D01*
X249894180Y-82010498D01*
X249774482Y-81974188D01*
X249650000Y-81961928D01*
X247850000Y-81961928D01*
X247725518Y-81974188D01*
X247605820Y-82010498D01*
X247495506Y-82069463D01*
X247398815Y-82148815D01*
X247319463Y-82245506D01*
X247260498Y-82355820D01*
X247224188Y-82475518D01*
X247211928Y-82600000D01*
X246288072Y-82600000D01*
X246275812Y-82475518D01*
X246239502Y-82355820D01*
X246180537Y-82245506D01*
X246101185Y-82148815D01*
X246004494Y-82069463D01*
X245894180Y-82010498D01*
X245774482Y-81974188D01*
X245650000Y-81961928D01*
X243850000Y-81961928D01*
X243725518Y-81974188D01*
X243605820Y-82010498D01*
X243495506Y-82069463D01*
X243398815Y-82148815D01*
X243319463Y-82245506D01*
X243260498Y-82355820D01*
X243254944Y-82374127D01*
X243188505Y-82307688D01*
X242937095Y-82139701D01*
X242657743Y-82023989D01*
X242361184Y-81965000D01*
X242058816Y-81965000D01*
X241762257Y-82023989D01*
X241482905Y-82139701D01*
X241231495Y-82307688D01*
X241017688Y-82521495D01*
X240849701Y-82772905D01*
X240733989Y-83052257D01*
X240675000Y-83348816D01*
X236584506Y-83348816D01*
X236572182Y-83308192D01*
X236438932Y-83058899D01*
X236259608Y-82840392D01*
X236041101Y-82661068D01*
X235908142Y-82590000D01*
X236041101Y-82518932D01*
X236259608Y-82339608D01*
X236438932Y-82121101D01*
X236572182Y-81871808D01*
X236654236Y-81601309D01*
X236681943Y-81320000D01*
X236654236Y-81038691D01*
X236572182Y-80768192D01*
X236438932Y-80518899D01*
X236259608Y-80300392D01*
X236041101Y-80121068D01*
X235908142Y-80050000D01*
X236041101Y-79978932D01*
X236259608Y-79799608D01*
X236438932Y-79581101D01*
X236572182Y-79331808D01*
X236654236Y-79061309D01*
X236681943Y-78780000D01*
X236654236Y-78498691D01*
X236572182Y-78228192D01*
X236438932Y-77978899D01*
X236259608Y-77760392D01*
X236041101Y-77581068D01*
X235908142Y-77510000D01*
X236041101Y-77438932D01*
X236259608Y-77259608D01*
X236438932Y-77041101D01*
X236572182Y-76791808D01*
X236654236Y-76521309D01*
X236681943Y-76240000D01*
X236654236Y-75958691D01*
X236572182Y-75688192D01*
X236438932Y-75438899D01*
X236259608Y-75220392D01*
X236041101Y-75041068D01*
X235908142Y-74970000D01*
X236041101Y-74898932D01*
X236259608Y-74719608D01*
X236438932Y-74501101D01*
X236572182Y-74251808D01*
X236654236Y-73981309D01*
X236681943Y-73700000D01*
X236654236Y-73418691D01*
X236572182Y-73148192D01*
X236438932Y-72898899D01*
X236259608Y-72680392D01*
X236041101Y-72501068D01*
X235908142Y-72430000D01*
X236041101Y-72358932D01*
X236259608Y-72179608D01*
X236438932Y-71961101D01*
X236572182Y-71711808D01*
X236654236Y-71441309D01*
X236681943Y-71160000D01*
X236654236Y-70878691D01*
X236572182Y-70608192D01*
X236438932Y-70358899D01*
X236259608Y-70140392D01*
X236041101Y-69961068D01*
X235908142Y-69890000D01*
X236041101Y-69818932D01*
X236259608Y-69639608D01*
X236438932Y-69421101D01*
X236572182Y-69171808D01*
X236654236Y-68901309D01*
X236681943Y-68620000D01*
X236654236Y-68338691D01*
X236572182Y-68068192D01*
X236438932Y-67818899D01*
X236259608Y-67600392D01*
X236041101Y-67421068D01*
X235908142Y-67350000D01*
X236041101Y-67278932D01*
X236259608Y-67099608D01*
X236438932Y-66881101D01*
X236572182Y-66631808D01*
X236654236Y-66361309D01*
X236681943Y-66080000D01*
X236654236Y-65798691D01*
X236572182Y-65528192D01*
X236438932Y-65278899D01*
X236259608Y-65060392D01*
X236041101Y-64881068D01*
X235903318Y-64807421D01*
X236095131Y-64692385D01*
X236303519Y-64503414D01*
X236471037Y-64277420D01*
X236591246Y-64023087D01*
X236631904Y-63889039D01*
X236509915Y-63667000D01*
X235367000Y-63667000D01*
X235367000Y-63687000D01*
X235113000Y-63687000D01*
X235113000Y-63667000D01*
X233970085Y-63667000D01*
X233848096Y-63889039D01*
X233888754Y-64023087D01*
X234008963Y-64277420D01*
X234176481Y-64503414D01*
X234384869Y-64692385D01*
X234576682Y-64807421D01*
X234438899Y-64881068D01*
X234220392Y-65060392D01*
X234041068Y-65278899D01*
X233907818Y-65528192D01*
X233825764Y-65798691D01*
X233798057Y-66080000D01*
X233825764Y-66361309D01*
X233907818Y-66631808D01*
X234041068Y-66881101D01*
X234220392Y-67099608D01*
X234438899Y-67278932D01*
X234571858Y-67350000D01*
X234438899Y-67421068D01*
X234220392Y-67600392D01*
X234041068Y-67818899D01*
X233907818Y-68068192D01*
X233825764Y-68338691D01*
X233798057Y-68620000D01*
X233825764Y-68901309D01*
X233907818Y-69171808D01*
X234041068Y-69421101D01*
X234220392Y-69639608D01*
X234438899Y-69818932D01*
X234571858Y-69890000D01*
X234438899Y-69961068D01*
X234220392Y-70140392D01*
X234041068Y-70358899D01*
X233907818Y-70608192D01*
X233825764Y-70878691D01*
X233798057Y-71160000D01*
X233825764Y-71441309D01*
X233907818Y-71711808D01*
X234041068Y-71961101D01*
X234220392Y-72179608D01*
X234438899Y-72358932D01*
X234571858Y-72430000D01*
X234438899Y-72501068D01*
X234220392Y-72680392D01*
X234041068Y-72898899D01*
X233907818Y-73148192D01*
X233825764Y-73418691D01*
X233798057Y-73700000D01*
X233825764Y-73981309D01*
X233907818Y-74251808D01*
X234041068Y-74501101D01*
X234220392Y-74719608D01*
X234438899Y-74898932D01*
X234571858Y-74970000D01*
X234438899Y-75041068D01*
X234220392Y-75220392D01*
X234041068Y-75438899D01*
X233907818Y-75688192D01*
X233825764Y-75958691D01*
X233798057Y-76240000D01*
X233825764Y-76521309D01*
X233907818Y-76791808D01*
X234041068Y-77041101D01*
X234220392Y-77259608D01*
X234438899Y-77438932D01*
X234571858Y-77510000D01*
X234438899Y-77581068D01*
X234220392Y-77760392D01*
X234041068Y-77978899D01*
X233907818Y-78228192D01*
X233825764Y-78498691D01*
X233798057Y-78780000D01*
X233825764Y-79061309D01*
X233907818Y-79331808D01*
X234041068Y-79581101D01*
X234220392Y-79799608D01*
X234438899Y-79978932D01*
X234571858Y-80050000D01*
X234438899Y-80121068D01*
X234220392Y-80300392D01*
X234041068Y-80518899D01*
X233907818Y-80768192D01*
X233825764Y-81038691D01*
X233798057Y-81320000D01*
X233825764Y-81601309D01*
X233907818Y-81871808D01*
X234041068Y-82121101D01*
X234220392Y-82339608D01*
X234438899Y-82518932D01*
X234571858Y-82590000D01*
X234438899Y-82661068D01*
X234220392Y-82840392D01*
X234041068Y-83058899D01*
X233907818Y-83308192D01*
X233825764Y-83578691D01*
X233798057Y-83860000D01*
X233825764Y-84141309D01*
X233907818Y-84411808D01*
X234041068Y-84661101D01*
X234220392Y-84879608D01*
X234438899Y-85058932D01*
X234571858Y-85130000D01*
X234438899Y-85201068D01*
X234220392Y-85380392D01*
X234041068Y-85598899D01*
X233907818Y-85848192D01*
X233825764Y-86118691D01*
X233798057Y-86400000D01*
X233825764Y-86681309D01*
X233907818Y-86951808D01*
X234041068Y-87201101D01*
X234220392Y-87419608D01*
X234438899Y-87598932D01*
X234571858Y-87670000D01*
X234438899Y-87741068D01*
X234220392Y-87920392D01*
X234041068Y-88138899D01*
X233907818Y-88388192D01*
X233825764Y-88658691D01*
X233798057Y-88940000D01*
X233825764Y-89221309D01*
X233907818Y-89491808D01*
X234041068Y-89741101D01*
X234220392Y-89959608D01*
X234438899Y-90138932D01*
X234571858Y-90210000D01*
X234438899Y-90281068D01*
X234220392Y-90460392D01*
X234041068Y-90678899D01*
X233907818Y-90928192D01*
X233825764Y-91198691D01*
X233798057Y-91480000D01*
X233808972Y-91590818D01*
X233763689Y-91577082D01*
X233641019Y-91565000D01*
X233641018Y-91565000D01*
X233600000Y-91560960D01*
X233558982Y-91565000D01*
X233013285Y-91565000D01*
X232890256Y-91482795D01*
X232701898Y-91404774D01*
X232501939Y-91365000D01*
X232298061Y-91365000D01*
X232098102Y-91404774D01*
X231909744Y-91482795D01*
X231740226Y-91596063D01*
X231596063Y-91740226D01*
X231482795Y-91909744D01*
X231404774Y-92098102D01*
X231365000Y-92298061D01*
X221185013Y-92298061D01*
X221198932Y-92281101D01*
X221332182Y-92031808D01*
X221414236Y-91761309D01*
X221441943Y-91480000D01*
X221414236Y-91198691D01*
X221332182Y-90928192D01*
X221198932Y-90678899D01*
X221019608Y-90460392D01*
X220801101Y-90281068D01*
X220668142Y-90210000D01*
X220801101Y-90138932D01*
X221019608Y-89959608D01*
X221198932Y-89741101D01*
X221332182Y-89491808D01*
X221414236Y-89221309D01*
X221441943Y-88940000D01*
X221414236Y-88658691D01*
X221332182Y-88388192D01*
X221198932Y-88138899D01*
X221019608Y-87920392D01*
X220801101Y-87741068D01*
X220668142Y-87670000D01*
X220801101Y-87598932D01*
X221019608Y-87419608D01*
X221198932Y-87201101D01*
X221332182Y-86951808D01*
X221414236Y-86681309D01*
X221441943Y-86400000D01*
X221414236Y-86118691D01*
X221332182Y-85848192D01*
X221198932Y-85598899D01*
X221019608Y-85380392D01*
X220801101Y-85201068D01*
X220668142Y-85130000D01*
X220801101Y-85058932D01*
X221019608Y-84879608D01*
X221198932Y-84661101D01*
X221332182Y-84411808D01*
X221414236Y-84141309D01*
X221441943Y-83860000D01*
X221414236Y-83578691D01*
X221332182Y-83308192D01*
X221198932Y-83058899D01*
X221019608Y-82840392D01*
X220801101Y-82661068D01*
X220668142Y-82590000D01*
X220801101Y-82518932D01*
X221019608Y-82339608D01*
X221198932Y-82121101D01*
X221332182Y-81871808D01*
X221414236Y-81601309D01*
X221441943Y-81320000D01*
X221414236Y-81038691D01*
X221332182Y-80768192D01*
X221198932Y-80518899D01*
X221019608Y-80300392D01*
X220801101Y-80121068D01*
X220668142Y-80050000D01*
X220801101Y-79978932D01*
X221019608Y-79799608D01*
X221198932Y-79581101D01*
X221332182Y-79331808D01*
X221414236Y-79061309D01*
X221441943Y-78780000D01*
X221414236Y-78498691D01*
X221332182Y-78228192D01*
X221198932Y-77978899D01*
X221019608Y-77760392D01*
X220801101Y-77581068D01*
X220668142Y-77510000D01*
X220801101Y-77438932D01*
X221019608Y-77259608D01*
X221198932Y-77041101D01*
X221332182Y-76791808D01*
X221414236Y-76521309D01*
X221441943Y-76240000D01*
X221414236Y-75958691D01*
X221332182Y-75688192D01*
X221198932Y-75438899D01*
X221019608Y-75220392D01*
X220801101Y-75041068D01*
X220668142Y-74970000D01*
X220801101Y-74898932D01*
X221019608Y-74719608D01*
X221198932Y-74501101D01*
X221332182Y-74251808D01*
X221414236Y-73981309D01*
X221441943Y-73700000D01*
X221414236Y-73418691D01*
X221332182Y-73148192D01*
X221198932Y-72898899D01*
X221019608Y-72680392D01*
X220801101Y-72501068D01*
X220668142Y-72430000D01*
X220801101Y-72358932D01*
X221019608Y-72179608D01*
X221198932Y-71961101D01*
X221332182Y-71711808D01*
X221414236Y-71441309D01*
X221441943Y-71160000D01*
X221414236Y-70878691D01*
X221332182Y-70608192D01*
X221198932Y-70358899D01*
X221019608Y-70140392D01*
X220801101Y-69961068D01*
X220663318Y-69887421D01*
X220855131Y-69772385D01*
X221063519Y-69583414D01*
X221231037Y-69357420D01*
X221351246Y-69103087D01*
X221391904Y-68969039D01*
X221269915Y-68747000D01*
X220127000Y-68747000D01*
X220127000Y-68767000D01*
X219873000Y-68767000D01*
X219873000Y-68747000D01*
X218730085Y-68747000D01*
X218608096Y-68969039D01*
X218648754Y-69103087D01*
X218768963Y-69357420D01*
X218936481Y-69583414D01*
X219144869Y-69772385D01*
X219336682Y-69887421D01*
X219198899Y-69961068D01*
X218980392Y-70140392D01*
X218801068Y-70358899D01*
X218667818Y-70608192D01*
X218585764Y-70878691D01*
X218558057Y-71160000D01*
X200688752Y-71160000D01*
X200786825Y-70954099D01*
X200831476Y-70806890D01*
X200710155Y-70577000D01*
X199517000Y-70577000D01*
X199263000Y-70577000D01*
X199243000Y-70577000D01*
X199243000Y-70323000D01*
X199263000Y-70323000D01*
X199263000Y-69129186D01*
X199517000Y-69129186D01*
X199517000Y-70323000D01*
X200710155Y-70323000D01*
X200831476Y-70093110D01*
X200786825Y-69945901D01*
X200661641Y-69683080D01*
X200487588Y-69449731D01*
X200271355Y-69254822D01*
X200021252Y-69105843D01*
X199746891Y-69008519D01*
X199517000Y-69129186D01*
X199263000Y-69129186D01*
X199033109Y-69008519D01*
X198758748Y-69105843D01*
X198508645Y-69254822D01*
X198292412Y-69449731D01*
X198121584Y-69678756D01*
X198090706Y-69620986D01*
X197905134Y-69394866D01*
X197679014Y-69209294D01*
X197421034Y-69071401D01*
X197141111Y-68986487D01*
X196922950Y-68965000D01*
X196777050Y-68965000D01*
X196558889Y-68986487D01*
X196278966Y-69071401D01*
X196020986Y-69209294D01*
X195794866Y-69394866D01*
X195609294Y-69620986D01*
X195580000Y-69675791D01*
X195550706Y-69620986D01*
X195365134Y-69394866D01*
X195139014Y-69209294D01*
X194881034Y-69071401D01*
X194601111Y-68986487D01*
X194382950Y-68965000D01*
X194237050Y-68965000D01*
X194018889Y-68986487D01*
X193738966Y-69071401D01*
X193480986Y-69209294D01*
X193254866Y-69394866D01*
X193069294Y-69620986D01*
X193040000Y-69675791D01*
X193010706Y-69620986D01*
X192825134Y-69394866D01*
X192599014Y-69209294D01*
X192341034Y-69071401D01*
X192061111Y-68986487D01*
X191842950Y-68965000D01*
X191697050Y-68965000D01*
X191478889Y-68986487D01*
X191198966Y-69071401D01*
X190940986Y-69209294D01*
X190714866Y-69394866D01*
X190529294Y-69620986D01*
X190500000Y-69675791D01*
X190470706Y-69620986D01*
X190285134Y-69394866D01*
X190059014Y-69209294D01*
X189801034Y-69071401D01*
X189521111Y-68986487D01*
X189302950Y-68965000D01*
X189157050Y-68965000D01*
X188938889Y-68986487D01*
X188658966Y-69071401D01*
X188400986Y-69209294D01*
X188174866Y-69394866D01*
X187989294Y-69620986D01*
X187960000Y-69675791D01*
X187930706Y-69620986D01*
X187745134Y-69394866D01*
X187519014Y-69209294D01*
X187261034Y-69071401D01*
X186981111Y-68986487D01*
X186762950Y-68965000D01*
X186617050Y-68965000D01*
X186398889Y-68986487D01*
X186118966Y-69071401D01*
X185860986Y-69209294D01*
X185634866Y-69394866D01*
X185449294Y-69620986D01*
X185420000Y-69675791D01*
X185390706Y-69620986D01*
X185205134Y-69394866D01*
X184979014Y-69209294D01*
X184721034Y-69071401D01*
X184441111Y-68986487D01*
X184222950Y-68965000D01*
X184077050Y-68965000D01*
X183858889Y-68986487D01*
X183578966Y-69071401D01*
X183320986Y-69209294D01*
X183094866Y-69394866D01*
X182909294Y-69620986D01*
X182880000Y-69675791D01*
X182850706Y-69620986D01*
X182665134Y-69394866D01*
X182439014Y-69209294D01*
X182181034Y-69071401D01*
X181901111Y-68986487D01*
X181682950Y-68965000D01*
X181537050Y-68965000D01*
X181318889Y-68986487D01*
X181038966Y-69071401D01*
X180780986Y-69209294D01*
X180554866Y-69394866D01*
X180369294Y-69620986D01*
X180340000Y-69675791D01*
X180310706Y-69620986D01*
X180125134Y-69394866D01*
X179899014Y-69209294D01*
X179641034Y-69071401D01*
X179361111Y-68986487D01*
X179142950Y-68965000D01*
X178997050Y-68965000D01*
X178778889Y-68986487D01*
X178498966Y-69071401D01*
X178240986Y-69209294D01*
X178014866Y-69394866D01*
X177829294Y-69620986D01*
X177800000Y-69675791D01*
X177770706Y-69620986D01*
X177585134Y-69394866D01*
X177359014Y-69209294D01*
X177101034Y-69071401D01*
X176821111Y-68986487D01*
X176602950Y-68965000D01*
X176457050Y-68965000D01*
X176238889Y-68986487D01*
X175958966Y-69071401D01*
X175700986Y-69209294D01*
X175474866Y-69394866D01*
X175289294Y-69620986D01*
X175260000Y-69675791D01*
X175230706Y-69620986D01*
X175045134Y-69394866D01*
X174819014Y-69209294D01*
X174561034Y-69071401D01*
X174281111Y-68986487D01*
X174062950Y-68965000D01*
X173917050Y-68965000D01*
X173698889Y-68986487D01*
X173418966Y-69071401D01*
X173160986Y-69209294D01*
X172934866Y-69394866D01*
X172749294Y-69620986D01*
X172710646Y-69693291D01*
X172690706Y-69655986D01*
X172505134Y-69429866D01*
X172279014Y-69244294D01*
X172021034Y-69106401D01*
X171741111Y-69021487D01*
X171522950Y-69000000D01*
X171377050Y-69000000D01*
X171158889Y-69021487D01*
X170878966Y-69106401D01*
X170620986Y-69244294D01*
X170394866Y-69429866D01*
X170209294Y-69655986D01*
X170180000Y-69710791D01*
X170150706Y-69655986D01*
X169965134Y-69429866D01*
X169739014Y-69244294D01*
X169481034Y-69106401D01*
X169201111Y-69021487D01*
X168982950Y-69000000D01*
X168837050Y-69000000D01*
X168618889Y-69021487D01*
X168338966Y-69106401D01*
X168080986Y-69244294D01*
X167854866Y-69429866D01*
X167669294Y-69655986D01*
X167531401Y-69913966D01*
X167446487Y-70193889D01*
X167417815Y-70485000D01*
X163710000Y-70485000D01*
X163710000Y-63540000D01*
X218558057Y-63540000D01*
X218585764Y-63821309D01*
X218667818Y-64091808D01*
X218801068Y-64341101D01*
X218980392Y-64559608D01*
X219198899Y-64738932D01*
X219331858Y-64810000D01*
X219198899Y-64881068D01*
X218980392Y-65060392D01*
X218801068Y-65278899D01*
X218667818Y-65528192D01*
X218585764Y-65798691D01*
X218558057Y-66080000D01*
X218585764Y-66361309D01*
X218667818Y-66631808D01*
X218801068Y-66881101D01*
X218980392Y-67099608D01*
X219198899Y-67278932D01*
X219336682Y-67352579D01*
X219144869Y-67467615D01*
X218936481Y-67656586D01*
X218768963Y-67882580D01*
X218648754Y-68136913D01*
X218608096Y-68270961D01*
X218730085Y-68493000D01*
X219873000Y-68493000D01*
X219873000Y-68473000D01*
X220127000Y-68473000D01*
X220127000Y-68493000D01*
X221269915Y-68493000D01*
X221391904Y-68270961D01*
X221351246Y-68136913D01*
X221231037Y-67882580D01*
X221063519Y-67656586D01*
X220855131Y-67467615D01*
X220663318Y-67352579D01*
X220801101Y-67278932D01*
X221019608Y-67099608D01*
X221198932Y-66881101D01*
X221332182Y-66631808D01*
X221414236Y-66361309D01*
X221441943Y-66080000D01*
X221414236Y-65798691D01*
X221332182Y-65528192D01*
X221198932Y-65278899D01*
X221019608Y-65060392D01*
X220801101Y-64881068D01*
X220668142Y-64810000D01*
X220801101Y-64738932D01*
X221019608Y-64559608D01*
X221198932Y-64341101D01*
X221332182Y-64091808D01*
X221414236Y-63821309D01*
X221441943Y-63540000D01*
X221414236Y-63258691D01*
X221332182Y-62988192D01*
X221198932Y-62738899D01*
X221019608Y-62520392D01*
X220906518Y-62427581D01*
X220924482Y-62425812D01*
X221044180Y-62389502D01*
X221154494Y-62330537D01*
X221251185Y-62251185D01*
X221330537Y-62154494D01*
X221389502Y-62044180D01*
X221425812Y-61924482D01*
X221438072Y-61800000D01*
X221438072Y-61000000D01*
X233798057Y-61000000D01*
X233825764Y-61281309D01*
X233907818Y-61551808D01*
X234041068Y-61801101D01*
X234220392Y-62019608D01*
X234438899Y-62198932D01*
X234576682Y-62272579D01*
X234384869Y-62387615D01*
X234176481Y-62576586D01*
X234008963Y-62802580D01*
X233888754Y-63056913D01*
X233848096Y-63190961D01*
X233970085Y-63413000D01*
X235113000Y-63413000D01*
X235113000Y-63393000D01*
X235367000Y-63393000D01*
X235367000Y-63413000D01*
X236509915Y-63413000D01*
X236631904Y-63190961D01*
X236591246Y-63056913D01*
X236471037Y-62802580D01*
X236303519Y-62576586D01*
X236095131Y-62387615D01*
X235903318Y-62272579D01*
X236041101Y-62198932D01*
X236259608Y-62019608D01*
X236438932Y-61801101D01*
X236572182Y-61551808D01*
X236649052Y-61298397D01*
X256131208Y-61298397D01*
X256208843Y-61547472D01*
X256472883Y-61673371D01*
X256756411Y-61745339D01*
X257048531Y-61760611D01*
X257338019Y-61718599D01*
X257613747Y-61620919D01*
X257751157Y-61547472D01*
X257828792Y-61298397D01*
X256980000Y-60449605D01*
X256131208Y-61298397D01*
X236649052Y-61298397D01*
X236654236Y-61281309D01*
X236681943Y-61000000D01*
X236654236Y-60718691D01*
X236572182Y-60448192D01*
X236438932Y-60198899D01*
X236259608Y-59980392D01*
X236041101Y-59801068D01*
X235791808Y-59667818D01*
X235521309Y-59585764D01*
X235310492Y-59565000D01*
X235169508Y-59565000D01*
X234958691Y-59585764D01*
X234688192Y-59667818D01*
X234438899Y-59801068D01*
X234220392Y-59980392D01*
X234041068Y-60198899D01*
X233907818Y-60448192D01*
X233825764Y-60718691D01*
X233798057Y-61000000D01*
X221438072Y-61000000D01*
X221438072Y-60200000D01*
X221425812Y-60075518D01*
X221389502Y-59955820D01*
X221330537Y-59845506D01*
X221251185Y-59748815D01*
X221154494Y-59669463D01*
X221044180Y-59610498D01*
X220924482Y-59574188D01*
X220800000Y-59561928D01*
X219200000Y-59561928D01*
X219075518Y-59574188D01*
X218955820Y-59610498D01*
X218845506Y-59669463D01*
X218748815Y-59748815D01*
X218669463Y-59845506D01*
X218610498Y-59955820D01*
X218574188Y-60075518D01*
X218561928Y-60200000D01*
X218561928Y-61800000D01*
X218574188Y-61924482D01*
X218610498Y-62044180D01*
X218669463Y-62154494D01*
X218748815Y-62251185D01*
X218845506Y-62330537D01*
X218955820Y-62389502D01*
X219075518Y-62425812D01*
X219093482Y-62427581D01*
X218980392Y-62520392D01*
X218801068Y-62738899D01*
X218667818Y-62988192D01*
X218585764Y-63258691D01*
X218558057Y-63540000D01*
X163710000Y-63540000D01*
X163710000Y-60350000D01*
X166511928Y-60350000D01*
X166524188Y-60474482D01*
X166560498Y-60594180D01*
X166619463Y-60704494D01*
X166698815Y-60801185D01*
X166795506Y-60880537D01*
X166905820Y-60939502D01*
X167025518Y-60975812D01*
X167150000Y-60988072D01*
X167714250Y-60985000D01*
X167873000Y-60826250D01*
X167873000Y-59627000D01*
X166673750Y-59627000D01*
X166515000Y-59785750D01*
X166511928Y-60350000D01*
X163710000Y-60350000D01*
X163710000Y-58650000D01*
X166511928Y-58650000D01*
X166515000Y-59214250D01*
X166673750Y-59373000D01*
X167873000Y-59373000D01*
X167873000Y-58173750D01*
X168127000Y-58173750D01*
X168127000Y-59373000D01*
X168147000Y-59373000D01*
X168147000Y-59627000D01*
X168127000Y-59627000D01*
X168127000Y-60826250D01*
X168285750Y-60985000D01*
X168850000Y-60988072D01*
X168974482Y-60975812D01*
X169094180Y-60939502D01*
X169204494Y-60880537D01*
X169301185Y-60801185D01*
X169380537Y-60704494D01*
X169439502Y-60594180D01*
X169460393Y-60525313D01*
X169484866Y-60555134D01*
X169710986Y-60740706D01*
X169968966Y-60878599D01*
X170248889Y-60963513D01*
X170467050Y-60985000D01*
X170612950Y-60985000D01*
X170831111Y-60963513D01*
X171111034Y-60878599D01*
X171369014Y-60740706D01*
X171595134Y-60555134D01*
X171780706Y-60329014D01*
X171810000Y-60274209D01*
X171839294Y-60329014D01*
X172024866Y-60555134D01*
X172250986Y-60740706D01*
X172508966Y-60878599D01*
X172788889Y-60963513D01*
X173007050Y-60985000D01*
X173152950Y-60985000D01*
X173371111Y-60963513D01*
X173651034Y-60878599D01*
X173909014Y-60740706D01*
X174135134Y-60555134D01*
X174320706Y-60329014D01*
X174350000Y-60274209D01*
X174379294Y-60329014D01*
X174564866Y-60555134D01*
X174790986Y-60740706D01*
X175048966Y-60878599D01*
X175328889Y-60963513D01*
X175547050Y-60985000D01*
X175692950Y-60985000D01*
X175911111Y-60963513D01*
X176191034Y-60878599D01*
X176449014Y-60740706D01*
X176675134Y-60555134D01*
X176860706Y-60329014D01*
X176890000Y-60274209D01*
X176919294Y-60329014D01*
X177104866Y-60555134D01*
X177330986Y-60740706D01*
X177588966Y-60878599D01*
X177868889Y-60963513D01*
X178087050Y-60985000D01*
X178232950Y-60985000D01*
X178451111Y-60963513D01*
X178731034Y-60878599D01*
X178989014Y-60740706D01*
X179215134Y-60555134D01*
X179400706Y-60329014D01*
X179430000Y-60274209D01*
X179459294Y-60329014D01*
X179644866Y-60555134D01*
X179870986Y-60740706D01*
X180128966Y-60878599D01*
X180408889Y-60963513D01*
X180627050Y-60985000D01*
X180772950Y-60985000D01*
X180991111Y-60963513D01*
X181271034Y-60878599D01*
X181529014Y-60740706D01*
X181755134Y-60555134D01*
X181940706Y-60329014D01*
X182078599Y-60071034D01*
X182143558Y-59856891D01*
X184518519Y-59856891D01*
X184615843Y-60131252D01*
X184764822Y-60381355D01*
X184959731Y-60597588D01*
X185193080Y-60771641D01*
X185455901Y-60896825D01*
X185603110Y-60941476D01*
X185833000Y-60820155D01*
X185833000Y-59627000D01*
X184639186Y-59627000D01*
X184518519Y-59856891D01*
X182143558Y-59856891D01*
X182163513Y-59791111D01*
X182192185Y-59500000D01*
X182163513Y-59208889D01*
X182143559Y-59143109D01*
X184518519Y-59143109D01*
X184639186Y-59373000D01*
X185833000Y-59373000D01*
X185833000Y-58179845D01*
X186087000Y-58179845D01*
X186087000Y-59373000D01*
X186107000Y-59373000D01*
X186107000Y-59627000D01*
X186087000Y-59627000D01*
X186087000Y-60820155D01*
X186316890Y-60941476D01*
X186464099Y-60896825D01*
X186726920Y-60771641D01*
X186960269Y-60597588D01*
X187155178Y-60381355D01*
X187224799Y-60264477D01*
X187259294Y-60329014D01*
X187444866Y-60555134D01*
X187670986Y-60740706D01*
X187928966Y-60878599D01*
X188208889Y-60963513D01*
X188427050Y-60985000D01*
X188572950Y-60985000D01*
X188791111Y-60963513D01*
X189071034Y-60878599D01*
X189329014Y-60740706D01*
X189555134Y-60555134D01*
X189740706Y-60329014D01*
X189770000Y-60274209D01*
X189799294Y-60329014D01*
X189984866Y-60555134D01*
X190210986Y-60740706D01*
X190468966Y-60878599D01*
X190748889Y-60963513D01*
X190967050Y-60985000D01*
X191112950Y-60985000D01*
X191331111Y-60963513D01*
X191611034Y-60878599D01*
X191869014Y-60740706D01*
X192095134Y-60555134D01*
X192280706Y-60329014D01*
X192310000Y-60274209D01*
X192339294Y-60329014D01*
X192524866Y-60555134D01*
X192750986Y-60740706D01*
X193008966Y-60878599D01*
X193288889Y-60963513D01*
X193507050Y-60985000D01*
X193652950Y-60985000D01*
X193871111Y-60963513D01*
X194151034Y-60878599D01*
X194409014Y-60740706D01*
X194635134Y-60555134D01*
X194820706Y-60329014D01*
X194850000Y-60274209D01*
X194879294Y-60329014D01*
X195064866Y-60555134D01*
X195290986Y-60740706D01*
X195548966Y-60878599D01*
X195828889Y-60963513D01*
X196047050Y-60985000D01*
X196192950Y-60985000D01*
X196411111Y-60963513D01*
X196691034Y-60878599D01*
X196949014Y-60740706D01*
X197175134Y-60555134D01*
X197360706Y-60329014D01*
X197390000Y-60274209D01*
X197419294Y-60329014D01*
X197604866Y-60555134D01*
X197830986Y-60740706D01*
X198088966Y-60878599D01*
X198368889Y-60963513D01*
X198587050Y-60985000D01*
X198732950Y-60985000D01*
X198951111Y-60963513D01*
X199231034Y-60878599D01*
X199489014Y-60740706D01*
X199715134Y-60555134D01*
X199739607Y-60525313D01*
X199760498Y-60594180D01*
X199819463Y-60704494D01*
X199898815Y-60801185D01*
X199995506Y-60880537D01*
X200105820Y-60939502D01*
X200225518Y-60975812D01*
X200350000Y-60988072D01*
X202050000Y-60988072D01*
X202174482Y-60975812D01*
X202294180Y-60939502D01*
X202404494Y-60880537D01*
X202501185Y-60801185D01*
X202580537Y-60704494D01*
X202639502Y-60594180D01*
X202675812Y-60474482D01*
X202688072Y-60350000D01*
X202688072Y-59356891D01*
X239798519Y-59356891D01*
X239895843Y-59631252D01*
X240044822Y-59881355D01*
X240239731Y-60097588D01*
X240473080Y-60271641D01*
X240735901Y-60396825D01*
X240883110Y-60441476D01*
X241113000Y-60320155D01*
X241113000Y-59127000D01*
X239919186Y-59127000D01*
X239798519Y-59356891D01*
X202688072Y-59356891D01*
X202688072Y-58650000D01*
X202687394Y-58643109D01*
X239798519Y-58643109D01*
X239919186Y-58873000D01*
X241113000Y-58873000D01*
X241113000Y-57679845D01*
X241367000Y-57679845D01*
X241367000Y-58873000D01*
X241387000Y-58873000D01*
X241387000Y-59127000D01*
X241367000Y-59127000D01*
X241367000Y-60320155D01*
X241596890Y-60441476D01*
X241744099Y-60396825D01*
X242006920Y-60271641D01*
X242240269Y-60097588D01*
X242435178Y-59881355D01*
X242504799Y-59764477D01*
X242539294Y-59829014D01*
X242724866Y-60055134D01*
X242950986Y-60240706D01*
X243208966Y-60378599D01*
X243488889Y-60463513D01*
X243707050Y-60485000D01*
X243852950Y-60485000D01*
X244071111Y-60463513D01*
X244351034Y-60378599D01*
X244609014Y-60240706D01*
X244835134Y-60055134D01*
X245020706Y-59829014D01*
X245050000Y-59774209D01*
X245079294Y-59829014D01*
X245264866Y-60055134D01*
X245490986Y-60240706D01*
X245748966Y-60378599D01*
X246028889Y-60463513D01*
X246247050Y-60485000D01*
X246392950Y-60485000D01*
X246611111Y-60463513D01*
X246891034Y-60378599D01*
X247149014Y-60240706D01*
X247375134Y-60055134D01*
X247560706Y-59829014D01*
X247590000Y-59774209D01*
X247619294Y-59829014D01*
X247804866Y-60055134D01*
X248030986Y-60240706D01*
X248288966Y-60378599D01*
X248568889Y-60463513D01*
X248787050Y-60485000D01*
X248932950Y-60485000D01*
X249151111Y-60463513D01*
X249431034Y-60378599D01*
X249689014Y-60240706D01*
X249915134Y-60055134D01*
X249939607Y-60025313D01*
X249960498Y-60094180D01*
X250019463Y-60204494D01*
X250098815Y-60301185D01*
X250195506Y-60380537D01*
X250305820Y-60439502D01*
X250425518Y-60475812D01*
X250550000Y-60488072D01*
X252250000Y-60488072D01*
X252374482Y-60475812D01*
X252494180Y-60439502D01*
X252604494Y-60380537D01*
X252655678Y-60338531D01*
X255489389Y-60338531D01*
X255531401Y-60628019D01*
X255629081Y-60903747D01*
X255702528Y-61041157D01*
X255951603Y-61118792D01*
X256800395Y-60270000D01*
X255951603Y-59421208D01*
X255702528Y-59498843D01*
X255576629Y-59762883D01*
X255504661Y-60046411D01*
X255489389Y-60338531D01*
X252655678Y-60338531D01*
X252701185Y-60301185D01*
X252780537Y-60204494D01*
X252839502Y-60094180D01*
X252875812Y-59974482D01*
X252888072Y-59850000D01*
X252888072Y-58150000D01*
X252875812Y-58025518D01*
X252839502Y-57905820D01*
X252780537Y-57795506D01*
X252701185Y-57698815D01*
X252604494Y-57619463D01*
X252537663Y-57583740D01*
X255495000Y-57583740D01*
X255495000Y-57876260D01*
X255552068Y-58163158D01*
X255664010Y-58433411D01*
X255826525Y-58676632D01*
X256033368Y-58883475D01*
X256206729Y-58999311D01*
X256131208Y-59241603D01*
X256980000Y-60090395D01*
X257828792Y-59241603D01*
X257753271Y-58999311D01*
X257926632Y-58883475D01*
X258133475Y-58676632D01*
X258250000Y-58502240D01*
X258366525Y-58676632D01*
X258573368Y-58883475D01*
X258747760Y-59000000D01*
X258573368Y-59116525D01*
X258366525Y-59323368D01*
X258250689Y-59496729D01*
X258008397Y-59421208D01*
X257159605Y-60270000D01*
X258008397Y-61118792D01*
X258250689Y-61043271D01*
X258366525Y-61216632D01*
X258573368Y-61423475D01*
X258816589Y-61585990D01*
X259086842Y-61697932D01*
X259373740Y-61755000D01*
X259666260Y-61755000D01*
X259953158Y-61697932D01*
X260223411Y-61585990D01*
X260466632Y-61423475D01*
X260673475Y-61216632D01*
X260835990Y-60973411D01*
X260947932Y-60703158D01*
X261005000Y-60416260D01*
X261005000Y-60123740D01*
X260947932Y-59836842D01*
X260835990Y-59566589D01*
X260673475Y-59323368D01*
X260466632Y-59116525D01*
X260292240Y-59000000D01*
X260466632Y-58883475D01*
X260673475Y-58676632D01*
X260835990Y-58433411D01*
X260947932Y-58163158D01*
X261005000Y-57876260D01*
X261005000Y-57583740D01*
X260947932Y-57296842D01*
X260835990Y-57026589D01*
X260673475Y-56783368D01*
X260466632Y-56576525D01*
X260223411Y-56414010D01*
X259953158Y-56302068D01*
X259666260Y-56245000D01*
X259373740Y-56245000D01*
X259086842Y-56302068D01*
X258816589Y-56414010D01*
X258573368Y-56576525D01*
X258366525Y-56783368D01*
X258250000Y-56957760D01*
X258133475Y-56783368D01*
X257926632Y-56576525D01*
X257683411Y-56414010D01*
X257413158Y-56302068D01*
X257126260Y-56245000D01*
X256833740Y-56245000D01*
X256546842Y-56302068D01*
X256276589Y-56414010D01*
X256033368Y-56576525D01*
X255826525Y-56783368D01*
X255664010Y-57026589D01*
X255552068Y-57296842D01*
X255495000Y-57583740D01*
X252537663Y-57583740D01*
X252494180Y-57560498D01*
X252374482Y-57524188D01*
X252250000Y-57511928D01*
X250550000Y-57511928D01*
X250425518Y-57524188D01*
X250305820Y-57560498D01*
X250195506Y-57619463D01*
X250098815Y-57698815D01*
X250019463Y-57795506D01*
X249960498Y-57905820D01*
X249939607Y-57974687D01*
X249915134Y-57944866D01*
X249689014Y-57759294D01*
X249431034Y-57621401D01*
X249151111Y-57536487D01*
X248932950Y-57515000D01*
X248787050Y-57515000D01*
X248568889Y-57536487D01*
X248288966Y-57621401D01*
X248030986Y-57759294D01*
X247804866Y-57944866D01*
X247619294Y-58170986D01*
X247590000Y-58225791D01*
X247560706Y-58170986D01*
X247375134Y-57944866D01*
X247149014Y-57759294D01*
X246891034Y-57621401D01*
X246611111Y-57536487D01*
X246392950Y-57515000D01*
X246247050Y-57515000D01*
X246028889Y-57536487D01*
X245748966Y-57621401D01*
X245490986Y-57759294D01*
X245264866Y-57944866D01*
X245079294Y-58170986D01*
X245050000Y-58225791D01*
X245020706Y-58170986D01*
X244835134Y-57944866D01*
X244609014Y-57759294D01*
X244351034Y-57621401D01*
X244071111Y-57536487D01*
X243852950Y-57515000D01*
X243707050Y-57515000D01*
X243488889Y-57536487D01*
X243208966Y-57621401D01*
X242950986Y-57759294D01*
X242724866Y-57944866D01*
X242539294Y-58170986D01*
X242504799Y-58235523D01*
X242435178Y-58118645D01*
X242240269Y-57902412D01*
X242006920Y-57728359D01*
X241744099Y-57603175D01*
X241596890Y-57558524D01*
X241367000Y-57679845D01*
X241113000Y-57679845D01*
X240883110Y-57558524D01*
X240735901Y-57603175D01*
X240473080Y-57728359D01*
X240239731Y-57902412D01*
X240044822Y-58118645D01*
X239895843Y-58368748D01*
X239798519Y-58643109D01*
X202687394Y-58643109D01*
X202675812Y-58525518D01*
X202639502Y-58405820D01*
X202580537Y-58295506D01*
X202501185Y-58198815D01*
X202404494Y-58119463D01*
X202294180Y-58060498D01*
X202174482Y-58024188D01*
X202050000Y-58011928D01*
X200350000Y-58011928D01*
X200225518Y-58024188D01*
X200105820Y-58060498D01*
X199995506Y-58119463D01*
X199898815Y-58198815D01*
X199819463Y-58295506D01*
X199760498Y-58405820D01*
X199739607Y-58474687D01*
X199715134Y-58444866D01*
X199489014Y-58259294D01*
X199231034Y-58121401D01*
X198951111Y-58036487D01*
X198732950Y-58015000D01*
X198587050Y-58015000D01*
X198368889Y-58036487D01*
X198088966Y-58121401D01*
X197830986Y-58259294D01*
X197604866Y-58444866D01*
X197419294Y-58670986D01*
X197390000Y-58725791D01*
X197360706Y-58670986D01*
X197175134Y-58444866D01*
X196949014Y-58259294D01*
X196691034Y-58121401D01*
X196411111Y-58036487D01*
X196192950Y-58015000D01*
X196047050Y-58015000D01*
X195828889Y-58036487D01*
X195548966Y-58121401D01*
X195290986Y-58259294D01*
X195064866Y-58444866D01*
X194879294Y-58670986D01*
X194850000Y-58725791D01*
X194820706Y-58670986D01*
X194635134Y-58444866D01*
X194409014Y-58259294D01*
X194151034Y-58121401D01*
X193871111Y-58036487D01*
X193652950Y-58015000D01*
X193507050Y-58015000D01*
X193288889Y-58036487D01*
X193008966Y-58121401D01*
X192750986Y-58259294D01*
X192524866Y-58444866D01*
X192339294Y-58670986D01*
X192310000Y-58725791D01*
X192280706Y-58670986D01*
X192095134Y-58444866D01*
X191869014Y-58259294D01*
X191611034Y-58121401D01*
X191331111Y-58036487D01*
X191112950Y-58015000D01*
X190967050Y-58015000D01*
X190748889Y-58036487D01*
X190468966Y-58121401D01*
X190210986Y-58259294D01*
X189984866Y-58444866D01*
X189799294Y-58670986D01*
X189770000Y-58725791D01*
X189740706Y-58670986D01*
X189555134Y-58444866D01*
X189329014Y-58259294D01*
X189071034Y-58121401D01*
X188791111Y-58036487D01*
X188572950Y-58015000D01*
X188427050Y-58015000D01*
X188208889Y-58036487D01*
X187928966Y-58121401D01*
X187670986Y-58259294D01*
X187444866Y-58444866D01*
X187259294Y-58670986D01*
X187224799Y-58735523D01*
X187155178Y-58618645D01*
X186960269Y-58402412D01*
X186726920Y-58228359D01*
X186464099Y-58103175D01*
X186316890Y-58058524D01*
X186087000Y-58179845D01*
X185833000Y-58179845D01*
X185603110Y-58058524D01*
X185455901Y-58103175D01*
X185193080Y-58228359D01*
X184959731Y-58402412D01*
X184764822Y-58618645D01*
X184615843Y-58868748D01*
X184518519Y-59143109D01*
X182143559Y-59143109D01*
X182078599Y-58928966D01*
X181940706Y-58670986D01*
X181755134Y-58444866D01*
X181529014Y-58259294D01*
X181271034Y-58121401D01*
X180991111Y-58036487D01*
X180772950Y-58015000D01*
X180627050Y-58015000D01*
X180408889Y-58036487D01*
X180128966Y-58121401D01*
X179870986Y-58259294D01*
X179644866Y-58444866D01*
X179459294Y-58670986D01*
X179430000Y-58725791D01*
X179400706Y-58670986D01*
X179215134Y-58444866D01*
X178989014Y-58259294D01*
X178731034Y-58121401D01*
X178451111Y-58036487D01*
X178232950Y-58015000D01*
X178087050Y-58015000D01*
X177868889Y-58036487D01*
X177588966Y-58121401D01*
X177330986Y-58259294D01*
X177104866Y-58444866D01*
X176919294Y-58670986D01*
X176890000Y-58725791D01*
X176860706Y-58670986D01*
X176675134Y-58444866D01*
X176449014Y-58259294D01*
X176191034Y-58121401D01*
X175911111Y-58036487D01*
X175692950Y-58015000D01*
X175547050Y-58015000D01*
X175328889Y-58036487D01*
X175048966Y-58121401D01*
X174790986Y-58259294D01*
X174564866Y-58444866D01*
X174379294Y-58670986D01*
X174350000Y-58725791D01*
X174320706Y-58670986D01*
X174135134Y-58444866D01*
X173909014Y-58259294D01*
X173651034Y-58121401D01*
X173371111Y-58036487D01*
X173152950Y-58015000D01*
X173007050Y-58015000D01*
X172788889Y-58036487D01*
X172508966Y-58121401D01*
X172250986Y-58259294D01*
X172024866Y-58444866D01*
X171839294Y-58670986D01*
X171810000Y-58725791D01*
X171780706Y-58670986D01*
X171595134Y-58444866D01*
X171369014Y-58259294D01*
X171111034Y-58121401D01*
X170831111Y-58036487D01*
X170612950Y-58015000D01*
X170467050Y-58015000D01*
X170248889Y-58036487D01*
X169968966Y-58121401D01*
X169710986Y-58259294D01*
X169484866Y-58444866D01*
X169460393Y-58474687D01*
X169439502Y-58405820D01*
X169380537Y-58295506D01*
X169301185Y-58198815D01*
X169204494Y-58119463D01*
X169094180Y-58060498D01*
X168974482Y-58024188D01*
X168850000Y-58011928D01*
X168285750Y-58015000D01*
X168127000Y-58173750D01*
X167873000Y-58173750D01*
X167714250Y-58015000D01*
X167150000Y-58011928D01*
X167025518Y-58024188D01*
X166905820Y-58060498D01*
X166795506Y-58119463D01*
X166698815Y-58198815D01*
X166619463Y-58295506D01*
X166560498Y-58405820D01*
X166524188Y-58525518D01*
X166511928Y-58650000D01*
X163710000Y-58650000D01*
X163710000Y-58034721D01*
X163756953Y-57555866D01*
X163885938Y-57128645D01*
X164095446Y-56734616D01*
X164377499Y-56388786D01*
X164721351Y-56104327D01*
X165113910Y-55892071D01*
X165540213Y-55760108D01*
X166016964Y-55710000D01*
X259965279Y-55710000D01*
X260444134Y-55756953D01*
M02*
