G04 #@! TF.GenerationSoftware,KiCad,Pcbnew,(5.1.0)-1*
G04 #@! TF.CreationDate,2019-04-07T12:03:36+10:00*
G04 #@! TF.ProjectId,SAO101,53414f31-3031-42e6-9b69-6361645f7063,rev?*
G04 #@! TF.SameCoordinates,Original*
G04 #@! TF.FileFunction,Copper,L2,Bot*
G04 #@! TF.FilePolarity,Positive*
%FSLAX46Y46*%
G04 Gerber Fmt 4.6, Leading zero omitted, Abs format (unit mm)*
G04 Created by KiCad (PCBNEW (5.1.0)-1) date 2019-04-07 12:03:36*
%MOMM*%
%LPD*%
G04 APERTURE LIST*
%ADD10C,0.100000*%
%ADD11C,0.975000*%
%ADD12C,1.350000*%
%ADD13R,2.000000X3.800000*%
%ADD14R,2.000000X1.500000*%
%ADD15C,1.700000*%
%ADD16C,0.800000*%
%ADD17C,0.600000*%
%ADD18C,0.250000*%
%ADD19C,0.400000*%
%ADD20C,1.000000*%
%ADD21C,0.200000*%
G04 APERTURE END LIST*
D10*
G36*
X131080142Y-65701174D02*
G01*
X131103803Y-65704684D01*
X131127007Y-65710496D01*
X131149529Y-65718554D01*
X131171153Y-65728782D01*
X131191670Y-65741079D01*
X131210883Y-65755329D01*
X131228607Y-65771393D01*
X131244671Y-65789117D01*
X131258921Y-65808330D01*
X131271218Y-65828847D01*
X131281446Y-65850471D01*
X131289504Y-65872993D01*
X131295316Y-65896197D01*
X131298826Y-65919858D01*
X131300000Y-65943750D01*
X131300000Y-66856250D01*
X131298826Y-66880142D01*
X131295316Y-66903803D01*
X131289504Y-66927007D01*
X131281446Y-66949529D01*
X131271218Y-66971153D01*
X131258921Y-66991670D01*
X131244671Y-67010883D01*
X131228607Y-67028607D01*
X131210883Y-67044671D01*
X131191670Y-67058921D01*
X131171153Y-67071218D01*
X131149529Y-67081446D01*
X131127007Y-67089504D01*
X131103803Y-67095316D01*
X131080142Y-67098826D01*
X131056250Y-67100000D01*
X130568750Y-67100000D01*
X130544858Y-67098826D01*
X130521197Y-67095316D01*
X130497993Y-67089504D01*
X130475471Y-67081446D01*
X130453847Y-67071218D01*
X130433330Y-67058921D01*
X130414117Y-67044671D01*
X130396393Y-67028607D01*
X130380329Y-67010883D01*
X130366079Y-66991670D01*
X130353782Y-66971153D01*
X130343554Y-66949529D01*
X130335496Y-66927007D01*
X130329684Y-66903803D01*
X130326174Y-66880142D01*
X130325000Y-66856250D01*
X130325000Y-65943750D01*
X130326174Y-65919858D01*
X130329684Y-65896197D01*
X130335496Y-65872993D01*
X130343554Y-65850471D01*
X130353782Y-65828847D01*
X130366079Y-65808330D01*
X130380329Y-65789117D01*
X130396393Y-65771393D01*
X130414117Y-65755329D01*
X130433330Y-65741079D01*
X130453847Y-65728782D01*
X130475471Y-65718554D01*
X130497993Y-65710496D01*
X130521197Y-65704684D01*
X130544858Y-65701174D01*
X130568750Y-65700000D01*
X131056250Y-65700000D01*
X131080142Y-65701174D01*
X131080142Y-65701174D01*
G37*
D11*
X130812500Y-66400000D03*
D10*
G36*
X132955142Y-65701174D02*
G01*
X132978803Y-65704684D01*
X133002007Y-65710496D01*
X133024529Y-65718554D01*
X133046153Y-65728782D01*
X133066670Y-65741079D01*
X133085883Y-65755329D01*
X133103607Y-65771393D01*
X133119671Y-65789117D01*
X133133921Y-65808330D01*
X133146218Y-65828847D01*
X133156446Y-65850471D01*
X133164504Y-65872993D01*
X133170316Y-65896197D01*
X133173826Y-65919858D01*
X133175000Y-65943750D01*
X133175000Y-66856250D01*
X133173826Y-66880142D01*
X133170316Y-66903803D01*
X133164504Y-66927007D01*
X133156446Y-66949529D01*
X133146218Y-66971153D01*
X133133921Y-66991670D01*
X133119671Y-67010883D01*
X133103607Y-67028607D01*
X133085883Y-67044671D01*
X133066670Y-67058921D01*
X133046153Y-67071218D01*
X133024529Y-67081446D01*
X133002007Y-67089504D01*
X132978803Y-67095316D01*
X132955142Y-67098826D01*
X132931250Y-67100000D01*
X132443750Y-67100000D01*
X132419858Y-67098826D01*
X132396197Y-67095316D01*
X132372993Y-67089504D01*
X132350471Y-67081446D01*
X132328847Y-67071218D01*
X132308330Y-67058921D01*
X132289117Y-67044671D01*
X132271393Y-67028607D01*
X132255329Y-67010883D01*
X132241079Y-66991670D01*
X132228782Y-66971153D01*
X132218554Y-66949529D01*
X132210496Y-66927007D01*
X132204684Y-66903803D01*
X132201174Y-66880142D01*
X132200000Y-66856250D01*
X132200000Y-65943750D01*
X132201174Y-65919858D01*
X132204684Y-65896197D01*
X132210496Y-65872993D01*
X132218554Y-65850471D01*
X132228782Y-65828847D01*
X132241079Y-65808330D01*
X132255329Y-65789117D01*
X132271393Y-65771393D01*
X132289117Y-65755329D01*
X132308330Y-65741079D01*
X132328847Y-65728782D01*
X132350471Y-65718554D01*
X132372993Y-65710496D01*
X132396197Y-65704684D01*
X132419858Y-65701174D01*
X132443750Y-65700000D01*
X132931250Y-65700000D01*
X132955142Y-65701174D01*
X132955142Y-65701174D01*
G37*
D11*
X132687500Y-66400000D03*
D10*
G36*
X128949505Y-70201204D02*
G01*
X128973773Y-70204804D01*
X128997572Y-70210765D01*
X129020671Y-70219030D01*
X129042850Y-70229520D01*
X129063893Y-70242132D01*
X129083599Y-70256747D01*
X129101777Y-70273223D01*
X129118253Y-70291401D01*
X129132868Y-70311107D01*
X129145480Y-70332150D01*
X129155970Y-70354329D01*
X129164235Y-70377428D01*
X129170196Y-70401227D01*
X129173796Y-70425495D01*
X129175000Y-70449999D01*
X129175000Y-71350001D01*
X129173796Y-71374505D01*
X129170196Y-71398773D01*
X129164235Y-71422572D01*
X129155970Y-71445671D01*
X129145480Y-71467850D01*
X129132868Y-71488893D01*
X129118253Y-71508599D01*
X129101777Y-71526777D01*
X129083599Y-71543253D01*
X129063893Y-71557868D01*
X129042850Y-71570480D01*
X129020671Y-71580970D01*
X128997572Y-71589235D01*
X128973773Y-71595196D01*
X128949505Y-71598796D01*
X128925001Y-71600000D01*
X128074999Y-71600000D01*
X128050495Y-71598796D01*
X128026227Y-71595196D01*
X128002428Y-71589235D01*
X127979329Y-71580970D01*
X127957150Y-71570480D01*
X127936107Y-71557868D01*
X127916401Y-71543253D01*
X127898223Y-71526777D01*
X127881747Y-71508599D01*
X127867132Y-71488893D01*
X127854520Y-71467850D01*
X127844030Y-71445671D01*
X127835765Y-71422572D01*
X127829804Y-71398773D01*
X127826204Y-71374505D01*
X127825000Y-71350001D01*
X127825000Y-70449999D01*
X127826204Y-70425495D01*
X127829804Y-70401227D01*
X127835765Y-70377428D01*
X127844030Y-70354329D01*
X127854520Y-70332150D01*
X127867132Y-70311107D01*
X127881747Y-70291401D01*
X127898223Y-70273223D01*
X127916401Y-70256747D01*
X127936107Y-70242132D01*
X127957150Y-70229520D01*
X127979329Y-70219030D01*
X128002428Y-70210765D01*
X128026227Y-70204804D01*
X128050495Y-70201204D01*
X128074999Y-70200000D01*
X128925001Y-70200000D01*
X128949505Y-70201204D01*
X128949505Y-70201204D01*
G37*
D12*
X128500000Y-70900000D03*
D10*
G36*
X128949505Y-72901204D02*
G01*
X128973773Y-72904804D01*
X128997572Y-72910765D01*
X129020671Y-72919030D01*
X129042850Y-72929520D01*
X129063893Y-72942132D01*
X129083599Y-72956747D01*
X129101777Y-72973223D01*
X129118253Y-72991401D01*
X129132868Y-73011107D01*
X129145480Y-73032150D01*
X129155970Y-73054329D01*
X129164235Y-73077428D01*
X129170196Y-73101227D01*
X129173796Y-73125495D01*
X129175000Y-73149999D01*
X129175000Y-74050001D01*
X129173796Y-74074505D01*
X129170196Y-74098773D01*
X129164235Y-74122572D01*
X129155970Y-74145671D01*
X129145480Y-74167850D01*
X129132868Y-74188893D01*
X129118253Y-74208599D01*
X129101777Y-74226777D01*
X129083599Y-74243253D01*
X129063893Y-74257868D01*
X129042850Y-74270480D01*
X129020671Y-74280970D01*
X128997572Y-74289235D01*
X128973773Y-74295196D01*
X128949505Y-74298796D01*
X128925001Y-74300000D01*
X128074999Y-74300000D01*
X128050495Y-74298796D01*
X128026227Y-74295196D01*
X128002428Y-74289235D01*
X127979329Y-74280970D01*
X127957150Y-74270480D01*
X127936107Y-74257868D01*
X127916401Y-74243253D01*
X127898223Y-74226777D01*
X127881747Y-74208599D01*
X127867132Y-74188893D01*
X127854520Y-74167850D01*
X127844030Y-74145671D01*
X127835765Y-74122572D01*
X127829804Y-74098773D01*
X127826204Y-74074505D01*
X127825000Y-74050001D01*
X127825000Y-73149999D01*
X127826204Y-73125495D01*
X127829804Y-73101227D01*
X127835765Y-73077428D01*
X127844030Y-73054329D01*
X127854520Y-73032150D01*
X127867132Y-73011107D01*
X127881747Y-72991401D01*
X127898223Y-72973223D01*
X127916401Y-72956747D01*
X127936107Y-72942132D01*
X127957150Y-72929520D01*
X127979329Y-72919030D01*
X128002428Y-72910765D01*
X128026227Y-72904804D01*
X128050495Y-72901204D01*
X128074999Y-72900000D01*
X128925001Y-72900000D01*
X128949505Y-72901204D01*
X128949505Y-72901204D01*
G37*
D12*
X128500000Y-73600000D03*
D13*
X137150000Y-71000000D03*
D14*
X130850000Y-71000000D03*
X130850000Y-68700000D03*
X130850000Y-73300000D03*
D15*
X128270000Y-102480000D03*
X125730000Y-102480000D03*
X128270000Y-105020000D03*
X125730000Y-105020000D03*
D16*
X128588652Y-65636348D03*
D17*
X145800000Y-76000000D03*
X145800000Y-78300000D03*
X145800000Y-80500000D03*
X145800000Y-82800000D03*
X145800000Y-85000000D03*
X145800000Y-87300000D03*
X145800000Y-89500000D03*
X145800000Y-91800000D03*
X134300000Y-88200000D03*
X132800000Y-89600000D03*
X118000000Y-94800000D03*
X114200000Y-94900000D03*
X110100000Y-94900000D03*
X105800000Y-95000000D03*
X107100000Y-80900000D03*
X109200000Y-80900000D03*
X114800000Y-81000000D03*
X116900000Y-81000000D03*
X121625000Y-85625000D03*
X125700000Y-65600000D03*
X130600000Y-89600000D03*
X130900000Y-75000000D03*
X127000000Y-73600000D03*
D16*
X126000000Y-84000000D03*
D18*
X130850000Y-66787500D02*
X130812500Y-66750000D01*
X130850000Y-68700000D02*
X130850000Y-66787500D01*
D19*
X130812500Y-66400000D02*
X129352304Y-66400000D01*
X129352304Y-66400000D02*
X128588652Y-65636348D01*
X128600000Y-71000000D02*
X128500000Y-70900000D01*
X130850000Y-71000000D02*
X128600000Y-71000000D01*
X147500000Y-71000000D02*
X137150000Y-71000000D01*
X150250000Y-73750000D02*
X147500000Y-71000000D01*
X150250000Y-92500000D02*
X150250000Y-73750000D01*
X141875000Y-100875000D02*
X150250000Y-92500000D01*
X127019999Y-103769999D02*
X127019999Y-106269999D01*
X125730000Y-102480000D02*
X127019999Y-103769999D01*
X127019999Y-106269999D02*
X127750000Y-107000000D01*
X127750000Y-107000000D02*
X140500000Y-107000000D01*
X140500000Y-107000000D02*
X141875000Y-105625000D01*
X141875000Y-105625000D02*
X141875000Y-100875000D01*
D20*
X130850000Y-71000000D02*
X137150000Y-71000000D01*
D19*
X127100000Y-70900000D02*
X128500000Y-70900000D01*
X126000000Y-72000000D02*
X127100000Y-70900000D01*
X126000000Y-83000000D02*
X126000000Y-72000000D01*
X126000000Y-83000000D02*
X126000000Y-84000000D01*
D21*
G36*
X146772882Y-60704494D02*
G01*
X147521339Y-60909249D01*
X148221700Y-61243304D01*
X148851844Y-61696108D01*
X149391842Y-62253343D01*
X149824627Y-62897395D01*
X150136520Y-63607906D01*
X150318833Y-64367292D01*
X150367000Y-65023210D01*
X150367000Y-72724316D01*
X148099411Y-70456728D01*
X148074106Y-70425894D01*
X147951072Y-70324922D01*
X147810704Y-70249894D01*
X147658396Y-70203692D01*
X147539688Y-70192000D01*
X147539680Y-70192000D01*
X147500000Y-70188092D01*
X147460320Y-70192000D01*
X138760941Y-70192000D01*
X138760941Y-69100000D01*
X138749202Y-68980811D01*
X138714436Y-68866203D01*
X138657979Y-68760579D01*
X138582001Y-68667999D01*
X138489421Y-68592021D01*
X138383797Y-68535564D01*
X138269189Y-68500798D01*
X138150000Y-68489059D01*
X136150000Y-68489059D01*
X136030811Y-68500798D01*
X135916203Y-68535564D01*
X135810579Y-68592021D01*
X135717999Y-68667999D01*
X135642021Y-68760579D01*
X135585564Y-68866203D01*
X135550798Y-68980811D01*
X135539059Y-69100000D01*
X135539059Y-69892000D01*
X132342732Y-69892000D01*
X132308263Y-69850000D01*
X132357979Y-69789421D01*
X132414436Y-69683797D01*
X132449202Y-69569189D01*
X132460941Y-69450000D01*
X132460941Y-67950000D01*
X132449202Y-67830811D01*
X132414436Y-67716203D01*
X132400106Y-67689394D01*
X132533500Y-67556000D01*
X132533500Y-66554000D01*
X132841500Y-66554000D01*
X132841500Y-67556000D01*
X132993500Y-67708000D01*
X133175000Y-67710942D01*
X133294189Y-67699203D01*
X133408797Y-67664437D01*
X133514421Y-67607980D01*
X133607001Y-67532001D01*
X133682980Y-67439421D01*
X133739437Y-67333797D01*
X133774203Y-67219189D01*
X133785942Y-67100000D01*
X133783000Y-66706000D01*
X133631000Y-66554000D01*
X132841500Y-66554000D01*
X132533500Y-66554000D01*
X132513500Y-66554000D01*
X132513500Y-66246000D01*
X132533500Y-66246000D01*
X132533500Y-65244000D01*
X132841500Y-65244000D01*
X132841500Y-66246000D01*
X133631000Y-66246000D01*
X133783000Y-66094000D01*
X133785942Y-65700000D01*
X133774203Y-65580811D01*
X133739437Y-65466203D01*
X133682980Y-65360579D01*
X133607001Y-65267999D01*
X133514421Y-65192020D01*
X133408797Y-65135563D01*
X133294189Y-65100797D01*
X133175000Y-65089058D01*
X132993500Y-65092000D01*
X132841500Y-65244000D01*
X132533500Y-65244000D01*
X132381500Y-65092000D01*
X132200000Y-65089058D01*
X132080811Y-65100797D01*
X131966203Y-65135563D01*
X131860579Y-65192020D01*
X131767999Y-65267999D01*
X131692020Y-65360579D01*
X131686489Y-65370928D01*
X131660608Y-65339392D01*
X131531091Y-65233100D01*
X131383326Y-65154118D01*
X131222992Y-65105482D01*
X131056250Y-65089059D01*
X130568750Y-65089059D01*
X130402008Y-65105482D01*
X130241674Y-65154118D01*
X130093909Y-65233100D01*
X129964392Y-65339392D01*
X129858100Y-65468909D01*
X129792307Y-65592000D01*
X129686988Y-65592000D01*
X129587861Y-65492873D01*
X129557915Y-65342325D01*
X129481930Y-65158881D01*
X129371617Y-64993786D01*
X129231214Y-64853383D01*
X129125177Y-64782531D01*
X143792000Y-64782531D01*
X143792000Y-65217469D01*
X143876852Y-65644050D01*
X144043295Y-66045880D01*
X144284934Y-66407518D01*
X144592482Y-66715066D01*
X144954120Y-66956705D01*
X145355950Y-67123148D01*
X145782531Y-67208000D01*
X146217469Y-67208000D01*
X146644050Y-67123148D01*
X147045880Y-66956705D01*
X147407518Y-66715066D01*
X147715066Y-66407518D01*
X147956705Y-66045880D01*
X148123148Y-65644050D01*
X148208000Y-65217469D01*
X148208000Y-64782531D01*
X148123148Y-64355950D01*
X147956705Y-63954120D01*
X147715066Y-63592482D01*
X147407518Y-63284934D01*
X147045880Y-63043295D01*
X146644050Y-62876852D01*
X146217469Y-62792000D01*
X145782531Y-62792000D01*
X145355950Y-62876852D01*
X144954120Y-63043295D01*
X144592482Y-63284934D01*
X144284934Y-63592482D01*
X144043295Y-63954120D01*
X143876852Y-64355950D01*
X143792000Y-64782531D01*
X129125177Y-64782531D01*
X129066119Y-64743070D01*
X128882675Y-64667085D01*
X128687931Y-64628348D01*
X128489373Y-64628348D01*
X128294629Y-64667085D01*
X128111185Y-64743070D01*
X127946090Y-64853383D01*
X127805687Y-64993786D01*
X127695374Y-65158881D01*
X127619389Y-65342325D01*
X127580652Y-65537069D01*
X127580652Y-65735627D01*
X127619389Y-65930371D01*
X127695374Y-66113815D01*
X127805687Y-66278910D01*
X127946090Y-66419313D01*
X128111185Y-66529626D01*
X128294629Y-66605611D01*
X128445177Y-66635557D01*
X128752897Y-66943277D01*
X128778198Y-66974106D01*
X128901232Y-67075078D01*
X129041600Y-67150106D01*
X129147705Y-67182293D01*
X129193907Y-67196308D01*
X129197908Y-67196702D01*
X129312616Y-67208000D01*
X129312623Y-67208000D01*
X129352303Y-67211908D01*
X129391983Y-67208000D01*
X129792307Y-67208000D01*
X129858100Y-67331091D01*
X129864639Y-67339059D01*
X129850000Y-67339059D01*
X129730811Y-67350798D01*
X129616203Y-67385564D01*
X129510579Y-67442021D01*
X129417999Y-67517999D01*
X129342021Y-67610579D01*
X129285564Y-67716203D01*
X129250798Y-67830811D01*
X129239059Y-67950000D01*
X129239059Y-69450000D01*
X129250798Y-69569189D01*
X129281009Y-69668780D01*
X129254468Y-69654594D01*
X129092962Y-69605602D01*
X128925001Y-69589059D01*
X128074999Y-69589059D01*
X127907038Y-69605602D01*
X127745532Y-69654594D01*
X127596686Y-69734154D01*
X127466222Y-69841222D01*
X127359154Y-69971686D01*
X127294845Y-70092000D01*
X127139680Y-70092000D01*
X127100000Y-70088092D01*
X127060320Y-70092000D01*
X127060312Y-70092000D01*
X126955536Y-70102320D01*
X126941603Y-70103692D01*
X126789295Y-70149894D01*
X126740402Y-70176029D01*
X126648928Y-70224922D01*
X126525894Y-70325894D01*
X126500594Y-70356722D01*
X125456723Y-71400594D01*
X125425895Y-71425894D01*
X125324923Y-71548928D01*
X125257495Y-71675077D01*
X125249895Y-71689296D01*
X125203692Y-71841604D01*
X125188092Y-72000000D01*
X125192001Y-72039690D01*
X125192000Y-82960312D01*
X125192000Y-83394905D01*
X125106722Y-83522533D01*
X125030737Y-83705977D01*
X124992000Y-83900721D01*
X124992000Y-84099279D01*
X125030737Y-84294023D01*
X125106722Y-84477467D01*
X125217035Y-84642562D01*
X125357438Y-84782965D01*
X125522533Y-84893278D01*
X125705977Y-84969263D01*
X125900721Y-85008000D01*
X126099279Y-85008000D01*
X126294023Y-84969263D01*
X126477467Y-84893278D01*
X126642562Y-84782965D01*
X126782965Y-84642562D01*
X126893278Y-84477467D01*
X126969263Y-84294023D01*
X127008000Y-84099279D01*
X127008000Y-83900721D01*
X126969263Y-83705977D01*
X126893278Y-83522533D01*
X126808000Y-83394906D01*
X126808000Y-74300000D01*
X127214058Y-74300000D01*
X127225797Y-74419189D01*
X127260563Y-74533797D01*
X127317020Y-74639421D01*
X127392999Y-74732001D01*
X127485579Y-74807980D01*
X127591203Y-74864437D01*
X127705811Y-74899203D01*
X127825000Y-74910942D01*
X128194000Y-74908000D01*
X128346000Y-74756000D01*
X128346000Y-73754000D01*
X127369000Y-73754000D01*
X127217000Y-73906000D01*
X127214058Y-74300000D01*
X126808000Y-74300000D01*
X126808000Y-72900000D01*
X127214058Y-72900000D01*
X127217000Y-73294000D01*
X127369000Y-73446000D01*
X128346000Y-73446000D01*
X128346000Y-72444000D01*
X128194000Y-72292000D01*
X127825000Y-72289058D01*
X127705811Y-72300797D01*
X127591203Y-72335563D01*
X127485579Y-72392020D01*
X127392999Y-72467999D01*
X127317020Y-72560579D01*
X127260563Y-72666203D01*
X127225797Y-72780811D01*
X127214058Y-72900000D01*
X126808000Y-72900000D01*
X126808000Y-72334683D01*
X127343554Y-71799129D01*
X127359154Y-71828314D01*
X127466222Y-71958778D01*
X127596686Y-72065846D01*
X127745532Y-72145406D01*
X127907038Y-72194398D01*
X128074999Y-72210941D01*
X128925001Y-72210941D01*
X129092962Y-72194398D01*
X129254468Y-72145406D01*
X129347262Y-72095807D01*
X129391736Y-72150000D01*
X129342020Y-72210579D01*
X129293817Y-72300760D01*
X129175000Y-72289058D01*
X128806000Y-72292000D01*
X128654000Y-72444000D01*
X128654000Y-73446000D01*
X128674000Y-73446000D01*
X128674000Y-73754000D01*
X128654000Y-73754000D01*
X128654000Y-74756000D01*
X128806000Y-74908000D01*
X129175000Y-74910942D01*
X129294189Y-74899203D01*
X129408797Y-74864437D01*
X129514421Y-74807980D01*
X129607001Y-74732001D01*
X129682980Y-74639421D01*
X129685154Y-74635353D01*
X129730811Y-74649203D01*
X129850000Y-74660942D01*
X130544000Y-74658000D01*
X130696000Y-74506000D01*
X130696000Y-73454000D01*
X131004000Y-73454000D01*
X131004000Y-74506000D01*
X131156000Y-74658000D01*
X131850000Y-74660942D01*
X131969189Y-74649203D01*
X132083797Y-74614437D01*
X132189421Y-74557980D01*
X132282001Y-74482001D01*
X132357980Y-74389421D01*
X132414437Y-74283797D01*
X132449203Y-74169189D01*
X132460942Y-74050000D01*
X132458000Y-73606000D01*
X132306000Y-73454000D01*
X131004000Y-73454000D01*
X130696000Y-73454000D01*
X130676000Y-73454000D01*
X130676000Y-73146000D01*
X130696000Y-73146000D01*
X130696000Y-73126000D01*
X131004000Y-73126000D01*
X131004000Y-73146000D01*
X132306000Y-73146000D01*
X132458000Y-72994000D01*
X132460942Y-72550000D01*
X132449203Y-72430811D01*
X132414437Y-72316203D01*
X132357980Y-72210579D01*
X132308264Y-72150000D01*
X132342732Y-72108000D01*
X135539059Y-72108000D01*
X135539059Y-72900000D01*
X135550798Y-73019189D01*
X135585564Y-73133797D01*
X135642021Y-73239421D01*
X135717999Y-73332001D01*
X135810579Y-73407979D01*
X135916203Y-73464436D01*
X136030811Y-73499202D01*
X136150000Y-73510941D01*
X138150000Y-73510941D01*
X138269189Y-73499202D01*
X138383797Y-73464436D01*
X138489421Y-73407979D01*
X138582001Y-73332001D01*
X138657979Y-73239421D01*
X138714436Y-73133797D01*
X138749202Y-73019189D01*
X138760941Y-72900000D01*
X138760941Y-71808000D01*
X147165317Y-71808000D01*
X149442001Y-74084685D01*
X149442000Y-92165315D01*
X141331723Y-100275594D01*
X141300895Y-100300894D01*
X141199923Y-100423928D01*
X141124895Y-100564296D01*
X141078692Y-100716604D01*
X141063092Y-100875000D01*
X141067001Y-100914690D01*
X141067000Y-105290315D01*
X140165317Y-106192000D01*
X129140309Y-106192000D01*
X129199421Y-106152503D01*
X129402503Y-105949421D01*
X129562063Y-105710622D01*
X129671970Y-105445283D01*
X129728000Y-105163601D01*
X129728000Y-104876399D01*
X129671970Y-104594717D01*
X129562063Y-104329378D01*
X129402503Y-104090579D01*
X129199421Y-103887497D01*
X128993642Y-103750000D01*
X129199421Y-103612503D01*
X129402503Y-103409421D01*
X129562063Y-103170622D01*
X129671970Y-102905283D01*
X129728000Y-102623601D01*
X129728000Y-102336399D01*
X129671970Y-102054717D01*
X129562063Y-101789378D01*
X129402503Y-101550579D01*
X129199421Y-101347497D01*
X128960622Y-101187937D01*
X128695283Y-101078030D01*
X128413601Y-101022000D01*
X128126399Y-101022000D01*
X127844717Y-101078030D01*
X127579378Y-101187937D01*
X127340579Y-101347497D01*
X127137497Y-101550579D01*
X127000000Y-101756358D01*
X126862503Y-101550579D01*
X126659421Y-101347497D01*
X126420622Y-101187937D01*
X126155283Y-101078030D01*
X125873601Y-101022000D01*
X125586399Y-101022000D01*
X125304717Y-101078030D01*
X125039378Y-101187937D01*
X124800579Y-101347497D01*
X124597497Y-101550579D01*
X124437937Y-101789378D01*
X124328030Y-102054717D01*
X124272000Y-102336399D01*
X124272000Y-102623601D01*
X124328030Y-102905283D01*
X124437937Y-103170622D01*
X124597497Y-103409421D01*
X124800579Y-103612503D01*
X125003401Y-103748024D01*
X124998221Y-103750793D01*
X124916832Y-103989043D01*
X125730000Y-104802211D01*
X125744142Y-104788069D01*
X125961931Y-105005858D01*
X125947789Y-105020000D01*
X125961931Y-105034142D01*
X125744142Y-105251931D01*
X125730000Y-105237789D01*
X124916832Y-106050957D01*
X124998221Y-106289207D01*
X125259891Y-106407583D01*
X125539628Y-106472634D01*
X125826681Y-106481862D01*
X126110018Y-106434911D01*
X126220240Y-106393353D01*
X126223691Y-106428395D01*
X126243790Y-106494650D01*
X126269894Y-106580703D01*
X126344922Y-106721071D01*
X126445894Y-106844105D01*
X126476722Y-106869405D01*
X126974316Y-107367000D01*
X108028191Y-107367000D01*
X107227116Y-107295506D01*
X106478663Y-107090752D01*
X105778300Y-106756696D01*
X105148156Y-106303892D01*
X104608158Y-105746657D01*
X104175374Y-105102607D01*
X103863480Y-104392094D01*
X103681167Y-103632708D01*
X103633000Y-102976791D01*
X103633000Y-102782531D01*
X105792000Y-102782531D01*
X105792000Y-103217469D01*
X105876852Y-103644050D01*
X106043295Y-104045880D01*
X106284934Y-104407518D01*
X106592482Y-104715066D01*
X106954120Y-104956705D01*
X107355950Y-105123148D01*
X107782531Y-105208000D01*
X108217469Y-105208000D01*
X108644050Y-105123148D01*
X108659662Y-105116681D01*
X124268138Y-105116681D01*
X124315089Y-105400018D01*
X124416413Y-105668752D01*
X124460793Y-105751779D01*
X124699043Y-105833168D01*
X125512211Y-105020000D01*
X124699043Y-104206832D01*
X124460793Y-104288221D01*
X124342417Y-104549891D01*
X124277366Y-104829628D01*
X124268138Y-105116681D01*
X108659662Y-105116681D01*
X109045880Y-104956705D01*
X109407518Y-104715066D01*
X109715066Y-104407518D01*
X109956705Y-104045880D01*
X110123148Y-103644050D01*
X110208000Y-103217469D01*
X110208000Y-102782531D01*
X110123148Y-102355950D01*
X109956705Y-101954120D01*
X109715066Y-101592482D01*
X109407518Y-101284934D01*
X109045880Y-101043295D01*
X108644050Y-100876852D01*
X108217469Y-100792000D01*
X107782531Y-100792000D01*
X107355950Y-100876852D01*
X106954120Y-101043295D01*
X106592482Y-101284934D01*
X106284934Y-101592482D01*
X106043295Y-101954120D01*
X105876852Y-102355950D01*
X105792000Y-102782531D01*
X103633000Y-102782531D01*
X103633000Y-65028191D01*
X103654924Y-64782531D01*
X105792000Y-64782531D01*
X105792000Y-65217469D01*
X105876852Y-65644050D01*
X106043295Y-66045880D01*
X106284934Y-66407518D01*
X106592482Y-66715066D01*
X106954120Y-66956705D01*
X107355950Y-67123148D01*
X107782531Y-67208000D01*
X108217469Y-67208000D01*
X108644050Y-67123148D01*
X109045880Y-66956705D01*
X109407518Y-66715066D01*
X109715066Y-66407518D01*
X109956705Y-66045880D01*
X110123148Y-65644050D01*
X110208000Y-65217469D01*
X110208000Y-64782531D01*
X110123148Y-64355950D01*
X109956705Y-63954120D01*
X109715066Y-63592482D01*
X109613154Y-63490570D01*
X124092000Y-63490570D01*
X124092000Y-63669430D01*
X124126894Y-63844854D01*
X124195341Y-64010099D01*
X124294711Y-64158816D01*
X124421184Y-64285289D01*
X124569901Y-64384659D01*
X124735146Y-64453106D01*
X124910570Y-64488000D01*
X125089430Y-64488000D01*
X125264854Y-64453106D01*
X125430099Y-64384659D01*
X125578816Y-64285289D01*
X125705289Y-64158816D01*
X125804659Y-64010099D01*
X125873106Y-63844854D01*
X125908000Y-63669430D01*
X125908000Y-63490570D01*
X128092000Y-63490570D01*
X128092000Y-63669430D01*
X128126894Y-63844854D01*
X128195341Y-64010099D01*
X128294711Y-64158816D01*
X128421184Y-64285289D01*
X128569901Y-64384659D01*
X128735146Y-64453106D01*
X128910570Y-64488000D01*
X129089430Y-64488000D01*
X129264854Y-64453106D01*
X129430099Y-64384659D01*
X129578816Y-64285289D01*
X129705289Y-64158816D01*
X129804659Y-64010099D01*
X129873106Y-63844854D01*
X129908000Y-63669430D01*
X129908000Y-63490570D01*
X129873106Y-63315146D01*
X129804659Y-63149901D01*
X129705289Y-63001184D01*
X129578816Y-62874711D01*
X129430099Y-62775341D01*
X129264854Y-62706894D01*
X129089430Y-62672000D01*
X128910570Y-62672000D01*
X128735146Y-62706894D01*
X128569901Y-62775341D01*
X128421184Y-62874711D01*
X128294711Y-63001184D01*
X128195341Y-63149901D01*
X128126894Y-63315146D01*
X128092000Y-63490570D01*
X125908000Y-63490570D01*
X125873106Y-63315146D01*
X125804659Y-63149901D01*
X125705289Y-63001184D01*
X125578816Y-62874711D01*
X125430099Y-62775341D01*
X125264854Y-62706894D01*
X125089430Y-62672000D01*
X124910570Y-62672000D01*
X124735146Y-62706894D01*
X124569901Y-62775341D01*
X124421184Y-62874711D01*
X124294711Y-63001184D01*
X124195341Y-63149901D01*
X124126894Y-63315146D01*
X124092000Y-63490570D01*
X109613154Y-63490570D01*
X109407518Y-63284934D01*
X109045880Y-63043295D01*
X108644050Y-62876852D01*
X108217469Y-62792000D01*
X107782531Y-62792000D01*
X107355950Y-62876852D01*
X106954120Y-63043295D01*
X106592482Y-63284934D01*
X106284934Y-63592482D01*
X106043295Y-63954120D01*
X105876852Y-64355950D01*
X105792000Y-64782531D01*
X103654924Y-64782531D01*
X103704494Y-64227118D01*
X103909249Y-63478661D01*
X104243304Y-62778300D01*
X104696108Y-62148156D01*
X105253343Y-61608158D01*
X105897395Y-61175373D01*
X106607906Y-60863480D01*
X107367292Y-60681167D01*
X108023210Y-60633000D01*
X145971809Y-60633000D01*
X146772882Y-60704494D01*
X146772882Y-60704494D01*
G37*
X146772882Y-60704494D02*
X147521339Y-60909249D01*
X148221700Y-61243304D01*
X148851844Y-61696108D01*
X149391842Y-62253343D01*
X149824627Y-62897395D01*
X150136520Y-63607906D01*
X150318833Y-64367292D01*
X150367000Y-65023210D01*
X150367000Y-72724316D01*
X148099411Y-70456728D01*
X148074106Y-70425894D01*
X147951072Y-70324922D01*
X147810704Y-70249894D01*
X147658396Y-70203692D01*
X147539688Y-70192000D01*
X147539680Y-70192000D01*
X147500000Y-70188092D01*
X147460320Y-70192000D01*
X138760941Y-70192000D01*
X138760941Y-69100000D01*
X138749202Y-68980811D01*
X138714436Y-68866203D01*
X138657979Y-68760579D01*
X138582001Y-68667999D01*
X138489421Y-68592021D01*
X138383797Y-68535564D01*
X138269189Y-68500798D01*
X138150000Y-68489059D01*
X136150000Y-68489059D01*
X136030811Y-68500798D01*
X135916203Y-68535564D01*
X135810579Y-68592021D01*
X135717999Y-68667999D01*
X135642021Y-68760579D01*
X135585564Y-68866203D01*
X135550798Y-68980811D01*
X135539059Y-69100000D01*
X135539059Y-69892000D01*
X132342732Y-69892000D01*
X132308263Y-69850000D01*
X132357979Y-69789421D01*
X132414436Y-69683797D01*
X132449202Y-69569189D01*
X132460941Y-69450000D01*
X132460941Y-67950000D01*
X132449202Y-67830811D01*
X132414436Y-67716203D01*
X132400106Y-67689394D01*
X132533500Y-67556000D01*
X132533500Y-66554000D01*
X132841500Y-66554000D01*
X132841500Y-67556000D01*
X132993500Y-67708000D01*
X133175000Y-67710942D01*
X133294189Y-67699203D01*
X133408797Y-67664437D01*
X133514421Y-67607980D01*
X133607001Y-67532001D01*
X133682980Y-67439421D01*
X133739437Y-67333797D01*
X133774203Y-67219189D01*
X133785942Y-67100000D01*
X133783000Y-66706000D01*
X133631000Y-66554000D01*
X132841500Y-66554000D01*
X132533500Y-66554000D01*
X132513500Y-66554000D01*
X132513500Y-66246000D01*
X132533500Y-66246000D01*
X132533500Y-65244000D01*
X132841500Y-65244000D01*
X132841500Y-66246000D01*
X133631000Y-66246000D01*
X133783000Y-66094000D01*
X133785942Y-65700000D01*
X133774203Y-65580811D01*
X133739437Y-65466203D01*
X133682980Y-65360579D01*
X133607001Y-65267999D01*
X133514421Y-65192020D01*
X133408797Y-65135563D01*
X133294189Y-65100797D01*
X133175000Y-65089058D01*
X132993500Y-65092000D01*
X132841500Y-65244000D01*
X132533500Y-65244000D01*
X132381500Y-65092000D01*
X132200000Y-65089058D01*
X132080811Y-65100797D01*
X131966203Y-65135563D01*
X131860579Y-65192020D01*
X131767999Y-65267999D01*
X131692020Y-65360579D01*
X131686489Y-65370928D01*
X131660608Y-65339392D01*
X131531091Y-65233100D01*
X131383326Y-65154118D01*
X131222992Y-65105482D01*
X131056250Y-65089059D01*
X130568750Y-65089059D01*
X130402008Y-65105482D01*
X130241674Y-65154118D01*
X130093909Y-65233100D01*
X129964392Y-65339392D01*
X129858100Y-65468909D01*
X129792307Y-65592000D01*
X129686988Y-65592000D01*
X129587861Y-65492873D01*
X129557915Y-65342325D01*
X129481930Y-65158881D01*
X129371617Y-64993786D01*
X129231214Y-64853383D01*
X129125177Y-64782531D01*
X143792000Y-64782531D01*
X143792000Y-65217469D01*
X143876852Y-65644050D01*
X144043295Y-66045880D01*
X144284934Y-66407518D01*
X144592482Y-66715066D01*
X144954120Y-66956705D01*
X145355950Y-67123148D01*
X145782531Y-67208000D01*
X146217469Y-67208000D01*
X146644050Y-67123148D01*
X147045880Y-66956705D01*
X147407518Y-66715066D01*
X147715066Y-66407518D01*
X147956705Y-66045880D01*
X148123148Y-65644050D01*
X148208000Y-65217469D01*
X148208000Y-64782531D01*
X148123148Y-64355950D01*
X147956705Y-63954120D01*
X147715066Y-63592482D01*
X147407518Y-63284934D01*
X147045880Y-63043295D01*
X146644050Y-62876852D01*
X146217469Y-62792000D01*
X145782531Y-62792000D01*
X145355950Y-62876852D01*
X144954120Y-63043295D01*
X144592482Y-63284934D01*
X144284934Y-63592482D01*
X144043295Y-63954120D01*
X143876852Y-64355950D01*
X143792000Y-64782531D01*
X129125177Y-64782531D01*
X129066119Y-64743070D01*
X128882675Y-64667085D01*
X128687931Y-64628348D01*
X128489373Y-64628348D01*
X128294629Y-64667085D01*
X128111185Y-64743070D01*
X127946090Y-64853383D01*
X127805687Y-64993786D01*
X127695374Y-65158881D01*
X127619389Y-65342325D01*
X127580652Y-65537069D01*
X127580652Y-65735627D01*
X127619389Y-65930371D01*
X127695374Y-66113815D01*
X127805687Y-66278910D01*
X127946090Y-66419313D01*
X128111185Y-66529626D01*
X128294629Y-66605611D01*
X128445177Y-66635557D01*
X128752897Y-66943277D01*
X128778198Y-66974106D01*
X128901232Y-67075078D01*
X129041600Y-67150106D01*
X129147705Y-67182293D01*
X129193907Y-67196308D01*
X129197908Y-67196702D01*
X129312616Y-67208000D01*
X129312623Y-67208000D01*
X129352303Y-67211908D01*
X129391983Y-67208000D01*
X129792307Y-67208000D01*
X129858100Y-67331091D01*
X129864639Y-67339059D01*
X129850000Y-67339059D01*
X129730811Y-67350798D01*
X129616203Y-67385564D01*
X129510579Y-67442021D01*
X129417999Y-67517999D01*
X129342021Y-67610579D01*
X129285564Y-67716203D01*
X129250798Y-67830811D01*
X129239059Y-67950000D01*
X129239059Y-69450000D01*
X129250798Y-69569189D01*
X129281009Y-69668780D01*
X129254468Y-69654594D01*
X129092962Y-69605602D01*
X128925001Y-69589059D01*
X128074999Y-69589059D01*
X127907038Y-69605602D01*
X127745532Y-69654594D01*
X127596686Y-69734154D01*
X127466222Y-69841222D01*
X127359154Y-69971686D01*
X127294845Y-70092000D01*
X127139680Y-70092000D01*
X127100000Y-70088092D01*
X127060320Y-70092000D01*
X127060312Y-70092000D01*
X126955536Y-70102320D01*
X126941603Y-70103692D01*
X126789295Y-70149894D01*
X126740402Y-70176029D01*
X126648928Y-70224922D01*
X126525894Y-70325894D01*
X126500594Y-70356722D01*
X125456723Y-71400594D01*
X125425895Y-71425894D01*
X125324923Y-71548928D01*
X125257495Y-71675077D01*
X125249895Y-71689296D01*
X125203692Y-71841604D01*
X125188092Y-72000000D01*
X125192001Y-72039690D01*
X125192000Y-82960312D01*
X125192000Y-83394905D01*
X125106722Y-83522533D01*
X125030737Y-83705977D01*
X124992000Y-83900721D01*
X124992000Y-84099279D01*
X125030737Y-84294023D01*
X125106722Y-84477467D01*
X125217035Y-84642562D01*
X125357438Y-84782965D01*
X125522533Y-84893278D01*
X125705977Y-84969263D01*
X125900721Y-85008000D01*
X126099279Y-85008000D01*
X126294023Y-84969263D01*
X126477467Y-84893278D01*
X126642562Y-84782965D01*
X126782965Y-84642562D01*
X126893278Y-84477467D01*
X126969263Y-84294023D01*
X127008000Y-84099279D01*
X127008000Y-83900721D01*
X126969263Y-83705977D01*
X126893278Y-83522533D01*
X126808000Y-83394906D01*
X126808000Y-74300000D01*
X127214058Y-74300000D01*
X127225797Y-74419189D01*
X127260563Y-74533797D01*
X127317020Y-74639421D01*
X127392999Y-74732001D01*
X127485579Y-74807980D01*
X127591203Y-74864437D01*
X127705811Y-74899203D01*
X127825000Y-74910942D01*
X128194000Y-74908000D01*
X128346000Y-74756000D01*
X128346000Y-73754000D01*
X127369000Y-73754000D01*
X127217000Y-73906000D01*
X127214058Y-74300000D01*
X126808000Y-74300000D01*
X126808000Y-72900000D01*
X127214058Y-72900000D01*
X127217000Y-73294000D01*
X127369000Y-73446000D01*
X128346000Y-73446000D01*
X128346000Y-72444000D01*
X128194000Y-72292000D01*
X127825000Y-72289058D01*
X127705811Y-72300797D01*
X127591203Y-72335563D01*
X127485579Y-72392020D01*
X127392999Y-72467999D01*
X127317020Y-72560579D01*
X127260563Y-72666203D01*
X127225797Y-72780811D01*
X127214058Y-72900000D01*
X126808000Y-72900000D01*
X126808000Y-72334683D01*
X127343554Y-71799129D01*
X127359154Y-71828314D01*
X127466222Y-71958778D01*
X127596686Y-72065846D01*
X127745532Y-72145406D01*
X127907038Y-72194398D01*
X128074999Y-72210941D01*
X128925001Y-72210941D01*
X129092962Y-72194398D01*
X129254468Y-72145406D01*
X129347262Y-72095807D01*
X129391736Y-72150000D01*
X129342020Y-72210579D01*
X129293817Y-72300760D01*
X129175000Y-72289058D01*
X128806000Y-72292000D01*
X128654000Y-72444000D01*
X128654000Y-73446000D01*
X128674000Y-73446000D01*
X128674000Y-73754000D01*
X128654000Y-73754000D01*
X128654000Y-74756000D01*
X128806000Y-74908000D01*
X129175000Y-74910942D01*
X129294189Y-74899203D01*
X129408797Y-74864437D01*
X129514421Y-74807980D01*
X129607001Y-74732001D01*
X129682980Y-74639421D01*
X129685154Y-74635353D01*
X129730811Y-74649203D01*
X129850000Y-74660942D01*
X130544000Y-74658000D01*
X130696000Y-74506000D01*
X130696000Y-73454000D01*
X131004000Y-73454000D01*
X131004000Y-74506000D01*
X131156000Y-74658000D01*
X131850000Y-74660942D01*
X131969189Y-74649203D01*
X132083797Y-74614437D01*
X132189421Y-74557980D01*
X132282001Y-74482001D01*
X132357980Y-74389421D01*
X132414437Y-74283797D01*
X132449203Y-74169189D01*
X132460942Y-74050000D01*
X132458000Y-73606000D01*
X132306000Y-73454000D01*
X131004000Y-73454000D01*
X130696000Y-73454000D01*
X130676000Y-73454000D01*
X130676000Y-73146000D01*
X130696000Y-73146000D01*
X130696000Y-73126000D01*
X131004000Y-73126000D01*
X131004000Y-73146000D01*
X132306000Y-73146000D01*
X132458000Y-72994000D01*
X132460942Y-72550000D01*
X132449203Y-72430811D01*
X132414437Y-72316203D01*
X132357980Y-72210579D01*
X132308264Y-72150000D01*
X132342732Y-72108000D01*
X135539059Y-72108000D01*
X135539059Y-72900000D01*
X135550798Y-73019189D01*
X135585564Y-73133797D01*
X135642021Y-73239421D01*
X135717999Y-73332001D01*
X135810579Y-73407979D01*
X135916203Y-73464436D01*
X136030811Y-73499202D01*
X136150000Y-73510941D01*
X138150000Y-73510941D01*
X138269189Y-73499202D01*
X138383797Y-73464436D01*
X138489421Y-73407979D01*
X138582001Y-73332001D01*
X138657979Y-73239421D01*
X138714436Y-73133797D01*
X138749202Y-73019189D01*
X138760941Y-72900000D01*
X138760941Y-71808000D01*
X147165317Y-71808000D01*
X149442001Y-74084685D01*
X149442000Y-92165315D01*
X141331723Y-100275594D01*
X141300895Y-100300894D01*
X141199923Y-100423928D01*
X141124895Y-100564296D01*
X141078692Y-100716604D01*
X141063092Y-100875000D01*
X141067001Y-100914690D01*
X141067000Y-105290315D01*
X140165317Y-106192000D01*
X129140309Y-106192000D01*
X129199421Y-106152503D01*
X129402503Y-105949421D01*
X129562063Y-105710622D01*
X129671970Y-105445283D01*
X129728000Y-105163601D01*
X129728000Y-104876399D01*
X129671970Y-104594717D01*
X129562063Y-104329378D01*
X129402503Y-104090579D01*
X129199421Y-103887497D01*
X128993642Y-103750000D01*
X129199421Y-103612503D01*
X129402503Y-103409421D01*
X129562063Y-103170622D01*
X129671970Y-102905283D01*
X129728000Y-102623601D01*
X129728000Y-102336399D01*
X129671970Y-102054717D01*
X129562063Y-101789378D01*
X129402503Y-101550579D01*
X129199421Y-101347497D01*
X128960622Y-101187937D01*
X128695283Y-101078030D01*
X128413601Y-101022000D01*
X128126399Y-101022000D01*
X127844717Y-101078030D01*
X127579378Y-101187937D01*
X127340579Y-101347497D01*
X127137497Y-101550579D01*
X127000000Y-101756358D01*
X126862503Y-101550579D01*
X126659421Y-101347497D01*
X126420622Y-101187937D01*
X126155283Y-101078030D01*
X125873601Y-101022000D01*
X125586399Y-101022000D01*
X125304717Y-101078030D01*
X125039378Y-101187937D01*
X124800579Y-101347497D01*
X124597497Y-101550579D01*
X124437937Y-101789378D01*
X124328030Y-102054717D01*
X124272000Y-102336399D01*
X124272000Y-102623601D01*
X124328030Y-102905283D01*
X124437937Y-103170622D01*
X124597497Y-103409421D01*
X124800579Y-103612503D01*
X125003401Y-103748024D01*
X124998221Y-103750793D01*
X124916832Y-103989043D01*
X125730000Y-104802211D01*
X125744142Y-104788069D01*
X125961931Y-105005858D01*
X125947789Y-105020000D01*
X125961931Y-105034142D01*
X125744142Y-105251931D01*
X125730000Y-105237789D01*
X124916832Y-106050957D01*
X124998221Y-106289207D01*
X125259891Y-106407583D01*
X125539628Y-106472634D01*
X125826681Y-106481862D01*
X126110018Y-106434911D01*
X126220240Y-106393353D01*
X126223691Y-106428395D01*
X126243790Y-106494650D01*
X126269894Y-106580703D01*
X126344922Y-106721071D01*
X126445894Y-106844105D01*
X126476722Y-106869405D01*
X126974316Y-107367000D01*
X108028191Y-107367000D01*
X107227116Y-107295506D01*
X106478663Y-107090752D01*
X105778300Y-106756696D01*
X105148156Y-106303892D01*
X104608158Y-105746657D01*
X104175374Y-105102607D01*
X103863480Y-104392094D01*
X103681167Y-103632708D01*
X103633000Y-102976791D01*
X103633000Y-102782531D01*
X105792000Y-102782531D01*
X105792000Y-103217469D01*
X105876852Y-103644050D01*
X106043295Y-104045880D01*
X106284934Y-104407518D01*
X106592482Y-104715066D01*
X106954120Y-104956705D01*
X107355950Y-105123148D01*
X107782531Y-105208000D01*
X108217469Y-105208000D01*
X108644050Y-105123148D01*
X108659662Y-105116681D01*
X124268138Y-105116681D01*
X124315089Y-105400018D01*
X124416413Y-105668752D01*
X124460793Y-105751779D01*
X124699043Y-105833168D01*
X125512211Y-105020000D01*
X124699043Y-104206832D01*
X124460793Y-104288221D01*
X124342417Y-104549891D01*
X124277366Y-104829628D01*
X124268138Y-105116681D01*
X108659662Y-105116681D01*
X109045880Y-104956705D01*
X109407518Y-104715066D01*
X109715066Y-104407518D01*
X109956705Y-104045880D01*
X110123148Y-103644050D01*
X110208000Y-103217469D01*
X110208000Y-102782531D01*
X110123148Y-102355950D01*
X109956705Y-101954120D01*
X109715066Y-101592482D01*
X109407518Y-101284934D01*
X109045880Y-101043295D01*
X108644050Y-100876852D01*
X108217469Y-100792000D01*
X107782531Y-100792000D01*
X107355950Y-100876852D01*
X106954120Y-101043295D01*
X106592482Y-101284934D01*
X106284934Y-101592482D01*
X106043295Y-101954120D01*
X105876852Y-102355950D01*
X105792000Y-102782531D01*
X103633000Y-102782531D01*
X103633000Y-65028191D01*
X103654924Y-64782531D01*
X105792000Y-64782531D01*
X105792000Y-65217469D01*
X105876852Y-65644050D01*
X106043295Y-66045880D01*
X106284934Y-66407518D01*
X106592482Y-66715066D01*
X106954120Y-66956705D01*
X107355950Y-67123148D01*
X107782531Y-67208000D01*
X108217469Y-67208000D01*
X108644050Y-67123148D01*
X109045880Y-66956705D01*
X109407518Y-66715066D01*
X109715066Y-66407518D01*
X109956705Y-66045880D01*
X110123148Y-65644050D01*
X110208000Y-65217469D01*
X110208000Y-64782531D01*
X110123148Y-64355950D01*
X109956705Y-63954120D01*
X109715066Y-63592482D01*
X109613154Y-63490570D01*
X124092000Y-63490570D01*
X124092000Y-63669430D01*
X124126894Y-63844854D01*
X124195341Y-64010099D01*
X124294711Y-64158816D01*
X124421184Y-64285289D01*
X124569901Y-64384659D01*
X124735146Y-64453106D01*
X124910570Y-64488000D01*
X125089430Y-64488000D01*
X125264854Y-64453106D01*
X125430099Y-64384659D01*
X125578816Y-64285289D01*
X125705289Y-64158816D01*
X125804659Y-64010099D01*
X125873106Y-63844854D01*
X125908000Y-63669430D01*
X125908000Y-63490570D01*
X128092000Y-63490570D01*
X128092000Y-63669430D01*
X128126894Y-63844854D01*
X128195341Y-64010099D01*
X128294711Y-64158816D01*
X128421184Y-64285289D01*
X128569901Y-64384659D01*
X128735146Y-64453106D01*
X128910570Y-64488000D01*
X129089430Y-64488000D01*
X129264854Y-64453106D01*
X129430099Y-64384659D01*
X129578816Y-64285289D01*
X129705289Y-64158816D01*
X129804659Y-64010099D01*
X129873106Y-63844854D01*
X129908000Y-63669430D01*
X129908000Y-63490570D01*
X129873106Y-63315146D01*
X129804659Y-63149901D01*
X129705289Y-63001184D01*
X129578816Y-62874711D01*
X129430099Y-62775341D01*
X129264854Y-62706894D01*
X129089430Y-62672000D01*
X128910570Y-62672000D01*
X128735146Y-62706894D01*
X128569901Y-62775341D01*
X128421184Y-62874711D01*
X128294711Y-63001184D01*
X128195341Y-63149901D01*
X128126894Y-63315146D01*
X128092000Y-63490570D01*
X125908000Y-63490570D01*
X125873106Y-63315146D01*
X125804659Y-63149901D01*
X125705289Y-63001184D01*
X125578816Y-62874711D01*
X125430099Y-62775341D01*
X125264854Y-62706894D01*
X125089430Y-62672000D01*
X124910570Y-62672000D01*
X124735146Y-62706894D01*
X124569901Y-62775341D01*
X124421184Y-62874711D01*
X124294711Y-63001184D01*
X124195341Y-63149901D01*
X124126894Y-63315146D01*
X124092000Y-63490570D01*
X109613154Y-63490570D01*
X109407518Y-63284934D01*
X109045880Y-63043295D01*
X108644050Y-62876852D01*
X108217469Y-62792000D01*
X107782531Y-62792000D01*
X107355950Y-62876852D01*
X106954120Y-63043295D01*
X106592482Y-63284934D01*
X106284934Y-63592482D01*
X106043295Y-63954120D01*
X105876852Y-64355950D01*
X105792000Y-64782531D01*
X103654924Y-64782531D01*
X103704494Y-64227118D01*
X103909249Y-63478661D01*
X104243304Y-62778300D01*
X104696108Y-62148156D01*
X105253343Y-61608158D01*
X105897395Y-61175373D01*
X106607906Y-60863480D01*
X107367292Y-60681167D01*
X108023210Y-60633000D01*
X145971809Y-60633000D01*
X146772882Y-60704494D01*
M02*
