G04 #@! TF.GenerationSoftware,KiCad,Pcbnew,(5.1.0)-1*
G04 #@! TF.CreationDate,2019-04-07T12:03:36+10:00*
G04 #@! TF.ProjectId,SAO101,53414f31-3031-42e6-9b69-6361645f7063,rev?*
G04 #@! TF.SameCoordinates,Original*
G04 #@! TF.FileFunction,Legend,Bot*
G04 #@! TF.FilePolarity,Positive*
%FSLAX46Y46*%
G04 Gerber Fmt 4.6, Leading zero omitted, Abs format (unit mm)*
G04 Created by KiCad (PCBNEW (5.1.0)-1) date 2019-04-07 12:03:36*
%MOMM*%
%LPD*%
G04 APERTURE LIST*
%ADD10C,0.120000*%
%ADD11C,0.150000*%
G04 APERTURE END LIST*
D10*
X131491422Y-67110000D02*
X132008578Y-67110000D01*
X131491422Y-65690000D02*
X132008578Y-65690000D01*
X127565000Y-73850000D02*
X127565000Y-69940000D01*
X127565000Y-69940000D02*
X129435000Y-69940000D01*
X129435000Y-69940000D02*
X129435000Y-73850000D01*
X135910000Y-67590000D02*
X135910000Y-68850000D01*
X135910000Y-74410000D02*
X135910000Y-73150000D01*
X132150000Y-67590000D02*
X135910000Y-67590000D01*
X129900000Y-74410000D02*
X135910000Y-74410000D01*
D11*
X135166666Y-66857142D02*
X135214285Y-66904761D01*
X135357142Y-66952380D01*
X135452380Y-66952380D01*
X135595238Y-66904761D01*
X135690476Y-66809523D01*
X135738095Y-66714285D01*
X135785714Y-66523809D01*
X135785714Y-66380952D01*
X135738095Y-66190476D01*
X135690476Y-66095238D01*
X135595238Y-66000000D01*
X135452380Y-65952380D01*
X135357142Y-65952380D01*
X135214285Y-66000000D01*
X135166666Y-66047619D01*
X134214285Y-66952380D02*
X134785714Y-66952380D01*
X134500000Y-66952380D02*
X134500000Y-65952380D01*
X134595238Y-66095238D01*
X134690476Y-66190476D01*
X134785714Y-66238095D01*
X128666666Y-75957142D02*
X128714285Y-76004761D01*
X128857142Y-76052380D01*
X128952380Y-76052380D01*
X129095238Y-76004761D01*
X129190476Y-75909523D01*
X129238095Y-75814285D01*
X129285714Y-75623809D01*
X129285714Y-75480952D01*
X129238095Y-75290476D01*
X129190476Y-75195238D01*
X129095238Y-75100000D01*
X128952380Y-75052380D01*
X128857142Y-75052380D01*
X128714285Y-75100000D01*
X128666666Y-75147619D01*
X128285714Y-75147619D02*
X128238095Y-75100000D01*
X128142857Y-75052380D01*
X127904761Y-75052380D01*
X127809523Y-75100000D01*
X127761904Y-75147619D01*
X127714285Y-75242857D01*
X127714285Y-75338095D01*
X127761904Y-75480952D01*
X128333333Y-76052380D01*
X127714285Y-76052380D01*
X134761904Y-74952380D02*
X134761904Y-75761904D01*
X134714285Y-75857142D01*
X134666666Y-75904761D01*
X134571428Y-75952380D01*
X134380952Y-75952380D01*
X134285714Y-75904761D01*
X134238095Y-75857142D01*
X134190476Y-75761904D01*
X134190476Y-74952380D01*
X133190476Y-75952380D02*
X133761904Y-75952380D01*
X133476190Y-75952380D02*
X133476190Y-74952380D01*
X133571428Y-75095238D01*
X133666666Y-75190476D01*
X133761904Y-75238095D01*
M02*
