M48
; DRILL file {KiCad (5.1.0)-1} date 7/04/2019 12:03:44
; FORMAT={-:-/ absolute / metric / decimal}
; #@! TF.CreationDate,2019-04-07T12:03:44+10:00
; #@! TF.GenerationSoftware,Kicad,Pcbnew,(5.1.0)-1
FMAT,2
METRIC
T1C0.300
T2C0.400
T3C1.000
T4C0.600
T5C3.200
%
G90
G05
T1
X105.8Y-95.0
X107.1Y-80.9
X109.2Y-80.9
X110.1Y-94.9
X114.2Y-94.9
X114.8Y-81.0
X116.9Y-81.0
X118.0Y-94.8
X121.625Y-85.625
X125.7Y-65.6
X127.0Y-73.6
X130.6Y-89.6
X130.9Y-75.0
X132.8Y-89.6
X134.3Y-88.2
X145.8Y-76.0
X145.8Y-78.3
X145.8Y-80.5
X145.8Y-82.8
X145.8Y-85.0
X145.8Y-87.3
X145.8Y-89.5
X145.8Y-91.8
T2
X126.0Y-84.0
X128.589Y-65.636
T3
X125.73Y-102.48
X125.73Y-105.02
X128.27Y-102.48
X128.27Y-105.02
T4
X125.0Y-63.58
X129.0Y-63.58
T5
X146.0Y-103.0
X108.0Y-103.0
X108.0Y-65.0
X146.0Y-65.0
T0
M30
