G04 #@! TF.GenerationSoftware,KiCad,Pcbnew,(5.1.0)-1*
G04 #@! TF.CreationDate,2019-03-23T08:31:53+11:00*
G04 #@! TF.ProjectId,SAO101,53414f31-3031-42e6-9b69-6361645f7063,rev?*
G04 #@! TF.SameCoordinates,Original*
G04 #@! TF.FileFunction,Soldermask,Bot*
G04 #@! TF.FilePolarity,Negative*
%FSLAX46Y46*%
G04 Gerber Fmt 4.6, Leading zero omitted, Abs format (unit mm)*
G04 Created by KiCad (PCBNEW (5.1.0)-1) date 2019-03-23 08:31:53*
%MOMM*%
%LPD*%
G04 APERTURE LIST*
%ADD10C,0.100000*%
G04 APERTURE END LIST*
D10*
G36*
X128380426Y-104123313D02*
G01*
X128532812Y-104153624D01*
X128696784Y-104221544D01*
X128844354Y-104320147D01*
X128969853Y-104445646D01*
X129068456Y-104593216D01*
X129136376Y-104757188D01*
X129171000Y-104931259D01*
X129171000Y-105108741D01*
X129136376Y-105282812D01*
X129068456Y-105446784D01*
X128969853Y-105594354D01*
X128844354Y-105719853D01*
X128696784Y-105818456D01*
X128532812Y-105886376D01*
X128380426Y-105916687D01*
X128358742Y-105921000D01*
X128181258Y-105921000D01*
X128159574Y-105916687D01*
X128007188Y-105886376D01*
X127843216Y-105818456D01*
X127695646Y-105719853D01*
X127570147Y-105594354D01*
X127471544Y-105446784D01*
X127403624Y-105282812D01*
X127369000Y-105108741D01*
X127369000Y-104931259D01*
X127403624Y-104757188D01*
X127471544Y-104593216D01*
X127570147Y-104445646D01*
X127695646Y-104320147D01*
X127843216Y-104221544D01*
X128007188Y-104153624D01*
X128159574Y-104123313D01*
X128181258Y-104119000D01*
X128358742Y-104119000D01*
X128380426Y-104123313D01*
X128380426Y-104123313D01*
G37*
G36*
X125840426Y-104123313D02*
G01*
X125992812Y-104153624D01*
X126156784Y-104221544D01*
X126304354Y-104320147D01*
X126429853Y-104445646D01*
X126528456Y-104593216D01*
X126596376Y-104757188D01*
X126631000Y-104931259D01*
X126631000Y-105108741D01*
X126596376Y-105282812D01*
X126528456Y-105446784D01*
X126429853Y-105594354D01*
X126304354Y-105719853D01*
X126156784Y-105818456D01*
X125992812Y-105886376D01*
X125840426Y-105916687D01*
X125818742Y-105921000D01*
X125641258Y-105921000D01*
X125619574Y-105916687D01*
X125467188Y-105886376D01*
X125303216Y-105818456D01*
X125155646Y-105719853D01*
X125030147Y-105594354D01*
X124931544Y-105446784D01*
X124863624Y-105282812D01*
X124829000Y-105108741D01*
X124829000Y-104931259D01*
X124863624Y-104757188D01*
X124931544Y-104593216D01*
X125030147Y-104445646D01*
X125155646Y-104320147D01*
X125303216Y-104221544D01*
X125467188Y-104153624D01*
X125619574Y-104123313D01*
X125641258Y-104119000D01*
X125818742Y-104119000D01*
X125840426Y-104123313D01*
X125840426Y-104123313D01*
G37*
G36*
X146322094Y-101380724D02*
G01*
X146481579Y-101412447D01*
X146782042Y-101536903D01*
X147052451Y-101717585D01*
X147282415Y-101947549D01*
X147463097Y-102217958D01*
X147587553Y-102518421D01*
X147651000Y-102837391D01*
X147651000Y-103162609D01*
X147587553Y-103481579D01*
X147463097Y-103782042D01*
X147282415Y-104052451D01*
X147052451Y-104282415D01*
X146782042Y-104463097D01*
X146481579Y-104587553D01*
X146322094Y-104619276D01*
X146162611Y-104651000D01*
X145837389Y-104651000D01*
X145677906Y-104619276D01*
X145518421Y-104587553D01*
X145217958Y-104463097D01*
X144947549Y-104282415D01*
X144717585Y-104052451D01*
X144536903Y-103782042D01*
X144412447Y-103481579D01*
X144349000Y-103162609D01*
X144349000Y-102837391D01*
X144412447Y-102518421D01*
X144536903Y-102217958D01*
X144717585Y-101947549D01*
X144947549Y-101717585D01*
X145217958Y-101536903D01*
X145518421Y-101412447D01*
X145677906Y-101380724D01*
X145837389Y-101349000D01*
X146162611Y-101349000D01*
X146322094Y-101380724D01*
X146322094Y-101380724D01*
G37*
G36*
X108322094Y-101380724D02*
G01*
X108481579Y-101412447D01*
X108782042Y-101536903D01*
X109052451Y-101717585D01*
X109282415Y-101947549D01*
X109463097Y-102217958D01*
X109587553Y-102518421D01*
X109651000Y-102837391D01*
X109651000Y-103162609D01*
X109587553Y-103481579D01*
X109463097Y-103782042D01*
X109282415Y-104052451D01*
X109052451Y-104282415D01*
X108782042Y-104463097D01*
X108481579Y-104587553D01*
X108322094Y-104619276D01*
X108162611Y-104651000D01*
X107837389Y-104651000D01*
X107677906Y-104619276D01*
X107518421Y-104587553D01*
X107217958Y-104463097D01*
X106947549Y-104282415D01*
X106717585Y-104052451D01*
X106536903Y-103782042D01*
X106412447Y-103481579D01*
X106349000Y-103162609D01*
X106349000Y-102837391D01*
X106412447Y-102518421D01*
X106536903Y-102217958D01*
X106717585Y-101947549D01*
X106947549Y-101717585D01*
X107217958Y-101536903D01*
X107518421Y-101412447D01*
X107677906Y-101380724D01*
X107837389Y-101349000D01*
X108162611Y-101349000D01*
X108322094Y-101380724D01*
X108322094Y-101380724D01*
G37*
G36*
X128380426Y-101583313D02*
G01*
X128532812Y-101613624D01*
X128696784Y-101681544D01*
X128844354Y-101780147D01*
X128969853Y-101905646D01*
X129068456Y-102053216D01*
X129136376Y-102217188D01*
X129171000Y-102391259D01*
X129171000Y-102568741D01*
X129136376Y-102742812D01*
X129068456Y-102906784D01*
X128969853Y-103054354D01*
X128844354Y-103179853D01*
X128696784Y-103278456D01*
X128532812Y-103346376D01*
X128380426Y-103376687D01*
X128358742Y-103381000D01*
X128181258Y-103381000D01*
X128159574Y-103376687D01*
X128007188Y-103346376D01*
X127843216Y-103278456D01*
X127695646Y-103179853D01*
X127570147Y-103054354D01*
X127471544Y-102906784D01*
X127403624Y-102742812D01*
X127369000Y-102568741D01*
X127369000Y-102391259D01*
X127403624Y-102217188D01*
X127471544Y-102053216D01*
X127570147Y-101905646D01*
X127695646Y-101780147D01*
X127843216Y-101681544D01*
X128007188Y-101613624D01*
X128159574Y-101583313D01*
X128181258Y-101579000D01*
X128358742Y-101579000D01*
X128380426Y-101583313D01*
X128380426Y-101583313D01*
G37*
G36*
X125840426Y-101583313D02*
G01*
X125992812Y-101613624D01*
X126156784Y-101681544D01*
X126304354Y-101780147D01*
X126429853Y-101905646D01*
X126528456Y-102053216D01*
X126596376Y-102217188D01*
X126631000Y-102391259D01*
X126631000Y-102568741D01*
X126596376Y-102742812D01*
X126528456Y-102906784D01*
X126429853Y-103054354D01*
X126304354Y-103179853D01*
X126156784Y-103278456D01*
X125992812Y-103346376D01*
X125840426Y-103376687D01*
X125818742Y-103381000D01*
X125641258Y-103381000D01*
X125619574Y-103376687D01*
X125467188Y-103346376D01*
X125303216Y-103278456D01*
X125155646Y-103179853D01*
X125030147Y-103054354D01*
X124931544Y-102906784D01*
X124863624Y-102742812D01*
X124829000Y-102568741D01*
X124829000Y-102391259D01*
X124863624Y-102217188D01*
X124931544Y-102053216D01*
X125030147Y-101905646D01*
X125155646Y-101780147D01*
X125303216Y-101681544D01*
X125467188Y-101613624D01*
X125619574Y-101583313D01*
X125641258Y-101579000D01*
X125818742Y-101579000D01*
X125840426Y-101583313D01*
X125840426Y-101583313D01*
G37*
G36*
X129034860Y-72853798D02*
G01*
X129079351Y-72867294D01*
X129120357Y-72889213D01*
X129156295Y-72918705D01*
X129185787Y-72954643D01*
X129207706Y-72995649D01*
X129221202Y-73040140D01*
X129226000Y-73088860D01*
X129226000Y-74111140D01*
X129221202Y-74159860D01*
X129207706Y-74204351D01*
X129185787Y-74245357D01*
X129156295Y-74281295D01*
X129120357Y-74310787D01*
X129079351Y-74332706D01*
X129034860Y-74346202D01*
X128986140Y-74351000D01*
X128013860Y-74351000D01*
X127965140Y-74346202D01*
X127920649Y-74332706D01*
X127879643Y-74310787D01*
X127843705Y-74281295D01*
X127814213Y-74245357D01*
X127792294Y-74204351D01*
X127778798Y-74159860D01*
X127774000Y-74111140D01*
X127774000Y-73088860D01*
X127778798Y-73040140D01*
X127792294Y-72995649D01*
X127814213Y-72954643D01*
X127843705Y-72918705D01*
X127879643Y-72889213D01*
X127920649Y-72867294D01*
X127965140Y-72853798D01*
X128013860Y-72849000D01*
X128986140Y-72849000D01*
X129034860Y-72853798D01*
X129034860Y-72853798D01*
G37*
G36*
X131901000Y-74101000D02*
G01*
X129799000Y-74101000D01*
X129799000Y-72499000D01*
X131901000Y-72499000D01*
X131901000Y-74101000D01*
X131901000Y-74101000D01*
G37*
G36*
X138201000Y-72951000D02*
G01*
X136099000Y-72951000D01*
X136099000Y-69049000D01*
X138201000Y-69049000D01*
X138201000Y-72951000D01*
X138201000Y-72951000D01*
G37*
G36*
X131901000Y-71801000D02*
G01*
X129799000Y-71801000D01*
X129799000Y-70199000D01*
X131901000Y-70199000D01*
X131901000Y-71801000D01*
X131901000Y-71801000D01*
G37*
G36*
X129034860Y-70153798D02*
G01*
X129079351Y-70167294D01*
X129120357Y-70189213D01*
X129156295Y-70218705D01*
X129185787Y-70254643D01*
X129207706Y-70295649D01*
X129221202Y-70340140D01*
X129226000Y-70388860D01*
X129226000Y-71411140D01*
X129221202Y-71459860D01*
X129207706Y-71504351D01*
X129185787Y-71545357D01*
X129156295Y-71581295D01*
X129120357Y-71610787D01*
X129079351Y-71632706D01*
X129034860Y-71646202D01*
X128986140Y-71651000D01*
X128013860Y-71651000D01*
X127965140Y-71646202D01*
X127920649Y-71632706D01*
X127879643Y-71610787D01*
X127843705Y-71581295D01*
X127814213Y-71545357D01*
X127792294Y-71504351D01*
X127778798Y-71459860D01*
X127774000Y-71411140D01*
X127774000Y-70388860D01*
X127778798Y-70340140D01*
X127792294Y-70295649D01*
X127814213Y-70254643D01*
X127843705Y-70218705D01*
X127879643Y-70189213D01*
X127920649Y-70167294D01*
X127965140Y-70153798D01*
X128013860Y-70149000D01*
X128986140Y-70149000D01*
X129034860Y-70153798D01*
X129034860Y-70153798D01*
G37*
G36*
X131901000Y-69501000D02*
G01*
X129799000Y-69501000D01*
X129799000Y-67899000D01*
X131901000Y-67899000D01*
X131901000Y-69501000D01*
X131901000Y-69501000D01*
G37*
G36*
X131154353Y-65653930D02*
G01*
X131200127Y-65667815D01*
X131242317Y-65690366D01*
X131279290Y-65720710D01*
X131309634Y-65757683D01*
X131332185Y-65799873D01*
X131346070Y-65845647D01*
X131351000Y-65895704D01*
X131351000Y-66904296D01*
X131346070Y-66954353D01*
X131332185Y-67000127D01*
X131309634Y-67042317D01*
X131279290Y-67079290D01*
X131242317Y-67109634D01*
X131200127Y-67132185D01*
X131154353Y-67146070D01*
X131104296Y-67151000D01*
X130520704Y-67151000D01*
X130470647Y-67146070D01*
X130424873Y-67132185D01*
X130382683Y-67109634D01*
X130345710Y-67079290D01*
X130315366Y-67042317D01*
X130292815Y-67000127D01*
X130278930Y-66954353D01*
X130274000Y-66904296D01*
X130274000Y-65895704D01*
X130278930Y-65845647D01*
X130292815Y-65799873D01*
X130315366Y-65757683D01*
X130345710Y-65720710D01*
X130382683Y-65690366D01*
X130424873Y-65667815D01*
X130470647Y-65653930D01*
X130520704Y-65649000D01*
X131104296Y-65649000D01*
X131154353Y-65653930D01*
X131154353Y-65653930D01*
G37*
G36*
X133029353Y-65653930D02*
G01*
X133075127Y-65667815D01*
X133117317Y-65690366D01*
X133154290Y-65720710D01*
X133184634Y-65757683D01*
X133207185Y-65799873D01*
X133221070Y-65845647D01*
X133226000Y-65895704D01*
X133226000Y-66904296D01*
X133221070Y-66954353D01*
X133207185Y-67000127D01*
X133184634Y-67042317D01*
X133154290Y-67079290D01*
X133117317Y-67109634D01*
X133075127Y-67132185D01*
X133029353Y-67146070D01*
X132979296Y-67151000D01*
X132395704Y-67151000D01*
X132345647Y-67146070D01*
X132299873Y-67132185D01*
X132257683Y-67109634D01*
X132220710Y-67079290D01*
X132190366Y-67042317D01*
X132167815Y-67000127D01*
X132153930Y-66954353D01*
X132149000Y-66904296D01*
X132149000Y-65895704D01*
X132153930Y-65845647D01*
X132167815Y-65799873D01*
X132190366Y-65757683D01*
X132220710Y-65720710D01*
X132257683Y-65690366D01*
X132299873Y-65667815D01*
X132345647Y-65653930D01*
X132395704Y-65649000D01*
X132979296Y-65649000D01*
X133029353Y-65653930D01*
X133029353Y-65653930D01*
G37*
G36*
X146322094Y-63380724D02*
G01*
X146481579Y-63412447D01*
X146782042Y-63536903D01*
X147052451Y-63717585D01*
X147282415Y-63947549D01*
X147463097Y-64217958D01*
X147587553Y-64518421D01*
X147651000Y-64837391D01*
X147651000Y-65162609D01*
X147587553Y-65481579D01*
X147463097Y-65782042D01*
X147282415Y-66052451D01*
X147052451Y-66282415D01*
X146782042Y-66463097D01*
X146481579Y-66587553D01*
X146322094Y-66619276D01*
X146162611Y-66651000D01*
X145837389Y-66651000D01*
X145677906Y-66619276D01*
X145518421Y-66587553D01*
X145217958Y-66463097D01*
X144947549Y-66282415D01*
X144717585Y-66052451D01*
X144536903Y-65782042D01*
X144412447Y-65481579D01*
X144349000Y-65162609D01*
X144349000Y-64837391D01*
X144412447Y-64518421D01*
X144536903Y-64217958D01*
X144717585Y-63947549D01*
X144947549Y-63717585D01*
X145217958Y-63536903D01*
X145518421Y-63412447D01*
X145677906Y-63380724D01*
X145837389Y-63349000D01*
X146162611Y-63349000D01*
X146322094Y-63380724D01*
X146322094Y-63380724D01*
G37*
G36*
X108322094Y-63380724D02*
G01*
X108481579Y-63412447D01*
X108782042Y-63536903D01*
X109052451Y-63717585D01*
X109282415Y-63947549D01*
X109463097Y-64217958D01*
X109587553Y-64518421D01*
X109651000Y-64837391D01*
X109651000Y-65162609D01*
X109587553Y-65481579D01*
X109463097Y-65782042D01*
X109282415Y-66052451D01*
X109052451Y-66282415D01*
X108782042Y-66463097D01*
X108481579Y-66587553D01*
X108322094Y-66619276D01*
X108162611Y-66651000D01*
X107837389Y-66651000D01*
X107677906Y-66619276D01*
X107518421Y-66587553D01*
X107217958Y-66463097D01*
X106947549Y-66282415D01*
X106717585Y-66052451D01*
X106536903Y-65782042D01*
X106412447Y-65481579D01*
X106349000Y-65162609D01*
X106349000Y-64837391D01*
X106412447Y-64518421D01*
X106536903Y-64217958D01*
X106717585Y-63947549D01*
X106947549Y-63717585D01*
X107217958Y-63536903D01*
X107518421Y-63412447D01*
X107677906Y-63380724D01*
X107837389Y-63349000D01*
X108162611Y-63349000D01*
X108322094Y-63380724D01*
X108322094Y-63380724D01*
G37*
G36*
X125102381Y-63242488D02*
G01*
X125102384Y-63242489D01*
X125102383Y-63242489D01*
X125166261Y-63268948D01*
X125223749Y-63307361D01*
X125272639Y-63356251D01*
X125311052Y-63413739D01*
X125332972Y-63466659D01*
X125337512Y-63477619D01*
X125351000Y-63545428D01*
X125351000Y-63614572D01*
X125337512Y-63682381D01*
X125337511Y-63682383D01*
X125311052Y-63746261D01*
X125272639Y-63803749D01*
X125223749Y-63852639D01*
X125166261Y-63891052D01*
X125113341Y-63912972D01*
X125102381Y-63917512D01*
X125034572Y-63931000D01*
X124965428Y-63931000D01*
X124897619Y-63917512D01*
X124886659Y-63912972D01*
X124833739Y-63891052D01*
X124776251Y-63852639D01*
X124727361Y-63803749D01*
X124688948Y-63746261D01*
X124662489Y-63682383D01*
X124662488Y-63682381D01*
X124649000Y-63614572D01*
X124649000Y-63545428D01*
X124662488Y-63477619D01*
X124667028Y-63466659D01*
X124688948Y-63413739D01*
X124727361Y-63356251D01*
X124776251Y-63307361D01*
X124833739Y-63268948D01*
X124897617Y-63242489D01*
X124897616Y-63242489D01*
X124897619Y-63242488D01*
X124965428Y-63229000D01*
X125034572Y-63229000D01*
X125102381Y-63242488D01*
X125102381Y-63242488D01*
G37*
G36*
X129102381Y-63242488D02*
G01*
X129102384Y-63242489D01*
X129102383Y-63242489D01*
X129166261Y-63268948D01*
X129223749Y-63307361D01*
X129272639Y-63356251D01*
X129311052Y-63413739D01*
X129332972Y-63466659D01*
X129337512Y-63477619D01*
X129351000Y-63545428D01*
X129351000Y-63614572D01*
X129337512Y-63682381D01*
X129337511Y-63682383D01*
X129311052Y-63746261D01*
X129272639Y-63803749D01*
X129223749Y-63852639D01*
X129166261Y-63891052D01*
X129113341Y-63912972D01*
X129102381Y-63917512D01*
X129034572Y-63931000D01*
X128965428Y-63931000D01*
X128897619Y-63917512D01*
X128886659Y-63912972D01*
X128833739Y-63891052D01*
X128776251Y-63852639D01*
X128727361Y-63803749D01*
X128688948Y-63746261D01*
X128662489Y-63682383D01*
X128662488Y-63682381D01*
X128649000Y-63614572D01*
X128649000Y-63545428D01*
X128662488Y-63477619D01*
X128667028Y-63466659D01*
X128688948Y-63413739D01*
X128727361Y-63356251D01*
X128776251Y-63307361D01*
X128833739Y-63268948D01*
X128897617Y-63242489D01*
X128897616Y-63242489D01*
X128897619Y-63242488D01*
X128965428Y-63229000D01*
X129034572Y-63229000D01*
X129102381Y-63242488D01*
X129102381Y-63242488D01*
G37*
M02*
