G04 #@! TF.GenerationSoftware,KiCad,Pcbnew,(5.1.0)-1*
G04 #@! TF.CreationDate,2019-04-07T12:03:36+10:00*
G04 #@! TF.ProjectId,SAO101,53414f31-3031-42e6-9b69-6361645f7063,rev?*
G04 #@! TF.SameCoordinates,Original*
G04 #@! TF.FileFunction,Legend,Top*
G04 #@! TF.FilePolarity,Positive*
%FSLAX46Y46*%
G04 Gerber Fmt 4.6, Leading zero omitted, Abs format (unit mm)*
G04 Created by KiCad (PCBNEW (5.1.0)-1) date 2019-04-07 12:03:36*
%MOMM*%
%LPD*%
G04 APERTURE LIST*
%ADD10C,0.300000*%
%ADD11C,0.010000*%
%ADD12C,0.120000*%
%ADD13C,0.150000*%
G04 APERTURE END LIST*
D10*
X117571428Y-96178571D02*
X118428571Y-96178571D01*
X118000000Y-97678571D02*
X118000000Y-96178571D01*
X114714285Y-97678571D02*
X114000000Y-97678571D01*
X114000000Y-96178571D01*
X109857142Y-96178571D02*
X110142857Y-96178571D01*
X110285714Y-96250000D01*
X110428571Y-96392857D01*
X110500000Y-96678571D01*
X110500000Y-97178571D01*
X110428571Y-97464285D01*
X110285714Y-97607142D01*
X110142857Y-97678571D01*
X109857142Y-97678571D01*
X109714285Y-97607142D01*
X109571428Y-97464285D01*
X109500000Y-97178571D01*
X109500000Y-96678571D01*
X109571428Y-96392857D01*
X109714285Y-96250000D01*
X109857142Y-96178571D01*
X105321428Y-97607142D02*
X105535714Y-97678571D01*
X105892857Y-97678571D01*
X106035714Y-97607142D01*
X106107142Y-97535714D01*
X106178571Y-97392857D01*
X106178571Y-97250000D01*
X106107142Y-97107142D01*
X106035714Y-97035714D01*
X105892857Y-96964285D01*
X105607142Y-96892857D01*
X105464285Y-96821428D01*
X105392857Y-96750000D01*
X105321428Y-96607142D01*
X105321428Y-96464285D01*
X105392857Y-96321428D01*
X105464285Y-96250000D01*
X105607142Y-96178571D01*
X105964285Y-96178571D01*
X106178571Y-96250000D01*
X113950000Y-83707142D02*
X114164285Y-83778571D01*
X114521428Y-83778571D01*
X114664285Y-83707142D01*
X114735714Y-83635714D01*
X114807142Y-83492857D01*
X114807142Y-83350000D01*
X114735714Y-83207142D01*
X114664285Y-83135714D01*
X114521428Y-83064285D01*
X114235714Y-82992857D01*
X114092857Y-82921428D01*
X114021428Y-82850000D01*
X113950000Y-82707142D01*
X113950000Y-82564285D01*
X114021428Y-82421428D01*
X114092857Y-82350000D01*
X114235714Y-82278571D01*
X114592857Y-82278571D01*
X114807142Y-82350000D01*
X115307142Y-82278571D02*
X115664285Y-83778571D01*
X115950000Y-82707142D01*
X116235714Y-83778571D01*
X116592857Y-82278571D01*
X117092857Y-82421428D02*
X117164285Y-82350000D01*
X117307142Y-82278571D01*
X117664285Y-82278571D01*
X117807142Y-82350000D01*
X117878571Y-82421428D01*
X117950000Y-82564285D01*
X117950000Y-82707142D01*
X117878571Y-82921428D01*
X117021428Y-83778571D01*
X117950000Y-83778571D01*
X106450000Y-83707142D02*
X106664285Y-83778571D01*
X107021428Y-83778571D01*
X107164285Y-83707142D01*
X107235714Y-83635714D01*
X107307142Y-83492857D01*
X107307142Y-83350000D01*
X107235714Y-83207142D01*
X107164285Y-83135714D01*
X107021428Y-83064285D01*
X106735714Y-82992857D01*
X106592857Y-82921428D01*
X106521428Y-82850000D01*
X106450000Y-82707142D01*
X106450000Y-82564285D01*
X106521428Y-82421428D01*
X106592857Y-82350000D01*
X106735714Y-82278571D01*
X107092857Y-82278571D01*
X107307142Y-82350000D01*
X107807142Y-82278571D02*
X108164285Y-83778571D01*
X108450000Y-82707142D01*
X108735714Y-83778571D01*
X109092857Y-82278571D01*
X110450000Y-83778571D02*
X109592857Y-83778571D01*
X110021428Y-83778571D02*
X110021428Y-82278571D01*
X109878571Y-82492857D01*
X109735714Y-82635714D01*
X109592857Y-82707142D01*
D11*
G36*
X139168334Y-72323286D02*
G01*
X139268384Y-72460021D01*
X139335475Y-72718925D01*
X139357443Y-72901545D01*
X139372966Y-73133334D01*
X139366071Y-73264253D01*
X139333616Y-73318960D01*
X139303404Y-73325500D01*
X139226794Y-73266191D01*
X139169149Y-73103805D01*
X139136989Y-72861656D01*
X139132500Y-72714312D01*
X139120128Y-72570852D01*
X139089846Y-72502038D01*
X139084875Y-72500972D01*
X138948471Y-72561971D01*
X138836275Y-72717821D01*
X138766116Y-72936532D01*
X138751500Y-73099075D01*
X138731623Y-73265101D01*
X138667804Y-73324774D01*
X138656250Y-73325500D01*
X138607378Y-73301572D01*
X138578048Y-73214758D01*
X138564032Y-73042506D01*
X138561000Y-72817500D01*
X138565486Y-72556849D01*
X138581764Y-72400423D01*
X138614061Y-72325671D01*
X138656250Y-72309500D01*
X138738126Y-72361059D01*
X138751500Y-72414591D01*
X138760575Y-72484320D01*
X138809450Y-72465250D01*
X138867625Y-72414591D01*
X139034893Y-72308286D01*
X139168334Y-72323286D01*
X139168334Y-72323286D01*
G37*
X139168334Y-72323286D02*
X139268384Y-72460021D01*
X139335475Y-72718925D01*
X139357443Y-72901545D01*
X139372966Y-73133334D01*
X139366071Y-73264253D01*
X139333616Y-73318960D01*
X139303404Y-73325500D01*
X139226794Y-73266191D01*
X139169149Y-73103805D01*
X139136989Y-72861656D01*
X139132500Y-72714312D01*
X139120128Y-72570852D01*
X139089846Y-72502038D01*
X139084875Y-72500972D01*
X138948471Y-72561971D01*
X138836275Y-72717821D01*
X138766116Y-72936532D01*
X138751500Y-73099075D01*
X138731623Y-73265101D01*
X138667804Y-73324774D01*
X138656250Y-73325500D01*
X138607378Y-73301572D01*
X138578048Y-73214758D01*
X138564032Y-73042506D01*
X138561000Y-72817500D01*
X138565486Y-72556849D01*
X138581764Y-72400423D01*
X138614061Y-72325671D01*
X138656250Y-72309500D01*
X138738126Y-72361059D01*
X138751500Y-72414591D01*
X138760575Y-72484320D01*
X138809450Y-72465250D01*
X138867625Y-72414591D01*
X139034893Y-72308286D01*
X139168334Y-72323286D01*
G36*
X138170606Y-72411348D02*
G01*
X138274558Y-72593644D01*
X138307000Y-72820560D01*
X138260235Y-73047847D01*
X138138664Y-73214227D01*
X137970374Y-73304503D01*
X137783449Y-73303478D01*
X137608500Y-73198500D01*
X137499969Y-73008257D01*
X137485521Y-72780153D01*
X137491675Y-72762718D01*
X137684194Y-72762718D01*
X137685684Y-72921649D01*
X137742887Y-73051399D01*
X137838645Y-73126091D01*
X137955803Y-73119846D01*
X138049557Y-73043898D01*
X138096609Y-72920075D01*
X138105388Y-72747482D01*
X138104957Y-72742793D01*
X138049906Y-72577129D01*
X137945092Y-72503421D01*
X137821130Y-72534137D01*
X137755572Y-72600481D01*
X137684194Y-72762718D01*
X137491675Y-72762718D01*
X137563368Y-72559618D01*
X137637363Y-72465363D01*
X137830817Y-72335967D01*
X138015629Y-72321709D01*
X138170606Y-72411348D01*
X138170606Y-72411348D01*
G37*
X138170606Y-72411348D02*
X138274558Y-72593644D01*
X138307000Y-72820560D01*
X138260235Y-73047847D01*
X138138664Y-73214227D01*
X137970374Y-73304503D01*
X137783449Y-73303478D01*
X137608500Y-73198500D01*
X137499969Y-73008257D01*
X137485521Y-72780153D01*
X137491675Y-72762718D01*
X137684194Y-72762718D01*
X137685684Y-72921649D01*
X137742887Y-73051399D01*
X137838645Y-73126091D01*
X137955803Y-73119846D01*
X138049557Y-73043898D01*
X138096609Y-72920075D01*
X138105388Y-72747482D01*
X138104957Y-72742793D01*
X138049906Y-72577129D01*
X137945092Y-72503421D01*
X137821130Y-72534137D01*
X137755572Y-72600481D01*
X137684194Y-72762718D01*
X137491675Y-72762718D01*
X137563368Y-72559618D01*
X137637363Y-72465363D01*
X137830817Y-72335967D01*
X138015629Y-72321709D01*
X138170606Y-72411348D01*
G36*
X137279366Y-72375806D02*
G01*
X137290996Y-72496491D01*
X137291000Y-72500000D01*
X137266854Y-72647578D01*
X137205412Y-72685440D01*
X137123166Y-72605431D01*
X137112966Y-72588032D01*
X137053527Y-72522010D01*
X136963275Y-72537963D01*
X136903436Y-72568338D01*
X136751250Y-72651111D01*
X136990428Y-72743323D01*
X137188978Y-72863686D01*
X137278066Y-73009574D01*
X137262896Y-73153144D01*
X137148672Y-73266547D01*
X136940598Y-73321940D01*
X136881988Y-73323569D01*
X136702999Y-73300997D01*
X136575289Y-73256166D01*
X136494306Y-73178016D01*
X136521533Y-73120535D01*
X136638198Y-73102311D01*
X136720002Y-73112875D01*
X136915299Y-73130418D01*
X137037143Y-73098716D01*
X137065482Y-73026476D01*
X137036376Y-72975498D01*
X136917636Y-72894715D01*
X136850861Y-72881000D01*
X136713651Y-72844832D01*
X136628346Y-72796598D01*
X136554809Y-72687319D01*
X136591985Y-72566998D01*
X136727268Y-72454934D01*
X136897746Y-72384173D01*
X137109091Y-72327408D01*
X137227514Y-72322033D01*
X137279366Y-72375806D01*
X137279366Y-72375806D01*
G37*
X137279366Y-72375806D02*
X137290996Y-72496491D01*
X137291000Y-72500000D01*
X137266854Y-72647578D01*
X137205412Y-72685440D01*
X137123166Y-72605431D01*
X137112966Y-72588032D01*
X137053527Y-72522010D01*
X136963275Y-72537963D01*
X136903436Y-72568338D01*
X136751250Y-72651111D01*
X136990428Y-72743323D01*
X137188978Y-72863686D01*
X137278066Y-73009574D01*
X137262896Y-73153144D01*
X137148672Y-73266547D01*
X136940598Y-73321940D01*
X136881988Y-73323569D01*
X136702999Y-73300997D01*
X136575289Y-73256166D01*
X136494306Y-73178016D01*
X136521533Y-73120535D01*
X136638198Y-73102311D01*
X136720002Y-73112875D01*
X136915299Y-73130418D01*
X137037143Y-73098716D01*
X137065482Y-73026476D01*
X137036376Y-72975498D01*
X136917636Y-72894715D01*
X136850861Y-72881000D01*
X136713651Y-72844832D01*
X136628346Y-72796598D01*
X136554809Y-72687319D01*
X136591985Y-72566998D01*
X136727268Y-72454934D01*
X136897746Y-72384173D01*
X137109091Y-72327408D01*
X137227514Y-72322033D01*
X137279366Y-72375806D01*
G36*
X135731776Y-72367380D02*
G01*
X135812184Y-72388826D01*
X135957546Y-72353545D01*
X136108562Y-72314149D01*
X136206183Y-72346512D01*
X136237248Y-72375039D01*
X136288171Y-72482477D01*
X136326280Y-72661313D01*
X136348977Y-72872346D01*
X136353665Y-73076374D01*
X136337747Y-73234196D01*
X136298960Y-73306499D01*
X136228944Y-73272681D01*
X136178385Y-73128877D01*
X136151795Y-72891217D01*
X136148867Y-72769875D01*
X136123753Y-72581176D01*
X136061056Y-72497520D01*
X135977387Y-72509093D01*
X135889354Y-72606081D01*
X135813568Y-72778668D01*
X135769119Y-72994253D01*
X135726182Y-73192666D01*
X135661244Y-73302954D01*
X135586738Y-73309969D01*
X135546737Y-73265215D01*
X135531961Y-73172166D01*
X135532555Y-72991555D01*
X135548342Y-72761866D01*
X135549123Y-72753863D01*
X135584953Y-72486399D01*
X135628845Y-72341163D01*
X135682990Y-72313520D01*
X135731776Y-72367380D01*
X135731776Y-72367380D01*
G37*
X135731776Y-72367380D02*
X135812184Y-72388826D01*
X135957546Y-72353545D01*
X136108562Y-72314149D01*
X136206183Y-72346512D01*
X136237248Y-72375039D01*
X136288171Y-72482477D01*
X136326280Y-72661313D01*
X136348977Y-72872346D01*
X136353665Y-73076374D01*
X136337747Y-73234196D01*
X136298960Y-73306499D01*
X136228944Y-73272681D01*
X136178385Y-73128877D01*
X136151795Y-72891217D01*
X136148867Y-72769875D01*
X136123753Y-72581176D01*
X136061056Y-72497520D01*
X135977387Y-72509093D01*
X135889354Y-72606081D01*
X135813568Y-72778668D01*
X135769119Y-72994253D01*
X135726182Y-73192666D01*
X135661244Y-73302954D01*
X135586738Y-73309969D01*
X135546737Y-73265215D01*
X135531961Y-73172166D01*
X135532555Y-72991555D01*
X135548342Y-72761866D01*
X135549123Y-72753863D01*
X135584953Y-72486399D01*
X135628845Y-72341163D01*
X135682990Y-72313520D01*
X135731776Y-72367380D01*
G36*
X134516671Y-71754840D02*
G01*
X134563242Y-71827476D01*
X134599298Y-71986659D01*
X134611443Y-72108116D01*
X134638852Y-72325784D01*
X134686965Y-72429336D01*
X134752482Y-72413671D01*
X134782750Y-72373000D01*
X134881811Y-72315493D01*
X135025299Y-72319756D01*
X135151094Y-72378442D01*
X135185367Y-72420625D01*
X135225768Y-72550381D01*
X135256303Y-72741580D01*
X135274227Y-72953157D01*
X135276793Y-73144047D01*
X135261258Y-73273186D01*
X135244348Y-73302805D01*
X135172902Y-73313658D01*
X135121846Y-73233425D01*
X135085100Y-73048045D01*
X135068855Y-72896938D01*
X135040476Y-72699165D01*
X135000884Y-72560966D01*
X134970682Y-72520018D01*
X134843130Y-72537082D01*
X134730311Y-72657045D01*
X134650194Y-72855846D01*
X134627794Y-72979154D01*
X134584873Y-73188853D01*
X134521065Y-73305622D01*
X134445878Y-73314044D01*
X134429531Y-73300602D01*
X134420357Y-73230132D01*
X134415728Y-73058276D01*
X134415903Y-72810576D01*
X134421142Y-72512572D01*
X134421421Y-72501503D01*
X134434185Y-72153493D01*
X134452591Y-71920696D01*
X134478134Y-71791393D01*
X134512308Y-71753864D01*
X134516671Y-71754840D01*
X134516671Y-71754840D01*
G37*
X134516671Y-71754840D02*
X134563242Y-71827476D01*
X134599298Y-71986659D01*
X134611443Y-72108116D01*
X134638852Y-72325784D01*
X134686965Y-72429336D01*
X134752482Y-72413671D01*
X134782750Y-72373000D01*
X134881811Y-72315493D01*
X135025299Y-72319756D01*
X135151094Y-72378442D01*
X135185367Y-72420625D01*
X135225768Y-72550381D01*
X135256303Y-72741580D01*
X135274227Y-72953157D01*
X135276793Y-73144047D01*
X135261258Y-73273186D01*
X135244348Y-73302805D01*
X135172902Y-73313658D01*
X135121846Y-73233425D01*
X135085100Y-73048045D01*
X135068855Y-72896938D01*
X135040476Y-72699165D01*
X135000884Y-72560966D01*
X134970682Y-72520018D01*
X134843130Y-72537082D01*
X134730311Y-72657045D01*
X134650194Y-72855846D01*
X134627794Y-72979154D01*
X134584873Y-73188853D01*
X134521065Y-73305622D01*
X134445878Y-73314044D01*
X134429531Y-73300602D01*
X134420357Y-73230132D01*
X134415728Y-73058276D01*
X134415903Y-72810576D01*
X134421142Y-72512572D01*
X134421421Y-72501503D01*
X134434185Y-72153493D01*
X134452591Y-71920696D01*
X134478134Y-71791393D01*
X134512308Y-71753864D01*
X134516671Y-71754840D01*
G36*
X133985726Y-72363485D02*
G01*
X134110867Y-72504306D01*
X134172353Y-72700259D01*
X134161148Y-72919639D01*
X134068214Y-73130745D01*
X134047891Y-73158186D01*
X133875426Y-73292772D01*
X133677565Y-73320228D01*
X133491409Y-73238261D01*
X133446391Y-73195341D01*
X133345441Y-73003102D01*
X133339842Y-72854009D01*
X133545841Y-72854009D01*
X133553898Y-73012403D01*
X133586833Y-73092666D01*
X133703753Y-73133699D01*
X133847873Y-73103415D01*
X133912800Y-73058800D01*
X133977595Y-72918337D01*
X133981709Y-72724230D01*
X133950456Y-72600443D01*
X133861478Y-72514620D01*
X133727194Y-72512557D01*
X133620699Y-72576200D01*
X133569468Y-72687861D01*
X133545841Y-72854009D01*
X133339842Y-72854009D01*
X133337248Y-72784972D01*
X133407946Y-72575114D01*
X133543668Y-72407692D01*
X133730546Y-72316869D01*
X133805968Y-72309500D01*
X133985726Y-72363485D01*
X133985726Y-72363485D01*
G37*
X133985726Y-72363485D02*
X134110867Y-72504306D01*
X134172353Y-72700259D01*
X134161148Y-72919639D01*
X134068214Y-73130745D01*
X134047891Y-73158186D01*
X133875426Y-73292772D01*
X133677565Y-73320228D01*
X133491409Y-73238261D01*
X133446391Y-73195341D01*
X133345441Y-73003102D01*
X133339842Y-72854009D01*
X133545841Y-72854009D01*
X133553898Y-73012403D01*
X133586833Y-73092666D01*
X133703753Y-73133699D01*
X133847873Y-73103415D01*
X133912800Y-73058800D01*
X133977595Y-72918337D01*
X133981709Y-72724230D01*
X133950456Y-72600443D01*
X133861478Y-72514620D01*
X133727194Y-72512557D01*
X133620699Y-72576200D01*
X133569468Y-72687861D01*
X133545841Y-72854009D01*
X133339842Y-72854009D01*
X133337248Y-72784972D01*
X133407946Y-72575114D01*
X133543668Y-72407692D01*
X133730546Y-72316869D01*
X133805968Y-72309500D01*
X133985726Y-72363485D01*
G36*
X130519450Y-71766695D02*
G01*
X130549154Y-71868691D01*
X130559680Y-72067851D01*
X130560000Y-72128841D01*
X130562276Y-72340335D01*
X130574836Y-72445992D01*
X130606276Y-72466968D01*
X130665193Y-72424415D01*
X130676125Y-72414591D01*
X130838585Y-72325867D01*
X131005549Y-72321278D01*
X131116012Y-72388875D01*
X131154668Y-72489592D01*
X131193939Y-72675828D01*
X131224091Y-72896875D01*
X131243650Y-73128791D01*
X131240111Y-73260475D01*
X131210636Y-73317070D01*
X131175710Y-73325500D01*
X131083522Y-73264785D01*
X131026523Y-73084263D01*
X131005459Y-72786366D01*
X131005367Y-72769875D01*
X130987119Y-72577613D01*
X130932742Y-72501749D01*
X130919091Y-72500000D01*
X130787882Y-72557701D01*
X130668638Y-72708532D01*
X130584132Y-72919084D01*
X130563965Y-73020991D01*
X130524277Y-73190358D01*
X130468217Y-73296512D01*
X130448875Y-73309748D01*
X130414409Y-73290802D01*
X130390835Y-73197206D01*
X130376621Y-73014055D01*
X130370235Y-72726447D01*
X130369500Y-72537041D01*
X130371726Y-72199532D01*
X130379919Y-71969922D01*
X130396349Y-71829165D01*
X130423287Y-71758213D01*
X130463003Y-71738021D01*
X130464750Y-71738000D01*
X130519450Y-71766695D01*
X130519450Y-71766695D01*
G37*
X130519450Y-71766695D02*
X130549154Y-71868691D01*
X130559680Y-72067851D01*
X130560000Y-72128841D01*
X130562276Y-72340335D01*
X130574836Y-72445992D01*
X130606276Y-72466968D01*
X130665193Y-72424415D01*
X130676125Y-72414591D01*
X130838585Y-72325867D01*
X131005549Y-72321278D01*
X131116012Y-72388875D01*
X131154668Y-72489592D01*
X131193939Y-72675828D01*
X131224091Y-72896875D01*
X131243650Y-73128791D01*
X131240111Y-73260475D01*
X131210636Y-73317070D01*
X131175710Y-73325500D01*
X131083522Y-73264785D01*
X131026523Y-73084263D01*
X131005459Y-72786366D01*
X131005367Y-72769875D01*
X130987119Y-72577613D01*
X130932742Y-72501749D01*
X130919091Y-72500000D01*
X130787882Y-72557701D01*
X130668638Y-72708532D01*
X130584132Y-72919084D01*
X130563965Y-73020991D01*
X130524277Y-73190358D01*
X130468217Y-73296512D01*
X130448875Y-73309748D01*
X130414409Y-73290802D01*
X130390835Y-73197206D01*
X130376621Y-73014055D01*
X130370235Y-72726447D01*
X130369500Y-72537041D01*
X130371726Y-72199532D01*
X130379919Y-71969922D01*
X130396349Y-71829165D01*
X130423287Y-71758213D01*
X130463003Y-71738021D01*
X130464750Y-71738000D01*
X130519450Y-71766695D01*
G36*
X130125400Y-72409017D02*
G01*
X130136159Y-72445144D01*
X130143924Y-72589716D01*
X130094356Y-72667102D01*
X130011462Y-72652544D01*
X129972862Y-72613542D01*
X129882442Y-72546837D01*
X129752945Y-72568822D01*
X129734500Y-72576077D01*
X129643937Y-72617715D01*
X129635598Y-72653164D01*
X129722246Y-72703336D01*
X129845625Y-72758143D01*
X130020304Y-72849881D01*
X130100244Y-72942902D01*
X130115500Y-73034911D01*
X130060866Y-73183553D01*
X129921073Y-73284911D01*
X129732277Y-73329265D01*
X129530636Y-73306891D01*
X129381511Y-73232269D01*
X129313113Y-73173398D01*
X129316175Y-73139508D01*
X129408646Y-73121984D01*
X129608475Y-73112208D01*
X129633344Y-73111381D01*
X129825960Y-73083613D01*
X129901002Y-73026718D01*
X129855740Y-72955685D01*
X129687443Y-72885497D01*
X129675107Y-72882105D01*
X129506810Y-72823400D01*
X129431866Y-72749647D01*
X129417000Y-72654730D01*
X129456770Y-72528366D01*
X129586539Y-72431598D01*
X129821991Y-72354549D01*
X129931864Y-72330494D01*
X130062008Y-72327823D01*
X130125400Y-72409017D01*
X130125400Y-72409017D01*
G37*
X130125400Y-72409017D02*
X130136159Y-72445144D01*
X130143924Y-72589716D01*
X130094356Y-72667102D01*
X130011462Y-72652544D01*
X129972862Y-72613542D01*
X129882442Y-72546837D01*
X129752945Y-72568822D01*
X129734500Y-72576077D01*
X129643937Y-72617715D01*
X129635598Y-72653164D01*
X129722246Y-72703336D01*
X129845625Y-72758143D01*
X130020304Y-72849881D01*
X130100244Y-72942902D01*
X130115500Y-73034911D01*
X130060866Y-73183553D01*
X129921073Y-73284911D01*
X129732277Y-73329265D01*
X129530636Y-73306891D01*
X129381511Y-73232269D01*
X129313113Y-73173398D01*
X129316175Y-73139508D01*
X129408646Y-73121984D01*
X129608475Y-73112208D01*
X129633344Y-73111381D01*
X129825960Y-73083613D01*
X129901002Y-73026718D01*
X129855740Y-72955685D01*
X129687443Y-72885497D01*
X129675107Y-72882105D01*
X129506810Y-72823400D01*
X129431866Y-72749647D01*
X129417000Y-72654730D01*
X129456770Y-72528366D01*
X129586539Y-72431598D01*
X129821991Y-72354549D01*
X129931864Y-72330494D01*
X130062008Y-72327823D01*
X130125400Y-72409017D01*
G36*
X129026606Y-72411348D02*
G01*
X129130558Y-72593644D01*
X129163000Y-72820560D01*
X129116235Y-73047847D01*
X128994664Y-73214227D01*
X128826374Y-73304503D01*
X128639449Y-73303478D01*
X128464500Y-73198500D01*
X128355969Y-73008257D01*
X128341521Y-72780153D01*
X128347675Y-72762718D01*
X128540194Y-72762718D01*
X128541684Y-72921649D01*
X128598887Y-73051399D01*
X128694645Y-73126091D01*
X128811803Y-73119846D01*
X128905557Y-73043898D01*
X128952609Y-72920075D01*
X128961388Y-72747482D01*
X128960957Y-72742793D01*
X128905906Y-72577129D01*
X128801092Y-72503421D01*
X128677130Y-72534137D01*
X128611572Y-72600481D01*
X128540194Y-72762718D01*
X128347675Y-72762718D01*
X128419368Y-72559618D01*
X128493363Y-72465363D01*
X128686817Y-72335967D01*
X128871629Y-72321709D01*
X129026606Y-72411348D01*
X129026606Y-72411348D01*
G37*
X129026606Y-72411348D02*
X129130558Y-72593644D01*
X129163000Y-72820560D01*
X129116235Y-73047847D01*
X128994664Y-73214227D01*
X128826374Y-73304503D01*
X128639449Y-73303478D01*
X128464500Y-73198500D01*
X128355969Y-73008257D01*
X128341521Y-72780153D01*
X128347675Y-72762718D01*
X128540194Y-72762718D01*
X128541684Y-72921649D01*
X128598887Y-73051399D01*
X128694645Y-73126091D01*
X128811803Y-73119846D01*
X128905557Y-73043898D01*
X128952609Y-72920075D01*
X128961388Y-72747482D01*
X128960957Y-72742793D01*
X128905906Y-72577129D01*
X128801092Y-72503421D01*
X128677130Y-72534137D01*
X128611572Y-72600481D01*
X128540194Y-72762718D01*
X128347675Y-72762718D01*
X128419368Y-72559618D01*
X128493363Y-72465363D01*
X128686817Y-72335967D01*
X128871629Y-72321709D01*
X129026606Y-72411348D01*
G36*
X133101580Y-71886056D02*
G01*
X133156365Y-71922578D01*
X133163500Y-71957348D01*
X133108645Y-72036940D01*
X133004750Y-72055500D01*
X132922874Y-72061871D01*
X132875173Y-72099116D01*
X132852056Y-72194434D01*
X132843931Y-72375022D01*
X132842415Y-72515875D01*
X132820555Y-72918279D01*
X132760392Y-73202672D01*
X132659242Y-73372942D01*
X132514426Y-73432978D01*
X132323260Y-73386671D01*
X132262985Y-73356239D01*
X132116014Y-73233139D01*
X132037648Y-73083483D01*
X132049428Y-72949232D01*
X132051898Y-72945068D01*
X132128155Y-72884668D01*
X132207059Y-72949591D01*
X132243567Y-73018680D01*
X132336092Y-73153533D01*
X132451439Y-73241246D01*
X132550399Y-73254929D01*
X132569478Y-73242187D01*
X132593266Y-73161461D01*
X132617059Y-72985360D01*
X132637055Y-72745455D01*
X132643791Y-72625308D01*
X132671034Y-72055499D01*
X132467475Y-72055500D01*
X132320225Y-72034726D01*
X132290144Y-71976125D01*
X132369703Y-71925914D01*
X132561157Y-71891008D01*
X132739935Y-71877973D01*
X132971216Y-71872771D01*
X133101580Y-71886056D01*
X133101580Y-71886056D01*
G37*
X133101580Y-71886056D02*
X133156365Y-71922578D01*
X133163500Y-71957348D01*
X133108645Y-72036940D01*
X133004750Y-72055500D01*
X132922874Y-72061871D01*
X132875173Y-72099116D01*
X132852056Y-72194434D01*
X132843931Y-72375022D01*
X132842415Y-72515875D01*
X132820555Y-72918279D01*
X132760392Y-73202672D01*
X132659242Y-73372942D01*
X132514426Y-73432978D01*
X132323260Y-73386671D01*
X132262985Y-73356239D01*
X132116014Y-73233139D01*
X132037648Y-73083483D01*
X132049428Y-72949232D01*
X132051898Y-72945068D01*
X132128155Y-72884668D01*
X132207059Y-72949591D01*
X132243567Y-73018680D01*
X132336092Y-73153533D01*
X132451439Y-73241246D01*
X132550399Y-73254929D01*
X132569478Y-73242187D01*
X132593266Y-73161461D01*
X132617059Y-72985360D01*
X132637055Y-72745455D01*
X132643791Y-72625308D01*
X132671034Y-72055499D01*
X132467475Y-72055500D01*
X132320225Y-72034726D01*
X132290144Y-71976125D01*
X132369703Y-71925914D01*
X132561157Y-71891008D01*
X132739935Y-71877973D01*
X132971216Y-71872771D01*
X133101580Y-71886056D01*
G36*
X127948849Y-71905717D02*
G01*
X128097780Y-71929383D01*
X128149515Y-71960250D01*
X128098672Y-72021247D01*
X128032130Y-72042781D01*
X127973478Y-72068921D01*
X127930605Y-72141065D01*
X127896557Y-72282590D01*
X127864380Y-72516875D01*
X127848537Y-72659921D01*
X127812431Y-72931809D01*
X127768745Y-73161990D01*
X127724513Y-73316594D01*
X127704147Y-73355264D01*
X127561931Y-73443945D01*
X127387420Y-73413704D01*
X127188760Y-73266008D01*
X127184425Y-73261694D01*
X127051127Y-73093315D01*
X127028662Y-72969164D01*
X127113705Y-72897348D01*
X127185251Y-72929805D01*
X127225161Y-73004571D01*
X127313355Y-73139716D01*
X127397376Y-73205123D01*
X127499966Y-73238042D01*
X127569837Y-73198091D01*
X127612466Y-73071119D01*
X127633331Y-72842979D01*
X127638027Y-72583592D01*
X127639000Y-72063935D01*
X127464375Y-72043842D01*
X127324624Y-72014018D01*
X127295645Y-71976129D01*
X127362260Y-71938447D01*
X127509296Y-71909242D01*
X127721577Y-71896784D01*
X127734250Y-71896750D01*
X127948849Y-71905717D01*
X127948849Y-71905717D01*
G37*
X127948849Y-71905717D02*
X128097780Y-71929383D01*
X128149515Y-71960250D01*
X128098672Y-72021247D01*
X128032130Y-72042781D01*
X127973478Y-72068921D01*
X127930605Y-72141065D01*
X127896557Y-72282590D01*
X127864380Y-72516875D01*
X127848537Y-72659921D01*
X127812431Y-72931809D01*
X127768745Y-73161990D01*
X127724513Y-73316594D01*
X127704147Y-73355264D01*
X127561931Y-73443945D01*
X127387420Y-73413704D01*
X127188760Y-73266008D01*
X127184425Y-73261694D01*
X127051127Y-73093315D01*
X127028662Y-72969164D01*
X127113705Y-72897348D01*
X127185251Y-72929805D01*
X127225161Y-73004571D01*
X127313355Y-73139716D01*
X127397376Y-73205123D01*
X127499966Y-73238042D01*
X127569837Y-73198091D01*
X127612466Y-73071119D01*
X127633331Y-72842979D01*
X127638027Y-72583592D01*
X127639000Y-72063935D01*
X127464375Y-72043842D01*
X127324624Y-72014018D01*
X127295645Y-71976129D01*
X127362260Y-71938447D01*
X127509296Y-71909242D01*
X127721577Y-71896784D01*
X127734250Y-71896750D01*
X127948849Y-71905717D01*
G36*
X139202161Y-66181167D02*
G01*
X139210596Y-66298380D01*
X139210778Y-66553396D01*
X139203260Y-66914913D01*
X139188595Y-67351629D01*
X139176372Y-67641667D01*
X139153511Y-68197404D01*
X139133387Y-68782264D01*
X139117832Y-69335986D01*
X139108680Y-69798308D01*
X139107486Y-69906500D01*
X139105345Y-70307612D01*
X139111139Y-70569213D01*
X139131329Y-70721120D01*
X139172379Y-70793147D01*
X139240749Y-70815112D01*
X139304742Y-70816667D01*
X139524117Y-70837633D01*
X139643408Y-70868059D01*
X139749669Y-70986198D01*
X139771208Y-71176105D01*
X139703248Y-71360272D01*
X139675733Y-71392400D01*
X139543140Y-71440717D01*
X139286865Y-71474161D01*
X138951909Y-71492731D01*
X138583270Y-71496428D01*
X138225945Y-71485252D01*
X137924934Y-71459201D01*
X137725234Y-71418278D01*
X137677600Y-71392400D01*
X137566414Y-71198798D01*
X137603587Y-71020569D01*
X137768560Y-70884927D01*
X138040771Y-70819083D01*
X138112590Y-70816667D01*
X138445981Y-70816667D01*
X138389671Y-70337556D01*
X138376175Y-70076801D01*
X138378185Y-69693626D01*
X138394499Y-69234119D01*
X138423920Y-68744367D01*
X138434815Y-68602247D01*
X138467112Y-68158528D01*
X138488217Y-67776537D01*
X138496948Y-67487136D01*
X138492122Y-67321187D01*
X138484943Y-67294721D01*
X138387107Y-67299969D01*
X138239970Y-67379031D01*
X137972147Y-67502431D01*
X137752277Y-67467071D01*
X137658994Y-67385652D01*
X137597876Y-67253668D01*
X137636083Y-67101303D01*
X137786603Y-66909140D01*
X138062426Y-66657761D01*
X138246042Y-66508053D01*
X138612273Y-66246525D01*
X138901315Y-66103845D01*
X139102421Y-66083687D01*
X139202161Y-66181167D01*
X139202161Y-66181167D01*
G37*
X139202161Y-66181167D02*
X139210596Y-66298380D01*
X139210778Y-66553396D01*
X139203260Y-66914913D01*
X139188595Y-67351629D01*
X139176372Y-67641667D01*
X139153511Y-68197404D01*
X139133387Y-68782264D01*
X139117832Y-69335986D01*
X139108680Y-69798308D01*
X139107486Y-69906500D01*
X139105345Y-70307612D01*
X139111139Y-70569213D01*
X139131329Y-70721120D01*
X139172379Y-70793147D01*
X139240749Y-70815112D01*
X139304742Y-70816667D01*
X139524117Y-70837633D01*
X139643408Y-70868059D01*
X139749669Y-70986198D01*
X139771208Y-71176105D01*
X139703248Y-71360272D01*
X139675733Y-71392400D01*
X139543140Y-71440717D01*
X139286865Y-71474161D01*
X138951909Y-71492731D01*
X138583270Y-71496428D01*
X138225945Y-71485252D01*
X137924934Y-71459201D01*
X137725234Y-71418278D01*
X137677600Y-71392400D01*
X137566414Y-71198798D01*
X137603587Y-71020569D01*
X137768560Y-70884927D01*
X138040771Y-70819083D01*
X138112590Y-70816667D01*
X138445981Y-70816667D01*
X138389671Y-70337556D01*
X138376175Y-70076801D01*
X138378185Y-69693626D01*
X138394499Y-69234119D01*
X138423920Y-68744367D01*
X138434815Y-68602247D01*
X138467112Y-68158528D01*
X138488217Y-67776537D01*
X138496948Y-67487136D01*
X138492122Y-67321187D01*
X138484943Y-67294721D01*
X138387107Y-67299969D01*
X138239970Y-67379031D01*
X137972147Y-67502431D01*
X137752277Y-67467071D01*
X137658994Y-67385652D01*
X137597876Y-67253668D01*
X137636083Y-67101303D01*
X137786603Y-66909140D01*
X138062426Y-66657761D01*
X138246042Y-66508053D01*
X138612273Y-66246525D01*
X138901315Y-66103845D01*
X139102421Y-66083687D01*
X139202161Y-66181167D01*
G36*
X131504785Y-66100220D02*
G01*
X131528382Y-66108273D01*
X131583893Y-66144425D01*
X131620788Y-66220125D01*
X131640921Y-66361567D01*
X131646149Y-66594946D01*
X131638326Y-66946458D01*
X131620626Y-67410569D01*
X131597115Y-67936501D01*
X131569812Y-68480860D01*
X131541888Y-68983919D01*
X131516517Y-69385954D01*
X131513308Y-69431345D01*
X131494282Y-69817059D01*
X131491823Y-70175114D01*
X131505839Y-70445873D01*
X131514967Y-70510845D01*
X131571666Y-70716225D01*
X131667902Y-70801645D01*
X131812136Y-70816667D01*
X132069077Y-70871349D01*
X132200760Y-71020186D01*
X132189665Y-71240362D01*
X132171596Y-71284841D01*
X132123990Y-71374661D01*
X132057538Y-71434203D01*
X131940488Y-71469688D01*
X131741087Y-71487335D01*
X131427582Y-71493362D01*
X131103794Y-71494000D01*
X130676547Y-71490854D01*
X130388261Y-71478563D01*
X130208634Y-71452844D01*
X130107365Y-71409416D01*
X130055086Y-71345834D01*
X130005002Y-71113978D01*
X130103393Y-70937179D01*
X130333137Y-70835129D01*
X130514113Y-70817963D01*
X130775893Y-70816667D01*
X130829696Y-69270503D01*
X130850031Y-68755973D01*
X130873247Y-68282626D01*
X130897372Y-67883577D01*
X130920432Y-67591941D01*
X130938055Y-67451558D01*
X130992611Y-67178778D01*
X130652958Y-67364824D01*
X130429471Y-67474307D01*
X130290692Y-67496982D01*
X130181344Y-67441317D01*
X130176986Y-67437735D01*
X130060353Y-67283317D01*
X130074691Y-67107014D01*
X130227273Y-66891843D01*
X130525368Y-66620825D01*
X130527500Y-66619086D01*
X130885817Y-66340452D01*
X131151138Y-66169772D01*
X131348961Y-66094032D01*
X131504785Y-66100220D01*
X131504785Y-66100220D01*
G37*
X131504785Y-66100220D02*
X131528382Y-66108273D01*
X131583893Y-66144425D01*
X131620788Y-66220125D01*
X131640921Y-66361567D01*
X131646149Y-66594946D01*
X131638326Y-66946458D01*
X131620626Y-67410569D01*
X131597115Y-67936501D01*
X131569812Y-68480860D01*
X131541888Y-68983919D01*
X131516517Y-69385954D01*
X131513308Y-69431345D01*
X131494282Y-69817059D01*
X131491823Y-70175114D01*
X131505839Y-70445873D01*
X131514967Y-70510845D01*
X131571666Y-70716225D01*
X131667902Y-70801645D01*
X131812136Y-70816667D01*
X132069077Y-70871349D01*
X132200760Y-71020186D01*
X132189665Y-71240362D01*
X132171596Y-71284841D01*
X132123990Y-71374661D01*
X132057538Y-71434203D01*
X131940488Y-71469688D01*
X131741087Y-71487335D01*
X131427582Y-71493362D01*
X131103794Y-71494000D01*
X130676547Y-71490854D01*
X130388261Y-71478563D01*
X130208634Y-71452844D01*
X130107365Y-71409416D01*
X130055086Y-71345834D01*
X130005002Y-71113978D01*
X130103393Y-70937179D01*
X130333137Y-70835129D01*
X130514113Y-70817963D01*
X130775893Y-70816667D01*
X130829696Y-69270503D01*
X130850031Y-68755973D01*
X130873247Y-68282626D01*
X130897372Y-67883577D01*
X130920432Y-67591941D01*
X130938055Y-67451558D01*
X130992611Y-67178778D01*
X130652958Y-67364824D01*
X130429471Y-67474307D01*
X130290692Y-67496982D01*
X130181344Y-67441317D01*
X130176986Y-67437735D01*
X130060353Y-67283317D01*
X130074691Y-67107014D01*
X130227273Y-66891843D01*
X130525368Y-66620825D01*
X130527500Y-66619086D01*
X130885817Y-66340452D01*
X131151138Y-66169772D01*
X131348961Y-66094032D01*
X131504785Y-66100220D01*
G36*
X122025849Y-66408553D02*
G01*
X122162548Y-66624475D01*
X122266183Y-66944491D01*
X122293892Y-67091334D01*
X122358960Y-67466558D01*
X122450790Y-67934265D01*
X122561094Y-68458025D01*
X122681581Y-69001408D01*
X122803963Y-69527985D01*
X122919951Y-70001326D01*
X123021256Y-70385001D01*
X123099588Y-70642581D01*
X123105993Y-70660422D01*
X123203594Y-70960043D01*
X123230776Y-71158000D01*
X123193635Y-71303687D01*
X123186990Y-71316589D01*
X123040807Y-71482004D01*
X122873870Y-71497348D01*
X122699032Y-71378512D01*
X122529146Y-71141389D01*
X122377068Y-70801873D01*
X122255649Y-70375855D01*
X122205477Y-70103018D01*
X122157933Y-69863391D01*
X122104665Y-69704104D01*
X122082503Y-69673978D01*
X121977547Y-69673239D01*
X121744449Y-69702530D01*
X121420650Y-69756448D01*
X121139267Y-69810104D01*
X120260655Y-69986169D01*
X120020464Y-70549585D01*
X119882713Y-70859858D01*
X119752803Y-71130913D01*
X119659185Y-71303500D01*
X119482471Y-71462926D01*
X119276570Y-71478286D01*
X119135600Y-71392400D01*
X119055126Y-71262032D01*
X119048663Y-71081835D01*
X119120981Y-70820496D01*
X119276846Y-70446707D01*
X119281030Y-70437468D01*
X119399168Y-70141985D01*
X119472627Y-69888324D01*
X119485724Y-69730798D01*
X119485412Y-69729564D01*
X119517263Y-69544857D01*
X119615390Y-69445562D01*
X119717784Y-69333185D01*
X119886251Y-69103089D01*
X119887021Y-69101945D01*
X120770087Y-69101945D01*
X120817238Y-69121929D01*
X120919197Y-69106427D01*
X120992821Y-69091268D01*
X121283290Y-69036698D01*
X121588775Y-68984288D01*
X121595167Y-68983261D01*
X121820210Y-68917073D01*
X121912058Y-68820400D01*
X121912667Y-68811338D01*
X121893547Y-68661238D01*
X121845381Y-68411314D01*
X121781956Y-68125571D01*
X121717063Y-67868011D01*
X121688073Y-67768850D01*
X121626589Y-67765959D01*
X121495644Y-67906627D01*
X121302082Y-68183250D01*
X121269018Y-68234517D01*
X121027208Y-68612758D01*
X120868099Y-68868989D01*
X120784717Y-69024841D01*
X120770087Y-69101945D01*
X119887021Y-69101945D01*
X120101340Y-68783705D01*
X120343604Y-68403462D01*
X120476402Y-68186928D01*
X120894596Y-67513689D01*
X121242513Y-66992676D01*
X121521179Y-66622522D01*
X121731620Y-66401864D01*
X121874050Y-66329334D01*
X122025849Y-66408553D01*
X122025849Y-66408553D01*
G37*
X122025849Y-66408553D02*
X122162548Y-66624475D01*
X122266183Y-66944491D01*
X122293892Y-67091334D01*
X122358960Y-67466558D01*
X122450790Y-67934265D01*
X122561094Y-68458025D01*
X122681581Y-69001408D01*
X122803963Y-69527985D01*
X122919951Y-70001326D01*
X123021256Y-70385001D01*
X123099588Y-70642581D01*
X123105993Y-70660422D01*
X123203594Y-70960043D01*
X123230776Y-71158000D01*
X123193635Y-71303687D01*
X123186990Y-71316589D01*
X123040807Y-71482004D01*
X122873870Y-71497348D01*
X122699032Y-71378512D01*
X122529146Y-71141389D01*
X122377068Y-70801873D01*
X122255649Y-70375855D01*
X122205477Y-70103018D01*
X122157933Y-69863391D01*
X122104665Y-69704104D01*
X122082503Y-69673978D01*
X121977547Y-69673239D01*
X121744449Y-69702530D01*
X121420650Y-69756448D01*
X121139267Y-69810104D01*
X120260655Y-69986169D01*
X120020464Y-70549585D01*
X119882713Y-70859858D01*
X119752803Y-71130913D01*
X119659185Y-71303500D01*
X119482471Y-71462926D01*
X119276570Y-71478286D01*
X119135600Y-71392400D01*
X119055126Y-71262032D01*
X119048663Y-71081835D01*
X119120981Y-70820496D01*
X119276846Y-70446707D01*
X119281030Y-70437468D01*
X119399168Y-70141985D01*
X119472627Y-69888324D01*
X119485724Y-69730798D01*
X119485412Y-69729564D01*
X119517263Y-69544857D01*
X119615390Y-69445562D01*
X119717784Y-69333185D01*
X119886251Y-69103089D01*
X119887021Y-69101945D01*
X120770087Y-69101945D01*
X120817238Y-69121929D01*
X120919197Y-69106427D01*
X120992821Y-69091268D01*
X121283290Y-69036698D01*
X121588775Y-68984288D01*
X121595167Y-68983261D01*
X121820210Y-68917073D01*
X121912058Y-68820400D01*
X121912667Y-68811338D01*
X121893547Y-68661238D01*
X121845381Y-68411314D01*
X121781956Y-68125571D01*
X121717063Y-67868011D01*
X121688073Y-67768850D01*
X121626589Y-67765959D01*
X121495644Y-67906627D01*
X121302082Y-68183250D01*
X121269018Y-68234517D01*
X121027208Y-68612758D01*
X120868099Y-68868989D01*
X120784717Y-69024841D01*
X120770087Y-69101945D01*
X119887021Y-69101945D01*
X120101340Y-68783705D01*
X120343604Y-68403462D01*
X120476402Y-68186928D01*
X120894596Y-67513689D01*
X121242513Y-66992676D01*
X121521179Y-66622522D01*
X121731620Y-66401864D01*
X121874050Y-66329334D01*
X122025849Y-66408553D01*
G36*
X135483993Y-66189954D02*
G01*
X135592323Y-66235592D01*
X136032711Y-66524641D01*
X136365525Y-66943190D01*
X136591034Y-67491812D01*
X136709508Y-68171079D01*
X136729333Y-68649601D01*
X136681183Y-69451926D01*
X136538865Y-70138073D01*
X136305574Y-70699091D01*
X135984507Y-71126033D01*
X135785944Y-71290688D01*
X135392698Y-71474368D01*
X134925424Y-71559181D01*
X134451153Y-71539941D01*
X134062333Y-71424018D01*
X133658634Y-71160002D01*
X133344990Y-70788992D01*
X133112650Y-70295702D01*
X132952862Y-69664845D01*
X132913672Y-69417489D01*
X132870963Y-68711318D01*
X132908919Y-68340691D01*
X133601460Y-68340691D01*
X133605815Y-68686746D01*
X133613977Y-68954000D01*
X133634638Y-69413544D01*
X133666020Y-69745506D01*
X133715000Y-69991592D01*
X133788451Y-70193509D01*
X133833396Y-70285040D01*
X134098141Y-70633592D01*
X134437828Y-70841917D01*
X134824986Y-70900974D01*
X135232142Y-70801721D01*
X135301646Y-70768311D01*
X135541051Y-70561626D01*
X135765433Y-70193972D01*
X135784274Y-70154478D01*
X135881912Y-69931245D01*
X135946572Y-69728414D01*
X135984917Y-69501698D01*
X136003612Y-69206812D01*
X136009320Y-68799469D01*
X136009498Y-68657667D01*
X135997802Y-68109961D01*
X135956266Y-67700241D01*
X135874902Y-67398328D01*
X135743727Y-67174043D01*
X135552752Y-66997206D01*
X135434056Y-66918572D01*
X135048531Y-66769614D01*
X134666046Y-66781707D01*
X134306418Y-66947403D01*
X133989466Y-67259253D01*
X133822213Y-67524376D01*
X133718644Y-67730150D01*
X133651547Y-67905833D01*
X133614594Y-68094867D01*
X133601460Y-68340691D01*
X132908919Y-68340691D01*
X132937716Y-68059503D01*
X133102194Y-67475988D01*
X133352660Y-66974714D01*
X133677376Y-66569623D01*
X134064605Y-66274660D01*
X134502609Y-66103765D01*
X134979651Y-66070883D01*
X135483993Y-66189954D01*
X135483993Y-66189954D01*
G37*
X135483993Y-66189954D02*
X135592323Y-66235592D01*
X136032711Y-66524641D01*
X136365525Y-66943190D01*
X136591034Y-67491812D01*
X136709508Y-68171079D01*
X136729333Y-68649601D01*
X136681183Y-69451926D01*
X136538865Y-70138073D01*
X136305574Y-70699091D01*
X135984507Y-71126033D01*
X135785944Y-71290688D01*
X135392698Y-71474368D01*
X134925424Y-71559181D01*
X134451153Y-71539941D01*
X134062333Y-71424018D01*
X133658634Y-71160002D01*
X133344990Y-70788992D01*
X133112650Y-70295702D01*
X132952862Y-69664845D01*
X132913672Y-69417489D01*
X132870963Y-68711318D01*
X132908919Y-68340691D01*
X133601460Y-68340691D01*
X133605815Y-68686746D01*
X133613977Y-68954000D01*
X133634638Y-69413544D01*
X133666020Y-69745506D01*
X133715000Y-69991592D01*
X133788451Y-70193509D01*
X133833396Y-70285040D01*
X134098141Y-70633592D01*
X134437828Y-70841917D01*
X134824986Y-70900974D01*
X135232142Y-70801721D01*
X135301646Y-70768311D01*
X135541051Y-70561626D01*
X135765433Y-70193972D01*
X135784274Y-70154478D01*
X135881912Y-69931245D01*
X135946572Y-69728414D01*
X135984917Y-69501698D01*
X136003612Y-69206812D01*
X136009320Y-68799469D01*
X136009498Y-68657667D01*
X135997802Y-68109961D01*
X135956266Y-67700241D01*
X135874902Y-67398328D01*
X135743727Y-67174043D01*
X135552752Y-66997206D01*
X135434056Y-66918572D01*
X135048531Y-66769614D01*
X134666046Y-66781707D01*
X134306418Y-66947403D01*
X133989466Y-67259253D01*
X133822213Y-67524376D01*
X133718644Y-67730150D01*
X133651547Y-67905833D01*
X133614594Y-68094867D01*
X133601460Y-68340691D01*
X132908919Y-68340691D01*
X132937716Y-68059503D01*
X133102194Y-67475988D01*
X133352660Y-66974714D01*
X133677376Y-66569623D01*
X134064605Y-66274660D01*
X134502609Y-66103765D01*
X134979651Y-66070883D01*
X135483993Y-66189954D01*
G36*
X127358563Y-66278872D02*
G01*
X127915023Y-66406785D01*
X128387691Y-66636307D01*
X128749863Y-66956008D01*
X128903972Y-67188193D01*
X129075582Y-67679580D01*
X129144435Y-68259509D01*
X129111963Y-68883035D01*
X128979597Y-69505212D01*
X128816278Y-69942496D01*
X128564036Y-70377159D01*
X128226778Y-70795118D01*
X127851318Y-71144671D01*
X127546805Y-71344489D01*
X127112431Y-71492561D01*
X126599734Y-71554610D01*
X126078110Y-71527394D01*
X125679679Y-71431702D01*
X125121523Y-71160725D01*
X124694789Y-70790231D01*
X124403377Y-70344362D01*
X124287073Y-70083549D01*
X124224691Y-69857302D01*
X124205021Y-69598524D01*
X124211055Y-69415720D01*
X124894121Y-69415720D01*
X124915892Y-69686898D01*
X125042989Y-70044356D01*
X125289616Y-70387359D01*
X125610095Y-70664288D01*
X125909899Y-70810228D01*
X126392714Y-70883181D01*
X126888036Y-70830815D01*
X127332151Y-70662121D01*
X127440134Y-70594225D01*
X127812019Y-70237276D01*
X128108494Y-69756834D01*
X128312772Y-69188267D01*
X128408064Y-68566946D01*
X128408781Y-68553463D01*
X128393993Y-67994966D01*
X128279168Y-67567643D01*
X128054957Y-67259660D01*
X127712008Y-67059187D01*
X127240969Y-66954392D01*
X127137001Y-66944384D01*
X126786818Y-66929877D01*
X126524704Y-66961666D01*
X126272945Y-67051544D01*
X126197327Y-67086980D01*
X125772413Y-67380193D01*
X125410603Y-67798289D01*
X125130929Y-68302652D01*
X124952424Y-68854667D01*
X124894121Y-69415720D01*
X124211055Y-69415720D01*
X124216853Y-69240120D01*
X124217361Y-69230982D01*
X124318317Y-68507521D01*
X124542301Y-67880642D01*
X124902233Y-67318283D01*
X125064281Y-67129053D01*
X125482397Y-66728657D01*
X125895760Y-66465639D01*
X126350964Y-66316019D01*
X126745013Y-66263998D01*
X127358563Y-66278872D01*
X127358563Y-66278872D01*
G37*
X127358563Y-66278872D02*
X127915023Y-66406785D01*
X128387691Y-66636307D01*
X128749863Y-66956008D01*
X128903972Y-67188193D01*
X129075582Y-67679580D01*
X129144435Y-68259509D01*
X129111963Y-68883035D01*
X128979597Y-69505212D01*
X128816278Y-69942496D01*
X128564036Y-70377159D01*
X128226778Y-70795118D01*
X127851318Y-71144671D01*
X127546805Y-71344489D01*
X127112431Y-71492561D01*
X126599734Y-71554610D01*
X126078110Y-71527394D01*
X125679679Y-71431702D01*
X125121523Y-71160725D01*
X124694789Y-70790231D01*
X124403377Y-70344362D01*
X124287073Y-70083549D01*
X124224691Y-69857302D01*
X124205021Y-69598524D01*
X124211055Y-69415720D01*
X124894121Y-69415720D01*
X124915892Y-69686898D01*
X125042989Y-70044356D01*
X125289616Y-70387359D01*
X125610095Y-70664288D01*
X125909899Y-70810228D01*
X126392714Y-70883181D01*
X126888036Y-70830815D01*
X127332151Y-70662121D01*
X127440134Y-70594225D01*
X127812019Y-70237276D01*
X128108494Y-69756834D01*
X128312772Y-69188267D01*
X128408064Y-68566946D01*
X128408781Y-68553463D01*
X128393993Y-67994966D01*
X128279168Y-67567643D01*
X128054957Y-67259660D01*
X127712008Y-67059187D01*
X127240969Y-66954392D01*
X127137001Y-66944384D01*
X126786818Y-66929877D01*
X126524704Y-66961666D01*
X126272945Y-67051544D01*
X126197327Y-67086980D01*
X125772413Y-67380193D01*
X125410603Y-67798289D01*
X125130929Y-68302652D01*
X124952424Y-68854667D01*
X124894121Y-69415720D01*
X124211055Y-69415720D01*
X124216853Y-69240120D01*
X124217361Y-69230982D01*
X124318317Y-68507521D01*
X124542301Y-67880642D01*
X124902233Y-67318283D01*
X125064281Y-67129053D01*
X125482397Y-66728657D01*
X125895760Y-66465639D01*
X126350964Y-66316019D01*
X126745013Y-66263998D01*
X127358563Y-66278872D01*
G36*
X116833817Y-66436650D02*
G01*
X117283529Y-66509122D01*
X117631669Y-66629875D01*
X117855754Y-66788023D01*
X117933333Y-66968984D01*
X117912647Y-67121221D01*
X117831650Y-67208276D01*
X117661932Y-67237170D01*
X117375086Y-67214922D01*
X117101326Y-67174597D01*
X116684053Y-67121532D01*
X116371169Y-67118562D01*
X116105471Y-67165165D01*
X116104296Y-67165486D01*
X115769243Y-67301447D01*
X115515734Y-67488676D01*
X115358954Y-67700370D01*
X115314087Y-67909725D01*
X115396318Y-68089939D01*
X115529200Y-68180635D01*
X115733828Y-68243123D01*
X116032186Y-68299659D01*
X116270033Y-68328892D01*
X116936539Y-68437669D01*
X117457559Y-68629875D01*
X117836495Y-68908274D01*
X118076746Y-69275626D01*
X118181712Y-69734696D01*
X118187333Y-69886819D01*
X118131753Y-70284088D01*
X117951673Y-70636048D01*
X117627086Y-70980638D01*
X117596543Y-71007085D01*
X117122937Y-71308627D01*
X116558857Y-71500069D01*
X115948840Y-71573517D01*
X115337421Y-71521077D01*
X115073597Y-71454275D01*
X114642832Y-71281423D01*
X114350108Y-71066193D01*
X114165288Y-70785958D01*
X114156651Y-70765815D01*
X114086178Y-70466242D01*
X114138219Y-70257608D01*
X114282744Y-70157338D01*
X114489722Y-70182861D01*
X114729122Y-70351602D01*
X114778847Y-70404748D01*
X115002168Y-70609648D01*
X115248008Y-70768782D01*
X115284780Y-70785748D01*
X115677984Y-70886224D01*
X116107086Y-70888298D01*
X116534499Y-70804596D01*
X116922639Y-70647745D01*
X117233919Y-70430374D01*
X117430754Y-70165109D01*
X117468205Y-70052214D01*
X117462786Y-69738075D01*
X117297556Y-69477565D01*
X116973562Y-69271400D01*
X116491846Y-69120295D01*
X115990538Y-69039184D01*
X115423892Y-68943344D01*
X115009677Y-68796858D01*
X114736000Y-68589958D01*
X114590967Y-68312881D01*
X114562686Y-67955858D01*
X114570123Y-67872842D01*
X114612313Y-67635797D01*
X114697996Y-67448051D01*
X114860566Y-67253608D01*
X115044274Y-67077748D01*
X115558549Y-66698775D01*
X116104226Y-66483595D01*
X116693822Y-66427724D01*
X116833817Y-66436650D01*
X116833817Y-66436650D01*
G37*
X116833817Y-66436650D02*
X117283529Y-66509122D01*
X117631669Y-66629875D01*
X117855754Y-66788023D01*
X117933333Y-66968984D01*
X117912647Y-67121221D01*
X117831650Y-67208276D01*
X117661932Y-67237170D01*
X117375086Y-67214922D01*
X117101326Y-67174597D01*
X116684053Y-67121532D01*
X116371169Y-67118562D01*
X116105471Y-67165165D01*
X116104296Y-67165486D01*
X115769243Y-67301447D01*
X115515734Y-67488676D01*
X115358954Y-67700370D01*
X115314087Y-67909725D01*
X115396318Y-68089939D01*
X115529200Y-68180635D01*
X115733828Y-68243123D01*
X116032186Y-68299659D01*
X116270033Y-68328892D01*
X116936539Y-68437669D01*
X117457559Y-68629875D01*
X117836495Y-68908274D01*
X118076746Y-69275626D01*
X118181712Y-69734696D01*
X118187333Y-69886819D01*
X118131753Y-70284088D01*
X117951673Y-70636048D01*
X117627086Y-70980638D01*
X117596543Y-71007085D01*
X117122937Y-71308627D01*
X116558857Y-71500069D01*
X115948840Y-71573517D01*
X115337421Y-71521077D01*
X115073597Y-71454275D01*
X114642832Y-71281423D01*
X114350108Y-71066193D01*
X114165288Y-70785958D01*
X114156651Y-70765815D01*
X114086178Y-70466242D01*
X114138219Y-70257608D01*
X114282744Y-70157338D01*
X114489722Y-70182861D01*
X114729122Y-70351602D01*
X114778847Y-70404748D01*
X115002168Y-70609648D01*
X115248008Y-70768782D01*
X115284780Y-70785748D01*
X115677984Y-70886224D01*
X116107086Y-70888298D01*
X116534499Y-70804596D01*
X116922639Y-70647745D01*
X117233919Y-70430374D01*
X117430754Y-70165109D01*
X117468205Y-70052214D01*
X117462786Y-69738075D01*
X117297556Y-69477565D01*
X116973562Y-69271400D01*
X116491846Y-69120295D01*
X115990538Y-69039184D01*
X115423892Y-68943344D01*
X115009677Y-68796858D01*
X114736000Y-68589958D01*
X114590967Y-68312881D01*
X114562686Y-67955858D01*
X114570123Y-67872842D01*
X114612313Y-67635797D01*
X114697996Y-67448051D01*
X114860566Y-67253608D01*
X115044274Y-67077748D01*
X115558549Y-66698775D01*
X116104226Y-66483595D01*
X116693822Y-66427724D01*
X116833817Y-66436650D01*
D12*
X132040000Y-86991422D02*
X132040000Y-87508578D01*
X133460000Y-86991422D02*
X133460000Y-87508578D01*
X108110000Y-80385000D02*
X108110000Y-77700000D01*
X106190000Y-80385000D02*
X108110000Y-80385000D01*
X106190000Y-77700000D02*
X106190000Y-80385000D01*
X108290000Y-77700000D02*
X108290000Y-80385000D01*
X108290000Y-80385000D02*
X110210000Y-80385000D01*
X110210000Y-80385000D02*
X110210000Y-77700000D01*
X115810000Y-80485000D02*
X115810000Y-77800000D01*
X113890000Y-80485000D02*
X115810000Y-80485000D01*
X113890000Y-77800000D02*
X113890000Y-80485000D01*
X115990000Y-77800000D02*
X115990000Y-80485000D01*
X115990000Y-80485000D02*
X117910000Y-80485000D01*
X117910000Y-80485000D02*
X117910000Y-77800000D01*
X106760000Y-94185000D02*
X106760000Y-91500000D01*
X104840000Y-94185000D02*
X106760000Y-94185000D01*
X104840000Y-91500000D02*
X104840000Y-94185000D01*
X109140000Y-91500000D02*
X109140000Y-94185000D01*
X109140000Y-94185000D02*
X111060000Y-94185000D01*
X111060000Y-94185000D02*
X111060000Y-91500000D01*
X115160000Y-94185000D02*
X115160000Y-91500000D01*
X113240000Y-94185000D02*
X115160000Y-94185000D01*
X113240000Y-91500000D02*
X113240000Y-94185000D01*
X117040000Y-91500000D02*
X117040000Y-94185000D01*
X117040000Y-94185000D02*
X118960000Y-94185000D01*
X118960000Y-94185000D02*
X118960000Y-91500000D01*
X145185000Y-90790000D02*
X142500000Y-90790000D01*
X145185000Y-92710000D02*
X145185000Y-90790000D01*
X142500000Y-92710000D02*
X145185000Y-92710000D01*
X142500000Y-90460000D02*
X145185000Y-90460000D01*
X145185000Y-90460000D02*
X145185000Y-88540000D01*
X145185000Y-88540000D02*
X142500000Y-88540000D01*
X145185000Y-86290000D02*
X142500000Y-86290000D01*
X145185000Y-88210000D02*
X145185000Y-86290000D01*
X142500000Y-88210000D02*
X145185000Y-88210000D01*
X142500000Y-85960000D02*
X145185000Y-85960000D01*
X145185000Y-85960000D02*
X145185000Y-84040000D01*
X145185000Y-84040000D02*
X142500000Y-84040000D01*
X145185000Y-81790000D02*
X142500000Y-81790000D01*
X145185000Y-83710000D02*
X145185000Y-81790000D01*
X142500000Y-83710000D02*
X145185000Y-83710000D01*
X142500000Y-81460000D02*
X145185000Y-81460000D01*
X145185000Y-81460000D02*
X145185000Y-79540000D01*
X145185000Y-79540000D02*
X142500000Y-79540000D01*
X145185000Y-77290000D02*
X142500000Y-77290000D01*
X145185000Y-79210000D02*
X145185000Y-77290000D01*
X142500000Y-79210000D02*
X145185000Y-79210000D01*
X142500000Y-76960000D02*
X145185000Y-76960000D01*
X145185000Y-76960000D02*
X145185000Y-75040000D01*
X145185000Y-75040000D02*
X142500000Y-75040000D01*
X107860000Y-75258578D02*
X107860000Y-74741422D01*
X106440000Y-75258578D02*
X106440000Y-74741422D01*
X109960000Y-75258578D02*
X109960000Y-74741422D01*
X108540000Y-75258578D02*
X108540000Y-74741422D01*
X114140000Y-75358578D02*
X114140000Y-74841422D01*
X115560000Y-75358578D02*
X115560000Y-74841422D01*
X116240000Y-75358578D02*
X116240000Y-74841422D01*
X117660000Y-75358578D02*
X117660000Y-74841422D01*
X106510000Y-89258578D02*
X106510000Y-88741422D01*
X105090000Y-89258578D02*
X105090000Y-88741422D01*
X109390000Y-89258578D02*
X109390000Y-88741422D01*
X110810000Y-89258578D02*
X110810000Y-88741422D01*
X114910000Y-89258578D02*
X114910000Y-88741422D01*
X113490000Y-89258578D02*
X113490000Y-88741422D01*
X117290000Y-89258578D02*
X117290000Y-88741422D01*
X118710000Y-89258578D02*
X118710000Y-88741422D01*
X140258578Y-91040000D02*
X139741422Y-91040000D01*
X140258578Y-92460000D02*
X139741422Y-92460000D01*
X140258578Y-90210000D02*
X139741422Y-90210000D01*
X140258578Y-88790000D02*
X139741422Y-88790000D01*
X140258578Y-87960000D02*
X139741422Y-87960000D01*
X140258578Y-86540000D02*
X139741422Y-86540000D01*
X140258578Y-84290000D02*
X139741422Y-84290000D01*
X140258578Y-85710000D02*
X139741422Y-85710000D01*
X140258578Y-83460000D02*
X139741422Y-83460000D01*
X140258578Y-82040000D02*
X139741422Y-82040000D01*
X140258578Y-79790000D02*
X139741422Y-79790000D01*
X140258578Y-81210000D02*
X139741422Y-81210000D01*
X140258578Y-78960000D02*
X139741422Y-78960000D01*
X140258578Y-77540000D02*
X139741422Y-77540000D01*
X140258578Y-75290000D02*
X139741422Y-75290000D01*
X140258578Y-76710000D02*
X139741422Y-76710000D01*
D10*
X124850000Y-101550000D02*
G75*
G03X124850000Y-101550000I-50000J0D01*
G01*
D13*
X124125000Y-78675000D02*
X124125000Y-79250000D01*
X129875000Y-78675000D02*
X129875000Y-79325000D01*
X129875000Y-89325000D02*
X129875000Y-88675000D01*
X124125000Y-89325000D02*
X124125000Y-88675000D01*
X124125000Y-78675000D02*
X129875000Y-78675000D01*
X124125000Y-89325000D02*
X129875000Y-89325000D01*
X124125000Y-79250000D02*
X122525000Y-79250000D01*
X132583333Y-90107142D02*
X132535714Y-90154761D01*
X132392857Y-90202380D01*
X132297619Y-90202380D01*
X132154761Y-90154761D01*
X132059523Y-90059523D01*
X132011904Y-89964285D01*
X131964285Y-89773809D01*
X131964285Y-89630952D01*
X132011904Y-89440476D01*
X132059523Y-89345238D01*
X132154761Y-89250000D01*
X132297619Y-89202380D01*
X132392857Y-89202380D01*
X132535714Y-89250000D01*
X132583333Y-89297619D01*
X132916666Y-89202380D02*
X133535714Y-89202380D01*
X133202380Y-89583333D01*
X133345238Y-89583333D01*
X133440476Y-89630952D01*
X133488095Y-89678571D01*
X133535714Y-89773809D01*
X133535714Y-90011904D01*
X133488095Y-90107142D01*
X133440476Y-90154761D01*
X133345238Y-90202380D01*
X133059523Y-90202380D01*
X132964285Y-90154761D01*
X132916666Y-90107142D01*
X106511904Y-81552380D02*
X106511904Y-80552380D01*
X106750000Y-80552380D01*
X106892857Y-80600000D01*
X106988095Y-80695238D01*
X107035714Y-80790476D01*
X107083333Y-80980952D01*
X107083333Y-81123809D01*
X107035714Y-81314285D01*
X106988095Y-81409523D01*
X106892857Y-81504761D01*
X106750000Y-81552380D01*
X106511904Y-81552380D01*
X108035714Y-81552380D02*
X107464285Y-81552380D01*
X107750000Y-81552380D02*
X107750000Y-80552380D01*
X107654761Y-80695238D01*
X107559523Y-80790476D01*
X107464285Y-80838095D01*
X108511904Y-81552380D02*
X108511904Y-80552380D01*
X108750000Y-80552380D01*
X108892857Y-80600000D01*
X108988095Y-80695238D01*
X109035714Y-80790476D01*
X109083333Y-80980952D01*
X109083333Y-81123809D01*
X109035714Y-81314285D01*
X108988095Y-81409523D01*
X108892857Y-81504761D01*
X108750000Y-81552380D01*
X108511904Y-81552380D01*
X109464285Y-80647619D02*
X109511904Y-80600000D01*
X109607142Y-80552380D01*
X109845238Y-80552380D01*
X109940476Y-80600000D01*
X109988095Y-80647619D01*
X110035714Y-80742857D01*
X110035714Y-80838095D01*
X109988095Y-80980952D01*
X109416666Y-81552380D01*
X110035714Y-81552380D01*
X114111904Y-81652380D02*
X114111904Y-80652380D01*
X114350000Y-80652380D01*
X114492857Y-80700000D01*
X114588095Y-80795238D01*
X114635714Y-80890476D01*
X114683333Y-81080952D01*
X114683333Y-81223809D01*
X114635714Y-81414285D01*
X114588095Y-81509523D01*
X114492857Y-81604761D01*
X114350000Y-81652380D01*
X114111904Y-81652380D01*
X115016666Y-80652380D02*
X115635714Y-80652380D01*
X115302380Y-81033333D01*
X115445238Y-81033333D01*
X115540476Y-81080952D01*
X115588095Y-81128571D01*
X115635714Y-81223809D01*
X115635714Y-81461904D01*
X115588095Y-81557142D01*
X115540476Y-81604761D01*
X115445238Y-81652380D01*
X115159523Y-81652380D01*
X115064285Y-81604761D01*
X115016666Y-81557142D01*
X116211904Y-81652380D02*
X116211904Y-80652380D01*
X116450000Y-80652380D01*
X116592857Y-80700000D01*
X116688095Y-80795238D01*
X116735714Y-80890476D01*
X116783333Y-81080952D01*
X116783333Y-81223809D01*
X116735714Y-81414285D01*
X116688095Y-81509523D01*
X116592857Y-81604761D01*
X116450000Y-81652380D01*
X116211904Y-81652380D01*
X117640476Y-80985714D02*
X117640476Y-81652380D01*
X117402380Y-80604761D02*
X117164285Y-81319047D01*
X117783333Y-81319047D01*
X105061904Y-95452380D02*
X105061904Y-94452380D01*
X105300000Y-94452380D01*
X105442857Y-94500000D01*
X105538095Y-94595238D01*
X105585714Y-94690476D01*
X105633333Y-94880952D01*
X105633333Y-95023809D01*
X105585714Y-95214285D01*
X105538095Y-95309523D01*
X105442857Y-95404761D01*
X105300000Y-95452380D01*
X105061904Y-95452380D01*
X106538095Y-94452380D02*
X106061904Y-94452380D01*
X106014285Y-94928571D01*
X106061904Y-94880952D01*
X106157142Y-94833333D01*
X106395238Y-94833333D01*
X106490476Y-94880952D01*
X106538095Y-94928571D01*
X106585714Y-95023809D01*
X106585714Y-95261904D01*
X106538095Y-95357142D01*
X106490476Y-95404761D01*
X106395238Y-95452380D01*
X106157142Y-95452380D01*
X106061904Y-95404761D01*
X106014285Y-95357142D01*
X109361904Y-95452380D02*
X109361904Y-94452380D01*
X109600000Y-94452380D01*
X109742857Y-94500000D01*
X109838095Y-94595238D01*
X109885714Y-94690476D01*
X109933333Y-94880952D01*
X109933333Y-95023809D01*
X109885714Y-95214285D01*
X109838095Y-95309523D01*
X109742857Y-95404761D01*
X109600000Y-95452380D01*
X109361904Y-95452380D01*
X110790476Y-94452380D02*
X110600000Y-94452380D01*
X110504761Y-94500000D01*
X110457142Y-94547619D01*
X110361904Y-94690476D01*
X110314285Y-94880952D01*
X110314285Y-95261904D01*
X110361904Y-95357142D01*
X110409523Y-95404761D01*
X110504761Y-95452380D01*
X110695238Y-95452380D01*
X110790476Y-95404761D01*
X110838095Y-95357142D01*
X110885714Y-95261904D01*
X110885714Y-95023809D01*
X110838095Y-94928571D01*
X110790476Y-94880952D01*
X110695238Y-94833333D01*
X110504761Y-94833333D01*
X110409523Y-94880952D01*
X110361904Y-94928571D01*
X110314285Y-95023809D01*
X113461904Y-95452380D02*
X113461904Y-94452380D01*
X113700000Y-94452380D01*
X113842857Y-94500000D01*
X113938095Y-94595238D01*
X113985714Y-94690476D01*
X114033333Y-94880952D01*
X114033333Y-95023809D01*
X113985714Y-95214285D01*
X113938095Y-95309523D01*
X113842857Y-95404761D01*
X113700000Y-95452380D01*
X113461904Y-95452380D01*
X114366666Y-94452380D02*
X115033333Y-94452380D01*
X114604761Y-95452380D01*
X117261904Y-95452380D02*
X117261904Y-94452380D01*
X117500000Y-94452380D01*
X117642857Y-94500000D01*
X117738095Y-94595238D01*
X117785714Y-94690476D01*
X117833333Y-94880952D01*
X117833333Y-95023809D01*
X117785714Y-95214285D01*
X117738095Y-95309523D01*
X117642857Y-95404761D01*
X117500000Y-95452380D01*
X117261904Y-95452380D01*
X118404761Y-94880952D02*
X118309523Y-94833333D01*
X118261904Y-94785714D01*
X118214285Y-94690476D01*
X118214285Y-94642857D01*
X118261904Y-94547619D01*
X118309523Y-94500000D01*
X118404761Y-94452380D01*
X118595238Y-94452380D01*
X118690476Y-94500000D01*
X118738095Y-94547619D01*
X118785714Y-94642857D01*
X118785714Y-94690476D01*
X118738095Y-94785714D01*
X118690476Y-94833333D01*
X118595238Y-94880952D01*
X118404761Y-94880952D01*
X118309523Y-94928571D01*
X118261904Y-94976190D01*
X118214285Y-95071428D01*
X118214285Y-95261904D01*
X118261904Y-95357142D01*
X118309523Y-95404761D01*
X118404761Y-95452380D01*
X118595238Y-95452380D01*
X118690476Y-95404761D01*
X118738095Y-95357142D01*
X118785714Y-95261904D01*
X118785714Y-95071428D01*
X118738095Y-94976190D01*
X118690476Y-94928571D01*
X118595238Y-94880952D01*
X145511904Y-92202380D02*
X145511904Y-91202380D01*
X145750000Y-91202380D01*
X145892857Y-91250000D01*
X145988095Y-91345238D01*
X146035714Y-91440476D01*
X146083333Y-91630952D01*
X146083333Y-91773809D01*
X146035714Y-91964285D01*
X145988095Y-92059523D01*
X145892857Y-92154761D01*
X145750000Y-92202380D01*
X145511904Y-92202380D01*
X146559523Y-92202380D02*
X146750000Y-92202380D01*
X146845238Y-92154761D01*
X146892857Y-92107142D01*
X146988095Y-91964285D01*
X147035714Y-91773809D01*
X147035714Y-91392857D01*
X146988095Y-91297619D01*
X146940476Y-91250000D01*
X146845238Y-91202380D01*
X146654761Y-91202380D01*
X146559523Y-91250000D01*
X146511904Y-91297619D01*
X146464285Y-91392857D01*
X146464285Y-91630952D01*
X146511904Y-91726190D01*
X146559523Y-91773809D01*
X146654761Y-91821428D01*
X146845238Y-91821428D01*
X146940476Y-91773809D01*
X146988095Y-91726190D01*
X147035714Y-91630952D01*
X145535714Y-89952380D02*
X145535714Y-88952380D01*
X145773809Y-88952380D01*
X145916666Y-89000000D01*
X146011904Y-89095238D01*
X146059523Y-89190476D01*
X146107142Y-89380952D01*
X146107142Y-89523809D01*
X146059523Y-89714285D01*
X146011904Y-89809523D01*
X145916666Y-89904761D01*
X145773809Y-89952380D01*
X145535714Y-89952380D01*
X147059523Y-89952380D02*
X146488095Y-89952380D01*
X146773809Y-89952380D02*
X146773809Y-88952380D01*
X146678571Y-89095238D01*
X146583333Y-89190476D01*
X146488095Y-89238095D01*
X147678571Y-88952380D02*
X147773809Y-88952380D01*
X147869047Y-89000000D01*
X147916666Y-89047619D01*
X147964285Y-89142857D01*
X148011904Y-89333333D01*
X148011904Y-89571428D01*
X147964285Y-89761904D01*
X147916666Y-89857142D01*
X147869047Y-89904761D01*
X147773809Y-89952380D01*
X147678571Y-89952380D01*
X147583333Y-89904761D01*
X147535714Y-89857142D01*
X147488095Y-89761904D01*
X147440476Y-89571428D01*
X147440476Y-89333333D01*
X147488095Y-89142857D01*
X147535714Y-89047619D01*
X147583333Y-89000000D01*
X147678571Y-88952380D01*
X145535714Y-87702380D02*
X145535714Y-86702380D01*
X145773809Y-86702380D01*
X145916666Y-86750000D01*
X146011904Y-86845238D01*
X146059523Y-86940476D01*
X146107142Y-87130952D01*
X146107142Y-87273809D01*
X146059523Y-87464285D01*
X146011904Y-87559523D01*
X145916666Y-87654761D01*
X145773809Y-87702380D01*
X145535714Y-87702380D01*
X147059523Y-87702380D02*
X146488095Y-87702380D01*
X146773809Y-87702380D02*
X146773809Y-86702380D01*
X146678571Y-86845238D01*
X146583333Y-86940476D01*
X146488095Y-86988095D01*
X148011904Y-87702380D02*
X147440476Y-87702380D01*
X147726190Y-87702380D02*
X147726190Y-86702380D01*
X147630952Y-86845238D01*
X147535714Y-86940476D01*
X147440476Y-86988095D01*
X145535714Y-85452380D02*
X145535714Y-84452380D01*
X145773809Y-84452380D01*
X145916666Y-84500000D01*
X146011904Y-84595238D01*
X146059523Y-84690476D01*
X146107142Y-84880952D01*
X146107142Y-85023809D01*
X146059523Y-85214285D01*
X146011904Y-85309523D01*
X145916666Y-85404761D01*
X145773809Y-85452380D01*
X145535714Y-85452380D01*
X147059523Y-85452380D02*
X146488095Y-85452380D01*
X146773809Y-85452380D02*
X146773809Y-84452380D01*
X146678571Y-84595238D01*
X146583333Y-84690476D01*
X146488095Y-84738095D01*
X147440476Y-84547619D02*
X147488095Y-84500000D01*
X147583333Y-84452380D01*
X147821428Y-84452380D01*
X147916666Y-84500000D01*
X147964285Y-84547619D01*
X148011904Y-84642857D01*
X148011904Y-84738095D01*
X147964285Y-84880952D01*
X147392857Y-85452380D01*
X148011904Y-85452380D01*
X145535714Y-83202380D02*
X145535714Y-82202380D01*
X145773809Y-82202380D01*
X145916666Y-82250000D01*
X146011904Y-82345238D01*
X146059523Y-82440476D01*
X146107142Y-82630952D01*
X146107142Y-82773809D01*
X146059523Y-82964285D01*
X146011904Y-83059523D01*
X145916666Y-83154761D01*
X145773809Y-83202380D01*
X145535714Y-83202380D01*
X147059523Y-83202380D02*
X146488095Y-83202380D01*
X146773809Y-83202380D02*
X146773809Y-82202380D01*
X146678571Y-82345238D01*
X146583333Y-82440476D01*
X146488095Y-82488095D01*
X147392857Y-82202380D02*
X148011904Y-82202380D01*
X147678571Y-82583333D01*
X147821428Y-82583333D01*
X147916666Y-82630952D01*
X147964285Y-82678571D01*
X148011904Y-82773809D01*
X148011904Y-83011904D01*
X147964285Y-83107142D01*
X147916666Y-83154761D01*
X147821428Y-83202380D01*
X147535714Y-83202380D01*
X147440476Y-83154761D01*
X147392857Y-83107142D01*
X145535714Y-80952380D02*
X145535714Y-79952380D01*
X145773809Y-79952380D01*
X145916666Y-80000000D01*
X146011904Y-80095238D01*
X146059523Y-80190476D01*
X146107142Y-80380952D01*
X146107142Y-80523809D01*
X146059523Y-80714285D01*
X146011904Y-80809523D01*
X145916666Y-80904761D01*
X145773809Y-80952380D01*
X145535714Y-80952380D01*
X147059523Y-80952380D02*
X146488095Y-80952380D01*
X146773809Y-80952380D02*
X146773809Y-79952380D01*
X146678571Y-80095238D01*
X146583333Y-80190476D01*
X146488095Y-80238095D01*
X147916666Y-80285714D02*
X147916666Y-80952380D01*
X147678571Y-79904761D02*
X147440476Y-80619047D01*
X148059523Y-80619047D01*
X145535714Y-78702380D02*
X145535714Y-77702380D01*
X145773809Y-77702380D01*
X145916666Y-77750000D01*
X146011904Y-77845238D01*
X146059523Y-77940476D01*
X146107142Y-78130952D01*
X146107142Y-78273809D01*
X146059523Y-78464285D01*
X146011904Y-78559523D01*
X145916666Y-78654761D01*
X145773809Y-78702380D01*
X145535714Y-78702380D01*
X147059523Y-78702380D02*
X146488095Y-78702380D01*
X146773809Y-78702380D02*
X146773809Y-77702380D01*
X146678571Y-77845238D01*
X146583333Y-77940476D01*
X146488095Y-77988095D01*
X147964285Y-77702380D02*
X147488095Y-77702380D01*
X147440476Y-78178571D01*
X147488095Y-78130952D01*
X147583333Y-78083333D01*
X147821428Y-78083333D01*
X147916666Y-78130952D01*
X147964285Y-78178571D01*
X148011904Y-78273809D01*
X148011904Y-78511904D01*
X147964285Y-78607142D01*
X147916666Y-78654761D01*
X147821428Y-78702380D01*
X147583333Y-78702380D01*
X147488095Y-78654761D01*
X147440476Y-78607142D01*
X145535714Y-76452380D02*
X145535714Y-75452380D01*
X145773809Y-75452380D01*
X145916666Y-75500000D01*
X146011904Y-75595238D01*
X146059523Y-75690476D01*
X146107142Y-75880952D01*
X146107142Y-76023809D01*
X146059523Y-76214285D01*
X146011904Y-76309523D01*
X145916666Y-76404761D01*
X145773809Y-76452380D01*
X145535714Y-76452380D01*
X147059523Y-76452380D02*
X146488095Y-76452380D01*
X146773809Y-76452380D02*
X146773809Y-75452380D01*
X146678571Y-75595238D01*
X146583333Y-75690476D01*
X146488095Y-75738095D01*
X147916666Y-75452380D02*
X147726190Y-75452380D01*
X147630952Y-75500000D01*
X147583333Y-75547619D01*
X147488095Y-75690476D01*
X147440476Y-75880952D01*
X147440476Y-76261904D01*
X147488095Y-76357142D01*
X147535714Y-76404761D01*
X147630952Y-76452380D01*
X147821428Y-76452380D01*
X147916666Y-76404761D01*
X147964285Y-76357142D01*
X148011904Y-76261904D01*
X148011904Y-76023809D01*
X147964285Y-75928571D01*
X147916666Y-75880952D01*
X147821428Y-75833333D01*
X147630952Y-75833333D01*
X147535714Y-75880952D01*
X147488095Y-75928571D01*
X147440476Y-76023809D01*
X106983333Y-73152380D02*
X106650000Y-72676190D01*
X106411904Y-73152380D02*
X106411904Y-72152380D01*
X106792857Y-72152380D01*
X106888095Y-72200000D01*
X106935714Y-72247619D01*
X106983333Y-72342857D01*
X106983333Y-72485714D01*
X106935714Y-72580952D01*
X106888095Y-72628571D01*
X106792857Y-72676190D01*
X106411904Y-72676190D01*
X107935714Y-73152380D02*
X107364285Y-73152380D01*
X107650000Y-73152380D02*
X107650000Y-72152380D01*
X107554761Y-72295238D01*
X107459523Y-72390476D01*
X107364285Y-72438095D01*
X109083333Y-73152380D02*
X108750000Y-72676190D01*
X108511904Y-73152380D02*
X108511904Y-72152380D01*
X108892857Y-72152380D01*
X108988095Y-72200000D01*
X109035714Y-72247619D01*
X109083333Y-72342857D01*
X109083333Y-72485714D01*
X109035714Y-72580952D01*
X108988095Y-72628571D01*
X108892857Y-72676190D01*
X108511904Y-72676190D01*
X109464285Y-72247619D02*
X109511904Y-72200000D01*
X109607142Y-72152380D01*
X109845238Y-72152380D01*
X109940476Y-72200000D01*
X109988095Y-72247619D01*
X110035714Y-72342857D01*
X110035714Y-72438095D01*
X109988095Y-72580952D01*
X109416666Y-73152380D01*
X110035714Y-73152380D01*
X114683333Y-73252380D02*
X114350000Y-72776190D01*
X114111904Y-73252380D02*
X114111904Y-72252380D01*
X114492857Y-72252380D01*
X114588095Y-72300000D01*
X114635714Y-72347619D01*
X114683333Y-72442857D01*
X114683333Y-72585714D01*
X114635714Y-72680952D01*
X114588095Y-72728571D01*
X114492857Y-72776190D01*
X114111904Y-72776190D01*
X115016666Y-72252380D02*
X115635714Y-72252380D01*
X115302380Y-72633333D01*
X115445238Y-72633333D01*
X115540476Y-72680952D01*
X115588095Y-72728571D01*
X115635714Y-72823809D01*
X115635714Y-73061904D01*
X115588095Y-73157142D01*
X115540476Y-73204761D01*
X115445238Y-73252380D01*
X115159523Y-73252380D01*
X115064285Y-73204761D01*
X115016666Y-73157142D01*
X116683333Y-73252380D02*
X116350000Y-72776190D01*
X116111904Y-73252380D02*
X116111904Y-72252380D01*
X116492857Y-72252380D01*
X116588095Y-72300000D01*
X116635714Y-72347619D01*
X116683333Y-72442857D01*
X116683333Y-72585714D01*
X116635714Y-72680952D01*
X116588095Y-72728571D01*
X116492857Y-72776190D01*
X116111904Y-72776190D01*
X117540476Y-72585714D02*
X117540476Y-73252380D01*
X117302380Y-72204761D02*
X117064285Y-72919047D01*
X117683333Y-72919047D01*
X105633333Y-87152380D02*
X105300000Y-86676190D01*
X105061904Y-87152380D02*
X105061904Y-86152380D01*
X105442857Y-86152380D01*
X105538095Y-86200000D01*
X105585714Y-86247619D01*
X105633333Y-86342857D01*
X105633333Y-86485714D01*
X105585714Y-86580952D01*
X105538095Y-86628571D01*
X105442857Y-86676190D01*
X105061904Y-86676190D01*
X106538095Y-86152380D02*
X106061904Y-86152380D01*
X106014285Y-86628571D01*
X106061904Y-86580952D01*
X106157142Y-86533333D01*
X106395238Y-86533333D01*
X106490476Y-86580952D01*
X106538095Y-86628571D01*
X106585714Y-86723809D01*
X106585714Y-86961904D01*
X106538095Y-87057142D01*
X106490476Y-87104761D01*
X106395238Y-87152380D01*
X106157142Y-87152380D01*
X106061904Y-87104761D01*
X106014285Y-87057142D01*
X109933333Y-87152380D02*
X109600000Y-86676190D01*
X109361904Y-87152380D02*
X109361904Y-86152380D01*
X109742857Y-86152380D01*
X109838095Y-86200000D01*
X109885714Y-86247619D01*
X109933333Y-86342857D01*
X109933333Y-86485714D01*
X109885714Y-86580952D01*
X109838095Y-86628571D01*
X109742857Y-86676190D01*
X109361904Y-86676190D01*
X110790476Y-86152380D02*
X110600000Y-86152380D01*
X110504761Y-86200000D01*
X110457142Y-86247619D01*
X110361904Y-86390476D01*
X110314285Y-86580952D01*
X110314285Y-86961904D01*
X110361904Y-87057142D01*
X110409523Y-87104761D01*
X110504761Y-87152380D01*
X110695238Y-87152380D01*
X110790476Y-87104761D01*
X110838095Y-87057142D01*
X110885714Y-86961904D01*
X110885714Y-86723809D01*
X110838095Y-86628571D01*
X110790476Y-86580952D01*
X110695238Y-86533333D01*
X110504761Y-86533333D01*
X110409523Y-86580952D01*
X110361904Y-86628571D01*
X110314285Y-86723809D01*
X114033333Y-87152380D02*
X113700000Y-86676190D01*
X113461904Y-87152380D02*
X113461904Y-86152380D01*
X113842857Y-86152380D01*
X113938095Y-86200000D01*
X113985714Y-86247619D01*
X114033333Y-86342857D01*
X114033333Y-86485714D01*
X113985714Y-86580952D01*
X113938095Y-86628571D01*
X113842857Y-86676190D01*
X113461904Y-86676190D01*
X114366666Y-86152380D02*
X115033333Y-86152380D01*
X114604761Y-87152380D01*
X117833333Y-87152380D02*
X117500000Y-86676190D01*
X117261904Y-87152380D02*
X117261904Y-86152380D01*
X117642857Y-86152380D01*
X117738095Y-86200000D01*
X117785714Y-86247619D01*
X117833333Y-86342857D01*
X117833333Y-86485714D01*
X117785714Y-86580952D01*
X117738095Y-86628571D01*
X117642857Y-86676190D01*
X117261904Y-86676190D01*
X118404761Y-86580952D02*
X118309523Y-86533333D01*
X118261904Y-86485714D01*
X118214285Y-86390476D01*
X118214285Y-86342857D01*
X118261904Y-86247619D01*
X118309523Y-86200000D01*
X118404761Y-86152380D01*
X118595238Y-86152380D01*
X118690476Y-86200000D01*
X118738095Y-86247619D01*
X118785714Y-86342857D01*
X118785714Y-86390476D01*
X118738095Y-86485714D01*
X118690476Y-86533333D01*
X118595238Y-86580952D01*
X118404761Y-86580952D01*
X118309523Y-86628571D01*
X118261904Y-86676190D01*
X118214285Y-86771428D01*
X118214285Y-86961904D01*
X118261904Y-87057142D01*
X118309523Y-87104761D01*
X118404761Y-87152380D01*
X118595238Y-87152380D01*
X118690476Y-87104761D01*
X118738095Y-87057142D01*
X118785714Y-86961904D01*
X118785714Y-86771428D01*
X118738095Y-86676190D01*
X118690476Y-86628571D01*
X118595238Y-86580952D01*
X137133333Y-92252380D02*
X136800000Y-91776190D01*
X136561904Y-92252380D02*
X136561904Y-91252380D01*
X136942857Y-91252380D01*
X137038095Y-91300000D01*
X137085714Y-91347619D01*
X137133333Y-91442857D01*
X137133333Y-91585714D01*
X137085714Y-91680952D01*
X137038095Y-91728571D01*
X136942857Y-91776190D01*
X136561904Y-91776190D01*
X137609523Y-92252380D02*
X137800000Y-92252380D01*
X137895238Y-92204761D01*
X137942857Y-92157142D01*
X138038095Y-92014285D01*
X138085714Y-91823809D01*
X138085714Y-91442857D01*
X138038095Y-91347619D01*
X137990476Y-91300000D01*
X137895238Y-91252380D01*
X137704761Y-91252380D01*
X137609523Y-91300000D01*
X137561904Y-91347619D01*
X137514285Y-91442857D01*
X137514285Y-91680952D01*
X137561904Y-91776190D01*
X137609523Y-91823809D01*
X137704761Y-91871428D01*
X137895238Y-91871428D01*
X137990476Y-91823809D01*
X138038095Y-91776190D01*
X138085714Y-91680952D01*
X136257142Y-89952380D02*
X135923809Y-89476190D01*
X135685714Y-89952380D02*
X135685714Y-88952380D01*
X136066666Y-88952380D01*
X136161904Y-89000000D01*
X136209523Y-89047619D01*
X136257142Y-89142857D01*
X136257142Y-89285714D01*
X136209523Y-89380952D01*
X136161904Y-89428571D01*
X136066666Y-89476190D01*
X135685714Y-89476190D01*
X137209523Y-89952380D02*
X136638095Y-89952380D01*
X136923809Y-89952380D02*
X136923809Y-88952380D01*
X136828571Y-89095238D01*
X136733333Y-89190476D01*
X136638095Y-89238095D01*
X137828571Y-88952380D02*
X137923809Y-88952380D01*
X138019047Y-89000000D01*
X138066666Y-89047619D01*
X138114285Y-89142857D01*
X138161904Y-89333333D01*
X138161904Y-89571428D01*
X138114285Y-89761904D01*
X138066666Y-89857142D01*
X138019047Y-89904761D01*
X137923809Y-89952380D01*
X137828571Y-89952380D01*
X137733333Y-89904761D01*
X137685714Y-89857142D01*
X137638095Y-89761904D01*
X137590476Y-89571428D01*
X137590476Y-89333333D01*
X137638095Y-89142857D01*
X137685714Y-89047619D01*
X137733333Y-89000000D01*
X137828571Y-88952380D01*
X136257142Y-87652380D02*
X135923809Y-87176190D01*
X135685714Y-87652380D02*
X135685714Y-86652380D01*
X136066666Y-86652380D01*
X136161904Y-86700000D01*
X136209523Y-86747619D01*
X136257142Y-86842857D01*
X136257142Y-86985714D01*
X136209523Y-87080952D01*
X136161904Y-87128571D01*
X136066666Y-87176190D01*
X135685714Y-87176190D01*
X137209523Y-87652380D02*
X136638095Y-87652380D01*
X136923809Y-87652380D02*
X136923809Y-86652380D01*
X136828571Y-86795238D01*
X136733333Y-86890476D01*
X136638095Y-86938095D01*
X138161904Y-87652380D02*
X137590476Y-87652380D01*
X137876190Y-87652380D02*
X137876190Y-86652380D01*
X137780952Y-86795238D01*
X137685714Y-86890476D01*
X137590476Y-86938095D01*
X136257142Y-85452380D02*
X135923809Y-84976190D01*
X135685714Y-85452380D02*
X135685714Y-84452380D01*
X136066666Y-84452380D01*
X136161904Y-84500000D01*
X136209523Y-84547619D01*
X136257142Y-84642857D01*
X136257142Y-84785714D01*
X136209523Y-84880952D01*
X136161904Y-84928571D01*
X136066666Y-84976190D01*
X135685714Y-84976190D01*
X137209523Y-85452380D02*
X136638095Y-85452380D01*
X136923809Y-85452380D02*
X136923809Y-84452380D01*
X136828571Y-84595238D01*
X136733333Y-84690476D01*
X136638095Y-84738095D01*
X137590476Y-84547619D02*
X137638095Y-84500000D01*
X137733333Y-84452380D01*
X137971428Y-84452380D01*
X138066666Y-84500000D01*
X138114285Y-84547619D01*
X138161904Y-84642857D01*
X138161904Y-84738095D01*
X138114285Y-84880952D01*
X137542857Y-85452380D01*
X138161904Y-85452380D01*
X136257142Y-83252380D02*
X135923809Y-82776190D01*
X135685714Y-83252380D02*
X135685714Y-82252380D01*
X136066666Y-82252380D01*
X136161904Y-82300000D01*
X136209523Y-82347619D01*
X136257142Y-82442857D01*
X136257142Y-82585714D01*
X136209523Y-82680952D01*
X136161904Y-82728571D01*
X136066666Y-82776190D01*
X135685714Y-82776190D01*
X137209523Y-83252380D02*
X136638095Y-83252380D01*
X136923809Y-83252380D02*
X136923809Y-82252380D01*
X136828571Y-82395238D01*
X136733333Y-82490476D01*
X136638095Y-82538095D01*
X137542857Y-82252380D02*
X138161904Y-82252380D01*
X137828571Y-82633333D01*
X137971428Y-82633333D01*
X138066666Y-82680952D01*
X138114285Y-82728571D01*
X138161904Y-82823809D01*
X138161904Y-83061904D01*
X138114285Y-83157142D01*
X138066666Y-83204761D01*
X137971428Y-83252380D01*
X137685714Y-83252380D01*
X137590476Y-83204761D01*
X137542857Y-83157142D01*
X136157142Y-80952380D02*
X135823809Y-80476190D01*
X135585714Y-80952380D02*
X135585714Y-79952380D01*
X135966666Y-79952380D01*
X136061904Y-80000000D01*
X136109523Y-80047619D01*
X136157142Y-80142857D01*
X136157142Y-80285714D01*
X136109523Y-80380952D01*
X136061904Y-80428571D01*
X135966666Y-80476190D01*
X135585714Y-80476190D01*
X137109523Y-80952380D02*
X136538095Y-80952380D01*
X136823809Y-80952380D02*
X136823809Y-79952380D01*
X136728571Y-80095238D01*
X136633333Y-80190476D01*
X136538095Y-80238095D01*
X137966666Y-80285714D02*
X137966666Y-80952380D01*
X137728571Y-79904761D02*
X137490476Y-80619047D01*
X138109523Y-80619047D01*
X136107142Y-78702380D02*
X135773809Y-78226190D01*
X135535714Y-78702380D02*
X135535714Y-77702380D01*
X135916666Y-77702380D01*
X136011904Y-77750000D01*
X136059523Y-77797619D01*
X136107142Y-77892857D01*
X136107142Y-78035714D01*
X136059523Y-78130952D01*
X136011904Y-78178571D01*
X135916666Y-78226190D01*
X135535714Y-78226190D01*
X137059523Y-78702380D02*
X136488095Y-78702380D01*
X136773809Y-78702380D02*
X136773809Y-77702380D01*
X136678571Y-77845238D01*
X136583333Y-77940476D01*
X136488095Y-77988095D01*
X137964285Y-77702380D02*
X137488095Y-77702380D01*
X137440476Y-78178571D01*
X137488095Y-78130952D01*
X137583333Y-78083333D01*
X137821428Y-78083333D01*
X137916666Y-78130952D01*
X137964285Y-78178571D01*
X138011904Y-78273809D01*
X138011904Y-78511904D01*
X137964285Y-78607142D01*
X137916666Y-78654761D01*
X137821428Y-78702380D01*
X137583333Y-78702380D01*
X137488095Y-78654761D01*
X137440476Y-78607142D01*
X136107142Y-76452380D02*
X135773809Y-75976190D01*
X135535714Y-76452380D02*
X135535714Y-75452380D01*
X135916666Y-75452380D01*
X136011904Y-75500000D01*
X136059523Y-75547619D01*
X136107142Y-75642857D01*
X136107142Y-75785714D01*
X136059523Y-75880952D01*
X136011904Y-75928571D01*
X135916666Y-75976190D01*
X135535714Y-75976190D01*
X137059523Y-76452380D02*
X136488095Y-76452380D01*
X136773809Y-76452380D02*
X136773809Y-75452380D01*
X136678571Y-75595238D01*
X136583333Y-75690476D01*
X136488095Y-75738095D01*
X137916666Y-75452380D02*
X137726190Y-75452380D01*
X137630952Y-75500000D01*
X137583333Y-75547619D01*
X137488095Y-75690476D01*
X137440476Y-75880952D01*
X137440476Y-76261904D01*
X137488095Y-76357142D01*
X137535714Y-76404761D01*
X137630952Y-76452380D01*
X137821428Y-76452380D01*
X137916666Y-76404761D01*
X137964285Y-76357142D01*
X138011904Y-76261904D01*
X138011904Y-76023809D01*
X137964285Y-75928571D01*
X137916666Y-75880952D01*
X137821428Y-75833333D01*
X137630952Y-75833333D01*
X137535714Y-75880952D01*
X137488095Y-75928571D01*
X137440476Y-76023809D01*
X126238095Y-77202380D02*
X126238095Y-78011904D01*
X126285714Y-78107142D01*
X126333333Y-78154761D01*
X126428571Y-78202380D01*
X126619047Y-78202380D01*
X126714285Y-78154761D01*
X126761904Y-78107142D01*
X126809523Y-78011904D01*
X126809523Y-77202380D01*
X127238095Y-77297619D02*
X127285714Y-77250000D01*
X127380952Y-77202380D01*
X127619047Y-77202380D01*
X127714285Y-77250000D01*
X127761904Y-77297619D01*
X127809523Y-77392857D01*
X127809523Y-77488095D01*
X127761904Y-77630952D01*
X127190476Y-78202380D01*
X127809523Y-78202380D01*
M02*
